<svg width="158" height="158" viewBox="0 0 158 158" fill="none" xmlns="http://www.w3.org/2000/svg">
<g filter="url(#filter0_d)">
<circle cx="67.056" cy="80.5393" r="67.056" fill="#FFC4C4"/>
</g>
<g filter="url(#filter1_d)">
<circle cx="71.056" cy="74.5393" r="67.556" stroke="black"/>
</g>
<g filter="url(#filter2_d)">
<path d="M22.952 78.508C23.344 78.788 23.8573 79.0307 24.492 79.236C25.1453 79.4413 25.892 79.544 26.732 79.544C28.02 79.544 28.9907 79.2547 29.644 78.676C30.2973 78.0787 30.7267 77.192 30.932 76.016C31.156 74.84 31.268 73.3747 31.268 71.62V61.12H33.228V71.228C33.228 72.7213 33.1533 74.084 33.004 75.316C32.8547 76.548 32.5653 77.612 32.136 78.508C31.7067 79.404 31.0627 80.0947 30.204 80.58C29.3453 81.0653 28.2067 81.308 26.788 81.308C25.8733 81.308 25.0613 81.2053 24.352 81C23.6427 80.7947 22.9893 80.4867 22.392 80.076L22.952 78.508ZM43.5504 81.28C42.1504 81.28 40.8997 80.9347 39.7984 80.244C38.7157 79.5533 37.8664 78.6387 37.2504 77.5C36.6344 76.3427 36.3264 75.092 36.3264 73.748C36.3264 72.3853 36.6344 71.1347 37.2504 69.996C37.885 68.8387 38.7437 67.9147 39.8264 67.224C40.9277 66.5147 42.169 66.16 43.5504 66.16C44.9504 66.16 46.1917 66.5147 47.2744 67.224C48.3757 67.9147 49.2344 68.8387 49.8504 69.996C50.485 71.1347 50.8024 72.3853 50.8024 73.748C50.8024 75.092 50.4944 76.3427 49.8784 77.5C49.2624 78.6387 48.4037 79.5533 47.3024 80.244C46.2197 80.9347 44.969 81.28 43.5504 81.28ZM38.2584 73.776C38.2584 74.8587 38.4917 75.848 38.9584 76.744C39.4437 77.6213 40.0877 78.3213 40.8904 78.844C41.693 79.348 42.5797 79.6 43.5504 79.6C44.521 79.6 45.4077 79.3387 46.2104 78.816C47.013 78.2933 47.657 77.584 48.1424 76.688C48.6277 75.792 48.8704 74.8027 48.8704 73.72C48.8704 72.6373 48.6277 71.648 48.1424 70.752C47.657 69.856 47.013 69.1467 46.2104 68.624C45.4077 68.1013 44.521 67.84 43.5504 67.84C42.5984 67.84 41.721 68.1107 40.9184 68.652C40.1157 69.1747 39.4717 69.884 38.9864 70.78C38.501 71.676 38.2584 72.6747 38.2584 73.776ZM53.8467 74.98V66.412H55.7507V74.644C55.7507 77.948 56.8801 79.6 59.1387 79.6C60.2587 79.6 61.3041 79.236 62.2747 78.508C63.2641 77.78 63.9734 76.8093 64.4027 75.596V66.412H66.3067V78.704C66.3067 79.208 66.5307 79.4693 66.9787 79.488V81C66.7547 81.0373 66.5774 81.056 66.4467 81.056C66.3347 81.056 66.2134 81.056 66.0827 81.056C65.6907 81.0187 65.3547 80.8693 65.0747 80.608C64.8134 80.3467 64.6827 80.0293 64.6827 79.656L64.6267 77.696C63.9921 78.8347 63.1241 79.7213 62.0227 80.356C60.9401 80.972 59.7641 81.28 58.4947 81.28C55.3961 81.28 53.8467 79.18 53.8467 74.98ZM77.8917 68.092C76.6224 68.1293 75.5024 68.484 74.5317 69.156C73.5797 69.828 72.9077 70.752 72.5157 71.928V81H70.6117V66.412H72.4037V69.912C72.9077 68.8853 73.5704 68.0547 74.3917 67.42C75.2317 66.7853 76.1184 66.4307 77.0517 66.356C77.2384 66.3373 77.3971 66.328 77.5277 66.328C77.6584 66.328 77.7797 66.3373 77.8917 66.356V68.092ZM92.6921 81H90.7881V72.852C90.7881 71.1347 90.5268 69.884 90.0041 69.1C89.5001 68.2973 88.7161 67.896 87.6521 67.896C86.9055 67.896 86.1681 68.0827 85.4401 68.456C84.7121 68.8107 84.0681 69.3053 83.5081 69.94C82.9668 70.556 82.5748 71.2653 82.3321 72.068V81H80.4281V66.412H82.1641V69.716C82.7428 68.652 83.5921 67.7933 84.7121 67.14C85.8321 66.4867 87.0455 66.16 88.3521 66.16C89.4348 66.16 90.2935 66.4213 90.9281 66.944C91.5628 67.448 92.0108 68.176 92.2721 69.128C92.5521 70.0613 92.6921 71.172 92.6921 72.46V81ZM95.5763 76.8C95.5763 75.904 95.8377 75.1293 96.3603 74.476C96.883 73.804 97.6017 73.2813 98.5163 72.908C99.4497 72.5347 100.523 72.348 101.736 72.348C102.446 72.348 103.183 72.4133 103.948 72.544C104.714 72.656 105.395 72.8147 105.992 73.02V71.788C105.992 70.556 105.628 69.576 104.9 68.848C104.172 68.12 103.164 67.756 101.876 67.756C101.111 67.756 100.346 67.9053 99.5803 68.204C98.815 68.484 98.0217 68.904 97.2003 69.464L96.4723 68.12C97.4243 67.4667 98.3577 66.9813 99.2723 66.664C100.187 66.328 101.12 66.16 102.072 66.16C103.864 66.16 105.283 66.6733 106.328 67.7C107.374 68.7267 107.896 70.1453 107.896 71.956V78.704C107.896 79.208 108.13 79.4693 108.596 79.488V81C108.186 81.056 107.896 81.0747 107.728 81.056C107.262 81.0373 106.907 80.888 106.664 80.608C106.422 80.328 106.291 80.0293 106.272 79.712L106.244 78.648C105.591 79.488 104.742 80.1413 103.696 80.608C102.651 81.056 101.587 81.28 100.504 81.28C99.5523 81.28 98.703 81.084 97.9563 80.692C97.2097 80.2813 96.6217 79.74 96.1923 79.068C95.7817 78.3773 95.5763 77.6213 95.5763 76.8ZM105.348 77.92C105.778 77.416 105.992 76.9493 105.992 76.52V74.392C104.704 73.888 103.36 73.636 101.96 73.636C100.598 73.636 99.4963 73.9067 98.6563 74.448C97.8163 74.9893 97.3963 75.7267 97.3963 76.66C97.3963 77.4627 97.7043 78.1907 98.3203 78.844C98.955 79.4973 99.8323 79.824 100.952 79.824C101.867 79.824 102.716 79.6467 103.5 79.292C104.303 78.9373 104.919 78.48 105.348 77.92ZM112.094 60.56H113.998V77.696C113.998 78.424 114.119 78.9 114.362 79.124C114.623 79.348 114.95 79.46 115.342 79.46C115.678 79.46 116.014 79.4227 116.35 79.348C116.705 79.2733 116.994 79.1987 117.218 79.124L117.554 80.664C117.199 80.8133 116.761 80.9347 116.238 81.028C115.734 81.1213 115.295 81.168 114.922 81.168C114.063 81.168 113.373 80.916 112.85 80.412C112.346 79.908 112.094 79.2173 112.094 78.34V60.56Z" fill="black"/>
</g>
<defs>
<filter id="filter0_d" x="0" y="7.48328" width="152.112" height="150.112" filterUnits="userSpaceOnUse" color-interpolation-filters="sRGB">
<feFlood flood-opacity="0" result="BackgroundImageFix"/>
<feColorMatrix in="SourceAlpha" type="matrix" values="0 0 0 0 0 0 0 0 0 0 0 0 0 0 0 0 0 0 127 0" result="hardAlpha"/>
<feOffset dx="10" dy="2"/>
<feGaussianBlur stdDeviation="4"/>
<feColorMatrix type="matrix" values="0 0 0 0 0 0 0 0 0 0 0 0 0 0 0 0 0 0 0.25 0"/>
<feBlend mode="normal" in2="BackgroundImageFix" result="effect1_dropShadow"/>
<feBlend mode="normal" in="SourceGraphic" in2="effect1_dropShadow" result="shape"/>
</filter>
<filter id="filter1_d" x="3" y="0.483276" width="154.112" height="152.112" filterUnits="userSpaceOnUse" color-interpolation-filters="sRGB">
<feFlood flood-opacity="0" result="BackgroundImageFix"/>
<feColorMatrix in="SourceAlpha" type="matrix" values="0 0 0 0 0 0 0 0 0 0 0 0 0 0 0 0 0 0 127 0" result="hardAlpha"/>
<feOffset dx="10" dy="2"/>
<feGaussianBlur stdDeviation="4"/>
<feColorMatrix type="matrix" values="0 0 0 0 0 0 0 0 0 0 0 0 0 0 0 0 0 0 0.25 0"/>
<feBlend mode="normal" in2="BackgroundImageFix" result="effect1_dropShadow"/>
<feBlend mode="normal" in="SourceGraphic" in2="effect1_dropShadow" result="shape"/>
</filter>
<filter id="filter2_d" x="22.392" y="54.56" width="113.162" height="36.748" filterUnits="userSpaceOnUse" color-interpolation-filters="sRGB">
<feFlood flood-opacity="0" result="BackgroundImageFix"/>
<feColorMatrix in="SourceAlpha" type="matrix" values="0 0 0 0 0 0 0 0 0 0 0 0 0 0 0 0 0 0 127 0" result="hardAlpha"/>
<feOffset dx="10" dy="2"/>
<feGaussianBlur stdDeviation="4"/>
<feColorMatrix type="matrix" values="0 0 0 0 0 0 0 0 0 0 0 0 0 0 0 0 0 0 0.25 0"/>
<feBlend mode="normal" in2="BackgroundImageFix" result="effect1_dropShadow"/>
<feBlend mode="normal" in="SourceGraphic" in2="effect1_dropShadow" result="shape"/>
</filter>
</defs>
</svg>
