<svg width="158" height="159" viewBox="0 0 158 159" fill="none" xmlns="http://www.w3.org/2000/svg">
<g filter="url(#filter0_d)">
<circle cx="67.056" cy="81.0226" r="67.056" fill="#CEE4F9"/>
</g>
<g filter="url(#filter1_d)">
<circle cx="71.1146" cy="74.944" r="67.556" stroke="black"/>
</g>
<g filter="url(#filter2_d)">
<path d="M15.848 72V49.28H25.256C26.2373 49.28 27.1333 49.4827 27.944 49.888C28.776 50.2933 29.4907 50.848 30.088 51.552C30.7067 52.2347 31.176 53.0027 31.496 53.856C31.8373 54.688 32.008 55.5413 32.008 56.416C32.008 57.6533 31.7307 58.8267 31.176 59.936C30.6213 61.024 29.8533 61.9093 28.872 62.592C27.8907 63.2747 26.7493 63.616 25.448 63.616H18.088V72H15.848ZM18.088 61.632H25.352C26.248 61.632 27.0267 61.3867 27.688 60.896C28.3493 60.4053 28.8613 59.7653 29.224 58.976C29.5867 58.1867 29.768 57.3333 29.768 56.416C29.768 55.4773 29.5547 54.624 29.128 53.856C28.7013 53.0667 28.136 52.4373 27.432 51.968C26.7493 51.4987 25.992 51.264 25.16 51.264H18.088V61.632ZM33.7747 67.2C33.7747 66.176 34.0734 65.2907 34.6708 64.544C35.2681 63.776 36.0894 63.1787 37.1348 62.752C38.2014 62.3253 39.4281 62.112 40.8148 62.112C41.6254 62.112 42.4681 62.1867 43.3428 62.336C44.2174 62.464 44.9961 62.6453 45.6788 62.88V61.472C45.6788 60.064 45.2628 58.944 44.4308 58.112C43.5988 57.28 42.4468 56.864 40.9748 56.864C40.1001 56.864 39.2254 57.0347 38.3508 57.376C37.4761 57.696 36.5694 58.176 35.6308 58.816L34.7988 57.28C35.8868 56.5333 36.9534 55.9787 37.9988 55.616C39.0441 55.232 40.1108 55.04 41.1988 55.04C43.2468 55.04 44.8681 55.6267 46.0628 56.8C47.2574 57.9733 47.8548 59.5947 47.8548 61.664V69.376C47.8548 69.952 48.1214 70.2507 48.6548 70.272V72C48.1854 72.064 47.8548 72.0853 47.6628 72.064C47.1294 72.0427 46.7241 71.872 46.4468 71.552C46.1694 71.232 46.0201 70.8907 45.9988 70.528L45.9668 69.312C45.2201 70.272 44.2494 71.0187 43.0548 71.552C41.8601 72.064 40.6441 72.32 39.4068 72.32C38.3188 72.32 37.3481 72.096 36.4948 71.648C35.6414 71.1787 34.9694 70.56 34.4788 69.792C34.0094 69.0027 33.7747 68.1387 33.7747 67.2ZM44.9428 68.48C45.4334 67.904 45.6788 67.3707 45.6788 66.88V64.448C44.2068 63.872 42.6708 63.584 41.0708 63.584C39.5134 63.584 38.2548 63.8933 37.2948 64.512C36.3348 65.1307 35.8548 65.9733 35.8548 67.04C35.8548 67.9573 36.2068 68.7893 36.9108 69.536C37.6361 70.2827 38.6388 70.656 39.9188 70.656C40.9641 70.656 41.9348 70.4533 42.8308 70.048C43.7481 69.6427 44.4521 69.12 44.9428 68.48ZM60.4313 71.2C60.1753 71.3067 59.7059 71.4987 59.0233 71.776C58.3406 72.0533 57.5513 72.192 56.6553 72.192C55.7166 72.192 54.8953 71.9253 54.1913 71.392C53.4873 70.8587 53.1353 70.0587 53.1353 68.992V57.056H50.8313V55.328H53.1353V49.696H55.3113V55.328H59.1513V57.056H55.3113V68.384C55.3539 69.0027 55.5673 69.4613 55.9513 69.76C56.3566 70.0373 56.8153 70.176 57.3273 70.176C57.9246 70.176 58.4579 70.08 58.9273 69.888C59.4179 69.6747 59.7273 69.5253 59.8553 69.44L60.4313 71.2ZM63.15 51.84V48.64H65.326V51.84H63.15ZM63.15 72V55.328H65.326V72H63.15ZM77.3188 72.32C75.7188 72.32 74.2894 71.9253 73.0308 71.136C71.7721 70.3467 70.7801 69.2907 70.0548 67.968C69.3294 66.6453 68.9668 65.1947 68.9668 63.616C68.9668 62.0587 69.3188 60.6293 70.0228 59.328C70.7481 58.0267 71.7401 56.992 72.9988 56.224C74.2574 55.4347 75.6868 55.04 77.2868 55.04C78.9294 55.04 80.3694 55.4347 81.6068 56.224C82.8441 57.0133 83.8041 58.0587 84.4868 59.36C85.1908 60.64 85.5428 62.048 85.5428 63.584C85.5428 63.9253 85.5321 64.2133 85.5108 64.448H71.2388C71.3454 65.6427 71.6868 66.7093 72.2628 67.648C72.8388 68.5653 73.5748 69.3013 74.4708 69.856C75.3668 70.3893 76.3481 70.656 77.4148 70.656C78.5028 70.656 79.5268 70.3787 80.4868 69.824C81.4468 69.2693 82.1294 68.544 82.5348 67.648L84.4228 68.16C84.0814 68.9707 83.5481 69.696 82.8228 70.336C82.1188 70.9547 81.2974 71.4453 80.3588 71.808C79.4201 72.1493 78.4068 72.32 77.3188 72.32ZM71.1748 62.88H83.4948C83.4094 61.6853 83.0788 60.6293 82.5028 59.712C81.9268 58.7733 81.1908 58.048 80.2948 57.536C79.3988 57.0027 78.4068 56.736 77.3188 56.736C76.2308 56.736 75.2388 57.0027 74.3428 57.536C73.4468 58.048 72.7108 58.7733 72.1348 59.712C71.5801 60.6293 71.2601 61.6853 71.1748 62.88ZM102.916 72H100.74V62.688C100.74 60.7253 100.441 59.296 99.844 58.4C99.268 57.4827 98.372 57.024 97.156 57.024C96.3027 57.024 95.46 57.2373 94.628 57.664C93.796 58.0693 93.06 58.6347 92.42 59.36C91.8013 60.064 91.3533 60.8747 91.076 61.792V72H88.9V55.328H90.884V59.104C91.5453 57.888 92.516 56.9067 93.796 56.16C95.076 55.4133 96.4627 55.04 97.956 55.04C99.1933 55.04 100.175 55.3387 100.9 55.936C101.625 56.512 102.137 57.344 102.436 58.432C102.756 59.4987 102.916 60.768 102.916 62.24V72ZM115.4 71.2C115.144 71.3067 114.675 71.4987 113.992 71.776C113.309 72.0533 112.52 72.192 111.624 72.192C110.685 72.192 109.864 71.9253 109.16 71.392C108.456 70.8587 108.104 70.0587 108.104 68.992V57.056H105.8V55.328H108.104V49.696H110.28V55.328H114.12V57.056H110.28V68.384C110.323 69.0027 110.536 69.4613 110.92 69.76C111.325 70.0373 111.784 70.176 112.296 70.176C112.893 70.176 113.427 70.08 113.896 69.888C114.387 69.6747 114.696 69.5253 114.824 69.44L115.4 71.2ZM29.416 110H27.24V100.688C27.24 96.912 25.96 95.024 23.4 95.024C22.568 95.024 21.7573 95.2373 20.968 95.664C20.1787 96.0693 19.4747 96.6347 18.856 97.36C18.2587 98.064 17.832 98.8747 17.576 99.792V110H15.4V86.64H17.576V97.104C18.2373 95.8667 19.1547 94.8853 20.328 94.16C21.5227 93.4133 22.792 93.04 24.136 93.04C25.416 93.04 26.44 93.3493 27.208 93.968C27.976 94.5653 28.5307 95.408 28.872 96.496C29.2347 97.5627 29.416 98.8107 29.416 100.24V110ZM34.0563 89.84V86.64H36.2323V89.84H34.0563ZM34.0563 110V93.328H36.2323V110H34.0563ZM46.497 110.32C45.1317 110.32 43.8623 110.096 42.689 109.648C41.537 109.179 40.5237 108.496 39.649 107.6L40.545 106.064C41.4837 106.939 42.4223 107.579 43.361 107.984C44.321 108.368 45.3343 108.56 46.401 108.56C47.681 108.56 48.7263 108.304 49.537 107.792C50.369 107.259 50.785 106.501 50.785 105.52C50.785 104.859 50.5823 104.357 50.177 104.016C49.793 103.653 49.2277 103.365 48.481 103.152C47.7557 102.939 46.881 102.693 45.857 102.416C44.705 102.096 43.7343 101.765 42.945 101.424C42.177 101.061 41.5903 100.613 41.185 100.08C40.801 99.5253 40.609 98.8107 40.609 97.936C40.609 96.8693 40.8757 95.9733 41.409 95.248C41.9637 94.5227 42.7103 93.9787 43.649 93.616C44.609 93.232 45.6757 93.04 46.849 93.04C48.129 93.04 49.2597 93.2427 50.241 93.648C51.2223 94.0533 52.0223 94.6187 52.641 95.344L51.585 96.816C51.009 96.1333 50.2943 95.632 49.441 95.312C48.609 94.9707 47.7023 94.8 46.721 94.8C46.0383 94.8 45.3877 94.896 44.769 95.088C44.1503 95.2587 43.6383 95.5573 43.233 95.984C42.849 96.3893 42.657 96.9547 42.657 97.68C42.657 98.576 42.9877 99.1947 43.649 99.536C44.3103 99.8773 45.313 100.24 46.657 100.624C47.9157 100.965 49.0143 101.307 49.953 101.648C50.8917 101.989 51.617 102.448 52.129 103.024C52.641 103.579 52.897 104.357 52.897 105.36C52.897 106.917 52.3103 108.133 51.137 109.008C49.9637 109.883 48.417 110.32 46.497 110.32ZM64.4938 109.2C64.2378 109.307 63.7684 109.499 63.0858 109.776C62.4031 110.053 61.6138 110.192 60.7178 110.192C59.7791 110.192 58.9578 109.925 58.2538 109.392C57.5498 108.859 57.1978 108.059 57.1978 106.992V95.056H54.8938V93.328H57.1978V87.696H59.3738V93.328H63.2138V95.056H59.3738V106.384C59.4164 107.003 59.6298 107.461 60.0138 107.76C60.4191 108.037 60.8778 108.176 61.3898 108.176C61.9871 108.176 62.5204 108.08 62.9898 107.888C63.4804 107.675 63.7898 107.525 63.9178 107.44L64.4938 109.2ZM74.0353 110.32C72.4353 110.32 71.0059 109.925 69.7473 109.136C68.5099 108.347 67.5393 107.301 66.8353 106C66.1313 104.677 65.7793 103.248 65.7793 101.712C65.7793 100.155 66.1313 98.7253 66.8353 97.424C67.5606 96.1013 68.5419 95.0453 69.7793 94.256C71.0379 93.4453 72.4566 93.04 74.0353 93.04C75.6353 93.04 77.0539 93.4453 78.2913 94.256C79.5499 95.0453 80.5313 96.1013 81.2353 97.424C81.9606 98.7253 82.3233 100.155 82.3233 101.712C82.3233 103.248 81.9713 104.677 81.2673 106C80.5633 107.301 79.5819 108.347 78.3233 109.136C77.0859 109.925 75.6566 110.32 74.0353 110.32ZM67.9873 101.744C67.9873 102.981 68.2539 104.112 68.7873 105.136C69.3419 106.139 70.0779 106.939 70.9953 107.536C71.9126 108.112 72.9259 108.4 74.0353 108.4C75.1446 108.4 76.1579 108.101 77.0753 107.504C77.9926 106.907 78.7286 106.096 79.2833 105.072C79.8379 104.048 80.1153 102.917 80.1153 101.68C80.1153 100.443 79.8379 99.312 79.2833 98.288C78.7286 97.264 77.9926 96.4533 77.0753 95.856C76.1579 95.2587 75.1446 94.96 74.0353 94.96C72.9473 94.96 71.9446 95.2693 71.0273 95.888C70.1099 96.4853 69.3739 97.296 68.8193 98.32C68.2646 99.344 67.9873 100.485 67.9873 101.744ZM94.2825 95.248C92.8318 95.2907 91.5518 95.696 90.4425 96.464C89.3545 97.232 88.5865 98.288 88.1385 99.632V110H85.9625V93.328H88.0105V97.328C88.5865 96.1547 89.3438 95.2053 90.2825 94.48C91.2425 93.7547 92.2558 93.3493 93.3225 93.264C93.5358 93.2427 93.7172 93.232 93.8665 93.232C94.0158 93.232 94.1545 93.2427 94.2825 93.264V95.248ZM98.1413 115.12C98.4399 115.141 98.7279 115.152 99.0052 115.152C99.2826 115.173 99.4853 115.163 99.6133 115.12C99.8693 115.099 100.104 114.949 100.317 114.672C100.552 114.416 100.829 113.925 101.149 113.2C101.491 112.496 101.949 111.429 102.525 110L95.2613 93.328H97.5653L103.677 107.76L109.309 93.328H111.485L102.845 114.832C102.611 115.451 102.216 115.984 101.661 116.432C101.107 116.88 100.371 117.115 99.4533 117.136C99.2613 117.157 99.0586 117.157 98.8453 117.136C98.6319 117.136 98.3973 117.115 98.1413 117.072V115.12Z" fill="#0A0909"/>
</g>
<defs>
<filter id="filter0_d" x="0" y="7.96655" width="152.112" height="150.112" filterUnits="userSpaceOnUse" color-interpolation-filters="sRGB">
<feFlood flood-opacity="0" result="BackgroundImageFix"/>
<feColorMatrix in="SourceAlpha" type="matrix" values="0 0 0 0 0 0 0 0 0 0 0 0 0 0 0 0 0 0 127 0" result="hardAlpha"/>
<feOffset dx="10" dy="2"/>
<feGaussianBlur stdDeviation="4"/>
<feColorMatrix type="matrix" values="0 0 0 0 0 0 0 0 0 0 0 0 0 0 0 0 0 0 0.25 0"/>
<feBlend mode="normal" in2="BackgroundImageFix" result="effect1_dropShadow"/>
<feBlend mode="normal" in="SourceGraphic" in2="effect1_dropShadow" result="shape"/>
</filter>
<filter id="filter1_d" x="3.05859" y="0.887939" width="154.112" height="152.112" filterUnits="userSpaceOnUse" color-interpolation-filters="sRGB">
<feFlood flood-opacity="0" result="BackgroundImageFix"/>
<feColorMatrix in="SourceAlpha" type="matrix" values="0 0 0 0 0 0 0 0 0 0 0 0 0 0 0 0 0 0 127 0" result="hardAlpha"/>
<feOffset dx="10" dy="2"/>
<feGaussianBlur stdDeviation="4"/>
<feColorMatrix type="matrix" values="0 0 0 0 0 0 0 0 0 0 0 0 0 0 0 0 0 0 0.25 0"/>
<feBlend mode="normal" in2="BackgroundImageFix" result="effect1_dropShadow"/>
<feBlend mode="normal" in="SourceGraphic" in2="effect1_dropShadow" result="shape"/>
</filter>
<filter id="filter2_d" x="15.3999" y="42.64" width="118" height="84.512" filterUnits="userSpaceOnUse" color-interpolation-filters="sRGB">
<feFlood flood-opacity="0" result="BackgroundImageFix"/>
<feColorMatrix in="SourceAlpha" type="matrix" values="0 0 0 0 0 0 0 0 0 0 0 0 0 0 0 0 0 0 127 0" result="hardAlpha"/>
<feOffset dx="10" dy="2"/>
<feGaussianBlur stdDeviation="4"/>
<feColorMatrix type="matrix" values="0 0 0 0 0 0 0 0 0 0 0 0 0 0 0 0 0 0 0.25 0"/>
<feBlend mode="normal" in2="BackgroundImageFix" result="effect1_dropShadow"/>
<feBlend mode="normal" in="SourceGraphic" in2="effect1_dropShadow" result="shape"/>
</filter>
</defs>
</svg>
