<svg width="158" height="158" viewBox="0 0 158 158" fill="none" xmlns="http://www.w3.org/2000/svg">
<g filter="url(#filter0_d)">
<circle cx="67.056" cy="80.056" r="67.056" fill="#E0E2FF"/>
</g>
<g filter="url(#filter1_d)">
<circle cx="71.056" cy="74.056" r="67.556" stroke="black"/>
</g>
<g filter="url(#filter2_d)">
<path d="M26.848 81V58.28H36.256C37.2373 58.28 38.1333 58.4827 38.944 58.888C39.776 59.2933 40.4907 59.848 41.088 60.552C41.7067 61.2347 42.176 62.0027 42.496 62.856C42.8373 63.688 43.008 64.5413 43.008 65.416C43.008 66.6533 42.7307 67.8267 42.176 68.936C41.6213 70.024 40.8533 70.9093 39.872 71.592C38.8907 72.2747 37.7493 72.616 36.448 72.616H29.088V81H26.848ZM29.088 70.632H36.352C37.248 70.632 38.0267 70.3867 38.688 69.896C39.3493 69.4053 39.8613 68.7653 40.224 67.976C40.5867 67.1867 40.768 66.3333 40.768 65.416C40.768 64.4773 40.5547 63.624 40.128 62.856C39.7013 62.0667 39.136 61.4373 38.432 60.968C37.7493 60.4987 36.992 60.264 36.16 60.264H29.088V70.632ZM54.6263 66.248C53.1756 66.2907 51.8956 66.696 50.7863 67.464C49.6983 68.232 48.9303 69.288 48.4823 70.632V81H46.3063V64.328H48.3543V68.328C48.9303 67.1547 49.6876 66.2053 50.6263 65.48C51.5863 64.7547 52.5996 64.3493 53.6663 64.264C53.8796 64.2427 54.0609 64.232 54.2103 64.232C54.3596 64.232 54.4983 64.2427 54.6263 64.264V66.248ZM64.129 81.32C62.529 81.32 61.0997 80.9253 59.841 80.136C58.6037 79.3467 57.633 78.3013 56.929 77C56.225 75.6773 55.873 74.248 55.873 72.712C55.873 71.1547 56.225 69.7253 56.929 68.424C57.6543 67.1013 58.6357 66.0453 59.873 65.256C61.1317 64.4453 62.5503 64.04 64.129 64.04C65.729 64.04 67.1477 64.4453 68.385 65.256C69.6437 66.0453 70.625 67.1013 71.329 68.424C72.0543 69.7253 72.417 71.1547 72.417 72.712C72.417 74.248 72.065 75.6773 71.361 77C70.657 78.3013 69.6757 79.3467 68.417 80.136C67.1797 80.9253 65.7503 81.32 64.129 81.32ZM58.081 72.744C58.081 73.9813 58.3477 75.112 58.881 76.136C59.4357 77.1387 60.1717 77.9387 61.089 78.536C62.0063 79.112 63.0197 79.4 64.129 79.4C65.2383 79.4 66.2517 79.1013 67.169 78.504C68.0863 77.9067 68.8223 77.096 69.377 76.072C69.9317 75.048 70.209 73.9173 70.209 72.68C70.209 71.4427 69.9317 70.312 69.377 69.288C68.8223 68.264 68.0863 67.4533 67.169 66.856C66.2517 66.2587 65.2383 65.96 64.129 65.96C63.041 65.96 62.0383 66.2693 61.121 66.888C60.2037 67.4853 59.4677 68.296 58.913 69.32C58.3583 70.344 58.081 71.4853 58.081 72.744ZM76.575 66.056H74.271V64.328H76.575V63.88C76.575 62.8347 76.7777 61.8107 77.183 60.808C77.6097 59.8053 78.2497 58.9733 79.103 58.312C79.9777 57.6507 81.0977 57.32 82.463 57.32C83.6363 57.32 84.639 57.5013 85.471 57.864C86.3243 58.2267 86.9323 58.5467 87.295 58.824L86.303 60.392C85.9403 60.072 85.4283 59.8053 84.767 59.592C84.1057 59.3573 83.3803 59.24 82.591 59.24C81.6737 59.24 80.9377 59.4747 80.383 59.944C79.8283 60.392 79.4123 60.968 79.135 61.672C78.879 62.376 78.751 63.0907 78.751 63.816V64.328H87.103V81H84.927V66.056H78.751V81H76.575V66.056ZM91.996 57.64H94.172V77.224C94.172 78.056 94.3107 78.6 94.588 78.856C94.8867 79.112 95.26 79.24 95.708 79.24C96.092 79.24 96.476 79.1973 96.86 79.112C97.2653 79.0267 97.596 78.9413 97.852 78.856L98.236 80.616C97.8307 80.7867 97.3293 80.9253 96.732 81.032C96.156 81.1387 95.6547 81.192 95.228 81.192C94.2467 81.192 93.4573 80.904 92.86 80.328C92.284 79.752 91.996 78.9627 91.996 77.96V57.64ZM107.819 81.32C106.219 81.32 104.789 80.9253 103.531 80.136C102.272 79.3467 101.28 78.2907 100.555 76.968C99.8294 75.6453 99.4668 74.1947 99.4668 72.616C99.4668 71.0587 99.8188 69.6293 100.523 68.328C101.248 67.0267 102.24 65.992 103.499 65.224C104.757 64.4347 106.187 64.04 107.787 64.04C109.429 64.04 110.869 64.4347 112.107 65.224C113.344 66.0133 114.304 67.0587 114.987 68.36C115.691 69.64 116.043 71.048 116.043 72.584C116.043 72.9253 116.032 73.2133 116.011 73.448H101.739C101.845 74.6427 102.187 75.7093 102.763 76.648C103.339 77.5653 104.075 78.3013 104.971 78.856C105.867 79.3893 106.848 79.656 107.915 79.656C109.003 79.656 110.027 79.3787 110.987 78.824C111.947 78.2693 112.629 77.544 113.035 76.648L114.923 77.16C114.581 77.9707 114.048 78.696 113.323 79.336C112.619 79.9547 111.797 80.4453 110.859 80.808C109.92 81.1493 108.907 81.32 107.819 81.32ZM101.675 71.88H113.995C113.909 70.6853 113.579 69.6293 113.003 68.712C112.427 67.7733 111.691 67.048 110.795 66.536C109.899 66.0027 108.907 65.736 107.819 65.736C106.731 65.736 105.739 66.0027 104.843 66.536C103.947 67.048 103.211 67.7733 102.635 68.712C102.08 69.6293 101.76 70.6853 101.675 71.88Z" fill="black"/>
</g>
<defs>
<filter id="filter0_d" x="0" y="7" width="152.112" height="150.112" filterUnits="userSpaceOnUse" color-interpolation-filters="sRGB">
<feFlood flood-opacity="0" result="BackgroundImageFix"/>
<feColorMatrix in="SourceAlpha" type="matrix" values="0 0 0 0 0 0 0 0 0 0 0 0 0 0 0 0 0 0 127 0" result="hardAlpha"/>
<feOffset dx="10" dy="2"/>
<feGaussianBlur stdDeviation="4"/>
<feColorMatrix type="matrix" values="0 0 0 0 0 0 0 0 0 0 0 0 0 0 0 0 0 0 0.25 0"/>
<feBlend mode="normal" in2="BackgroundImageFix" result="effect1_dropShadow"/>
<feBlend mode="normal" in="SourceGraphic" in2="effect1_dropShadow" result="shape"/>
</filter>
<filter id="filter1_d" x="3" y="0" width="154.112" height="152.112" filterUnits="userSpaceOnUse" color-interpolation-filters="sRGB">
<feFlood flood-opacity="0" result="BackgroundImageFix"/>
<feColorMatrix in="SourceAlpha" type="matrix" values="0 0 0 0 0 0 0 0 0 0 0 0 0 0 0 0 0 0 127 0" result="hardAlpha"/>
<feOffset dx="10" dy="2"/>
<feGaussianBlur stdDeviation="4"/>
<feColorMatrix type="matrix" values="0 0 0 0 0 0 0 0 0 0 0 0 0 0 0 0 0 0 0.25 0"/>
<feBlend mode="normal" in2="BackgroundImageFix" result="effect1_dropShadow"/>
<feBlend mode="normal" in="SourceGraphic" in2="effect1_dropShadow" result="shape"/>
</filter>
<filter id="filter2_d" x="26.848" y="51.3199" width="107.195" height="40" filterUnits="userSpaceOnUse" color-interpolation-filters="sRGB">
<feFlood flood-opacity="0" result="BackgroundImageFix"/>
<feColorMatrix in="SourceAlpha" type="matrix" values="0 0 0 0 0 0 0 0 0 0 0 0 0 0 0 0 0 0 127 0" result="hardAlpha"/>
<feOffset dx="10" dy="2"/>
<feGaussianBlur stdDeviation="4"/>
<feColorMatrix type="matrix" values="0 0 0 0 0 0 0 0 0 0 0 0 0 0 0 0 0 0 0.25 0"/>
<feBlend mode="normal" in2="BackgroundImageFix" result="effect1_dropShadow"/>
<feBlend mode="normal" in="SourceGraphic" in2="effect1_dropShadow" result="shape"/>
</filter>
</defs>
</svg>
