<svg width="366" height="97" viewBox="0 0 366 97" fill="none" xmlns="http://www.w3.org/2000/svg">
<path d="M8 48.5002C8 26.9753 25.4494 9.52588 46.9744 9.52588H319.026C340.551 9.52588 358 26.9753 358 48.5002C358 70.0252 340.551 87.4746 319.026 87.4746H46.9744C25.4494 87.4746 8 70.0252 8 48.5002Z" fill="#2A363B"/>
<path d="M53.9744 17.5513C32.1733 17.5513 14.5 35.2245 14.5 57.0256C14.5 78.8267 32.1733 96.5 53.9744 96.5H326.026C347.827 96.5 365.5 78.8267 365.5 57.0256C365.5 35.2245 347.827 17.5513 326.026 17.5513H53.9744Z" stroke="black"/>
<path d="M39.9744 0.5C18.1733 0.5 0.5 18.1733 0.5 39.9744C0.5 61.7754 18.1733 79.4487 39.9744 79.4487H312.026C333.827 79.4487 351.5 61.7754 351.5 39.9744C351.5 18.1733 333.827 0.5 312.026 0.5H39.9744Z" stroke="black"/>
<path d="M103.18 66.6C99.94 66.6 97.1 65.86 94.66 64.38C92.22 62.86 90.32 60.86 88.96 58.38C87.6 55.9 86.92 53.2 86.92 50.28C86.92 47.36 87.58 44.68 88.9 42.24C90.26 39.76 92.14 37.78 94.54 36.3C96.98 34.82 99.86 34.08 103.18 34.08C106.42 34.08 109.2 34.8 111.52 36.24C113.88 37.64 115.64 39.52 116.8 41.88L110.38 43.92C109.66 42.6 108.64 41.58 107.32 40.86C106.04 40.1 104.62 39.72 103.06 39.72C101.3 39.72 99.7 40.18 98.26 41.1C96.86 41.98 95.74 43.22 94.9 44.82C94.1 46.42 93.7 48.24 93.7 50.28C93.7 52.32 94.12 54.14 94.96 55.74C95.84 57.34 96.98 58.62 98.38 59.58C99.82 60.5 101.4 60.96 103.12 60.96C104.72 60.96 106.24 60.54 107.68 59.7C109.12 58.86 110.08 57.84 110.56 56.64L117.04 58.56C116 60.92 114.26 62.86 111.82 64.38C109.38 65.86 106.5 66.6 103.18 66.6ZM140.116 40.32C137.556 40.4 135.276 41 133.276 42.12C131.316 43.2 129.916 44.76 129.076 46.8V66H122.476V34.62H128.596V41.64C129.676 39.48 131.096 37.76 132.856 36.48C134.616 35.16 136.476 34.44 138.436 34.32C138.796 34.32 139.116 34.32 139.396 34.32C139.676 34.32 139.916 34.34 140.116 34.38V40.32ZM158.61 66.6C155.37 66.6 152.53 65.86 150.09 64.38C147.65 62.9 145.75 60.94 144.39 58.5C143.03 56.02 142.35 53.32 142.35 50.4C142.35 47.44 143.03 44.72 144.39 42.24C145.75 39.76 147.65 37.78 150.09 36.3C152.53 34.82 155.39 34.08 158.67 34.08C161.95 34.08 164.79 34.84 167.19 36.36C169.59 37.84 171.43 39.8 172.71 42.24C174.03 44.68 174.69 47.3 174.69 50.1C174.69 51.1 174.63 51.9 174.51 52.5H149.37C149.49 54.34 149.99 55.96 150.87 57.36C151.79 58.72 152.93 59.8 154.29 60.6C155.69 61.36 157.21 61.74 158.85 61.74C160.61 61.74 162.27 61.3 163.83 60.42C165.39 59.54 166.47 58.38 167.07 56.94L172.71 58.56C171.63 60.92 169.83 62.86 167.31 64.38C164.83 65.86 161.93 66.6 158.61 66.6ZM149.19 48.12H168.15C167.99 46.32 167.47 44.74 166.59 43.38C165.71 41.98 164.57 40.9 163.17 40.14C161.81 39.34 160.29 38.94 158.61 38.94C156.97 38.94 155.45 39.34 154.05 40.14C152.69 40.9 151.57 41.98 150.69 43.38C149.81 44.74 149.31 46.32 149.19 48.12ZM177.793 56.82C177.793 54.82 178.353 53.08 179.473 51.6C180.593 50.08 182.153 48.92 184.153 48.12C186.193 47.28 188.533 46.86 191.173 46.86C192.573 46.86 193.993 46.98 195.433 47.22C196.913 47.42 198.213 47.72 199.333 48.12V46.14C199.333 43.94 198.673 42.22 197.353 40.98C196.033 39.74 194.133 39.12 191.653 39.12C189.933 39.12 188.273 39.42 186.673 40.02C185.073 40.62 183.413 41.5 181.693 42.66L179.473 38.22C181.553 36.86 183.633 35.84 185.713 35.16C187.833 34.44 190.053 34.08 192.373 34.08C196.573 34.08 199.873 35.2 202.273 37.44C204.713 39.64 205.933 42.78 205.933 46.86V58.56C205.933 59.32 206.053 59.86 206.293 60.18C206.573 60.5 207.033 60.68 207.673 60.72V66C207.073 66.12 206.533 66.2 206.053 66.24C205.573 66.28 205.173 66.3 204.853 66.3C203.413 66.3 202.333 65.96 201.613 65.28C200.933 64.56 200.533 63.76 200.413 62.88L200.233 61.08C198.873 62.84 197.133 64.2 195.013 65.16C192.893 66.12 190.753 66.6 188.593 66.6C186.513 66.6 184.653 66.18 183.013 65.34C181.373 64.46 180.093 63.28 179.173 61.8C178.253 60.32 177.793 58.66 177.793 56.82ZM197.773 58.74C198.813 57.7 199.333 56.72 199.333 55.8V52.2C196.973 51.32 194.573 50.88 192.133 50.88C189.733 50.88 187.773 51.38 186.253 52.38C184.773 53.34 184.033 54.64 184.033 56.28C184.033 57.64 184.573 58.9 185.653 60.06C186.773 61.18 188.373 61.74 190.453 61.74C191.853 61.74 193.213 61.46 194.533 60.9C195.853 60.34 196.933 59.62 197.773 58.74ZM231.166 64.38C230.326 64.78 229.166 65.24 227.686 65.76C226.206 66.24 224.626 66.48 222.946 66.48C220.866 66.48 219.066 65.92 217.546 64.8C216.066 63.68 215.326 61.86 215.326 59.34V39.72H211.186V34.62H215.326V24.3H221.926V34.62H228.766V39.72H221.926V57.24C222.006 58.36 222.346 59.18 222.946 59.7C223.586 60.18 224.366 60.42 225.286 60.42C226.206 60.42 227.086 60.26 227.926 59.94C228.766 59.62 229.386 59.36 229.786 59.16L231.166 64.38ZM249.547 66.6C246.307 66.6 243.467 65.86 241.027 64.38C238.587 62.9 236.687 60.94 235.327 58.5C233.967 56.02 233.287 53.32 233.287 50.4C233.287 47.44 233.967 44.72 235.327 42.24C236.687 39.76 238.587 37.78 241.027 36.3C243.467 34.82 246.327 34.08 249.607 34.08C252.887 34.08 255.727 34.84 258.127 36.36C260.527 37.84 262.367 39.8 263.647 42.24C264.967 44.68 265.627 47.3 265.627 50.1C265.627 51.1 265.567 51.9 265.447 52.5H240.307C240.427 54.34 240.927 55.96 241.807 57.36C242.727 58.72 243.867 59.8 245.227 60.6C246.627 61.36 248.147 61.74 249.787 61.74C251.547 61.74 253.207 61.3 254.767 60.42C256.327 59.54 257.407 58.38 258.007 56.94L263.647 58.56C262.567 60.92 260.767 62.86 258.247 64.38C255.767 65.86 252.867 66.6 249.547 66.6ZM240.127 48.12H259.087C258.927 46.32 258.407 44.74 257.527 43.38C256.647 41.98 255.507 40.9 254.107 40.14C252.747 39.34 251.227 38.94 249.547 38.94C247.907 38.94 246.387 39.34 244.987 40.14C243.627 40.9 242.507 41.98 241.627 43.38C240.747 44.74 240.247 46.32 240.127 48.12Z" fill="white"/>
</svg>
