<svg width="898" height="253" viewBox="0 0 898 253" fill="none" xmlns="http://www.w3.org/2000/svg">
<path d="M220.5 0.5H866C883.397 0.5 897.5 14.603 897.5 32C897.5 49.397 883.397 63.5 866 63.5H220.5V0.5Z" stroke="black"/>
<path d="M3.5 32C3.5 14.603 17.603 0.5 35 0.5H219.5V63.5H35C17.603 63.5 3.5 49.397 3.5 32Z" stroke="black"/>
<path d="M220.5 189.5H866C883.397 189.5 897.5 203.603 897.5 221C897.5 238.397 883.397 252.5 866 252.5H220.5V189.5Z" stroke="black"/>
<path d="M0.5 221C0.5 203.603 14.603 189.5 32 189.5H219.5V252.5H32C14.603 252.5 0.5 238.397 0.5 221Z" stroke="black"/>
<path d="M223.5 96.5H866C883.397 96.5 897.5 110.603 897.5 128C897.5 145.397 883.397 159.5 866 159.5H223.5V96.5Z" stroke="black"/>
<path d="M35 96.5H222.5V159.5H35C17.603 159.5 3.5 145.397 3.5 128C3.5 110.603 17.603 96.5 35 96.5Z" stroke="black"/>
</svg>
