<svg width="348" height="94" viewBox="0 0 348 94" fill="none" xmlns="http://www.w3.org/2000/svg">
<rect x="7" y="7" width="310" height="80" rx="40" fill="#E0E2FF"/>
<rect x="12.5" y="12.5" width="311" height="81" rx="40.5" stroke="black"/>
<rect x="0.5" y="0.5" width="311" height="81" rx="40.5" stroke="black"/>
<path d="M144.841 63V34.6H147.641V60.52H164.041V63H144.841ZM176.052 63.4C174.052 63.4 172.265 62.9067 170.692 61.92C169.145 60.9333 167.932 59.6267 167.052 58C166.172 56.3467 165.732 54.56 165.732 52.64C165.732 50.6933 166.172 48.9067 167.052 47.28C167.959 45.6267 169.185 44.3067 170.732 43.32C172.305 42.3067 174.079 41.8 176.052 41.8C178.052 41.8 179.825 42.3067 181.372 43.32C182.945 44.3067 184.172 45.6267 185.052 47.28C185.959 48.9067 186.412 50.6933 186.412 52.64C186.412 54.56 185.972 56.3467 185.092 58C184.212 59.6267 182.985 60.9333 181.412 61.92C179.865 62.9067 178.079 63.4 176.052 63.4ZM168.492 52.68C168.492 54.2267 168.825 55.64 169.492 56.92C170.185 58.1733 171.105 59.1733 172.252 59.92C173.399 60.64 174.665 61 176.052 61C177.439 61 178.705 60.6267 179.852 59.88C180.999 59.1333 181.919 58.12 182.612 56.84C183.305 55.56 183.652 54.1467 183.652 52.6C183.652 51.0533 183.305 49.64 182.612 48.36C181.919 47.08 180.999 46.0667 179.852 45.32C178.705 44.5733 177.439 44.2 176.052 44.2C174.692 44.2 173.439 44.5867 172.292 45.36C171.145 46.1067 170.225 47.12 169.532 48.4C168.839 49.68 168.492 51.1067 168.492 52.68ZM199.321 63.28C197.881 63.28 196.561 62.9867 195.361 62.4C194.188 61.8133 193.161 61.0267 192.281 60.04C191.428 59.0267 190.761 57.88 190.281 56.6C189.801 55.32 189.561 54 189.561 52.64C189.561 50.6933 189.974 48.9067 190.801 47.28C191.628 45.6267 192.761 44.3067 194.201 43.32C195.668 42.3067 197.348 41.8 199.241 41.8C201.028 41.8 202.574 42.2533 203.881 43.16C205.214 44.0667 206.334 45.1867 207.241 46.52V42.16H209.681V63.08C209.681 65.0267 209.214 66.6533 208.281 67.96C207.348 69.2667 206.108 70.2533 204.561 70.92C203.014 71.5867 201.321 71.92 199.481 71.92C197.081 71.92 195.148 71.4933 193.681 70.64C192.241 69.7867 191.054 68.64 190.121 67.2L191.801 65.88C192.628 67.1867 193.721 68.16 195.081 68.8C196.468 69.44 197.934 69.76 199.481 69.76C200.841 69.76 202.081 69.5067 203.201 69C204.348 68.52 205.254 67.7867 205.921 66.8C206.614 65.8133 206.961 64.5733 206.961 63.08V58.96C206.161 60.2667 205.068 61.32 203.681 62.12C202.294 62.8933 200.841 63.28 199.321 63.28ZM200.081 61C201.174 61 202.214 60.7467 203.201 60.24C204.188 59.7333 205.014 59.0933 205.681 58.32C206.374 57.52 206.801 56.6933 206.961 55.84V49.4C206.561 48.3867 205.988 47.4933 205.241 46.72C204.494 45.92 203.641 45.3067 202.681 44.88C201.721 44.4267 200.748 44.2 199.761 44.2C198.214 44.2 196.881 44.6267 195.761 45.48C194.668 46.3067 193.814 47.3733 193.201 48.68C192.614 49.96 192.321 51.2933 192.321 52.68C192.321 54.1733 192.668 55.56 193.361 56.84C194.054 58.0933 194.988 59.1067 196.161 59.88C197.334 60.6267 198.641 61 200.081 61ZM215.688 37.8V33.8H218.408V37.8H215.688ZM215.688 63V42.16H218.408V63H215.688ZM241.918 63H239.198V51.36C239.198 48.9067 238.825 47.12 238.078 46C237.358 44.8533 236.238 44.28 234.718 44.28C233.652 44.28 232.598 44.5467 231.558 45.08C230.518 45.5867 229.598 46.2933 228.798 47.2C228.025 48.08 227.465 49.0933 227.118 50.24V63H224.398V42.16H226.878V46.88C227.705 45.36 228.918 44.1333 230.518 43.2C232.118 42.2667 233.852 41.8 235.718 41.8C237.265 41.8 238.492 42.1733 239.398 42.92C240.305 43.64 240.945 44.68 241.318 46.04C241.718 47.3733 241.918 48.96 241.918 50.8V63Z" fill="black"/>
<g clip-path="url(#clip0)">
<path d="M57.1291 43.2104C56.4426 39.1233 59.6464 35.4065 63.856 35.4065H97.2125C101.422 35.4065 104.626 39.1233 103.939 43.2104L99.3752 70.3847C98.8312 73.6238 95.9846 76 92.6481 76H68.4202C65.0838 76 62.2374 73.6238 61.6933 70.3847L57.1291 43.2104Z" fill="#664D4D"/>
<path d="M59.4472 30.2194H92.8037C96.9079 30.2194 100.032 33.8432 99.3625 37.8281L94.7981 65.0023C94.2676 68.1609 91.4926 70.4774 88.2393 70.4774H64.0114C60.7584 70.4774 57.9832 68.1609 57.4527 65.0023L52.8885 37.8281C52.2192 33.8432 55.3429 30.2194 59.4472 30.2194Z" stroke="black"/>
<path d="M106.273 26.3549H55.1365C53.6302 26.3549 52.4092 27.5565 52.4092 29.0387V37.4258C52.4092 38.9081 53.6302 40.1097 55.1365 40.1097H106.273C107.779 40.1097 109 38.9081 109 37.4258V29.0387C109 27.5565 107.779 26.3549 106.273 26.3549Z" fill="#C28C7A"/>
<path d="M102.864 23.1677H51.7277C50.3156 23.1677 49.1709 24.2942 49.1709 25.6839V34.0709C49.1709 35.4606 50.3156 36.5871 51.7277 36.5871H102.864C104.276 36.5871 105.421 35.4606 105.421 34.0709V25.6839C105.421 24.2942 104.276 23.1677 102.864 23.1677Z" stroke="black"/>
</g>
<defs>
<clipPath id="clip0">
<rect width="60" height="52" fill="white" transform="translate(49 23)"/>
</clipPath>
</defs>
</svg>
