<svg width="190" height="105" viewBox="0 0 190 105" fill="none" xmlns="http://www.w3.org/2000/svg">
<path d="M43.0451 51.5048C44.447 41.7289 52.3124 34.0328 62.1847 32.8619C64.8691 18.2778 77.6783 7.22656 93.0752 7.22656C107.8 7.22656 120.158 17.3339 123.557 30.9726C124.807 30.7403 126.097 30.6188 127.415 30.6188C134.087 30.6188 140.031 33.7323 143.865 38.5822C147.268 36.1966 151.416 34.796 155.891 34.796C167.455 34.796 176.83 44.147 176.83 55.682C176.83 64.2688 171.635 71.6454 164.209 74.8551C164.247 75.4211 164.267 75.9923 164.267 76.5679C164.267 90.4099 153.017 101.631 139.14 101.631C129.811 101.631 121.668 96.559 117.334 89.0284C113.202 92.9549 107.608 95.3653 101.451 95.3653C98.2374 95.3653 95.1778 94.7089 92.3992 93.5233C87.9218 100.414 80.1442 104.973 71.299 104.973C62.6811 104.973 55.0764 100.645 50.5503 94.0495C48.2046 94.9009 45.6726 95.3653 43.0319 95.3653C37.956 95.3653 33.2819 93.6495 29.5607 90.7677C29.4448 90.7695 29.3287 90.7704 29.2124 90.7704C17.0701 90.7704 7.22681 80.9519 7.22681 68.8401C7.22681 56.7284 17.0701 46.9099 29.2124 46.9099C34.2882 46.9099 38.9623 48.6257 42.6836 51.5075C42.7994 51.5057 42.9156 51.5048 43.0319 51.5048C43.0363 51.5048 43.0407 51.5048 43.0451 51.5048Z" fill="#E78989"/>
<path d="M35.8183 44.7782H36.2518L36.3133 44.3492C37.6829 34.7978 45.3692 27.2761 55.0168 26.1319L55.3829 26.0885L55.4496 25.7259C58.0909 11.3756 70.6962 0.5 85.8484 0.5C100.339 0.5 112.5 10.4465 115.845 23.8669L115.959 24.3235L116.421 24.2376C117.642 24.0109 118.901 23.8923 120.188 23.8923C126.701 23.8923 132.503 26.9308 136.246 31.6657L136.539 32.036L136.926 31.765C140.247 29.4365 144.295 28.0695 148.664 28.0695C159.953 28.0695 169.103 37.1977 169.103 48.4554C169.103 56.8352 164.034 64.0359 156.784 67.1696L156.459 67.3098L156.483 67.6623C156.521 68.2171 156.54 68.777 156.54 69.3414C156.54 82.906 145.515 93.9045 131.913 93.9045C122.769 93.9045 114.789 88.934 110.541 81.5524L110.224 81.0016L109.763 81.4394C105.72 85.281 100.249 87.6387 94.2239 87.6387C91.0792 87.6387 88.0863 86.9965 85.3687 85.8368L84.9822 85.6719L84.7532 86.0243C80.3643 92.7787 72.7414 97.2463 64.0722 97.2463C55.6257 97.2463 48.1724 93.0052 43.7357 86.54L43.5167 86.2209L43.1529 86.3529C40.8611 87.1848 38.3868 87.6387 35.8051 87.6387C30.8438 87.6387 26.2767 85.9621 22.64 83.1458L22.5014 83.0385L22.3261 83.0412C22.2128 83.0429 22.0993 83.0438 21.9856 83.0438C10.1182 83.0438 0.5 73.448 0.5 61.6136C0.5 49.7792 10.1182 40.1833 21.9856 40.1833C26.9469 40.1833 31.514 41.8599 35.1506 44.6762L35.2892 44.7836L35.4645 44.7809C35.5778 44.7791 35.6913 44.7782 35.8051 44.7782H35.8115L35.8183 44.7782Z" stroke="black"/>
<path d="M46.1048 59.214C46.2848 59.25 46.4588 59.28 46.6268 59.304C46.8068 59.328 46.9508 59.34 47.0588 59.34C47.2628 59.34 47.4368 59.274 47.5808 59.142C47.7368 59.022 47.8928 58.794 48.0488 58.458C48.2048 58.122 48.3968 57.636 48.6248 57L44.7548 47.586H46.8248L49.7048 54.984L52.2608 47.586H54.1688L49.9028 59.178C49.7108 59.706 49.3748 60.156 48.8948 60.528C48.4268 60.9 47.8208 61.086 47.0768 61.086C46.9328 61.086 46.7828 61.074 46.6268 61.05C46.4708 61.026 46.2968 60.99 46.1048 60.942V59.214ZM59.5381 57.18C58.5541 57.18 57.6961 56.958 56.9641 56.514C56.2441 56.058 55.6861 55.464 55.2901 54.732C54.8941 53.988 54.6961 53.178 54.6961 52.302C54.6961 51.426 54.8941 50.622 55.2901 49.89C55.6981 49.146 56.2621 48.552 56.9821 48.108C57.7141 47.652 58.5661 47.424 59.5381 47.424C60.5101 47.424 61.3561 47.652 62.0761 48.108C62.8081 48.552 63.3721 49.146 63.7681 49.89C64.1761 50.622 64.3801 51.426 64.3801 52.302C64.3801 53.178 64.1821 53.988 63.7861 54.732C63.3901 55.464 62.8261 56.058 62.0941 56.514C61.3741 56.958 60.5221 57.18 59.5381 57.18ZM56.7301 52.32C56.7301 52.92 56.8561 53.46 57.1081 53.94C57.3601 54.42 57.6961 54.798 58.1161 55.074C58.5361 55.35 59.0101 55.488 59.5381 55.488C60.0541 55.488 60.5221 55.35 60.9421 55.074C61.3741 54.786 61.7161 54.402 61.9681 53.922C62.2201 53.442 62.3461 52.902 62.3461 52.302C62.3461 51.702 62.2201 51.162 61.9681 50.682C61.7161 50.202 61.3741 49.824 60.9421 49.548C60.5221 49.26 60.0541 49.116 59.5381 49.116C59.0221 49.116 58.5481 49.26 58.1161 49.548C57.6961 49.824 57.3601 50.208 57.1081 50.7C56.8561 51.18 56.7301 51.72 56.7301 52.32ZM66.0462 53.346V47.586H68.0262V52.95C68.0262 54.642 68.6262 55.488 69.8262 55.488C70.3902 55.488 70.9242 55.314 71.4282 54.966C71.9322 54.606 72.3222 54.102 72.5982 53.454V47.586H74.5782V54.768C74.5782 54.996 74.6202 55.158 74.7042 55.254C74.7882 55.35 74.9262 55.404 75.1182 55.416V57C74.9142 57.036 74.7462 57.06 74.6142 57.072C74.4822 57.084 74.3562 57.09 74.2362 57.09C73.8762 57.09 73.5762 56.994 73.3362 56.802C73.0962 56.61 72.9582 56.352 72.9222 56.028L72.8862 55.092C72.4662 55.776 71.9202 56.298 71.2482 56.658C70.5762 57.006 69.8382 57.18 69.0342 57.18C68.0502 57.18 67.3062 56.856 66.8022 56.208C66.2982 55.56 66.0462 54.606 66.0462 53.346ZM80.8683 54.246C80.8683 53.646 81.0363 53.124 81.3723 52.68C81.7083 52.224 82.1763 51.876 82.7763 51.636C83.3883 51.384 84.0903 51.258 84.8823 51.258C85.3023 51.258 85.7283 51.294 86.1603 51.366C86.6043 51.426 86.9943 51.516 87.3303 51.636V51.042C87.3303 50.382 87.1323 49.866 86.7363 49.494C86.3403 49.122 85.7703 48.936 85.0263 48.936C84.5103 48.936 84.0123 49.026 83.5323 49.206C83.0523 49.386 82.5543 49.65 82.0383 49.998L81.3723 48.666C81.9963 48.258 82.6203 47.952 83.2443 47.748C83.8803 47.532 84.5463 47.424 85.2423 47.424C86.5023 47.424 87.4923 47.76 88.2123 48.432C88.9443 49.092 89.3103 50.034 89.3103 51.258V54.768C89.3103 54.996 89.3463 55.158 89.4183 55.254C89.5023 55.35 89.6403 55.404 89.8323 55.416V57C89.6523 57.036 89.4903 57.06 89.3463 57.072C89.2023 57.084 89.0823 57.09 88.9863 57.09C88.5543 57.09 88.2303 56.988 88.0143 56.784C87.8103 56.568 87.6903 56.328 87.6543 56.064L87.6003 55.524C87.1923 56.052 86.6703 56.46 86.0343 56.748C85.3983 57.036 84.7563 57.18 84.1083 57.18C83.4843 57.18 82.9263 57.054 82.4343 56.802C81.9423 56.538 81.5583 56.184 81.2823 55.74C81.0063 55.296 80.8683 54.798 80.8683 54.246ZM86.8623 54.822C87.1743 54.51 87.3303 54.216 87.3303 53.94V52.86C86.6223 52.596 85.9023 52.464 85.1703 52.464C84.4503 52.464 83.8623 52.614 83.4063 52.914C82.9623 53.202 82.7403 53.592 82.7403 54.084C82.7403 54.492 82.9023 54.87 83.2263 55.218C83.5623 55.554 84.0423 55.722 84.6663 55.722C85.0863 55.722 85.4943 55.638 85.8903 55.47C86.2863 55.302 86.6103 55.086 86.8623 54.822ZM97.0044 49.296C96.2364 49.32 95.5524 49.5 94.9524 49.836C94.3644 50.16 93.9444 50.628 93.6924 51.24V57H91.7124V47.586H93.5484V49.692C93.8724 49.044 94.2984 48.528 94.8264 48.144C95.3544 47.748 95.9124 47.532 96.5004 47.496C96.6084 47.496 96.7044 47.496 96.7884 47.496C96.8724 47.496 96.9444 47.502 97.0044 47.514V49.296ZM102.553 57.18C101.581 57.18 100.729 56.958 99.9966 56.514C99.2646 56.07 98.6946 55.482 98.2866 54.75C97.8786 54.006 97.6746 53.196 97.6746 52.32C97.6746 51.432 97.8786 50.616 98.2866 49.872C98.6946 49.128 99.2646 48.534 99.9966 48.09C100.729 47.646 101.587 47.424 102.571 47.424C103.555 47.424 104.407 47.652 105.127 48.108C105.847 48.552 106.399 49.14 106.783 49.872C107.179 50.604 107.377 51.39 107.377 52.23C107.377 52.53 107.359 52.77 107.323 52.95H99.7806C99.8166 53.502 99.9666 53.988 100.231 54.408C100.507 54.816 100.849 55.14 101.257 55.38C101.677 55.608 102.133 55.722 102.625 55.722C103.153 55.722 103.651 55.59 104.119 55.326C104.587 55.062 104.911 54.714 105.091 54.282L106.783 54.768C106.459 55.476 105.919 56.058 105.163 56.514C104.419 56.958 103.549 57.18 102.553 57.18ZM99.7266 51.636H105.415C105.367 51.096 105.211 50.622 104.947 50.214C104.683 49.794 104.341 49.47 103.921 49.242C103.513 49.002 103.057 48.882 102.553 48.882C102.061 48.882 101.605 49.002 101.185 49.242C100.777 49.47 100.441 49.794 100.177 50.214C99.9126 50.622 99.7626 51.096 99.7266 51.636ZM112.845 52.302C112.845 51.402 113.025 50.586 113.385 49.854C113.757 49.11 114.261 48.522 114.897 48.09C115.533 47.646 116.265 47.424 117.093 47.424C117.813 47.424 118.461 47.61 119.037 47.982C119.625 48.354 120.081 48.816 120.405 49.368V43.86H122.385V54.768C122.385 54.996 122.427 55.158 122.511 55.254C122.595 55.35 122.733 55.404 122.925 55.416V57C122.553 57.06 122.265 57.09 122.061 57.09C121.689 57.09 121.371 56.988 121.107 56.784C120.855 56.568 120.723 56.304 120.711 55.992L120.693 55.29C120.333 55.89 119.847 56.358 119.235 56.694C118.623 57.018 117.987 57.18 117.327 57.18C116.463 57.18 115.689 56.958 115.005 56.514C114.333 56.07 113.805 55.482 113.421 54.75C113.037 54.006 112.845 53.19 112.845 52.302ZM120.405 53.616V51.15C120.261 50.766 120.045 50.424 119.757 50.124C119.469 49.812 119.139 49.566 118.767 49.386C118.407 49.206 118.047 49.116 117.687 49.116C117.123 49.116 116.631 49.272 116.211 49.584C115.803 49.884 115.479 50.28 115.239 50.772C115.011 51.264 114.897 51.786 114.897 52.338C114.897 52.914 115.023 53.442 115.275 53.922C115.539 54.402 115.893 54.786 116.337 55.074C116.781 55.35 117.279 55.488 117.831 55.488C118.167 55.488 118.515 55.41 118.875 55.254C119.247 55.086 119.571 54.864 119.847 54.588C120.123 54.3 120.309 53.976 120.405 53.616ZM129.13 57.18C128.146 57.18 127.288 56.958 126.556 56.514C125.836 56.058 125.278 55.464 124.882 54.732C124.486 53.988 124.288 53.178 124.288 52.302C124.288 51.426 124.486 50.622 124.882 49.89C125.29 49.146 125.854 48.552 126.574 48.108C127.306 47.652 128.158 47.424 129.13 47.424C130.102 47.424 130.948 47.652 131.668 48.108C132.4 48.552 132.964 49.146 133.36 49.89C133.768 50.622 133.972 51.426 133.972 52.302C133.972 53.178 133.774 53.988 133.378 54.732C132.982 55.464 132.418 56.058 131.686 56.514C130.966 56.958 130.114 57.18 129.13 57.18ZM126.322 52.32C126.322 52.92 126.448 53.46 126.7 53.94C126.952 54.42 127.288 54.798 127.708 55.074C128.128 55.35 128.602 55.488 129.13 55.488C129.646 55.488 130.114 55.35 130.534 55.074C130.966 54.786 131.308 54.402 131.56 53.922C131.812 53.442 131.938 52.902 131.938 52.302C131.938 51.702 131.812 51.162 131.56 50.682C131.308 50.202 130.966 49.824 130.534 49.548C130.114 49.26 129.646 49.116 129.13 49.116C128.614 49.116 128.14 49.26 127.708 49.548C127.288 49.824 126.952 50.208 126.7 50.7C126.448 51.18 126.322 51.72 126.322 52.32ZM135.728 46.038V43.86H137.708V46.038H135.728ZM135.728 57V47.586H137.708V57H135.728ZM148.529 57H146.549V51.726C146.549 50.838 146.405 50.196 146.117 49.8C145.841 49.392 145.427 49.188 144.875 49.188C144.491 49.188 144.107 49.284 143.723 49.476C143.351 49.668 143.015 49.932 142.715 50.268C142.415 50.604 142.199 50.982 142.067 51.402V57H140.087V47.586H141.887V49.476C142.247 48.852 142.769 48.354 143.453 47.982C144.137 47.61 144.893 47.424 145.721 47.424C146.465 47.424 147.041 47.604 147.449 47.964C147.857 48.312 148.139 48.774 148.295 49.35C148.451 49.926 148.529 50.562 148.529 51.258V57ZM154.554 57.09C153.702 57.09 152.952 56.868 152.304 56.424C151.668 55.98 151.164 55.398 150.792 54.678C150.432 53.946 150.252 53.154 150.252 52.302C150.252 51.414 150.438 50.598 150.81 49.854C151.182 49.11 151.692 48.522 152.34 48.09C153 47.646 153.762 47.424 154.626 47.424C155.382 47.424 156.042 47.604 156.606 47.964C157.182 48.324 157.656 48.792 158.028 49.368V47.586H159.774V56.73C159.774 57.642 159.552 58.416 159.108 59.052C158.676 59.688 158.082 60.174 157.326 60.51C156.57 60.846 155.718 61.014 154.77 61.014C153.726 61.014 152.856 60.834 152.16 60.474C151.476 60.114 150.9 59.622 150.432 58.998L151.548 57.954C151.908 58.458 152.37 58.842 152.934 59.106C153.51 59.37 154.122 59.502 154.77 59.502C155.31 59.502 155.808 59.4 156.264 59.196C156.732 59.004 157.104 58.704 157.38 58.296C157.656 57.888 157.794 57.366 157.794 56.73V55.29C157.458 55.854 156.996 56.298 156.408 56.622C155.82 56.934 155.202 57.09 154.554 57.09ZM155.202 55.488C155.598 55.488 155.976 55.404 156.336 55.236C156.696 55.056 157.002 54.822 157.254 54.534C157.518 54.246 157.698 53.94 157.794 53.616V51.15C157.554 50.55 157.176 50.064 156.66 49.692C156.156 49.308 155.622 49.116 155.058 49.116C154.482 49.116 153.984 49.272 153.564 49.584C153.156 49.896 152.838 50.304 152.61 50.808C152.382 51.3 152.268 51.816 152.268 52.356C152.268 52.932 152.394 53.46 152.646 53.94C152.91 54.408 153.264 54.786 153.708 55.074C154.152 55.35 154.65 55.488 155.202 55.488ZM87.2646 78.09C86.4126 78.09 85.6626 77.868 85.0146 77.424C84.3786 76.98 83.8746 76.398 83.5026 75.678C83.1426 74.946 82.9626 74.154 82.9626 73.302C82.9626 72.414 83.1486 71.598 83.5206 70.854C83.8926 70.11 84.4026 69.522 85.0506 69.09C85.7106 68.646 86.4726 68.424 87.3366 68.424C88.0926 68.424 88.7526 68.604 89.3166 68.964C89.8926 69.324 90.3666 69.792 90.7386 70.368V68.586H92.4846V77.73C92.4846 78.642 92.2626 79.416 91.8186 80.052C91.3866 80.688 90.7926 81.174 90.0366 81.51C89.2806 81.846 88.4286 82.014 87.4806 82.014C86.4366 82.014 85.5666 81.834 84.8706 81.474C84.1866 81.114 83.6106 80.622 83.1426 79.998L84.2586 78.954C84.6186 79.458 85.0806 79.842 85.6446 80.106C86.2206 80.37 86.8326 80.502 87.4806 80.502C88.0206 80.502 88.5186 80.4 88.9746 80.196C89.4426 80.004 89.8146 79.704 90.0906 79.296C90.3666 78.888 90.5046 78.366 90.5046 77.73V76.29C90.1686 76.854 89.7066 77.298 89.1186 77.622C88.5306 77.934 87.9126 78.09 87.2646 78.09ZM87.9126 76.488C88.3086 76.488 88.6866 76.404 89.0466 76.236C89.4066 76.056 89.7126 75.822 89.9646 75.534C90.2286 75.246 90.4086 74.94 90.5046 74.616V72.15C90.2646 71.55 89.8866 71.064 89.3706 70.692C88.8666 70.308 88.3326 70.116 87.7686 70.116C87.1926 70.116 86.6946 70.272 86.2746 70.584C85.8666 70.896 85.5486 71.304 85.3206 71.808C85.0926 72.3 84.9786 72.816 84.9786 73.356C84.9786 73.932 85.1046 74.46 85.3566 74.94C85.6206 75.408 85.9746 75.786 86.4186 76.074C86.8626 76.35 87.3606 76.488 87.9126 76.488ZM100.151 70.296C99.3829 70.32 98.6989 70.5 98.0989 70.836C97.5109 71.16 97.0909 71.628 96.8389 72.24V78H94.8589V68.586H96.6949V70.692C97.0189 70.044 97.4449 69.528 97.9729 69.144C98.5009 68.748 99.0589 68.532 99.6469 68.496C99.7549 68.496 99.8509 68.496 99.9349 68.496C100.019 68.496 100.091 68.502 100.151 68.514V70.296ZM105.699 78.18C104.727 78.18 103.875 77.958 103.143 77.514C102.411 77.07 101.841 76.482 101.433 75.75C101.025 75.006 100.821 74.196 100.821 73.32C100.821 72.432 101.025 71.616 101.433 70.872C101.841 70.128 102.411 69.534 103.143 69.09C103.875 68.646 104.733 68.424 105.717 68.424C106.701 68.424 107.553 68.652 108.273 69.108C108.993 69.552 109.545 70.14 109.929 70.872C110.325 71.604 110.523 72.39 110.523 73.23C110.523 73.53 110.505 73.77 110.469 73.95H102.927C102.963 74.502 103.113 74.988 103.377 75.408C103.653 75.816 103.995 76.14 104.403 76.38C104.823 76.608 105.279 76.722 105.771 76.722C106.299 76.722 106.797 76.59 107.265 76.326C107.733 76.062 108.057 75.714 108.237 75.282L109.929 75.768C109.605 76.476 109.065 77.058 108.309 77.514C107.565 77.958 106.695 78.18 105.699 78.18ZM102.873 72.636H108.561C108.513 72.096 108.357 71.622 108.093 71.214C107.829 70.794 107.487 70.47 107.067 70.242C106.659 70.002 106.203 69.882 105.699 69.882C105.207 69.882 104.751 70.002 104.331 70.242C103.923 70.47 103.587 70.794 103.323 71.214C103.059 71.622 102.909 72.096 102.873 72.636ZM111.454 75.246C111.454 74.646 111.622 74.124 111.958 73.68C112.294 73.224 112.762 72.876 113.362 72.636C113.974 72.384 114.676 72.258 115.468 72.258C115.888 72.258 116.314 72.294 116.746 72.366C117.19 72.426 117.58 72.516 117.916 72.636V72.042C117.916 71.382 117.718 70.866 117.322 70.494C116.926 70.122 116.356 69.936 115.612 69.936C115.096 69.936 114.598 70.026 114.118 70.206C113.638 70.386 113.14 70.65 112.624 70.998L111.958 69.666C112.582 69.258 113.206 68.952 113.83 68.748C114.466 68.532 115.132 68.424 115.828 68.424C117.088 68.424 118.078 68.76 118.798 69.432C119.53 70.092 119.896 71.034 119.896 72.258V75.768C119.896 75.996 119.932 76.158 120.004 76.254C120.088 76.35 120.226 76.404 120.418 76.416V78C120.238 78.036 120.076 78.06 119.932 78.072C119.788 78.084 119.668 78.09 119.572 78.09C119.14 78.09 118.816 77.988 118.6 77.784C118.396 77.568 118.276 77.328 118.24 77.064L118.186 76.524C117.778 77.052 117.256 77.46 116.62 77.748C115.984 78.036 115.342 78.18 114.694 78.18C114.07 78.18 113.512 78.054 113.02 77.802C112.528 77.538 112.144 77.184 111.868 76.74C111.592 76.296 111.454 75.798 111.454 75.246ZM117.448 75.822C117.76 75.51 117.916 75.216 117.916 74.94V73.86C117.208 73.596 116.488 73.464 115.756 73.464C115.036 73.464 114.448 73.614 113.992 73.914C113.548 74.202 113.326 74.592 113.326 75.084C113.326 75.492 113.488 75.87 113.812 76.218C114.148 76.554 114.628 76.722 115.252 76.722C115.672 76.722 116.08 76.638 116.476 76.47C116.872 76.302 117.196 76.086 117.448 75.822ZM127.466 77.514C127.214 77.634 126.866 77.772 126.422 77.928C125.978 78.072 125.504 78.144 125 78.144C124.376 78.144 123.836 77.976 123.38 77.64C122.936 77.304 122.714 76.758 122.714 76.002V70.116H121.472V68.586H122.714V65.49H124.694V68.586H126.746V70.116H124.694V75.372C124.718 75.708 124.82 75.954 125 76.11C125.192 76.254 125.426 76.326 125.702 76.326C125.978 76.326 126.242 76.278 126.494 76.182C126.746 76.086 126.932 76.008 127.052 75.948L127.466 77.514Z" fill="black"/>
</svg>
