<svg width="363" height="94" viewBox="0 0 363 94" fill="none" xmlns="http://www.w3.org/2000/svg">
<rect x="7" y="7" width="310" height="80" rx="40" fill="#E0E2FF"/>
<rect x="12.5" y="12.5" width="311" height="81" rx="40.5" stroke="black"/>
<rect x="0.5" y="0.5" width="311" height="81" rx="40.5" stroke="black"/>
<path d="M151.871 39.92C151.071 39.04 150.004 38.32 148.671 37.76C147.338 37.1733 145.818 36.88 144.111 36.88C141.604 36.88 139.778 37.36 138.631 38.32C137.484 39.2533 136.911 40.5333 136.911 42.16C136.911 43.28 137.191 44.16 137.751 44.8C138.311 45.44 139.164 45.9733 140.311 46.4C141.484 46.8 142.978 47.2 144.791 47.6C146.818 48.0267 148.564 48.5333 150.031 49.12C151.498 49.7067 152.631 50.5067 153.431 51.52C154.231 52.5067 154.631 53.8533 154.631 55.56C154.631 57.2933 154.191 58.7333 153.311 59.88C152.431 61.0267 151.218 61.88 149.671 62.44C148.124 62.9733 146.364 63.24 144.391 63.24C139.964 63.24 136.164 61.8667 132.991 59.12L134.391 56.84C135.404 57.9067 136.791 58.8267 138.551 59.6C140.338 60.3733 142.311 60.76 144.471 60.76C146.711 60.76 148.471 60.3467 149.751 59.52C151.031 58.6933 151.671 57.4667 151.671 55.84C151.671 54.6667 151.351 53.7333 150.711 53.04C150.071 52.32 149.111 51.7333 147.831 51.28C146.551 50.8267 144.978 50.3867 143.111 49.96C141.138 49.5067 139.471 49 138.111 48.44C136.778 47.88 135.764 47.1467 135.071 46.24C134.378 45.3333 134.031 44.1067 134.031 42.56C134.031 40.8 134.458 39.32 135.311 38.12C136.191 36.8933 137.391 35.9733 138.911 35.36C140.431 34.72 142.178 34.4 144.151 34.4C146.018 34.4 147.698 34.6933 149.191 35.28C150.684 35.84 152.031 36.64 153.231 37.68L151.871 39.92ZM159.008 37.8V33.8H161.728V37.8H159.008ZM159.008 63V42.16H161.728V63H159.008ZM176.079 63.28C174.639 63.28 173.319 62.9867 172.119 62.4C170.945 61.8133 169.919 61.0267 169.039 60.04C168.185 59.0267 167.519 57.88 167.039 56.6C166.559 55.32 166.319 54 166.319 52.64C166.319 50.6933 166.732 48.9067 167.559 47.28C168.385 45.6267 169.519 44.3067 170.959 43.32C172.425 42.3067 174.105 41.8 175.999 41.8C177.785 41.8 179.332 42.2533 180.639 43.16C181.972 44.0667 183.092 45.1867 183.999 46.52V42.16H186.439V63.08C186.439 65.0267 185.972 66.6533 185.039 67.96C184.105 69.2667 182.865 70.2533 181.319 70.92C179.772 71.5867 178.079 71.92 176.239 71.92C173.839 71.92 171.905 71.4933 170.439 70.64C168.999 69.7867 167.812 68.64 166.879 67.2L168.559 65.88C169.385 67.1867 170.479 68.16 171.839 68.8C173.225 69.44 174.692 69.76 176.239 69.76C177.599 69.76 178.839 69.5067 179.959 69C181.105 68.52 182.012 67.7867 182.679 66.8C183.372 65.8133 183.719 64.5733 183.719 63.08V58.96C182.919 60.2667 181.825 61.32 180.439 62.12C179.052 62.8933 177.599 63.28 176.079 63.28ZM176.839 61C177.932 61 178.972 60.7467 179.959 60.24C180.945 59.7333 181.772 59.0933 182.439 58.32C183.132 57.52 183.559 56.6933 183.719 55.84V49.4C183.319 48.3867 182.745 47.4933 181.999 46.72C181.252 45.92 180.399 45.3067 179.439 44.88C178.479 44.4267 177.505 44.2 176.519 44.2C174.972 44.2 173.639 44.6267 172.519 45.48C171.425 46.3067 170.572 47.3733 169.959 48.68C169.372 49.96 169.079 51.2933 169.079 52.68C169.079 54.1733 169.425 55.56 170.119 56.84C170.812 58.0933 171.745 59.1067 172.919 59.88C174.092 60.6267 175.399 61 176.839 61ZM209.965 63H207.245V51.36C207.245 48.9067 206.872 47.12 206.125 46C205.405 44.8533 204.285 44.28 202.765 44.28C201.699 44.28 200.645 44.5467 199.605 45.08C198.565 45.5867 197.645 46.2933 196.845 47.2C196.072 48.08 195.512 49.0933 195.165 50.24V63H192.445V42.16H194.925V46.88C195.752 45.36 196.965 44.1333 198.565 43.2C200.165 42.2667 201.899 41.8 203.765 41.8C205.312 41.8 206.539 42.1733 207.445 42.92C208.352 43.64 208.992 44.68 209.365 46.04C209.765 47.3733 209.965 48.96 209.965 50.8V63ZM215.366 53.36V50.84H227.046V53.36H215.366ZM244.761 63.2C242.521 63.2 240.627 62.8 239.081 62C237.561 61.2 236.334 60.12 235.401 58.76C234.467 57.4 233.801 55.88 233.401 54.2C233.001 52.4933 232.801 50.7333 232.801 48.92V34.6H235.561V48.92C235.561 50.4133 235.707 51.8667 236.001 53.28C236.321 54.6667 236.827 55.92 237.521 57.04C238.214 58.16 239.147 59.0533 240.321 59.72C241.494 60.36 242.961 60.68 244.721 60.68C246.534 60.68 248.027 60.3467 249.201 59.68C250.401 59.0133 251.347 58.12 252.041 57C252.734 55.8533 253.214 54.5867 253.481 53.2C253.774 51.7867 253.921 50.36 253.921 48.92V34.6H256.721V48.92C256.721 50.8133 256.507 52.6267 256.081 54.36C255.654 56.0667 254.961 57.5867 254.001 58.92C253.067 60.2533 251.841 61.3067 250.321 62.08C248.801 62.8267 246.947 63.2 244.761 63.2ZM273.242 63.4C271.508 63.4 269.948 62.9467 268.562 62.04C267.202 61.1333 266.122 60.0133 265.322 58.68V71.52H262.602V42.16H265.042V46.2C265.868 44.8933 266.962 43.84 268.322 43.04C269.708 42.2133 271.202 41.8 272.802 41.8C274.242 41.8 275.562 42.1067 276.762 42.72C277.962 43.3067 279.002 44.1067 279.882 45.12C280.788 46.1333 281.482 47.2933 281.962 48.6C282.442 49.88 282.682 51.2133 282.682 52.6C282.682 54.5467 282.282 56.3467 281.482 58C280.708 59.6267 279.602 60.9333 278.162 61.92C276.748 62.9067 275.108 63.4 273.242 63.4ZM272.482 61C274.002 61 275.308 60.6 276.402 59.8C277.522 58.9733 278.388 57.92 279.002 56.64C279.615 55.36 279.922 54.0133 279.922 52.6C279.922 51.1067 279.575 49.72 278.882 48.44C278.188 47.16 277.255 46.1333 276.082 45.36C274.935 44.5867 273.628 44.2 272.162 44.2C271.255 44.2 270.295 44.44 269.282 44.92C268.295 45.3733 267.415 46 266.642 46.8C265.895 47.5733 265.455 48.4267 265.322 49.36V55.76C265.935 57.2267 266.895 58.4667 268.202 59.48C269.508 60.4933 270.935 61 272.482 61Z" fill="black"/>
<g clip-path="url(#clip0)">
<path d="M57.1291 43.2104C56.4426 39.1233 59.6464 35.4065 63.856 35.4065H97.2125C101.422 35.4065 104.626 39.1233 103.939 43.2104L99.3752 70.3847C98.8312 73.6238 95.9846 76 92.6481 76H68.4202C65.0838 76 62.2374 73.6238 61.6933 70.3847L57.1291 43.2104Z" fill="#664D4D"/>
<path d="M59.4472 30.2194H92.8037C96.9079 30.2194 100.032 33.8432 99.3625 37.8281L94.7981 65.0023C94.2676 68.1609 91.4926 70.4774 88.2393 70.4774H64.0114C60.7584 70.4774 57.9832 68.1609 57.4527 65.0023L52.8885 37.8281C52.2192 33.8432 55.3429 30.2194 59.4472 30.2194Z" stroke="black"/>
<path d="M106.273 26.3549H55.1365C53.6302 26.3549 52.4092 27.5565 52.4092 29.0387V37.4258C52.4092 38.9081 53.6302 40.1097 55.1365 40.1097H106.273C107.779 40.1097 109 38.9081 109 37.4258V29.0387C109 27.5565 107.779 26.3549 106.273 26.3549Z" fill="#C28C7A"/>
<path d="M102.864 23.1677H51.7277C50.3156 23.1677 49.1709 24.2942 49.1709 25.6839V34.0709C49.1709 35.4606 50.3156 36.5871 51.7277 36.5871H102.864C104.276 36.5871 105.421 35.4606 105.421 34.0709V25.6839C105.421 24.2942 104.276 23.1677 102.864 23.1677Z" stroke="black"/>
</g>
<defs>
<clipPath id="clip0">
<rect width="60" height="52" fill="white" transform="translate(49 23)"/>
</clipPath>
</defs>
</svg>
