<svg width="560" height="121" viewBox="0 0 560 121" fill="none" xmlns="http://www.w3.org/2000/svg">
<path d="M64.464 40.664H43.728V95H27.984V40.664H7.152V26.84H64.464V40.664ZM119.481 95H104.121V66.68C104.121 63.416 103.449 61.016 102.105 59.48C100.825 57.944 99.097 57.176 96.921 57.176C95.129 57.176 93.113 58.008 90.873 59.672C88.697 61.272 87.161 63.416 86.265 66.104V95H70.905V24.92H86.265V53.048C88.057 50.04 90.489 47.736 93.561 46.136C96.633 44.472 99.993 43.64 103.641 43.64C107.033 43.64 109.785 44.216 111.897 45.368C114.009 46.52 115.609 48.056 116.697 49.976C117.785 51.832 118.521 53.88 118.905 56.12C119.289 58.36 119.481 60.568 119.481 62.744V95ZM153.782 95.96C148.086 95.96 143.222 94.776 139.19 92.408C135.158 90.04 132.054 86.904 129.878 83C127.766 79.096 126.71 74.872 126.71 70.328C126.71 65.464 127.766 61.016 129.878 56.984C131.99 52.952 135.062 49.72 139.094 47.288C143.126 44.856 148.022 43.64 153.782 43.64C159.478 43.64 164.342 44.856 168.374 47.288C172.406 49.72 175.446 52.92 177.494 56.888C179.606 60.856 180.662 65.112 180.662 69.656C180.662 71.512 180.534 73.144 180.278 74.552H143.03C143.286 77.944 144.502 80.536 146.678 82.328C148.918 84.056 151.446 84.92 154.262 84.92C156.502 84.92 158.646 84.376 160.694 83.288C162.742 82.2 164.15 80.728 164.918 78.872L177.974 82.52C175.99 86.488 172.886 89.72 168.662 92.216C164.502 94.712 159.542 95.96 153.782 95.96ZM142.646 65.144H164.534C164.214 61.944 163.03 59.416 160.982 57.56C158.998 55.64 156.534 54.68 153.59 54.68C150.646 54.68 148.15 55.64 146.102 57.56C144.118 59.48 142.966 62.008 142.646 65.144ZM219.592 57.752C215.88 57.816 212.52 58.424 209.512 59.576C206.504 60.728 204.328 62.456 202.984 64.76V95H187.624V44.6H201.736V54.776C203.464 51.384 205.704 48.728 208.456 46.808C211.208 44.888 214.088 43.896 217.096 43.832C218.376 43.832 219.208 43.864 219.592 43.928V57.752ZM222.518 79.928C222.518 76.6 223.446 73.688 225.302 71.192C227.158 68.696 229.718 66.744 232.982 65.336C236.246 63.864 239.99 63.128 244.214 63.128C246.262 63.128 248.278 63.32 250.262 63.704C252.246 64.024 253.974 64.504 255.446 65.144V62.936C255.446 57.24 252.086 54.392 245.366 54.392C242.55 54.392 239.894 54.872 237.398 55.832C234.966 56.792 232.374 58.168 229.622 59.96L225.014 50.168C231.67 45.816 238.966 43.64 246.902 43.64C254.454 43.64 260.31 45.464 264.47 49.112C268.694 52.696 270.806 57.912 270.806 64.76V77.912C270.806 79.448 271.03 80.536 271.478 81.176C271.99 81.816 272.854 82.168 274.07 82.232V95C272.726 95.256 271.51 95.448 270.422 95.576C269.334 95.704 268.374 95.768 267.542 95.768C264.662 95.768 262.454 95.192 260.918 94.04C259.446 92.888 258.518 91.32 258.134 89.336L257.846 87.128C255.606 90.008 252.918 92.216 249.782 93.752C246.646 95.224 243.414 95.96 240.086 95.96C236.758 95.96 233.75 95.256 231.062 93.848C228.438 92.44 226.358 90.552 224.822 88.184C223.286 85.752 222.518 83 222.518 79.928ZM253.046 81.848C254.646 80.568 255.446 79.256 255.446 77.912V73.4C254.102 72.888 252.63 72.504 251.03 72.248C249.494 71.928 248.086 71.768 246.806 71.768C243.926 71.768 241.558 72.408 239.702 73.688C237.91 74.968 237.014 76.6 237.014 78.584C237.014 80.312 237.686 81.816 239.03 83.096C240.438 84.312 242.294 84.92 244.598 84.92C246.134 84.92 247.67 84.632 249.206 84.056C250.742 83.48 252.022 82.744 253.046 81.848ZM301.232 95.96C296.88 95.96 292.656 95.256 288.56 93.848C284.528 92.376 281.104 90.296 278.288 87.608L283.568 77.912C289.776 82.456 295.504 84.728 300.752 84.728C302.736 84.728 304.272 84.408 305.36 83.768C306.448 83.128 306.992 82.136 306.992 80.792C306.992 79.384 306.256 78.392 304.784 77.816C303.312 77.176 301.136 76.44 298.256 75.608C294.416 74.328 291.216 73.08 288.656 71.864C286.096 70.648 284.176 69.176 282.896 67.448C281.616 65.72 280.976 63.416 280.976 60.536C280.976 55.48 282.864 51.416 286.64 48.344C290.416 45.208 295.536 43.64 302 43.64C305.456 43.64 308.816 44.184 312.08 45.272C315.408 46.36 318.512 48.184 321.392 50.744L315.44 60.344C312.56 58.36 310 56.92 307.76 56.024C305.52 55.128 303.344 54.68 301.232 54.68C299.568 54.68 298.16 55 297.008 55.64C295.856 56.216 295.28 57.24 295.28 58.712C295.28 60.12 295.92 61.176 297.2 61.88C298.48 62.52 300.464 63.224 303.152 63.992C307.248 65.208 310.672 66.456 313.424 67.736C316.24 68.952 318.32 70.488 319.664 72.344C321.072 74.136 321.776 76.536 321.776 79.544C321.776 84.664 319.92 88.696 316.208 91.64C312.496 94.52 307.504 95.96 301.232 95.96ZM329.655 38.84V24.92H345.015V38.84H329.655ZM329.655 95V44.6H345.015V95H329.655ZM375.114 95.192C370.634 95.192 366.73 94.04 363.402 91.736C360.074 89.432 357.45 86.36 355.53 82.52C353.674 78.68 352.746 74.424 352.746 69.752C352.746 64.824 353.738 60.408 355.722 56.504C357.706 52.536 360.458 49.4 363.978 47.096C367.498 44.792 371.562 43.64 376.17 43.64C379.946 43.64 383.274 44.472 386.154 46.136C389.034 47.736 391.338 49.976 393.066 52.856V44.6H406.41V91.544C406.41 96.664 405.162 101.08 402.666 104.792C400.234 108.504 396.81 111.352 392.394 113.336C388.042 115.384 382.986 116.408 377.226 116.408C371.85 116.408 367.21 115.512 363.306 113.72C359.466 111.992 356.106 109.528 353.226 106.328L361.482 97.976C363.338 100.088 365.642 101.752 368.394 102.968C371.21 104.248 374.154 104.888 377.226 104.888C379.722 104.888 381.994 104.44 384.042 103.544C386.154 102.648 387.85 101.208 389.13 99.224C390.41 97.304 391.05 94.744 391.05 91.544V86.648C389.514 89.464 387.274 91.608 384.33 93.08C381.45 94.488 378.378 95.192 375.114 95.192ZM380.394 83C382.762 83 384.874 82.36 386.73 81.08C388.586 79.736 390.026 78.04 391.05 75.992V65.432C390.026 62.808 388.458 60.696 386.346 59.096C384.234 57.496 381.994 56.696 379.626 56.696C377.45 56.696 375.498 57.336 373.77 58.616C372.106 59.832 370.794 61.464 369.834 63.512C368.874 65.56 368.394 67.768 368.394 70.136C368.394 73.848 369.546 76.92 371.85 79.352C374.154 81.784 377.002 83 380.394 83ZM465.512 95H450.152V66.68C450.152 63.416 449.48 61.016 448.136 59.48C446.856 57.944 445.128 57.176 442.952 57.176C441.16 57.176 439.144 58.008 436.904 59.672C434.728 61.272 433.192 63.416 432.296 66.104V95H416.936V24.92H432.296V53.048C434.088 50.04 436.52 47.736 439.592 46.136C442.664 44.472 446.024 43.64 449.672 43.64C453.064 43.64 455.816 44.216 457.928 45.368C460.04 46.52 461.64 48.056 462.728 49.976C463.816 51.832 464.552 53.88 464.936 56.12C465.32 58.36 465.512 60.568 465.512 62.744V95ZM508.264 92.312C506.152 93.208 503.72 94.04 500.968 94.808C498.28 95.576 495.56 95.96 492.808 95.96C490.248 95.96 487.912 95.544 485.8 94.712C483.688 93.816 481.992 92.376 480.712 90.392C479.432 88.408 478.792 85.784 478.792 82.52V56.216H472.36V44.6H478.792V28.568H494.152V44.6H504.424V56.216H494.152V77.24C494.152 78.904 494.568 80.12 495.4 80.888C496.232 81.592 497.288 81.944 498.568 81.944C499.72 81.944 500.904 81.752 502.12 81.368C503.336 80.984 504.392 80.568 505.288 80.12L508.264 92.312ZM533.545 95.96C529.193 95.96 524.969 95.256 520.873 93.848C516.841 92.376 513.417 90.296 510.601 87.608L515.881 77.912C522.089 82.456 527.817 84.728 533.065 84.728C535.049 84.728 536.585 84.408 537.673 83.768C538.761 83.128 539.305 82.136 539.305 80.792C539.305 79.384 538.569 78.392 537.097 77.816C535.625 77.176 533.449 76.44 530.569 75.608C526.729 74.328 523.529 73.08 520.969 71.864C518.409 70.648 516.489 69.176 515.209 67.448C513.929 65.72 513.289 63.416 513.289 60.536C513.289 55.48 515.177 51.416 518.953 48.344C522.729 45.208 527.849 43.64 534.313 43.64C537.769 43.64 541.129 44.184 544.393 45.272C547.721 46.36 550.825 48.184 553.705 50.744L547.753 60.344C544.873 58.36 542.313 56.92 540.073 56.024C537.833 55.128 535.657 54.68 533.545 54.68C531.881 54.68 530.473 55 529.321 55.64C528.169 56.216 527.593 57.24 527.593 58.712C527.593 60.12 528.233 61.176 529.513 61.88C530.793 62.52 532.777 63.224 535.465 63.992C539.561 65.208 542.985 66.456 545.737 67.736C548.553 68.952 550.633 70.488 551.977 72.344C553.385 74.136 554.089 76.536 554.089 79.544C554.089 84.664 552.233 88.696 548.521 91.64C544.809 94.52 539.817 95.96 533.545 95.96Z" fill="#FF847C"/>
<path d="M67.464 43.664H46.728V98H30.984V43.664H10.152V29.84H67.464V43.664ZM122.481 98H107.121V69.68C107.121 66.416 106.449 64.016 105.105 62.48C103.825 60.944 102.097 60.176 99.921 60.176C98.129 60.176 96.113 61.008 93.873 62.672C91.697 64.272 90.161 66.416 89.265 69.104V98H73.905V27.92H89.265V56.048C91.057 53.04 93.489 50.736 96.561 49.136C99.633 47.472 102.993 46.64 106.641 46.64C110.033 46.64 112.785 47.216 114.897 48.368C117.009 49.52 118.609 51.056 119.697 52.976C120.785 54.832 121.521 56.88 121.905 59.12C122.289 61.36 122.481 63.568 122.481 65.744V98ZM156.782 98.96C151.086 98.96 146.222 97.776 142.19 95.408C138.158 93.04 135.054 89.904 132.878 86C130.766 82.096 129.71 77.872 129.71 73.328C129.71 68.464 130.766 64.016 132.878 59.984C134.99 55.952 138.062 52.72 142.094 50.288C146.126 47.856 151.022 46.64 156.782 46.64C162.478 46.64 167.342 47.856 171.374 50.288C175.406 52.72 178.446 55.92 180.494 59.888C182.606 63.856 183.662 68.112 183.662 72.656C183.662 74.512 183.534 76.144 183.278 77.552H146.03C146.286 80.944 147.502 83.536 149.678 85.328C151.918 87.056 154.446 87.92 157.262 87.92C159.502 87.92 161.646 87.376 163.694 86.288C165.742 85.2 167.15 83.728 167.918 81.872L180.974 85.52C178.99 89.488 175.886 92.72 171.662 95.216C167.502 97.712 162.542 98.96 156.782 98.96ZM145.646 68.144H167.534C167.214 64.944 166.03 62.416 163.982 60.56C161.998 58.64 159.534 57.68 156.59 57.68C153.646 57.68 151.15 58.64 149.102 60.56C147.118 62.48 145.966 65.008 145.646 68.144ZM222.592 60.752C218.88 60.816 215.52 61.424 212.512 62.576C209.504 63.728 207.328 65.456 205.984 67.76V98H190.624V47.6H204.736V57.776C206.464 54.384 208.704 51.728 211.456 49.808C214.208 47.888 217.088 46.896 220.096 46.832C221.376 46.832 222.208 46.864 222.592 46.928V60.752ZM225.518 82.928C225.518 79.6 226.446 76.688 228.302 74.192C230.158 71.696 232.718 69.744 235.982 68.336C239.246 66.864 242.99 66.128 247.214 66.128C249.262 66.128 251.278 66.32 253.262 66.704C255.246 67.024 256.974 67.504 258.446 68.144V65.936C258.446 60.24 255.086 57.392 248.366 57.392C245.55 57.392 242.894 57.872 240.398 58.832C237.966 59.792 235.374 61.168 232.622 62.96L228.014 53.168C234.67 48.816 241.966 46.64 249.902 46.64C257.454 46.64 263.31 48.464 267.47 52.112C271.694 55.696 273.806 60.912 273.806 67.76V80.912C273.806 82.448 274.03 83.536 274.478 84.176C274.99 84.816 275.854 85.168 277.07 85.232V98C275.726 98.256 274.51 98.448 273.422 98.576C272.334 98.704 271.374 98.768 270.542 98.768C267.662 98.768 265.454 98.192 263.918 97.04C262.446 95.888 261.518 94.32 261.134 92.336L260.846 90.128C258.606 93.008 255.918 95.216 252.782 96.752C249.646 98.224 246.414 98.96 243.086 98.96C239.758 98.96 236.75 98.256 234.062 96.848C231.438 95.44 229.358 93.552 227.822 91.184C226.286 88.752 225.518 86 225.518 82.928ZM256.046 84.848C257.646 83.568 258.446 82.256 258.446 80.912V76.4C257.102 75.888 255.63 75.504 254.03 75.248C252.494 74.928 251.086 74.768 249.806 74.768C246.926 74.768 244.558 75.408 242.702 76.688C240.91 77.968 240.014 79.6 240.014 81.584C240.014 83.312 240.686 84.816 242.03 86.096C243.438 87.312 245.294 87.92 247.598 87.92C249.134 87.92 250.67 87.632 252.206 87.056C253.742 86.48 255.022 85.744 256.046 84.848ZM304.232 98.96C299.88 98.96 295.656 98.256 291.56 96.848C287.528 95.376 284.104 93.296 281.288 90.608L286.568 80.912C292.776 85.456 298.504 87.728 303.752 87.728C305.736 87.728 307.272 87.408 308.36 86.768C309.448 86.128 309.992 85.136 309.992 83.792C309.992 82.384 309.256 81.392 307.784 80.816C306.312 80.176 304.136 79.44 301.256 78.608C297.416 77.328 294.216 76.08 291.656 74.864C289.096 73.648 287.176 72.176 285.896 70.448C284.616 68.72 283.976 66.416 283.976 63.536C283.976 58.48 285.864 54.416 289.64 51.344C293.416 48.208 298.536 46.64 305 46.64C308.456 46.64 311.816 47.184 315.08 48.272C318.408 49.36 321.512 51.184 324.392 53.744L318.44 63.344C315.56 61.36 313 59.92 310.76 59.024C308.52 58.128 306.344 57.68 304.232 57.68C302.568 57.68 301.16 58 300.008 58.64C298.856 59.216 298.28 60.24 298.28 61.712C298.28 63.12 298.92 64.176 300.2 64.88C301.48 65.52 303.464 66.224 306.152 66.992C310.248 68.208 313.672 69.456 316.424 70.736C319.24 71.952 321.32 73.488 322.664 75.344C324.072 77.136 324.776 79.536 324.776 82.544C324.776 87.664 322.92 91.696 319.208 94.64C315.496 97.52 310.504 98.96 304.232 98.96ZM332.655 41.84V27.92H348.015V41.84H332.655ZM332.655 98V47.6H348.015V98H332.655ZM378.114 98.192C373.634 98.192 369.73 97.04 366.402 94.736C363.074 92.432 360.45 89.36 358.53 85.52C356.674 81.68 355.746 77.424 355.746 72.752C355.746 67.824 356.738 63.408 358.722 59.504C360.706 55.536 363.458 52.4 366.978 50.096C370.498 47.792 374.562 46.64 379.17 46.64C382.946 46.64 386.274 47.472 389.154 49.136C392.034 50.736 394.338 52.976 396.066 55.856V47.6H409.41V94.544C409.41 99.664 408.162 104.08 405.666 107.792C403.234 111.504 399.81 114.352 395.394 116.336C391.042 118.384 385.986 119.408 380.226 119.408C374.85 119.408 370.21 118.512 366.306 116.72C362.466 114.992 359.106 112.528 356.226 109.328L364.482 100.976C366.338 103.088 368.642 104.752 371.394 105.968C374.21 107.248 377.154 107.888 380.226 107.888C382.722 107.888 384.994 107.44 387.042 106.544C389.154 105.648 390.85 104.208 392.13 102.224C393.41 100.304 394.05 97.744 394.05 94.544V89.648C392.514 92.464 390.274 94.608 387.33 96.08C384.45 97.488 381.378 98.192 378.114 98.192ZM383.394 86C385.762 86 387.874 85.36 389.73 84.08C391.586 82.736 393.026 81.04 394.05 78.992V68.432C393.026 65.808 391.458 63.696 389.346 62.096C387.234 60.496 384.994 59.696 382.626 59.696C380.45 59.696 378.498 60.336 376.77 61.616C375.106 62.832 373.794 64.464 372.834 66.512C371.874 68.56 371.394 70.768 371.394 73.136C371.394 76.848 372.546 79.92 374.85 82.352C377.154 84.784 380.002 86 383.394 86ZM468.512 98H453.152V69.68C453.152 66.416 452.48 64.016 451.136 62.48C449.856 60.944 448.128 60.176 445.952 60.176C444.16 60.176 442.144 61.008 439.904 62.672C437.728 64.272 436.192 66.416 435.296 69.104V98H419.936V27.92H435.296V56.048C437.088 53.04 439.52 50.736 442.592 49.136C445.664 47.472 449.024 46.64 452.672 46.64C456.064 46.64 458.816 47.216 460.928 48.368C463.04 49.52 464.64 51.056 465.728 52.976C466.816 54.832 467.552 56.88 467.936 59.12C468.32 61.36 468.512 63.568 468.512 65.744V98ZM511.264 95.312C509.152 96.208 506.72 97.04 503.968 97.808C501.28 98.576 498.56 98.96 495.808 98.96C493.248 98.96 490.912 98.544 488.8 97.712C486.688 96.816 484.992 95.376 483.712 93.392C482.432 91.408 481.792 88.784 481.792 85.52V59.216H475.36V47.6H481.792V31.568H497.152V47.6H507.424V59.216H497.152V80.24C497.152 81.904 497.568 83.12 498.4 83.888C499.232 84.592 500.288 84.944 501.568 84.944C502.72 84.944 503.904 84.752 505.12 84.368C506.336 83.984 507.392 83.568 508.288 83.12L511.264 95.312ZM536.545 98.96C532.193 98.96 527.969 98.256 523.873 96.848C519.841 95.376 516.417 93.296 513.601 90.608L518.881 80.912C525.089 85.456 530.817 87.728 536.065 87.728C538.049 87.728 539.585 87.408 540.673 86.768C541.761 86.128 542.305 85.136 542.305 83.792C542.305 82.384 541.569 81.392 540.097 80.816C538.625 80.176 536.449 79.44 533.569 78.608C529.729 77.328 526.529 76.08 523.969 74.864C521.409 73.648 519.489 72.176 518.209 70.448C516.929 68.72 516.289 66.416 516.289 63.536C516.289 58.48 518.177 54.416 521.953 51.344C525.729 48.208 530.849 46.64 537.313 46.64C540.769 46.64 544.129 47.184 547.393 48.272C550.721 49.36 553.825 51.184 556.705 53.744L550.753 63.344C547.873 61.36 545.313 59.92 543.073 59.024C540.833 58.128 538.657 57.68 536.545 57.68C534.881 57.68 533.473 58 532.321 58.64C531.169 59.216 530.593 60.24 530.593 61.712C530.593 63.12 531.233 64.176 532.513 64.88C533.793 65.52 535.777 66.224 538.465 66.992C542.561 68.208 545.985 69.456 548.737 70.736C551.553 71.952 553.633 73.488 554.977 75.344C556.385 77.136 557.089 79.536 557.089 82.544C557.089 87.664 555.233 91.696 551.521 94.64C547.809 97.52 542.817 98.96 536.545 98.96Z" fill="black"/>
<path d="M58.464 35.664V36.664H59.464V35.664H58.464ZM37.728 35.664V34.664H36.728V35.664H37.728ZM37.728 90V91H38.728V90H37.728ZM21.984 90H20.984V91H21.984V90ZM21.984 35.664H22.984V34.664H21.984V35.664ZM1.152 35.664H0.152V36.664H1.152V35.664ZM1.152 21.84V20.84H0.152V21.84H1.152ZM58.464 21.84H59.464V20.84H58.464V21.84ZM58.464 34.664H37.728V36.664H58.464V34.664ZM36.728 35.664V90H38.728V35.664H36.728ZM37.728 89H21.984V91H37.728V89ZM22.984 90V35.664H20.984V90H22.984ZM21.984 34.664H1.152V36.664H21.984V34.664ZM2.152 35.664V21.84H0.152V35.664H2.152ZM1.152 22.84H58.464V20.84H1.152V22.84ZM57.464 21.84V35.664H59.464V21.84H57.464ZM113.481 90V91H114.481V90H113.481ZM98.121 90H97.121V91H98.121V90ZM96.105 54.48L95.3368 55.1202L95.3445 55.1294L95.3524 55.1385L96.105 54.48ZM84.873 54.672L85.4654 55.4777L85.4693 55.4747L84.873 54.672ZM80.265 61.104L79.3163 60.7878L79.265 60.9417V61.104H80.265ZM80.265 90V91H81.265V90H80.265ZM64.905 90H63.905V91H64.905V90ZM64.905 19.92V18.92H63.905V19.92H64.905ZM80.265 19.92H81.265V18.92H80.265V19.92ZM80.265 48.048H79.265V51.6804L81.1241 48.5598L80.265 48.048ZM87.561 41.136L88.0229 42.0229L88.0301 42.0192L88.0373 42.0153L87.561 41.136ZM105.897 40.368L105.418 41.2459L105.897 40.368ZM110.697 44.976L109.827 45.469L109.831 45.4754L109.834 45.4817L110.697 44.976ZM112.905 51.12L111.919 51.289V51.289L112.905 51.12ZM113.481 89H98.121V91H113.481V89ZM99.121 90V61.68H97.121V90H99.121ZM99.121 61.68C99.121 58.3108 98.4327 55.6216 96.8576 53.8215L95.3524 55.1385C96.4653 56.4104 97.121 58.5212 97.121 61.68H99.121ZM96.8732 53.8398C95.385 52.0539 93.364 51.176 90.921 51.176V53.176C92.83 53.176 94.265 53.8341 95.3368 55.1202L96.8732 53.8398ZM90.921 51.176C88.8242 51.176 86.5993 52.1439 84.2767 53.8693L85.4693 55.4747C87.6268 53.8721 89.4338 53.176 90.921 53.176V51.176ZM84.2806 53.8663C81.9297 55.595 80.2743 57.9139 79.3163 60.7878L81.2137 61.4202C82.0477 58.918 83.4643 56.949 85.4654 55.4776L84.2806 53.8663ZM79.265 61.104V90H81.265V61.104H79.265ZM80.265 89H64.905V91H80.265V89ZM65.905 90V19.92H63.905V90H65.905ZM64.905 20.92H80.265V18.92H64.905V20.92ZM79.265 19.92V48.048H81.265V19.92H79.265ZM81.1241 48.5598C82.8222 45.7094 85.1175 43.5362 88.0229 42.0229L87.0991 40.2491C83.8605 41.9358 81.2918 44.3705 79.4059 47.5362L81.1241 48.5598ZM88.0373 42.0153C90.9565 40.4341 94.1517 39.64 97.641 39.64V37.64C93.8343 37.64 90.3095 38.5099 87.0847 40.2567L88.0373 42.0153ZM97.641 39.64C100.93 39.64 103.501 40.2001 105.418 41.2459L106.376 39.4901C104.069 38.2319 101.136 37.64 97.641 37.64V39.64ZM105.418 41.2459C107.382 42.3169 108.839 43.7258 109.827 45.469L111.567 44.483C110.379 42.3862 108.636 40.7231 106.376 39.4901L105.418 41.2459ZM109.834 45.4817C110.858 47.228 111.555 49.1609 111.919 51.289L113.891 50.951C113.487 48.5991 112.712 46.436 111.56 44.4703L109.834 45.4817ZM111.919 51.289C112.294 53.4756 112.481 55.6271 112.481 57.744H114.481C114.481 55.5089 114.284 53.2444 113.891 50.951L111.919 51.289ZM112.481 57.744V90H114.481V57.744H112.481ZM133.19 87.408L133.697 86.5457L133.19 87.408ZM123.878 78L122.999 78.4759L123.005 78.4869L123.878 78ZM123.878 51.984L122.992 51.52L123.878 51.984ZM133.094 42.288L133.611 43.1443L133.094 42.288ZM162.374 42.288L161.858 43.1443L162.374 42.288ZM171.494 51.888L170.606 52.3467L170.612 52.3578L171.494 51.888ZM174.278 69.552V70.552H175.113L175.262 69.7309L174.278 69.552ZM137.03 69.552V68.552H135.952L136.033 69.6273L137.03 69.552ZM140.678 77.328L140.043 78.0999L140.055 78.1101L140.067 78.1198L140.678 77.328ZM158.918 73.872L159.187 72.9089L158.333 72.6702L157.994 73.4896L158.918 73.872ZM171.974 77.52L172.869 77.9672L173.411 76.8831L172.243 76.5569L171.974 77.52ZM162.662 87.216L162.154 86.3551L162.148 86.3585L162.662 87.216ZM136.646 60.144L135.651 60.0425L135.539 61.144H136.646V60.144ZM158.534 60.144V61.144H159.639L159.529 60.0445L158.534 60.144ZM154.982 52.56L154.287 53.2786L154.299 53.29L154.311 53.301L154.982 52.56ZM140.102 52.56L139.418 51.8305L139.413 51.8359L139.407 51.8414L140.102 52.56ZM147.782 89.96C142.226 89.96 137.545 88.8058 133.697 86.5457L132.684 88.2703C136.9 90.7462 141.947 91.96 147.782 91.96V89.96ZM133.697 86.5457C129.811 84.2636 126.837 81.2542 124.752 77.5131L123.005 78.4869C125.272 82.5538 128.506 85.8164 132.684 88.2703L133.697 86.5457ZM124.758 77.5242C122.727 73.7699 121.71 69.71 121.71 65.328H119.71C119.71 70.034 120.806 74.4221 122.999 78.4758L124.758 77.5242ZM121.71 65.328C121.71 60.6142 122.732 56.3271 124.764 52.448L122.992 51.52C120.8 55.7049 119.71 60.3138 119.71 65.328H121.71ZM124.764 52.448C126.788 48.5839 129.73 45.4852 133.611 43.1443L132.578 41.4317C128.395 43.9548 125.192 47.3201 122.992 51.52L124.764 52.448ZM133.611 43.1443C137.455 40.8253 142.164 39.64 147.782 39.64V37.64C141.881 37.64 136.797 38.8867 132.578 41.4317L133.611 43.1443ZM147.782 39.64C153.334 39.64 158.011 40.8243 161.858 43.1443L162.891 41.4317C158.673 38.8877 153.622 37.64 147.782 37.64V39.64ZM161.858 43.1443C165.74 45.4862 168.647 48.5522 170.606 52.3466L172.383 51.4294C170.245 47.2878 167.072 43.9538 162.891 41.4317L161.858 43.1443ZM170.612 52.3578C172.646 56.1796 173.662 60.274 173.662 64.656H175.662C175.662 59.95 174.567 55.5324 172.377 51.4181L170.612 52.3578ZM173.662 64.656C173.662 66.4686 173.537 68.0385 173.294 69.3731L175.262 69.7309C175.531 68.2495 175.662 66.5554 175.662 64.656H173.662ZM174.278 68.552H137.03V70.552H174.278V68.552ZM136.033 69.6273C136.305 73.2306 137.614 76.0996 140.043 78.0999L141.314 76.5561C139.391 74.9724 138.267 72.6574 138.027 69.4767L136.033 69.6273ZM140.067 78.1198C142.482 79.9821 145.224 80.92 148.262 80.92V78.92C145.668 78.92 143.355 78.1299 141.289 76.5362L140.067 78.1198ZM148.262 80.92C150.672 80.92 152.976 80.3331 155.163 79.1711L154.225 77.4049C152.316 78.4189 150.333 78.92 148.262 78.92V80.92ZM155.163 79.1711C157.383 77.9919 158.972 76.3576 159.842 74.2543L157.994 73.4896C157.329 75.0984 156.101 76.4081 154.225 77.4049L155.163 79.1711ZM158.649 74.8351L171.705 78.4831L172.243 76.5569L159.187 72.9089L158.649 74.8351ZM171.08 77.0728C169.191 80.8507 166.23 83.9462 162.154 86.3551L163.171 88.0769C167.542 85.4938 170.79 82.1253 172.869 77.9672L171.08 77.0728ZM162.148 86.3585C158.17 88.7451 153.395 89.96 147.782 89.96V91.96C153.689 91.96 158.834 90.6789 163.177 88.0735L162.148 86.3585ZM136.646 61.144H158.534V59.144H136.646V61.144ZM159.529 60.0445C159.189 56.6409 157.915 53.8682 155.654 51.819L154.311 53.301C156.146 54.9638 157.24 57.2471 157.539 60.2435L159.529 60.0445ZM155.678 51.8414C153.494 49.7281 150.775 48.68 147.59 48.68V50.68C150.294 50.68 152.503 51.5519 154.287 53.2786L155.678 51.8414ZM147.59 48.68C144.406 48.68 141.661 49.7276 139.418 51.8305L140.786 53.2895C142.639 51.5524 144.887 50.68 147.59 50.68V48.68ZM139.407 51.8414C137.23 53.9484 135.992 56.7072 135.651 60.0425L137.641 60.2455C137.941 57.3088 139.007 55.0116 140.798 53.2786L139.407 51.8414ZM213.592 52.752L213.609 53.7519L214.592 53.7349V52.752H213.592ZM203.512 54.576L203.869 55.5099L203.512 54.576ZM196.984 59.76L196.12 59.2561L195.984 59.4896V59.76H196.984ZM196.984 90V91H197.984V90H196.984ZM181.624 90H180.624V91H181.624V90ZM181.624 39.6V38.6H180.624V39.6H181.624ZM195.736 39.6H196.736V38.6H195.736V39.6ZM195.736 49.776H194.736L196.627 50.2299L195.736 49.776ZM202.456 41.808L201.884 40.9879L202.456 41.808ZM211.096 38.832V37.832H211.085L211.074 37.8322L211.096 38.832ZM213.592 38.928H214.592V38.0809L213.756 37.9416L213.592 38.928ZM213.575 51.7521C209.764 51.8179 206.286 52.4427 203.154 53.6421L203.869 55.5099C206.753 54.4053 209.996 53.8141 213.609 53.7519L213.575 51.7521ZM203.154 53.6421C199.979 54.8581 197.601 56.7168 196.12 59.2561L197.848 60.2639C199.054 58.1952 201.028 56.5979 203.869 55.5099L203.154 53.6421ZM195.984 59.76V90H197.984V59.76H195.984ZM196.984 89H181.624V91H196.984V89ZM182.624 90V39.6H180.624V90H182.624ZM181.624 40.6H195.736V38.6H181.624V40.6ZM194.736 39.6V49.776H196.736V39.6H194.736ZM196.627 50.2299C198.29 46.9644 200.428 44.4421 203.028 42.6281L201.884 40.9879C198.98 43.0139 196.637 45.8036 194.845 49.3221L196.627 50.2299ZM203.028 42.6281C205.637 40.8076 208.329 39.8911 211.117 39.8318L211.074 37.8322C207.847 37.9009 204.778 38.9684 201.884 40.9879L203.028 42.6281ZM211.096 39.832C212.395 39.832 213.14 39.8666 213.427 39.9144L213.756 37.9416C213.275 37.8614 212.356 37.832 211.096 37.832V39.832ZM212.592 38.928V52.752H214.592V38.928H212.592ZM219.302 66.192L218.5 65.5953L219.302 66.192ZM226.982 60.336L227.378 61.2542L227.386 61.251L227.393 61.2476L226.982 60.336ZM244.262 58.704L244.072 59.6858L244.088 59.6888L244.103 59.6912L244.262 58.704ZM249.446 60.144L249.048 61.0611L250.446 61.6692V60.144H249.446ZM231.398 50.832L231.039 49.8986L231.031 49.9018L231.398 50.832ZM223.622 54.96L222.717 55.3858L223.206 56.4243L224.168 55.798L223.622 54.96ZM219.014 45.168L218.467 44.331L217.739 44.8069L218.109 45.5938L219.014 45.168ZM258.47 44.112L257.811 44.8639L257.817 44.8692L257.823 44.8745L258.47 44.112ZM265.478 76.176L264.659 76.7495L264.677 76.7757L264.697 76.8007L265.478 76.176ZM268.07 77.232H269.07V76.2832L268.123 76.2334L268.07 77.232ZM268.07 90L268.257 90.9823L269.07 90.8275V90H268.07ZM264.422 90.576L264.305 89.5828L264.422 90.576ZM254.918 89.04L254.302 89.8275L254.31 89.8338L254.318 89.84L254.918 89.04ZM252.134 84.336L251.143 84.4653L251.147 84.4958L251.152 84.526L252.134 84.336ZM251.846 82.128L252.838 81.9987L252.528 79.6227L251.057 81.5141L251.846 82.128ZM243.782 88.752L244.207 89.6572L244.215 89.6537L244.222 89.6501L243.782 88.752ZM225.062 88.848L224.589 89.7292L224.598 89.7338L225.062 88.848ZM218.822 83.184L217.977 83.718L217.983 83.7282L218.822 83.184ZM247.046 76.848L246.422 76.0671L246.404 76.0809L246.388 76.0954L247.046 76.848ZM249.446 68.4H250.446V67.7108L249.802 67.4655L249.446 68.4ZM245.03 67.248L244.826 68.227L244.849 68.2317L244.872 68.2354L245.03 67.248ZM233.702 68.688L233.135 67.8648L233.128 67.8695L233.121 67.8743L233.702 68.688ZM233.03 78.096L232.341 78.8201L232.358 78.8369L232.377 78.8528L233.03 78.096ZM243.206 79.056L242.855 78.1197L243.206 79.056ZM217.518 74.928C217.518 71.799 218.386 69.0998 220.105 66.7887L218.5 65.5953C216.506 68.2762 215.518 71.401 215.518 74.928H217.518ZM220.105 66.7887C221.842 64.4529 224.252 62.6027 227.378 61.2542L226.586 59.4178C223.184 60.8853 220.475 62.9391 218.5 65.5953L220.105 66.7887ZM227.393 61.2476C230.507 59.8434 234.107 59.128 238.214 59.128V57.128C233.874 57.128 229.985 57.8846 226.571 59.4244L227.393 61.2476ZM238.214 59.128C240.199 59.128 242.152 59.3141 244.072 59.6858L244.452 57.7222C242.405 57.3259 240.325 57.128 238.214 57.128V59.128ZM244.103 59.6912C246.024 60.0011 247.668 60.4615 249.048 61.0611L249.845 59.2269C248.28 58.5465 246.468 58.0469 244.421 57.7168L244.103 59.6912ZM250.446 60.144V57.936H248.446V60.144H250.446ZM250.446 57.936C250.446 54.8866 249.539 52.4318 247.573 50.7652C245.638 49.1254 242.844 48.392 239.366 48.392V50.392C242.609 50.392 244.854 51.0826 246.28 52.2908C247.673 53.4722 248.446 55.2894 248.446 57.936H250.446ZM239.366 48.392C236.434 48.392 233.656 48.8923 231.039 49.8987L231.757 51.7653C234.133 50.8517 236.666 50.392 239.366 50.392V48.392ZM231.031 49.9018C228.523 50.8918 225.871 52.3022 223.077 54.122L224.168 55.798C226.877 54.0338 229.409 52.6922 231.765 51.7622L231.031 49.9018ZM224.527 54.5342L219.919 44.7422L218.109 45.5938L222.717 55.3858L224.527 54.5342ZM219.561 46.005C226.055 41.7591 233.161 39.64 240.902 39.64V37.64C232.771 37.64 225.285 39.8729 218.467 44.331L219.561 46.005ZM240.902 39.64C248.301 39.64 253.891 41.4261 257.811 44.8639L259.13 43.3601C254.73 39.5019 248.608 37.64 240.902 37.64V39.64ZM257.823 44.8745C261.772 48.2245 263.806 53.1301 263.806 59.76H265.806C265.806 52.6939 263.617 47.1675 259.117 43.3495L257.823 44.8745ZM263.806 59.76V72.912H265.806V59.76H263.806ZM263.806 72.912C263.806 74.4872 264.025 75.8434 264.659 76.7495L266.297 75.6025C266.036 75.2286 265.806 74.4088 265.806 72.912H263.806ZM264.697 76.8007C265.46 77.7535 266.657 78.159 268.018 78.2306L268.123 76.2334C267.052 76.177 266.521 75.8785 266.259 75.5513L264.697 76.8007ZM267.07 77.232V90H269.07V77.232H267.07ZM267.883 89.0177C266.557 89.2703 265.365 89.4582 264.305 89.5828L264.539 91.5692C265.656 91.4378 266.896 91.2417 268.257 90.9823L267.883 89.0177ZM264.305 89.5828C263.245 89.7076 262.325 89.768 261.542 89.768V91.768C262.423 91.768 263.424 91.7004 264.539 91.5692L264.305 89.5828ZM261.542 89.768C258.776 89.768 256.814 89.2117 255.518 88.24L254.318 89.84C256.095 91.1723 258.549 91.768 261.542 91.768V89.768ZM255.535 88.2525C254.268 87.2616 253.458 85.914 253.116 84.146L251.152 84.526C251.578 86.726 252.624 88.5144 254.302 89.8275L255.535 88.2525ZM253.126 84.2067L252.838 81.9987L250.855 82.2573L251.143 84.4653L253.126 84.2067ZM251.057 81.5141C248.906 84.2795 246.336 86.3879 243.342 87.8539L244.222 89.6501C247.501 88.0441 250.307 85.7365 252.636 82.7419L251.057 81.5141ZM243.357 87.8468C240.349 89.259 237.261 89.96 234.086 89.96V91.96C237.567 91.96 240.944 91.189 244.207 89.6572L243.357 87.8468ZM234.086 89.96C230.904 89.96 228.058 89.2881 225.526 87.9622L224.598 89.7338C227.443 91.2239 230.613 91.96 234.086 91.96V89.96ZM225.535 87.9668C223.051 86.634 221.1 84.8586 219.661 82.6398L217.983 83.7282C219.616 86.2454 221.825 88.246 224.589 89.7292L225.535 87.9668ZM219.668 82.65C218.24 80.3888 217.518 77.8244 217.518 74.928H215.518C215.518 78.1756 216.333 81.1152 217.977 83.718L219.668 82.65ZM247.671 77.6289C249.381 76.2604 250.446 74.6916 250.446 72.912H248.446C248.446 73.8204 247.911 74.8756 246.422 76.0671L247.671 77.6289ZM250.446 72.912V68.4H248.446V72.912H250.446ZM249.802 67.4655C248.387 66.9263 246.848 66.526 245.188 66.2606L244.872 68.2354C246.413 68.482 247.818 68.8497 249.09 69.3345L249.802 67.4655ZM245.234 66.269C243.646 65.938 242.168 65.768 240.806 65.768V67.768C242.004 67.768 243.343 67.918 244.826 68.227L245.234 66.269ZM240.806 65.768C237.78 65.768 235.198 66.4414 233.135 67.8648L234.27 69.5112C235.918 68.3746 238.073 67.768 240.806 67.768V65.768ZM233.121 67.8743C231.1 69.318 230.014 71.2379 230.014 73.584H232.014C232.014 71.9621 232.721 70.618 234.283 69.5017L233.121 67.8743ZM230.014 73.584C230.014 75.6075 230.815 77.367 232.341 78.8201L233.72 77.3719C232.558 76.265 232.014 75.0165 232.014 73.584H230.014ZM232.377 78.8528C234.007 80.2606 236.114 80.92 238.598 80.92V78.92C236.475 78.92 234.87 78.3634 233.684 77.3392L232.377 78.8528ZM238.598 80.92C240.262 80.92 241.917 80.6076 243.557 79.9923L242.855 78.1197C241.424 78.6564 240.006 78.92 238.598 78.92V80.92ZM243.557 79.9923C245.184 79.3825 246.574 78.5903 247.705 77.6006L246.388 76.0954C245.471 76.8977 244.301 77.5775 242.855 78.1197L243.557 79.9923ZM282.56 88.848L282.217 89.7874L282.226 89.7906L282.235 89.7937L282.56 88.848ZM272.288 82.608L271.41 82.1298L271.044 82.8025L271.598 83.3314L272.288 82.608ZM277.568 72.912L278.159 72.1051L277.237 71.43L276.69 72.4338L277.568 72.912ZM299.36 78.768L299.867 79.6299L299.36 78.768ZM298.784 72.816L298.386 73.7331L298.403 73.7405L298.42 73.7472L298.784 72.816ZM292.256 70.608L291.94 71.5567L291.959 71.5631L291.979 71.5687L292.256 70.608ZM282.656 66.864L282.227 67.7673L282.656 66.864ZM276.896 62.448L276.093 63.0432L276.896 62.448ZM280.64 43.344L281.271 44.1197L281.279 44.1133L280.64 43.344ZM306.08 40.272L305.764 41.2207L305.77 41.2225L306.08 40.272ZM315.392 45.744L316.242 46.2709L316.686 45.5557L316.057 44.9966L315.392 45.744ZM309.44 55.344L308.873 56.1675L309.737 56.7629L310.29 55.8709L309.44 55.344ZM301.76 51.024L301.389 51.9525L301.76 51.024ZM291.008 50.64L291.455 51.5344L291.475 51.5247L291.494 51.5142L291.008 50.64ZM291.2 56.88L290.718 57.7562L290.736 57.7657L290.753 57.7744L291.2 56.88ZM297.152 58.992L297.437 58.0333L297.427 58.0305L297.152 58.992ZM307.424 62.736L307.003 63.6427L307.015 63.6486L307.028 63.6541L307.424 62.736ZM313.664 67.344L312.854 67.9305L312.866 67.9464L312.878 67.9618L313.664 67.344ZM310.208 86.64L310.821 87.4301L310.83 87.4235L310.208 86.64ZM295.232 89.96C290.99 89.96 286.876 89.2742 282.885 87.9023L282.235 89.7937C286.436 91.2378 290.77 91.96 295.232 91.96V89.96ZM282.903 87.9086C278.987 86.479 275.685 84.4681 272.979 81.8846L271.598 83.3314C274.523 86.1239 278.069 88.273 282.217 89.7874L282.903 87.9086ZM273.166 83.0862L278.446 73.3902L276.69 72.4338L271.41 82.1298L273.166 83.0862ZM276.978 73.7189C283.281 78.3325 289.214 80.728 294.752 80.728V78.728C289.795 78.728 284.272 76.5795 278.159 72.1051L276.978 73.7189ZM294.752 80.728C296.822 80.728 298.562 80.398 299.867 79.6299L298.853 77.9061C297.983 78.418 296.651 78.728 294.752 78.728V80.728ZM299.867 79.6299C301.284 78.7965 301.992 77.4624 301.992 75.792H299.992C299.992 76.8096 299.612 77.4595 298.853 77.9061L299.867 79.6299ZM301.992 75.792C301.992 74.9047 301.757 74.0881 301.243 73.3962C300.736 72.7126 300.011 72.2223 299.149 71.8848L298.42 73.7472C299.029 73.9857 299.408 74.2794 299.637 74.5878C299.86 74.8879 299.992 75.2713 299.992 75.792H301.992ZM299.183 71.8989C297.651 71.233 295.426 70.4829 292.534 69.6473L291.979 71.5687C294.846 72.3971 296.973 73.119 298.386 73.7331L299.183 71.8989ZM292.572 69.6593C288.756 68.3872 285.597 67.1537 283.085 65.9607L282.227 67.7673C284.836 69.0063 288.076 70.2688 291.94 71.5567L292.572 69.6593ZM283.085 65.9607C280.628 64.7935 278.856 63.4137 277.7 61.8528L276.093 63.0432C277.496 64.9383 279.564 66.5025 282.227 67.7673L283.085 65.9607ZM277.7 61.8528C276.584 60.347 275.976 58.2737 275.976 55.536H273.976C273.976 58.5583 274.648 61.093 276.093 63.0432L277.7 61.8528ZM275.976 55.536C275.976 50.7675 277.739 46.9935 281.271 44.1197L280.009 42.5683C275.99 45.8385 273.976 50.1925 273.976 55.536H275.976ZM281.279 44.1133C284.826 41.168 289.695 39.64 296 39.64V37.64C289.378 37.64 284.007 39.248 280.001 42.5747L281.279 44.1133ZM296 39.64C299.349 39.64 302.602 40.1668 305.764 41.2207L306.396 39.3233C303.03 38.2012 299.563 37.64 296 37.64V39.64ZM305.77 41.2225C308.954 42.2637 311.94 44.0134 314.728 46.4914L316.057 44.9966C313.084 42.3546 309.862 40.4563 306.391 39.3215L305.77 41.2225ZM314.542 45.2171L308.59 54.8171L310.29 55.8709L316.242 46.2709L314.542 45.2171ZM310.008 54.5205C307.091 52.5114 304.464 51.0284 302.132 50.0955L301.389 51.9525C303.537 52.8116 306.029 54.2086 308.873 56.1675L310.008 54.5205ZM302.132 50.0955C299.79 49.1589 297.488 48.68 295.232 48.68V50.68C297.2 50.68 299.25 51.0971 301.389 51.9525L302.132 50.0955ZM295.232 48.68C293.442 48.68 291.857 49.0244 290.523 49.7658L291.494 51.5142C292.463 50.9756 293.694 50.68 295.232 50.68V48.68ZM290.561 49.7456C289.824 50.1139 289.236 50.6469 288.841 51.3497C288.45 52.0447 288.28 52.847 288.28 53.712H290.28C290.28 53.1049 290.399 52.6593 290.584 52.3303C290.764 52.009 291.04 51.7421 291.455 51.5344L290.561 49.7456ZM288.28 53.712C288.28 54.5726 288.478 55.373 288.905 56.0783C289.331 56.7816 289.953 57.3353 290.718 57.7562L291.682 56.0038C291.168 55.7207 290.829 55.3943 290.615 55.0417C290.403 54.6909 290.28 54.2594 290.28 53.712H288.28ZM290.753 57.7744C292.118 58.4571 294.175 59.1814 296.878 59.9535L297.427 58.0305C294.754 57.2666 292.842 56.5829 291.647 55.9856L290.753 57.7744ZM296.868 59.9506C300.934 61.1579 304.309 62.3898 307.003 63.6427L307.846 61.8293C305.036 60.5222 301.562 59.2581 297.437 58.0334L296.868 59.9506ZM307.028 63.6541C309.733 64.8221 311.646 66.2615 312.854 67.9305L314.474 66.7575C312.995 64.7145 310.748 63.0819 307.821 61.8179L307.028 63.6541ZM312.878 67.9618C314.109 69.5284 314.776 71.6882 314.776 74.544H316.776C316.776 71.3838 316.036 68.7436 314.451 66.7262L312.878 67.9618ZM314.776 74.544C314.776 79.387 313.038 83.1191 309.587 85.8565L310.83 87.4235C314.802 84.2729 316.776 79.941 316.776 74.544H314.776ZM309.595 85.8499C306.109 88.5545 301.356 89.96 295.232 89.96V91.96C301.652 91.96 306.883 90.4855 310.821 87.4301L309.595 85.8499ZM323.655 33.84H322.655V34.84H323.655V33.84ZM323.655 19.92V18.92H322.655V19.92H323.655ZM339.015 19.92H340.015V18.92H339.015V19.92ZM339.015 33.84V34.84H340.015V33.84H339.015ZM323.655 90H322.655V91H323.655V90ZM323.655 39.6V38.6H322.655V39.6H323.655ZM339.015 39.6H340.015V38.6H339.015V39.6ZM339.015 90V91H340.015V90H339.015ZM324.655 33.84V19.92H322.655V33.84H324.655ZM323.655 20.92H339.015V18.92H323.655V20.92ZM338.015 19.92V33.84H340.015V19.92H338.015ZM339.015 32.84H323.655V34.84H339.015V32.84ZM324.655 90V39.6H322.655V90H324.655ZM323.655 40.6H339.015V38.6H323.655V40.6ZM338.015 39.6V90H340.015V39.6H338.015ZM339.015 89H323.655V91H339.015V89ZM357.402 86.736L357.971 85.9138L357.402 86.736ZM349.53 77.52L348.63 77.9552L348.636 77.9672L349.53 77.52ZM349.722 51.504L350.613 51.9571L350.616 51.9512L349.722 51.504ZM357.978 42.096L358.526 42.9327L357.978 42.096ZM380.154 41.136L379.654 42.0019L379.661 42.0061L379.668 42.0102L380.154 41.136ZM387.066 47.856L386.208 48.3705L388.066 51.4663V47.856H387.066ZM387.066 39.6V38.6H386.066V39.6H387.066ZM400.41 39.6H401.41V38.6H400.41V39.6ZM396.666 99.792L395.836 99.234L395.83 99.244L396.666 99.792ZM386.394 108.336L385.984 107.424L385.976 107.427L385.968 107.431L386.394 108.336ZM357.306 108.72L357.723 107.811L357.716 107.808L357.306 108.72ZM347.226 101.328L346.515 100.625L345.852 101.296L346.483 101.997L347.226 101.328ZM355.482 92.976L356.233 92.3159L355.525 91.51L354.771 92.273L355.482 92.976ZM362.394 97.968L362.808 97.0576L362.798 97.0533L362.394 97.968ZM378.042 98.544L377.651 97.6234L377.641 97.6278L378.042 98.544ZM383.13 94.224L382.298 93.6693L382.294 93.6756L382.29 93.6819L383.13 94.224ZM385.05 81.648H386.05L384.172 81.1692L385.05 81.648ZM378.33 88.08L378.769 88.9784L378.777 88.9744L378.33 88.08ZM380.73 76.08L381.298 76.9032L381.307 76.8967L381.316 76.8899L380.73 76.08ZM385.05 70.992L385.944 71.4392L386.05 71.2281V70.992H385.05ZM385.05 60.432H386.05V60.2438L385.982 60.0685L385.05 60.432ZM367.77 53.616L368.36 54.4234L368.365 54.4196L367.77 53.616ZM369.114 89.192C364.815 89.192 361.114 88.0898 357.971 85.9138L356.833 87.5582C360.346 89.9902 364.453 91.192 369.114 91.192V89.192ZM357.971 85.9138C354.79 83.7113 352.274 80.7719 350.424 77.0728L348.636 77.9672C350.626 81.9481 353.358 85.1527 356.833 87.5582L357.971 85.9138ZM350.43 77.0848C348.646 73.3931 347.746 69.2879 347.746 64.752H345.746C345.746 69.5601 346.702 73.9669 348.63 77.9552L350.43 77.0848ZM347.746 64.752C347.746 59.9615 348.709 55.7039 350.613 51.957L348.831 51.0509C346.767 55.1121 345.746 59.6865 345.746 64.752H347.746ZM350.616 51.9512C352.526 48.1325 355.162 45.1345 358.526 42.9327L357.43 41.2593C353.754 43.6655 350.886 46.9395 348.828 51.0568L350.616 51.9512ZM358.526 42.9327C361.867 40.7453 365.737 39.64 370.17 39.64V37.64C365.387 37.64 361.129 38.8386 357.43 41.2593L358.526 42.9327ZM370.17 39.64C373.795 39.64 376.945 40.4371 379.654 42.0019L380.654 40.2701C377.603 38.5069 374.097 37.64 370.17 37.64V39.64ZM379.668 42.0102C382.392 43.5232 384.569 45.6379 386.208 48.3705L387.923 47.3415C386.107 44.3141 383.676 41.9488 380.64 40.2618L379.668 42.0102ZM388.066 47.856V39.6H386.066V47.856H388.066ZM387.066 40.6H400.41V38.6H387.066V40.6ZM399.41 39.6V86.544H401.41V39.6H399.41ZM399.41 86.544C399.41 91.4948 398.206 95.7099 395.836 99.234L397.496 100.35C400.118 96.4501 401.41 91.8332 401.41 86.544H399.41ZM395.83 99.244C393.512 102.782 390.243 105.511 385.984 107.424L386.804 109.248C391.377 107.193 394.956 104.226 397.502 100.34L395.83 99.244ZM385.968 107.431C381.773 109.405 376.867 110.408 371.226 110.408V112.408C377.105 112.408 382.311 111.363 386.82 109.241L385.968 107.431ZM371.226 110.408C365.959 110.408 361.468 109.53 357.723 107.811L356.889 109.629C360.952 111.494 365.741 112.408 371.226 112.408V110.408ZM357.716 107.808C354.006 106.138 350.759 103.758 347.969 100.659L346.483 101.997C349.453 105.298 352.926 107.846 356.896 109.632L357.716 107.808ZM347.937 102.031L356.193 93.679L354.771 92.273L346.515 100.625L347.937 102.031ZM354.731 93.6361C356.689 95.8647 359.115 97.6122 361.99 98.8827L362.798 97.0533C360.169 95.8918 357.987 94.3113 356.233 92.3159L354.731 93.6361ZM361.98 98.8784C364.925 100.217 368.01 100.888 371.226 100.888V98.888C368.298 98.888 365.495 98.279 362.808 97.0576L361.98 98.8784ZM371.226 100.888C373.844 100.888 376.254 100.418 378.443 99.4602L377.641 97.6278C375.734 98.4624 373.6 98.888 371.226 98.888V100.888ZM378.433 99.4646C380.735 98.4879 382.585 96.9133 383.97 94.7661L382.29 93.6819C381.115 95.5027 379.573 96.8081 377.651 97.6234L378.433 99.4646ZM383.962 94.7787C385.386 92.6422 386.05 89.8676 386.05 86.544H384.05C384.05 89.6204 383.434 91.9658 382.298 93.6693L383.962 94.7787ZM386.05 86.544V81.648H384.05V86.544H386.05ZM384.172 81.1692C382.737 83.801 380.649 85.8023 377.883 87.1856L378.777 88.9744C381.899 87.4137 384.291 85.127 385.928 82.1269L384.172 81.1692ZM377.891 87.1816C375.15 88.5215 372.229 89.192 369.114 89.192V91.192C372.527 91.192 375.75 90.4545 378.769 88.9784L377.891 87.1816ZM374.394 79C376.954 79 379.266 78.3043 381.298 76.9032L380.162 75.2568C378.482 76.4157 376.57 77 374.394 77V79ZM381.316 76.8899C383.303 75.4516 384.848 73.6312 385.944 71.4392L384.156 70.5448C383.204 72.4487 381.869 74.0204 380.143 75.2701L381.316 76.8899ZM386.05 70.992V60.432H384.05V70.992H386.05ZM385.982 60.0685C384.895 57.2838 383.218 55.0175 380.95 53.2989L379.742 54.8931C381.698 56.3745 383.157 58.3322 384.118 60.7955L385.982 60.0685ZM380.95 53.2989C378.686 51.5837 376.238 50.696 373.626 50.696V52.696C375.75 52.696 377.782 53.4083 379.742 54.8931L380.95 53.2989ZM373.626 50.696C371.238 50.696 369.077 51.4032 367.175 52.8124L368.365 54.4196C369.919 53.2688 371.662 52.696 373.626 52.696V50.696ZM367.18 52.8086C365.367 54.1332 363.953 55.9026 362.929 58.0876L364.739 58.9364C365.635 57.0254 366.845 55.5308 368.36 54.4234L367.18 52.8086ZM362.929 58.0876C361.903 60.2746 361.394 62.6284 361.394 65.136H363.394C363.394 62.9076 363.845 60.8454 364.739 58.9364L362.929 58.0876ZM361.394 65.136C361.394 69.0738 362.624 72.4013 365.124 75.0397L366.576 73.6643C364.468 71.4387 363.394 68.6222 363.394 65.136H361.394ZM365.124 75.0397C367.62 77.6739 370.731 79 374.394 79V77C371.273 77 368.688 75.8941 366.576 73.6643L365.124 75.0397ZM459.512 90V91H460.512V90H459.512ZM444.152 90H443.152V91H444.152V90ZM442.136 54.48L441.368 55.1202L441.376 55.1294L441.384 55.1385L442.136 54.48ZM430.904 54.672L431.497 55.4777L431.501 55.4747L430.904 54.672ZM426.296 61.104L425.348 60.7878L425.296 60.9417V61.104H426.296ZM426.296 90V91H427.296V90H426.296ZM410.936 90H409.936V91H410.936V90ZM410.936 19.92V18.92H409.936V19.92H410.936ZM426.296 19.92H427.296V18.92H426.296V19.92ZM426.296 48.048H425.296V51.6804L427.155 48.5598L426.296 48.048ZM433.592 41.136L434.054 42.0229L434.061 42.0192L434.069 42.0153L433.592 41.136ZM451.928 40.368L451.449 41.2459L451.928 40.368ZM456.728 44.976L455.858 45.469L455.862 45.4754L455.866 45.4817L456.728 44.976ZM458.936 51.12L457.951 51.289V51.289L458.936 51.12ZM459.512 89H444.152V91H459.512V89ZM445.152 90V61.68H443.152V90H445.152ZM445.152 61.68C445.152 58.3108 444.464 55.6216 442.889 53.8215L441.384 55.1385C442.497 56.4104 443.152 58.5212 443.152 61.68H445.152ZM442.904 53.8398C441.416 52.0539 439.395 51.176 436.952 51.176V53.176C438.861 53.176 440.296 53.8341 441.368 55.1202L442.904 53.8398ZM436.952 51.176C434.855 51.176 432.63 52.1439 430.308 53.8693L431.501 55.4747C433.658 53.8721 435.465 53.176 436.952 53.176V51.176ZM430.312 53.8663C427.961 55.595 426.306 57.9139 425.348 60.7878L427.245 61.4202C428.079 58.918 429.496 56.949 431.497 55.4776L430.312 53.8663ZM425.296 61.104V90H427.296V61.104H425.296ZM426.296 89H410.936V91H426.296V89ZM411.936 90V19.92H409.936V90H411.936ZM410.936 20.92H426.296V18.92H410.936V20.92ZM425.296 19.92V48.048H427.296V19.92H425.296ZM427.155 48.5598C428.853 45.7094 431.149 43.5362 434.054 42.0229L433.13 40.2491C429.892 41.9358 427.323 44.3705 425.437 47.5362L427.155 48.5598ZM434.069 42.0153C436.988 40.4341 440.183 39.64 443.672 39.64V37.64C439.866 37.64 436.341 38.5099 433.116 40.2567L434.069 42.0153ZM443.672 39.64C446.962 39.64 449.532 40.2001 451.449 41.2459L452.407 39.4901C450.1 38.2319 447.167 37.64 443.672 37.64V39.64ZM451.449 41.2459C453.413 42.3169 454.87 43.7258 455.858 45.469L457.598 44.483C456.41 42.3862 454.668 40.7231 452.407 39.4901L451.449 41.2459ZM455.866 45.4817C456.889 47.228 457.586 49.1609 457.951 51.289L459.922 50.951C459.519 48.5991 458.743 46.436 457.591 44.4703L455.866 45.4817ZM457.951 51.289C458.326 53.4756 458.512 55.6271 458.512 57.744H460.512C460.512 55.5089 460.315 53.2444 459.922 50.951L457.951 51.289ZM458.512 57.744V90H460.512V57.744H458.512ZM502.264 87.312L502.654 88.2326L503.437 87.9006L503.235 87.0749L502.264 87.312ZM494.968 89.808L494.699 88.8448L494.693 88.8465L494.968 89.808ZM479.8 89.712L479.409 90.6326L479.421 90.6376L479.433 90.6424L479.8 89.712ZM474.712 85.392L473.871 85.9341L474.712 85.392ZM472.792 51.216H473.792V50.216H472.792V51.216ZM466.36 51.216H465.36V52.216H466.36V51.216ZM466.36 39.6V38.6H465.36V39.6H466.36ZM472.792 39.6V40.6H473.792V39.6H472.792ZM472.792 23.568V22.568H471.792V23.568H472.792ZM488.152 23.568H489.152V22.568H488.152V23.568ZM488.152 39.6H487.152V40.6H488.152V39.6ZM498.424 39.6H499.424V38.6H498.424V39.6ZM498.424 51.216V52.216H499.424V51.216H498.424ZM488.152 51.216V50.216H487.152V51.216H488.152ZM489.4 75.888L488.721 76.6228L488.737 76.6374L488.754 76.6514L489.4 75.888ZM496.12 76.368L496.421 77.3216L496.12 76.368ZM499.288 75.12L500.259 74.8829L499.962 73.6649L498.841 74.2256L499.288 75.12ZM501.873 86.3914C499.809 87.2671 497.419 88.0857 494.699 88.8448L495.237 90.7712C498.02 89.9943 500.494 89.1489 502.654 88.2326L501.873 86.3914ZM494.693 88.8465C492.093 89.5894 489.465 89.96 486.808 89.96V91.96C489.654 91.96 492.467 91.5626 495.242 90.7695L494.693 88.8465ZM486.808 89.96C484.357 89.96 482.148 89.5621 480.166 88.7816L479.433 90.6424C481.676 91.5259 484.138 91.96 486.808 91.96V89.96ZM480.19 88.7914C478.268 87.9761 476.727 86.6707 475.552 84.8499L473.871 85.9341C475.257 88.0813 477.107 89.6559 479.409 90.6326L480.19 88.7914ZM475.552 84.8499C474.409 83.0782 473.792 80.6626 473.792 77.52H471.792C471.792 80.9054 472.454 83.7378 473.871 85.9341L475.552 84.8499ZM473.792 77.52V51.216H471.792V77.52H473.792ZM472.792 50.216H466.36V52.216H472.792V50.216ZM467.36 51.216V39.6H465.36V51.216H467.36ZM466.36 40.6H472.792V38.6H466.36V40.6ZM473.792 39.6V23.568H471.792V39.6H473.792ZM472.792 24.568H488.152V22.568H472.792V24.568ZM487.152 23.568V39.6H489.152V23.568H487.152ZM488.152 40.6H498.424V38.6H488.152V40.6ZM497.424 39.6V51.216H499.424V39.6H497.424ZM498.424 50.216H488.152V52.216H498.424V50.216ZM487.152 51.216V72.24H489.152V51.216H487.152ZM487.152 72.24C487.152 74.0509 487.604 75.5914 488.721 76.6228L490.078 75.1532C489.531 74.6486 489.152 73.7571 489.152 72.24H487.152ZM488.754 76.6514C489.797 77.534 491.095 77.944 492.568 77.944V75.944C491.481 75.944 490.667 75.65 490.046 75.1246L488.754 76.6514ZM492.568 77.944C493.832 77.944 495.118 77.7331 496.421 77.3216L495.819 75.4144C494.69 75.7709 493.607 75.944 492.568 75.944V77.944ZM496.421 77.3216C497.674 76.9258 498.781 76.4913 499.735 76.0144L498.841 74.2256C498.002 74.6447 496.997 75.0422 495.819 75.4144L496.421 77.3216ZM498.316 75.3571L501.292 87.5491L503.235 87.0749L500.259 74.8829L498.316 75.3571ZM514.873 88.848L514.53 89.7874L514.539 89.7906L514.548 89.7937L514.873 88.848ZM504.601 82.608L503.723 82.1298L503.356 82.8025L503.91 83.3314L504.601 82.608ZM509.881 72.912L510.471 72.1051L509.549 71.43L509.003 72.4338L509.881 72.912ZM531.673 78.768L532.18 79.6299L531.673 78.768ZM531.097 72.816L530.698 73.7331L530.715 73.7405L530.732 73.7472L531.097 72.816ZM524.569 70.608L524.253 71.5567L524.272 71.5631L524.291 71.5687L524.569 70.608ZM514.969 66.864L514.54 67.7673L514.969 66.864ZM509.209 62.448L508.405 63.0432L509.209 62.448ZM512.953 43.344L513.584 44.1197L513.592 44.1133L512.953 43.344ZM538.393 40.272L538.077 41.2207L538.082 41.2225L538.393 40.272ZM547.705 45.744L548.555 46.2709L548.998 45.5557L548.369 44.9966L547.705 45.744ZM541.753 55.344L541.185 56.1675L542.05 56.7629L542.603 55.8709L541.753 55.344ZM534.073 51.024L533.701 51.9525L534.073 51.024ZM523.321 50.64L523.768 51.5344L523.787 51.5247L523.806 51.5142L523.321 50.64ZM523.513 56.88L523.031 57.7562L523.048 57.7657L523.066 57.7744L523.513 56.88ZM529.465 58.992L529.749 58.0333L529.74 58.0305L529.465 58.992ZM539.737 62.736L539.315 63.6427L539.328 63.6486L539.34 63.6541L539.737 62.736ZM545.977 67.344L545.167 67.9305L545.178 67.9464L545.19 67.9618L545.977 67.344ZM542.521 86.64L543.134 87.4301L543.142 87.4235L542.521 86.64ZM527.545 89.96C523.303 89.96 519.189 89.2742 515.198 87.9023L514.548 89.7937C518.749 91.2378 523.083 91.96 527.545 91.96V89.96ZM515.216 87.9086C511.3 86.479 507.998 84.4681 505.291 81.8846L503.91 83.3314C506.836 86.1239 510.382 88.273 514.53 89.7874L515.216 87.9086ZM505.479 83.0862L510.759 73.3902L509.003 72.4338L503.723 82.1298L505.479 83.0862ZM509.29 73.7189C515.593 78.3325 521.526 80.728 527.065 80.728V78.728C522.107 78.728 516.584 76.5795 510.471 72.1051L509.29 73.7189ZM527.065 80.728C529.134 80.728 530.874 80.398 532.18 79.6299L531.166 77.9061C530.295 78.418 528.963 78.728 527.065 78.728V80.728ZM532.18 79.6299C533.597 78.7965 534.305 77.4624 534.305 75.792H532.305C532.305 76.8096 531.925 77.4595 531.166 77.9061L532.18 79.6299ZM534.305 75.792C534.305 74.9047 534.069 74.0881 533.556 73.3962C533.049 72.7126 532.324 72.2223 531.461 71.8848L530.732 73.7472C531.342 73.9857 531.721 74.2794 531.95 74.5878C532.172 74.8879 532.305 75.2713 532.305 75.792H534.305ZM531.495 71.8989C529.964 71.233 527.739 70.4829 524.846 69.6473L524.291 71.5687C527.159 72.3971 529.286 73.119 530.698 73.7331L531.495 71.8989ZM524.885 69.6593C521.069 68.3872 517.909 67.1537 515.398 65.9607L514.54 67.7673C517.148 69.0063 520.389 70.2688 524.253 71.5567L524.885 69.6593ZM515.398 65.9607C512.941 64.7935 511.169 63.4137 510.012 61.8528L508.405 63.0432C509.809 64.9383 511.877 66.5025 514.54 67.7673L515.398 65.9607ZM510.012 61.8528C508.897 60.347 508.289 58.2737 508.289 55.536H506.289C506.289 58.5583 506.961 61.093 508.405 63.0432L510.012 61.8528ZM508.289 55.536C508.289 50.7675 510.051 46.9935 513.584 44.1197L512.322 42.5683C508.302 45.8385 506.289 50.1925 506.289 55.536H508.289ZM513.592 44.1133C517.138 41.168 522.007 39.64 528.313 39.64V37.64C521.69 37.64 516.32 39.248 512.314 42.5747L513.592 44.1133ZM528.313 39.64C531.662 39.64 534.915 40.1668 538.077 41.2207L538.709 39.3233C535.343 38.2012 531.876 37.64 528.313 37.64V39.64ZM538.082 41.2225C541.267 42.2637 544.253 44.0134 547.04 46.4914L548.369 44.9966C545.397 42.3546 542.175 40.4563 538.703 39.3215L538.082 41.2225ZM546.855 45.2171L540.903 54.8171L542.603 55.8709L548.555 46.2709L546.855 45.2171ZM542.32 54.5205C539.404 52.5114 536.776 51.0284 534.444 50.0955L533.701 51.9525C535.849 52.8116 538.342 54.2086 541.185 56.1675L542.32 54.5205ZM534.444 50.0955C532.103 49.1589 529.801 48.68 527.545 48.68V50.68C529.513 50.68 531.563 51.0971 533.701 51.9525L534.444 50.0955ZM527.545 48.68C525.755 48.68 524.17 49.0244 522.835 49.7658L523.806 51.5142C524.776 50.9756 526.007 50.68 527.545 50.68V48.68ZM522.874 49.7456C522.137 50.1139 521.549 50.6469 521.153 51.3497C520.762 52.0447 520.593 52.847 520.593 53.712H522.593C522.593 53.1049 522.711 52.6593 522.896 52.3303C523.077 52.009 523.353 51.7421 523.768 51.5344L522.874 49.7456ZM520.593 53.712C520.593 54.5726 520.79 55.373 521.218 56.0783C521.644 56.7816 522.265 57.3353 523.031 57.7562L523.995 56.0038C523.48 55.7207 523.142 55.3943 522.928 55.0417C522.715 54.6909 522.593 54.2594 522.593 53.712H520.593ZM523.066 57.7744C524.431 58.4571 526.487 59.1814 529.19 59.9535L529.74 58.0305C527.066 57.2666 525.155 56.5829 523.96 55.9856L523.066 57.7744ZM529.18 59.9506C533.247 61.1579 536.621 62.3898 539.315 63.6427L540.159 61.8293C537.348 60.5222 533.875 59.2581 529.749 58.0334L529.18 59.9506ZM539.34 63.6541C542.045 64.8221 543.958 66.2615 545.167 67.9305L546.787 66.7575C545.307 64.7145 543.06 63.0819 540.133 61.8179L539.34 63.6541ZM545.19 67.9618C546.421 69.5284 547.089 71.6882 547.089 74.544H549.089C549.089 71.3838 548.348 68.7436 546.763 66.7262L545.19 67.9618ZM547.089 74.544C547.089 79.387 545.351 83.1191 541.899 85.8565L543.142 87.4235C547.115 84.2729 549.089 79.941 549.089 74.544H547.089ZM541.908 85.8499C538.422 88.5545 533.669 89.96 527.545 89.96V91.96C533.965 91.96 539.196 90.4855 543.134 87.4301L541.908 85.8499Z" fill="black"/>
</svg>
