<svg width="682" height="867" viewBox="0 0 682 867" fill="none" xmlns="http://www.w3.org/2000/svg">
<rect x="222" y="305.616" width="39.8824" height="450" transform="rotate(-30.3327 222 305.616)" fill="#6370E6"/>
<rect x="256.817" y="285.71" width="39.8824" height="450" transform="rotate(-30.3327 256.817 285.71)" fill="white"/>
<rect x="222" y="305.616" width="39.8824" height="450" transform="rotate(-30.3327 222 305.616)" fill="#86A1FF"/>
<rect x="359.478" y="227.364" width="39.8824" height="450" transform="rotate(-30.3327 359.478 227.364)" fill="#86A1FF"/>
<rect x="324.87" y="248.043" width="39.8824" height="450" transform="rotate(-30.3327 324.87 248.043)" fill="white"/>
<rect x="290.791" y="267.949" width="39.8824" height="450" transform="rotate(-30.3327 290.791 267.949)" fill="#86A1FF"/>
<rect x="228.592" y="299.886" width="38.8824" height="449" transform="rotate(-30.3327 228.592 299.886)" stroke="black"/>
<rect x="263.41" y="279.981" width="38.8824" height="449" transform="rotate(-30.3327 263.41 279.981)" stroke="black"/>
<rect x="228.592" y="299.886" width="38.8824" height="449" transform="rotate(-30.3327 228.592 299.886)" stroke="black"/>
<rect x="366.07" y="221.634" width="38.8824" height="449" transform="rotate(-30.3327 366.07 221.634)" stroke="black"/>
<rect x="331.462" y="242.314" width="38.8824" height="449" transform="rotate(-30.3327 331.462 242.314)" stroke="black"/>
<rect x="297.383" y="262.219" width="38.8824" height="449" transform="rotate(-30.3327 297.383 262.219)" stroke="black"/>
<g opacity="0.85">
<path d="M448.848 688.954L400.593 504.662C454.943 525.33 488.222 528.913 542.423 524.322L448.848 688.954Z" fill="#FF018A" fill-opacity="0.75"/>
<path d="M452.072 687.313L287.263 591.762C340.215 567.739 366.199 546.639 401.116 504.93L452.072 687.313Z" fill="#2400FF" fill-opacity="0.55"/>
<path d="M452.645 686.719L268 733.606C289.071 679.411 292.901 646.159 288.711 591.926L452.645 686.719Z" fill="#2400FF" fill-opacity="0.75"/>
<path d="M445.892 687.223L542.307 522.918C566.052 575.995 587.015 602.09 628.54 637.225L445.892 687.223Z" fill="#FF0089" fill-opacity="0.55"/>
<path d="M446.837 682.23L496.254 866.214C441.774 845.89 408.473 842.516 354.302 847.45L446.837 682.23Z" fill="#FF0000" fill-opacity="0.75"/>
<path d="M443.941 685.434L628.334 637.567C607.552 691.874 603.898 725.145 608.376 779.356L443.941 685.434Z" fill="#0075FF" fill-opacity="0.75"/>
<path d="M451.871 685.428L354.398 849.108C330.996 795.878 310.201 769.649 268.904 734.247L451.871 685.428Z" fill="#FF0000" fill-opacity="0.55"/>
<path d="M446.245 683.408L610.621 779.702C557.561 803.486 531.482 824.468 496.377 866.019L446.245 683.408Z" fill="#0072FF" fill-opacity="0.55"/>
<circle cx="448.337" cy="685.812" r="14.0426" fill="black"/>
<path d="M548.145 518.278L455.646 681.018L407.948 498.852C461.522 519.125 494.733 522.729 548.145 518.278Z" stroke="black"/>
<path d="M407.515 499.357L457.886 679.643L294.979 585.194C347.104 561.443 373.054 540.407 407.515 499.357Z" stroke="black"/>
<path d="M295.908 586.212L457.957 679.916L275.443 726.261C296.113 672.839 299.963 639.656 295.908 586.212Z" stroke="black"/>
<path d="M634.119 630.372L453.571 679.795L548.873 517.386C572.35 569.635 593.25 595.695 634.119 630.372Z" stroke="black"/>
<path d="M361.828 840.245L453.299 676.925L502.145 858.786C448.444 838.852 415.212 835.458 361.828 840.245Z" stroke="black"/>
<path d="M614.426 771.83L451.881 678.988L634.147 631.673C613.761 685.205 610.088 718.407 614.426 771.83Z" stroke="black"/>
<path d="M276.575 727.864L457.439 679.607L361.09 841.398C337.951 788.998 317.219 762.804 276.575 727.864Z" stroke="black"/>
<path d="M503.234 858.351L453.679 677.839L616.158 773.022C563.925 796.538 537.881 817.457 503.234 858.351Z" stroke="black"/>
<circle cx="454.963" cy="679.19" r="13.5426" stroke="black"/>
</g>
<g opacity="0.85">
<path d="M180.848 451.954L132.593 267.662C186.943 288.33 220.222 291.913 274.423 287.322L180.848 451.954Z" fill="#FF018A" fill-opacity="0.75"/>
<path d="M184.072 450.313L19.2629 354.762C72.2153 330.739 98.199 309.639 133.116 267.93L184.072 450.313Z" fill="#2400FF" fill-opacity="0.55"/>
<path d="M184.645 449.719L0.000467771 496.606C21.0709 442.411 24.9009 409.159 20.7114 354.926L184.645 449.719Z" fill="#2400FF" fill-opacity="0.75"/>
<path d="M177.892 450.223L274.307 285.918C298.052 338.995 319.015 365.09 360.54 400.225L177.892 450.223Z" fill="#FF0089" fill-opacity="0.55"/>
<path d="M178.837 445.23L228.254 629.214C173.774 608.89 140.473 605.516 86.3024 610.45L178.837 445.23Z" fill="#FF0000" fill-opacity="0.75"/>
<path d="M175.941 448.434L360.334 400.567C339.552 454.874 335.898 488.145 340.376 542.356L175.941 448.434Z" fill="#0075FF" fill-opacity="0.75"/>
<path d="M183.871 448.428L86.3976 612.108C62.9955 558.878 42.2013 532.649 0.903882 497.247L183.871 448.428Z" fill="#FF0000" fill-opacity="0.55"/>
<path d="M178.245 446.408L342.621 542.703C289.561 566.486 263.482 587.469 228.377 629.019L178.245 446.408Z" fill="#0072FF" fill-opacity="0.55"/>
<circle cx="180.337" cy="448.811" r="14.0426" fill="black"/>
<path d="M280.145 281.278L187.646 444.018L139.948 261.852C193.522 282.125 226.733 285.729 280.145 281.278Z" stroke="black"/>
<path d="M139.515 262.357L189.886 442.643L26.9785 348.194C79.104 324.443 105.054 303.407 139.515 262.357Z" stroke="black"/>
<path d="M27.9084 349.212L189.957 442.916L7.44326 489.261C28.1127 435.839 31.9627 402.656 27.9084 349.212Z" stroke="black"/>
<path d="M366.119 393.372L185.571 442.795L280.873 280.386C304.35 332.635 325.25 358.695 366.119 393.372Z" stroke="black"/>
<path d="M93.8282 603.245L185.299 439.925L234.145 621.786C180.444 601.852 147.212 598.458 93.8282 603.245Z" stroke="black"/>
<path d="M346.426 534.83L183.881 441.988L366.147 394.673C345.761 448.205 342.088 481.407 346.426 534.83Z" stroke="black"/>
<path d="M8.57536 490.864L189.439 442.607L93.0902 604.398C69.9506 551.998 49.2195 525.804 8.57536 490.864Z" stroke="black"/>
<path d="M235.234 621.351L185.679 440.839L348.158 536.022C295.925 559.538 269.881 580.457 235.234 621.351Z" stroke="black"/>
<circle cx="186.963" cy="442.19" r="13.5426" stroke="black"/>
</g>
<g opacity="0.85">
<path d="M461.848 190.954L413.593 6.66223C467.943 27.3302 501.222 30.9134 555.423 26.3218L461.848 190.954Z" fill="#FF018A" fill-opacity="0.75"/>
<path d="M465.072 189.313L300.263 93.762C353.215 69.7385 379.199 48.6387 414.116 6.92983L465.072 189.313Z" fill="#2400FF" fill-opacity="0.55"/>
<path d="M465.645 188.719L281 235.606C302.071 181.411 305.901 148.159 301.711 93.9256L465.645 188.719Z" fill="#2400FF" fill-opacity="0.75"/>
<path d="M458.892 189.223L555.307 24.9176C579.052 77.9955 600.015 104.09 641.54 139.225L458.892 189.223Z" fill="#FF0089" fill-opacity="0.55"/>
<path d="M459.837 184.23L509.254 368.214C454.774 347.89 421.473 344.516 367.302 349.45L459.837 184.23Z" fill="#FF0000" fill-opacity="0.75"/>
<path d="M456.941 187.434L641.334 139.567C620.552 193.874 616.898 227.145 621.376 281.356L456.941 187.434Z" fill="#0075FF" fill-opacity="0.75"/>
<path d="M464.871 187.428L367.398 351.108C343.996 297.878 323.201 271.649 281.904 236.247L464.871 187.428Z" fill="#FF0000" fill-opacity="0.55"/>
<path d="M459.245 185.408L623.621 281.703C570.561 305.486 544.482 326.469 509.377 368.019L459.245 185.408Z" fill="#0072FF" fill-opacity="0.55"/>
<circle cx="461.337" cy="187.811" r="14.0426" fill="black"/>
<path d="M556.369 20.2782L463.87 183.018L416.172 0.852326C469.746 21.125 502.956 24.7287 556.369 20.2782Z" stroke="black"/>
<path d="M415.739 1.35672L466.11 181.643L303.202 87.1945C355.328 63.4433 381.277 42.407 415.739 1.35672Z" stroke="black"/>
<path d="M304.132 88.212L466.181 181.916L283.667 228.261C304.336 174.839 308.186 141.656 304.132 88.212Z" stroke="black"/>
<path d="M642.342 132.372L461.794 181.795L557.097 19.3857C580.574 71.6351 601.474 97.6948 642.342 132.372Z" stroke="black"/>
<path d="M370.052 342.245L461.522 178.925L510.369 360.786C456.668 340.852 423.435 337.458 370.052 342.245Z" stroke="black"/>
<path d="M622.649 273.83L460.105 180.988L642.37 133.673C621.985 187.205 618.311 220.407 622.649 273.83Z" stroke="black"/>
<path d="M284.799 229.864L465.662 181.607L369.314 343.398C346.174 290.998 325.443 264.804 284.799 229.864Z" stroke="black"/>
<path d="M511.458 360.351L461.902 179.839L624.381 275.022C572.149 298.538 546.105 319.457 511.458 360.351Z" stroke="black"/>
<circle cx="463.187" cy="181.19" r="13.5426" stroke="black"/>
</g>
</svg>
