<svg width="142" height="142" viewBox="0 0 142 142" fill="none" xmlns="http://www.w3.org/2000/svg">
<circle cx="74.056" cy="74.056" r="67.056" fill="#E0E2FF"/>
<circle cx="68.056" cy="68.056" r="67.556" stroke="black"/>
<path d="M32.275 101.444C33.1734 81.9432 49.3191 66.356 69.0391 66.356C88.7591 66.356 104.905 81.9432 105.803 101.444C105.803 101.444 42.6825 101.444 33.4074 101.444H32.275ZM50.1656 44.0511C50.1656 33.6445 58.6325 25.1755 69.0391 25.1755C79.4457 25.1755 87.9126 33.6445 87.9126 44.0511C87.9126 54.4578 79.4457 62.9246 69.0391 62.9246C58.8745 62.9246 50.5607 54.8472 50.1792 44.7744L50.1656 44.0511ZM97.4901 74.7081C92.2467 69.4648 85.8105 65.8472 78.7919 64.1067C86.2175 60.4826 91.3461 52.8536 91.3461 44.049C91.3461 31.7503 81.3378 21.7441 69.0391 21.7441C56.7404 21.7441 46.7321 31.7524 46.7321 44.0511C46.7321 52.8557 51.8607 60.4826 59.2863 64.1088C52.2677 65.8494 45.8315 69.4648 40.5881 74.7103C32.9872 82.309 28.8025 92.4126 28.8025 103.159C28.8025 104.107 29.571 104.876 30.5192 104.876H107.559C108.507 104.876 109.276 104.107 109.276 103.159C109.276 93.0432 105.566 83.4969 98.7922 76.0716" fill="black"/>
<path d="M54.2117 74.9375C53.7246 74.1235 52.6703 73.8573 51.8585 74.3444C44.1406 78.9556 38.5141 86.5911 36.4228 95.2962C36.202 96.2184 36.767 97.145 37.6893 97.3658C37.8235 97.3983 37.9599 97.4134 38.0919 97.4134C38.867 97.4134 39.5705 96.8852 39.7589 96.0993C41.6358 88.2862 46.6865 81.43 53.6185 77.2908C54.3208 76.8695 54.6163 76.0237 54.3682 75.2776" fill="black"/>
<path d="M69.0391 69.6141C66.4131 69.6141 63.7979 69.9215 61.265 70.5212C60.3428 70.7399 59.7734 71.6643 59.9921 72.5865C60.1782 73.3745 60.8818 73.9071 61.659 73.9071C61.7911 73.9071 61.9253 73.8898 62.0574 73.8595C64.3305 73.3204 66.6794 73.0476 69.0391 73.0476C69.9873 73.0476 70.7559 72.2791 70.7559 71.3309C70.7559 70.4355 70.0705 69.7001 69.1954 69.6211" fill="black"/>
</svg>
