<svg width="88" height="74" viewBox="0 0 88 74" fill="none" xmlns="http://www.w3.org/2000/svg">
<path d="M25.7017 22.7208H13.0957L15.4717 11.5386H53.4877L51.1117 22.7208H38.5717L30.9817 58.2408H18.1117L25.7017 22.7208Z" fill="#88BEFF"/>
<path d="M8.9375 37.455H48.5375V40.7438H8.9375V37.455Z" fill="#88BEFF"/>
<path d="M62.7551 11.5386H50.9411L45.7271 58.2408H58.795L59.2571 49.0977H70.4771L74.7671 58.2408H87.9011L62.7551 11.5386ZM59.4551 40.5466L59.9831 26.0755L66.7811 40.5466H59.4551Z" fill="#88BEFF"/>
<path d="M83.8749 37.455H41.8989V40.7438H83.8749V37.455Z" fill="#88BEFF"/>
<path d="M22.2642 19.98H9.6582L12.0342 8.79773H50.0502L47.6742 19.98H35.1342L27.5442 55.5H14.6742L22.2642 19.98Z" fill="#FF5D5D"/>
<path d="M5.5 34.7142H45.1V38.0031H5.5V34.7142Z" fill="#FF5D5D"/>
<path d="M59.3176 8.79773H47.5036L42.2896 55.5H55.3575L55.8196 46.3568H67.0396L71.3296 55.5H84.4636L59.3176 8.79773ZM56.0176 37.8057L56.5456 23.3346L63.3436 37.8057H56.0176Z" fill="#FF5D5D"/>
<path d="M80.4374 34.7142H38.4614V38.0031H80.4374V34.7142Z" fill="#FF5D5D"/>
<path d="M19.5142 17.2392H6.9082L9.2842 6.05701H47.3002L44.9242 17.2392H32.3842L24.7942 52.7592H11.9242L19.5142 17.2392Z" fill="#9988FF"/>
<path d="M2.75 31.9735H42.35V35.2624H2.75V31.9735Z" fill="#9988FF"/>
<path d="M56.5676 6.05701H44.7536L39.5396 52.7592H52.6075L53.0696 43.6161H64.2896L68.5796 52.7592H81.7136L56.5676 6.05701ZM53.2676 35.065L53.7956 20.5939L60.5936 35.065H53.2676Z" fill="#9988FF"/>
<path d="M77.6874 31.9735H35.7114V35.2624H77.6874V31.9735Z" fill="#9988FF"/>
<path d="M17.4514 14.4985L18.1238 14.6412L18.3007 13.8133H17.4514V14.4985ZM4.8454 14.4985L4.17282 14.3565L3.99707 15.1837H4.8454V14.4985ZM7.2214 3.31629V2.6311H6.66425L6.54882 3.17434L7.2214 3.31629ZM45.2374 3.31629L45.91 3.45824L46.0857 2.6311H45.2374V3.31629ZM42.8614 14.4985V15.1837H43.4186L43.534 14.6405L42.8614 14.4985ZM30.3214 14.4985V13.8133H29.7649L29.649 14.3558L30.3214 14.4985ZM22.7314 50.0185V50.7037H23.2879L23.4038 50.1612L22.7314 50.0185ZM9.8614 50.0185L9.18896 49.8758L9.01207 50.7037H9.8614V50.0185ZM17.4514 13.8133H4.8454V15.1837H17.4514V13.8133ZM5.51799 14.6405L7.89399 3.45824L6.54882 3.17434L4.17282 14.3565L5.51799 14.6405ZM7.2214 4.00147H45.2374V2.6311H7.2214V4.00147ZM44.5648 3.17434L42.1888 14.3565L43.534 14.6405L45.91 3.45824L44.5648 3.17434ZM42.8614 13.8133H30.3214V15.1837H42.8614V13.8133ZM29.649 14.3558L22.059 49.8758L23.4038 50.1612L30.9938 14.6412L29.649 14.3558ZM22.7314 49.3333H9.8614V50.7037H22.7314V49.3333ZM10.5338 50.1612L18.1238 14.6412L16.779 14.3558L9.18896 49.8758L10.5338 50.1612Z" fill="black"/>
<path d="M0.6875 29.2328V28.5476H0V29.2328H0.6875ZM40.2875 29.2328H40.975V28.5476H40.2875V29.2328ZM40.2875 32.5217V33.2069H40.975V32.5217H40.2875ZM0.6875 32.5217H0V33.2069H0.6875V32.5217ZM0.6875 29.918H40.2875V28.5476H0.6875V29.918ZM39.6 29.2328V32.5217H40.975V29.2328H39.6ZM40.2875 31.8365H0.6875V33.2069H40.2875V31.8365ZM1.375 32.5217V29.2328H0V32.5217H1.375Z" fill="black"/>
<path d="M54.5052 3.31629V2.6311H54.9165L55.111 2.99231L54.5052 3.31629ZM42.6912 3.31629L42.0079 3.24051L42.076 2.6311H42.6912V3.31629ZM37.4772 50.0185V50.7037H36.709L36.7939 49.9427L37.4772 50.0185ZM50.5452 50.0185L51.2318 50.053L51.1989 50.7037H50.5452V50.0185ZM51.0072 40.8754L50.3206 40.8409L50.3535 40.1902H51.0072V40.8754ZM62.2272 40.8754V40.1902H62.6647L62.8499 40.5852L62.2272 40.8754ZM66.5172 50.0185V50.7037H66.0797L65.8944 50.3088L66.5172 50.0185ZM79.6512 50.0185L80.2569 49.6946L80.8007 50.7037H79.6512V50.0185ZM51.2052 32.3243V33.0095H50.4923L50.5182 32.2994L51.2052 32.3243ZM51.7332 17.8532L51.0462 17.8283L52.3559 17.5627L51.7332 17.8532ZM58.5312 32.3243L59.1539 32.0338L59.6122 33.0095H58.5312V32.3243ZM54.5052 4.00147H42.6912V2.6311H54.5052V4.00147ZM43.3745 3.39206L38.1605 50.0943L36.7939 49.9427L42.0079 3.24051L43.3745 3.39206ZM37.4772 49.3333H50.5452V50.7037H37.4772V49.3333ZM49.8586 49.984L50.3206 40.8409L51.6938 40.9099L51.2318 50.053L49.8586 49.984ZM51.0072 40.1902H62.2272V41.5606H51.0072V40.1902ZM62.8499 40.5852L67.1399 49.7283L65.8944 50.3088L61.6044 41.1656L62.8499 40.5852ZM66.5172 49.3333H79.6512V50.7037H66.5172V49.3333ZM79.0455 50.3425L53.8994 3.64027L55.111 2.99231L80.2569 49.6946L79.0455 50.3425ZM50.5182 32.2994L51.0462 17.8283L52.4202 17.878L51.8922 32.3492L50.5182 32.2994ZM52.3559 17.5627L59.1539 32.0338L57.9085 32.6148L51.1105 18.1437L52.3559 17.5627ZM58.5312 33.0095H51.2052V31.6391H58.5312V33.0095Z" fill="black"/>
<path d="M75.6249 29.2328V28.5476H76.3124V29.2328H75.6249ZM33.6489 29.2328H32.9614V28.5476H33.6489V29.2328ZM33.6489 32.5217V33.2069H32.9614V32.5217H33.6489ZM75.6249 32.5217H76.3124V33.2069H75.6249V32.5217ZM75.6249 29.918H33.6489V28.5476H75.6249V29.918ZM34.3364 29.2328V32.5217H32.9614V29.2328H34.3364ZM33.6489 31.8365H75.6249V33.2069H33.6489V31.8365ZM74.9374 32.5217V29.2328H76.3124V32.5217H74.9374Z" fill="black"/>
</svg>
