<svg width="904" height="564" viewBox="0 0 904 564" fill="none" xmlns="http://www.w3.org/2000/svg">
<path opacity="0.75" d="M188 0H869C886.673 0 901 14.3269 901 32V32C901 49.6731 886.673 64 869 64H188V0Z" fill="#CCCEFF"/>
<path opacity="0.75" d="M4 32C4 14.3269 18.3269 0 36 0H164V64H36C18.3269 64 4 49.6731 4 32V32Z" fill="#CCCEFF"/>
<path d="M160.5 128.5H428C445.397 128.5 459.5 142.603 459.5 160C459.5 177.397 445.397 191.5 428 191.5H160.5V128.5Z" stroke="black"/>
<path d="M0.5 160C0.5 142.603 14.603 128.5 32 128.5H139.5V191.5H32C14.603 191.5 0.5 177.397 0.5 160Z" stroke="black"/>
<path opacity="0.75" d="M183.5 4.5H863C880.397 4.5 894.5 18.603 894.5 36C894.5 53.397 880.397 67.5 863 67.5H183.5V4.5Z" stroke="black"/>
<path opacity="0.75" d="M32 4.5H159.5V67.5H32C14.603 67.5 0.5 53.397 0.5 36C0.5 18.603 14.603 4.5 32 4.5Z" stroke="black"/>
<g opacity="0.75">
<path d="M164 124H432C449.673 124 464 138.327 464 156C464 173.673 449.673 188 432 188H164V124Z" fill="#CCCEFF"/>
<path d="M4.18018 156C4.18018 138.327 18.5071 124 36.1802 124H144.18V188H36.1802C18.5071 188 4.18018 173.673 4.18018 156Z" fill="#CCCEFF"/>
</g>
<g opacity="0.75">
<path d="M199.558 248H475.132C492.805 248 507.132 262.327 507.132 280C507.132 297.673 492.805 312 475.132 312H199.558V248Z" fill="#CCCEFF"/>
<path d="M4.79077 280C4.79077 262.327 19.1177 248 36.7908 248H177.183V312H36.7908C19.1177 312 4.79077 297.673 4.79077 280Z" fill="#CCCEFF"/>
</g>
<path d="M194.833 252.5H469.908C487.304 252.5 501.408 266.603 501.408 284C501.408 301.397 487.304 315.5 469.908 315.5H194.833V252.5Z" stroke="black"/>
<path d="M0.5 284C0.5 266.603 14.603 252.5 32 252.5H171.893V315.5H32C14.6031 315.5 0.5 301.397 0.5 284Z" stroke="black"/>
<g opacity="0.75">
<path d="M724 248H868C885.673 248 900 262.327 900 280C900 297.673 885.673 312 868 312H724V248Z" fill="#CCCEFF"/>
<path d="M535 280C535 262.327 549.327 248 567 248H704V312H567C549.327 312 535 297.673 535 280Z" fill="#CCCEFF"/>
</g>
<path d="M720.5 252.5H864C881.397 252.5 895.5 266.603 895.5 284C895.5 301.397 881.397 315.5 864 315.5H720.5V252.5Z" stroke="black"/>
<path d="M530.5 284C530.5 266.603 544.603 252.5 562 252.5H698.5V315.5H562C544.603 315.5 530.5 301.397 530.5 284Z" stroke="black"/>
<g opacity="0.75">
<path d="M195 372H872C889.673 372 904 386.327 904 404C904 421.673 889.673 436 872 436H195V372Z" fill="#CCCEFF"/>
<path d="M3 404C3 386.327 17.3269 372 35 372H170V436H35C17.3269 436 3 421.673 3 404Z" fill="#CCCEFF"/>
</g>
<path d="M191.5 376.5H868C885.397 376.5 899.5 390.603 899.5 408C899.5 425.397 885.397 439.5 868 439.5H191.5V376.5Z" stroke="black"/>
<path d="M0.5 408C0.5 390.603 14.603 376.5 32 376.5H166.5V439.5H32C14.603 439.5 0.5 425.397 0.5 408Z" stroke="black"/>
<g opacity="0.75">
<path d="M214 496H872C889.673 496 904 510.327 904 528C904 545.673 889.673 560 872 560H214V496Z" fill="#CCCEFF"/>
<path d="M4 528C4 510.327 18.3269 496 36 496H191V560H36C18.3269 560 4 545.673 4 528Z" fill="#CCCEFF"/>
</g>
<path d="M210.5 500.5H868C885.397 500.5 899.5 514.603 899.5 532C899.5 549.397 885.397 563.5 868 563.5H210.5V500.5Z" stroke="black"/>
<path d="M0.5 532C0.5 514.603 14.603 500.5 32 500.5H186.5V563.5H32C14.603 563.5 0.5 549.397 0.5 532Z" stroke="black"/>
</svg>
