<svg width="657" height="87" viewBox="0 0 657 87" fill="none" xmlns="http://www.w3.org/2000/svg">
<path d="M40.824 62.872V70H5.76V18.88H40.176V26.008H13.824V40.552H36.648V47.248H13.824V62.872H40.824ZM45.0557 51.208C45.0557 47.608 45.7757 44.344 47.2157 41.416C48.7037 38.44 50.7197 36.088 53.2637 34.36C55.8077 32.584 58.7357 31.696 62.0477 31.696C64.9277 31.696 67.5197 32.44 69.8237 33.928C72.1757 35.416 73.9997 37.264 75.2957 39.472V17.44H83.2157V61.072C83.2157 61.984 83.3837 62.632 83.7197 63.016C84.0557 63.4 84.6077 63.616 85.3757 63.664V70C83.8877 70.24 82.7357 70.36 81.9197 70.36C80.4317 70.36 79.1597 69.952 78.1037 69.136C77.0957 68.272 76.5677 67.216 76.5197 65.968L76.4477 63.16C75.0077 65.56 73.0637 67.432 70.6157 68.776C68.1677 70.072 65.6237 70.72 62.9837 70.72C59.5277 70.72 56.4317 69.832 53.6957 68.056C51.0077 66.28 48.8957 63.928 47.3597 61C45.8237 58.024 45.0557 54.76 45.0557 51.208ZM75.2957 56.464V46.6C74.7197 45.064 73.8557 43.696 72.7037 42.496C71.5517 41.248 70.2317 40.264 68.7437 39.544C67.3037 38.824 65.8637 38.464 64.4237 38.464C62.1677 38.464 60.1997 39.088 58.5197 40.336C56.8877 41.536 55.5917 43.12 54.6317 45.088C53.7197 47.056 53.2637 49.144 53.2637 51.352C53.2637 53.656 53.7677 55.768 54.7757 57.688C55.8317 59.608 57.2477 61.144 59.0237 62.296C60.7997 63.4 62.7917 63.952 64.9997 63.952C66.3437 63.952 67.7357 63.64 69.1757 63.016C70.6637 62.344 71.9597 61.456 73.0637 60.352C74.1677 59.2 74.9117 57.904 75.2957 56.464ZM93.2754 26.152V17.44H101.195V26.152H93.2754ZM93.2754 70V32.344H101.195V70H93.2754ZM131.665 68.056C130.657 68.536 129.265 69.088 127.489 69.712C125.713 70.288 123.817 70.576 121.801 70.576C119.305 70.576 117.145 69.904 115.321 68.56C113.545 67.216 112.657 65.032 112.657 62.008V38.464H107.689V32.344H112.657V19.96H120.577V32.344H128.785V38.464H120.577V59.488C120.673 60.832 121.081 61.816 121.801 62.44C122.569 63.016 123.505 63.304 124.609 63.304C125.713 63.304 126.769 63.112 127.777 62.728C128.785 62.344 129.529 62.032 130.009 61.792L131.665 68.056ZM155.948 70V18.88H177.404C179.708 18.88 181.82 19.36 183.74 20.32C185.708 21.28 187.388 22.552 188.78 24.136C190.22 25.72 191.324 27.496 192.092 29.464C192.86 31.432 193.244 33.448 193.244 35.512C193.244 38.392 192.596 41.104 191.3 43.648C190.004 46.192 188.204 48.256 185.9 49.84C183.596 51.424 180.908 52.216 177.836 52.216H164.012V70H155.948ZM164.012 45.088H177.332C179.588 45.088 181.436 44.176 182.876 42.352C184.316 40.528 185.036 38.248 185.036 35.512C185.036 33.64 184.652 32.008 183.884 30.616C183.116 29.176 182.108 28.048 180.86 27.232C179.66 26.416 178.34 26.008 176.9 26.008H164.012V45.088ZM220.967 39.184C217.895 39.28 215.159 40 212.759 41.344C210.407 42.64 208.727 44.512 207.719 46.96V70H199.799V32.344H207.143V40.768C208.439 38.176 210.143 36.112 212.255 34.576C214.367 32.992 216.599 32.128 218.951 31.984C219.383 31.984 219.767 31.984 220.103 31.984C220.439 31.984 220.727 32.008 220.967 32.056V39.184ZM243.016 70.72C239.08 70.72 235.648 69.832 232.72 68.056C229.84 66.232 227.608 63.856 226.024 60.928C224.44 57.952 223.648 54.712 223.648 51.208C223.648 47.704 224.44 44.488 226.024 41.56C227.656 38.584 229.912 36.208 232.792 34.432C235.72 32.608 239.128 31.696 243.016 31.696C246.904 31.696 250.288 32.608 253.168 34.432C256.096 36.208 258.352 38.584 259.936 41.56C261.568 44.488 262.384 47.704 262.384 51.208C262.384 54.712 261.592 57.952 260.008 60.928C258.424 63.856 256.168 66.232 253.24 68.056C250.36 69.832 246.952 70.72 243.016 70.72ZM231.784 51.28C231.784 53.68 232.288 55.84 233.296 57.76C234.304 59.68 235.648 61.192 237.328 62.296C239.008 63.4 240.904 63.952 243.016 63.952C245.08 63.952 246.952 63.4 248.632 62.296C250.36 61.144 251.728 59.608 252.736 57.688C253.744 55.768 254.248 53.608 254.248 51.208C254.248 48.808 253.744 46.648 252.736 44.728C251.728 42.808 250.36 41.296 248.632 40.192C246.952 39.04 245.08 38.464 243.016 38.464C240.952 38.464 239.056 39.04 237.328 40.192C235.648 41.296 234.304 42.832 233.296 44.8C232.288 46.72 231.784 48.88 231.784 51.28ZM271.076 39.4H266.036V33.28H271.076V31.768C271.076 29.176 271.628 26.728 272.732 24.424C273.836 22.12 275.468 20.272 277.628 18.88C279.836 17.44 282.524 16.72 285.692 16.72C288.38 16.72 290.78 17.152 292.892 18.016C295.052 18.88 296.924 19.84 298.508 20.896L295.268 26.8C294.164 25.84 292.796 25.048 291.164 24.424C289.58 23.8 287.924 23.488 286.196 23.488C284.516 23.488 283.148 23.872 282.092 24.64C281.036 25.408 280.244 26.416 279.716 27.664C279.236 28.912 278.996 30.208 278.996 31.552V33.28H298.724V70H290.804V39.4H278.996V70H271.076V39.4ZM308.293 17.44H316.213V59.128C316.213 61.048 316.501 62.272 317.077 62.8C317.653 63.328 318.373 63.592 319.237 63.592C320.197 63.592 321.109 63.496 321.973 63.304C322.837 63.112 323.557 62.872 324.133 62.584L325.285 68.848C324.133 69.328 322.765 69.736 321.181 70.072C319.597 70.408 318.181 70.576 316.933 70.576C314.245 70.576 312.133 69.832 310.597 68.344C309.061 66.808 308.293 64.696 308.293 62.008V17.44ZM346.941 70.72C343.053 70.72 339.645 69.832 336.717 68.056C333.789 66.28 331.509 63.928 329.877 61C328.245 58.024 327.429 54.784 327.429 51.28C327.429 47.728 328.245 44.464 329.877 41.488C331.509 38.512 333.789 36.136 336.717 34.36C339.645 32.584 343.077 31.696 347.013 31.696C350.949 31.696 354.357 32.608 357.237 34.432C360.117 36.208 362.325 38.56 363.861 41.488C365.445 44.416 366.237 47.56 366.237 50.92C366.237 52.12 366.165 53.08 366.021 53.8H335.853C335.997 56.008 336.597 57.952 337.653 59.632C338.757 61.264 340.125 62.56 341.757 63.52C343.437 64.432 345.261 64.888 347.229 64.888C349.341 64.888 351.333 64.36 353.205 63.304C355.077 62.248 356.373 60.856 357.093 59.128L363.861 61.072C362.565 63.904 360.405 66.232 357.381 68.056C354.405 69.832 350.925 70.72 346.941 70.72ZM335.637 48.544H358.389C358.197 46.384 357.573 44.488 356.517 42.856C355.461 41.176 354.093 39.88 352.413 38.968C350.781 38.008 348.957 37.528 346.941 37.528C344.973 37.528 343.149 38.008 341.469 38.968C339.837 39.88 338.493 41.176 337.437 42.856C336.381 44.488 335.781 46.384 335.637 48.544Z" fill="black"/>
<path d="M43.8701 60.872H44.8701V59.872H43.8701V60.872ZM43.8701 68V69H44.8701V68H43.8701ZM8.80614 68H7.80614V69H8.80614V68ZM8.80614 16.88V15.88H7.80614V16.88H8.80614ZM43.2221 16.88H44.2221V15.88H43.2221V16.88ZM43.2221 24.008V25.008H44.2221V24.008H43.2221ZM16.8701 24.008V23.008H15.8701V24.008H16.8701ZM16.8701 38.552H15.8701V39.552H16.8701V38.552ZM39.6941 38.552H40.6941V37.552H39.6941V38.552ZM39.6941 45.248V46.248H40.6941V45.248H39.6941ZM16.8701 45.248V44.248H15.8701V45.248H16.8701ZM16.8701 60.872H15.8701V61.872H16.8701V60.872ZM42.8701 60.872V68H44.8701V60.872H42.8701ZM43.8701 67H8.80614V69H43.8701V67ZM9.80614 68V16.88H7.80614V68H9.80614ZM8.80614 17.88H43.2221V15.88H8.80614V17.88ZM42.2221 16.88V24.008H44.2221V16.88H42.2221ZM43.2221 23.008H16.8701V25.008H43.2221V23.008ZM15.8701 24.008V38.552H17.8701V24.008H15.8701ZM16.8701 39.552H39.6941V37.552H16.8701V39.552ZM38.6941 38.552V45.248H40.6941V38.552H38.6941ZM39.6941 44.248H16.8701V46.248H39.6941V44.248ZM15.8701 45.248V60.872H17.8701V45.248H15.8701ZM16.8701 61.872H43.8701V59.872H16.8701V61.872ZM50.2618 39.416L49.3674 38.9688L49.3645 38.9747L50.2618 39.416ZM56.3098 32.36L56.8718 33.1873L56.8823 33.18L56.3098 32.36ZM72.8698 31.928L72.3273 32.7681L72.3352 32.7731L72.8698 31.928ZM78.3418 37.472L77.4794 37.9782L79.3418 41.1512V37.472H78.3418ZM78.3418 15.44V14.44H77.3418V15.44H78.3418ZM86.2618 15.44H87.2618V14.44H86.2618V15.44ZM86.7658 61.016L87.5184 60.3575L87.5184 60.3575L86.7658 61.016ZM88.4218 61.664H89.4218V60.7245L88.4842 60.6659L88.4218 61.664ZM88.4218 68L88.5811 68.9872L89.4218 68.8516V68H88.4218ZM81.1498 67.136L80.499 67.8953L80.5183 67.9118L80.5384 67.9273L81.1498 67.136ZM79.5658 63.968L78.5661 63.9936L78.5666 64.0064L79.5658 63.968ZM79.4938 61.16L80.4935 61.1344L80.4054 57.6971L78.6363 60.6455L79.4938 61.16ZM73.6618 66.776L74.1297 67.6598L74.1364 67.6562L74.1431 67.6526L73.6618 66.776ZM56.7418 66.056L56.1906 66.8904L56.1974 66.8948L56.7418 66.056ZM50.4058 59L49.5172 59.4587L49.5203 59.4645L50.4058 59ZM78.3418 54.464L79.3081 54.7217L79.3418 54.595V54.464H78.3418ZM78.3418 44.6H79.3418V44.4187L79.2782 44.2489L78.3418 44.6ZM75.7498 40.496L75.015 41.1743L75.0217 41.1815L75.0284 41.1885L75.7498 40.496ZM71.7898 37.544L71.3426 38.4385L71.3543 38.4442L71.7898 37.544ZM61.5658 38.336L62.1582 39.1417L62.1622 39.1387L61.5658 38.336ZM57.6778 43.088L56.7791 42.6496L56.7747 42.6585L56.7705 42.6675L57.6778 43.088ZM57.8218 55.688L56.9364 56.1528L56.9409 56.1614L56.9456 56.1699L57.8218 55.688ZM62.0698 60.296L61.5256 61.135L61.5337 61.1402L61.5419 61.1453L62.0698 60.296ZM72.2218 61.016L72.6194 61.9336L72.6265 61.9305L72.6334 61.9274L72.2218 61.016ZM76.1098 58.352L76.8169 59.0591L76.8245 59.0516L76.8318 59.0439L76.1098 58.352ZM49.1018 49.208C49.1018 45.745 49.7934 42.6343 51.1592 39.8573L49.3645 38.9747C47.8502 42.0537 47.1018 45.471 47.1018 49.208H49.1018ZM51.1563 39.8632C52.5742 37.0273 54.4807 34.8113 56.8717 33.1872L55.7479 31.5328C53.0509 33.3647 50.9255 35.8527 49.3674 38.9688L51.1563 39.8632ZM56.8823 33.18C59.2468 31.5292 61.972 30.696 65.0938 30.696V28.696C61.5917 28.696 58.4609 29.6388 55.7374 31.54L56.8823 33.18ZM65.0938 30.696C67.7915 30.696 70.1933 31.3898 72.3273 32.768L73.4124 31.088C70.9384 29.4902 68.1562 28.696 65.0938 28.696V30.696ZM72.3352 32.7731C74.5645 34.1834 76.271 35.9194 77.4794 37.9782L79.2042 36.9658C77.8207 34.6086 75.8792 32.6486 73.4045 31.0829L72.3352 32.7731ZM79.3418 37.472V15.44H77.3418V37.472H79.3418ZM78.3418 16.44H86.2618V14.44H78.3418V16.44ZM85.2618 15.44V59.072H87.2618V15.44H85.2618ZM85.2618 59.072C85.2618 60.0547 85.4327 61.011 86.0133 61.6745L87.5184 60.3575C87.427 60.253 87.2618 59.9133 87.2618 59.072H85.2618ZM86.0133 61.6745C86.5968 62.3414 87.4588 62.6058 88.3595 62.6621L88.4842 60.6659C87.8488 60.6262 87.6069 60.4586 87.5184 60.3575L86.0133 61.6745ZM87.4218 61.664V68H89.4218V61.664H87.4218ZM88.2626 67.0128C86.7911 67.2501 85.7014 67.36 84.9658 67.36V69.36C85.8623 69.36 87.0766 69.2299 88.5811 68.9872L88.2626 67.0128ZM84.9658 67.36C83.6723 67.36 82.622 67.0099 81.7613 66.3447L80.5384 67.9273C81.7896 68.8941 83.2834 69.36 84.9658 69.36V67.36ZM81.8006 66.3767C80.9891 65.6812 80.6017 64.8801 80.5651 63.9296L78.5666 64.0064C78.626 65.5519 79.2945 66.8628 80.499 67.8953L81.8006 66.3767ZM80.5655 63.9424L80.4935 61.1344L78.4942 61.1856L78.5662 63.9936L80.5655 63.9424ZM78.6363 60.6455C77.2873 62.894 75.4729 64.6409 73.1806 65.8994L74.1431 67.6526C76.7467 66.2231 78.8204 64.226 80.3513 61.6745L78.6363 60.6455ZM73.1939 65.8922C70.8828 67.1158 68.4986 67.72 66.0298 67.72V69.72C68.841 69.72 71.5449 69.0282 74.1297 67.6598L73.1939 65.8922ZM66.0298 67.72C62.755 67.72 59.8504 66.8816 57.2863 65.2172L56.1974 66.8948C59.1053 68.7824 62.3926 69.72 66.0298 69.72V67.72ZM57.2931 65.2217C54.7498 63.5412 52.7511 61.318 51.2914 58.5355L49.5203 59.4645C51.1326 62.538 53.3579 65.0188 56.1906 66.8903L57.2931 65.2217ZM51.2945 58.5414C49.8361 55.7157 49.1018 52.6104 49.1018 49.208H47.1018C47.1018 52.9096 47.9036 56.3323 49.5172 59.4586L51.2945 58.5414ZM79.3418 54.464V44.6H77.3418V54.464H79.3418ZM79.2782 44.2489C78.6538 42.5838 77.716 41.1001 76.4712 39.8035L75.0284 41.1885C76.0877 42.2919 76.8779 43.5442 77.4055 44.9511L79.2782 44.2489ZM76.4846 39.8177C75.25 38.4802 73.8293 37.4199 72.2254 36.6438L71.3543 38.4442C72.7264 39.1081 73.9456 40.0158 75.015 41.1743L76.4846 39.8177ZM72.237 36.6496C70.6748 35.8684 69.0826 35.464 67.4698 35.464V37.464C68.7371 37.464 70.0249 37.7796 71.3426 38.4384L72.237 36.6496ZM67.4698 35.464C65.0168 35.464 62.8357 36.147 60.9695 37.5333L62.1622 39.1387C63.656 38.029 65.4109 37.464 67.4698 37.464V35.464ZM60.9734 37.5303C59.2007 38.8338 57.8041 40.5482 56.7791 42.6496L58.5766 43.5264C59.4716 41.6918 60.6669 40.2382 62.1582 39.1416L60.9734 37.5303ZM56.7705 42.6675C55.7963 44.7697 55.3098 47.0015 55.3098 49.352H57.3098C57.3098 47.2865 57.7353 45.3423 58.5851 43.5085L56.7705 42.6675ZM55.3098 49.352C55.3098 51.8075 55.8485 54.0805 56.9364 56.1528L58.7072 55.2232C57.7792 53.4555 57.3098 51.5045 57.3098 49.352H55.3098ZM56.9456 56.1699C58.0782 58.2292 59.6062 59.8899 61.5256 61.135L62.614 59.457C60.9814 58.3981 59.6774 56.9868 58.698 55.2061L56.9456 56.1699ZM61.5419 61.1453C63.4854 62.3534 65.6621 62.952 68.0458 62.952V60.952C66.0135 60.952 64.2063 60.4466 62.5978 59.4467L61.5419 61.1453ZM68.0458 62.952C69.5476 62.952 71.0748 62.6029 72.6194 61.9336L71.8242 60.0984C70.4889 60.6771 69.2321 60.952 68.0458 60.952V62.952ZM72.6334 61.9274C74.2263 61.208 75.6237 60.2523 76.8169 59.0591L75.4027 57.6449C74.388 58.6597 73.1933 59.48 71.8102 60.1046L72.6334 61.9274ZM76.8318 59.0439C78.0441 57.779 78.8775 56.3362 79.3081 54.7217L77.3756 54.2063C77.0381 55.4718 76.3836 56.621 75.3878 57.6601L76.8318 59.0439ZM96.3216 24.152H95.3216V25.152H96.3216V24.152ZM96.3216 15.44V14.44H95.3216V15.44H96.3216ZM104.242 15.44H105.242V14.44H104.242V15.44ZM104.242 24.152V25.152H105.242V24.152H104.242ZM96.3216 68H95.3216V69H96.3216V68ZM96.3216 30.344V29.344H95.3216V30.344H96.3216ZM104.242 30.344H105.242V29.344H104.242V30.344ZM104.242 68V69H105.242V68H104.242ZM97.3216 24.152V15.44H95.3216V24.152H97.3216ZM96.3216 16.44H104.242V14.44H96.3216V16.44ZM103.242 15.44V24.152H105.242V15.44H103.242ZM104.242 23.152H96.3216V25.152H104.242V23.152ZM97.3216 68V30.344H95.3216V68H97.3216ZM96.3216 31.344H104.242V29.344H96.3216V31.344ZM103.242 30.344V68H105.242V30.344H103.242ZM104.242 67H96.3216V69H104.242V67ZM134.711 66.056L135.141 66.9589L135.89 66.6023L135.678 65.8004L134.711 66.056ZM130.535 67.712L130.844 68.6632L130.855 68.6595L130.867 68.6555L130.535 67.712ZM118.367 66.56L117.764 67.3575L117.774 67.3651L118.367 66.56ZM115.703 36.464H116.703V35.464H115.703V36.464ZM110.735 36.464H109.735V37.464H110.735V36.464ZM110.735 30.344V29.344H109.735V30.344H110.735ZM115.703 30.344V31.344H116.703V30.344H115.703ZM115.703 17.96V16.96H114.703V17.96H115.703ZM123.623 17.96H124.623V16.96H123.623V17.96ZM123.623 30.344H122.623V31.344H123.623V30.344ZM131.831 30.344H132.831V29.344H131.831V30.344ZM131.831 36.464V37.464H132.831V36.464H131.831ZM123.623 36.464V35.464H122.623V36.464H123.623ZM123.623 57.488H122.623V57.5237L122.626 57.5592L123.623 57.488ZM124.847 60.44L124.192 61.1957L124.219 61.2188L124.247 61.24L124.847 60.44ZM133.055 59.792L134.022 59.5364L133.708 58.3477L132.608 58.8976L133.055 59.792ZM134.281 65.1531C133.32 65.611 131.965 66.1495 130.204 66.7685L130.867 68.6555C132.657 68.0265 134.087 67.461 135.141 66.9589L134.281 65.1531ZM130.227 66.7608C128.558 67.302 126.767 67.576 124.847 67.576V69.576C126.959 69.576 128.96 69.274 130.844 68.6632L130.227 66.7608ZM124.847 67.576C122.542 67.576 120.595 66.9594 118.96 65.7549L117.774 67.3651C119.787 68.8486 122.16 69.576 124.847 69.576V67.576ZM118.971 65.7626C117.527 64.6701 116.703 62.8393 116.703 60.008H114.703C114.703 63.2247 115.655 65.7619 117.764 67.3574L118.971 65.7626ZM116.703 60.008V36.464H114.703V60.008H116.703ZM115.703 35.464H110.735V37.464H115.703V35.464ZM111.735 36.464V30.344H109.735V36.464H111.735ZM110.735 31.344H115.703V29.344H110.735V31.344ZM116.703 30.344V17.96H114.703V30.344H116.703ZM115.703 18.96H123.623V16.96H115.703V18.96ZM122.623 17.96V30.344H124.623V17.96H122.623ZM123.623 31.344H131.831V29.344H123.623V31.344ZM130.831 30.344V36.464H132.831V30.344H130.831ZM131.831 35.464H123.623V37.464H131.831V35.464ZM122.623 36.464V57.488H124.623V36.464H122.623ZM122.626 57.5592C122.733 59.057 123.201 60.3367 124.192 61.1957L125.502 59.6843C125.053 59.2953 124.706 58.607 124.621 57.4168L122.626 57.5592ZM124.247 61.24C125.213 61.9647 126.369 62.304 127.655 62.304V60.304C126.734 60.304 126.017 60.0673 125.447 59.64L124.247 61.24ZM127.655 62.304C128.878 62.304 130.055 62.0908 131.179 61.6625L130.467 59.7935C129.575 60.1332 128.64 60.304 127.655 60.304V62.304ZM131.179 61.6625C132.194 61.2759 132.976 60.9496 133.502 60.6864L132.608 58.8976C132.174 59.1144 131.468 59.4121 130.467 59.7935L131.179 61.6625ZM132.088 60.0476L133.744 66.3116L135.678 65.8004L134.022 59.5364L132.088 60.0476ZM158.994 68H157.994V69H158.994V68ZM158.994 16.88V15.88H157.994V16.88H158.994ZM186.786 18.32L186.338 19.2145L186.347 19.2188L186.786 18.32ZM191.826 22.136L191.074 22.7961L191.08 22.8024L191.086 22.8087L191.826 22.136ZM195.138 27.464L194.206 27.8275L194.206 27.8275L195.138 27.464ZM188.946 47.84L189.512 48.664L189.512 48.664L188.946 47.84ZM167.058 50.216V49.216H166.058V50.216H167.058ZM167.058 68V69H168.058V68H167.058ZM167.058 43.088H166.058V44.088H167.058V43.088ZM185.922 40.352L186.707 40.9716L186.707 40.9716L185.922 40.352ZM186.93 28.616L186.047 29.0866L186.051 29.0929L186.054 29.0991L186.93 28.616ZM183.906 25.232L183.343 26.0589L183.351 26.064L183.358 26.069L183.906 25.232ZM167.058 24.008V23.008H166.058V24.008H167.058ZM159.994 68V16.88H157.994V68H159.994ZM158.994 17.88H180.45V15.88H158.994V17.88ZM180.45 17.88C182.61 17.88 184.567 18.3289 186.338 19.2144L187.233 17.4256C185.164 16.3911 182.897 15.88 180.45 15.88V17.88ZM186.347 19.2188C188.201 20.123 189.773 21.3154 191.074 22.7961L192.577 21.4759C191.094 19.7886 189.306 18.437 187.224 17.4212L186.347 19.2188ZM191.086 22.8087C192.445 24.3034 193.483 25.975 194.206 27.8275L196.069 27.1005C195.256 25.017 194.087 23.1366 192.566 21.4633L191.086 22.8087ZM194.206 27.8275C194.93 29.6825 195.29 31.5753 195.29 33.512H197.29C197.29 31.3207 196.881 29.1815 196.069 27.1005L194.206 27.8275ZM195.29 33.512C195.29 36.2356 194.678 38.7919 193.455 41.1941L195.237 42.1019C196.605 39.4161 197.29 36.5484 197.29 33.512H195.29ZM193.455 41.1941C192.233 43.5929 190.543 45.5284 188.379 47.016L189.512 48.664C191.956 46.9836 193.867 44.7911 195.237 42.1019L193.455 41.1941ZM188.379 47.016C186.258 48.4741 183.772 49.216 180.882 49.216V51.216C184.135 51.216 187.025 50.3739 189.512 48.664L188.379 47.016ZM180.882 49.216H167.058V51.216H180.882V49.216ZM166.058 50.216V68H168.058V50.216H166.058ZM167.058 67H158.994V69H167.058V67ZM167.058 44.088H180.378V42.088H167.058V44.088ZM180.378 44.088C182.95 44.088 185.084 43.0274 186.707 40.9716L185.137 39.7324C183.88 41.3246 182.317 42.088 180.378 42.088V44.088ZM186.707 40.9716C188.31 38.9411 189.082 36.4313 189.082 33.512H187.082C187.082 36.0647 186.414 38.1149 185.137 39.7324L186.707 40.9716ZM189.082 33.512C189.082 31.5011 188.668 29.6971 187.805 28.1329L186.054 29.0991C186.727 30.3189 187.082 31.7789 187.082 33.512H189.082ZM187.812 28.1454C186.973 26.5714 185.855 25.3116 184.453 24.395L183.358 26.069C184.453 26.7844 185.351 27.7806 186.047 29.0866L187.812 28.1454ZM184.468 24.4051C183.103 23.4772 181.588 23.008 179.946 23.008V25.008C181.183 25.008 182.308 25.3548 183.343 26.0589L184.468 24.4051ZM179.946 23.008H167.058V25.008H179.946V23.008ZM166.058 24.008V43.088H168.058V24.008H166.058ZM224.013 37.184L224.044 38.1835L225.013 38.1532V37.184H224.013ZM215.805 39.344L216.288 40.2199L216.294 40.2165L215.805 39.344ZM210.765 44.96L209.84 44.5792L209.765 44.7622V44.96H210.765ZM210.765 68V69H211.765V68H210.765ZM202.845 68H201.845V69H202.845V68ZM202.845 30.344V29.344H201.845V30.344H202.845ZM210.189 30.344H211.189V29.344H210.189V30.344ZM210.189 38.768H209.189L211.083 39.2152L210.189 38.768ZM215.301 32.576L215.889 33.3847L215.895 33.3804L215.901 33.376L215.301 32.576ZM221.997 29.984V28.984H221.966L221.936 28.9859L221.997 29.984ZM224.013 30.056H225.013V29.2362L224.209 29.0754L224.013 30.056ZM223.982 36.1845C220.768 36.2849 217.872 37.0402 215.316 38.4715L216.294 40.2165C218.538 38.9598 221.114 38.2751 224.044 38.1835L223.982 36.1845ZM215.322 38.4682C212.774 39.8723 210.936 41.9174 209.84 44.5792L211.69 45.3407C212.61 43.1066 214.132 41.4077 216.288 40.2198L215.322 38.4682ZM209.765 44.96V68H211.765V44.96H209.765ZM210.765 67H202.845V69H210.765V67ZM203.845 68V30.344H201.845V68H203.845ZM202.845 31.344H210.189V29.344H202.845V31.344ZM209.189 30.344V38.768H211.189V30.344H209.189ZM211.083 39.2152C212.316 36.7505 213.92 34.8165 215.889 33.3847L214.713 31.7673C212.458 33.4075 210.654 35.6015 209.295 38.3208L211.083 39.2152ZM215.901 33.376C217.876 31.8947 219.924 31.1128 222.058 30.9821L221.936 28.9859C219.366 29.1432 216.95 30.0893 214.701 31.776L215.901 33.376ZM221.997 30.984C221.998 30.984 221.999 30.984 222 30.984C222 30.984 222.001 30.984 222.002 30.984C222.003 30.984 222.004 30.984 222.005 30.984C222.005 30.984 222.006 30.984 222.007 30.984C222.008 30.984 222.009 30.984 222.01 30.984C222.011 30.984 222.011 30.984 222.012 30.984C222.013 30.984 222.014 30.984 222.015 30.984C222.016 30.984 222.016 30.984 222.017 30.984C222.018 30.984 222.019 30.984 222.02 30.984C222.021 30.984 222.021 30.984 222.022 30.984C222.023 30.984 222.024 30.984 222.025 30.984C222.026 30.984 222.026 30.984 222.027 30.984C222.028 30.984 222.029 30.984 222.03 30.984C222.031 30.984 222.032 30.984 222.032 30.984C222.033 30.984 222.034 30.984 222.035 30.984C222.036 30.984 222.037 30.984 222.037 30.984C222.038 30.984 222.039 30.984 222.04 30.984C222.041 30.984 222.042 30.984 222.042 30.984C222.043 30.984 222.044 30.984 222.045 30.984C222.046 30.984 222.047 30.984 222.047 30.984C222.048 30.984 222.049 30.984 222.05 30.984C222.051 30.984 222.052 30.984 222.052 30.984C222.053 30.984 222.054 30.984 222.055 30.984C222.056 30.984 222.057 30.984 222.057 30.984C222.058 30.984 222.059 30.984 222.06 30.984C222.061 30.984 222.062 30.984 222.062 30.984C222.063 30.984 222.064 30.984 222.065 30.984C222.066 30.984 222.067 30.984 222.067 30.984C222.068 30.984 222.069 30.984 222.07 30.984C222.071 30.984 222.072 30.984 222.072 30.984C222.073 30.984 222.074 30.984 222.075 30.984C222.076 30.984 222.077 30.984 222.077 30.984C222.078 30.984 222.079 30.984 222.08 30.984C222.081 30.984 222.082 30.984 222.082 30.984C222.083 30.984 222.084 30.984 222.085 30.984C222.086 30.984 222.087 30.984 222.087 30.984C222.088 30.984 222.089 30.984 222.09 30.984C222.091 30.984 222.092 30.984 222.092 30.984C222.093 30.984 222.094 30.984 222.095 30.984C222.096 30.984 222.097 30.984 222.097 30.984C222.098 30.984 222.099 30.984 222.1 30.984C222.101 30.984 222.102 30.984 222.102 30.984C222.103 30.984 222.104 30.984 222.105 30.984C222.106 30.984 222.107 30.984 222.107 30.984C222.108 30.984 222.109 30.984 222.11 30.984C222.111 30.984 222.111 30.984 222.112 30.984C222.113 30.984 222.114 30.984 222.115 30.984C222.116 30.984 222.116 30.984 222.117 30.984C222.118 30.984 222.119 30.984 222.12 30.984C222.121 30.984 222.121 30.984 222.122 30.984C222.123 30.984 222.124 30.984 222.125 30.984C222.126 30.984 222.126 30.984 222.127 30.984C222.128 30.984 222.129 30.984 222.13 30.984C222.13 30.984 222.131 30.984 222.132 30.984C222.133 30.984 222.134 30.984 222.135 30.984C222.135 30.984 222.136 30.984 222.137 30.984C222.138 30.984 222.139 30.984 222.14 30.984C222.14 30.984 222.141 30.984 222.142 30.984C222.143 30.984 222.144 30.984 222.144 30.984C222.145 30.984 222.146 30.984 222.147 30.984C222.148 30.984 222.149 30.984 222.149 30.984C222.15 30.984 222.151 30.984 222.152 30.984C222.153 30.984 222.153 30.984 222.154 30.984C222.155 30.984 222.156 30.984 222.157 30.984C222.158 30.984 222.158 30.984 222.159 30.984C222.16 30.984 222.161 30.984 222.162 30.984C222.163 30.984 222.163 30.984 222.164 30.984C222.165 30.984 222.166 30.984 222.167 30.984C222.167 30.984 222.168 30.984 222.169 30.984C222.17 30.984 222.171 30.984 222.172 30.984C222.172 30.984 222.173 30.984 222.174 30.984C222.175 30.984 222.176 30.984 222.176 30.984C222.177 30.984 222.178 30.984 222.179 30.984C222.18 30.984 222.181 30.984 222.181 30.984C222.182 30.984 222.183 30.984 222.184 30.984C222.185 30.984 222.185 30.984 222.186 30.984C222.187 30.984 222.188 30.984 222.189 30.984C222.189 30.984 222.19 30.984 222.191 30.984C222.192 30.984 222.193 30.984 222.194 30.984C222.194 30.984 222.195 30.984 222.196 30.984C222.197 30.984 222.198 30.984 222.198 30.984C222.199 30.984 222.2 30.984 222.201 30.984C222.202 30.984 222.203 30.984 222.203 30.984C222.204 30.984 222.205 30.984 222.206 30.984C222.207 30.984 222.207 30.984 222.208 30.984C222.209 30.984 222.21 30.984 222.211 30.984C222.211 30.984 222.212 30.984 222.213 30.984C222.214 30.984 222.215 30.984 222.216 30.984C222.216 30.984 222.217 30.984 222.218 30.984C222.219 30.984 222.22 30.984 222.22 30.984C222.221 30.984 222.222 30.984 222.223 30.984C222.224 30.984 222.224 30.984 222.225 30.984C222.226 30.984 222.227 30.984 222.228 30.984C222.228 30.984 222.229 30.984 222.23 30.984C222.231 30.984 222.232 30.984 222.233 30.984C222.233 30.984 222.234 30.984 222.235 30.984C222.236 30.984 222.237 30.984 222.237 30.984C222.238 30.984 222.239 30.984 222.24 30.984C222.241 30.984 222.241 30.984 222.242 30.984C222.243 30.984 222.244 30.984 222.245 30.984C222.245 30.984 222.246 30.984 222.247 30.984C222.248 30.984 222.249 30.984 222.249 30.984C222.25 30.984 222.251 30.984 222.252 30.984C222.253 30.984 222.254 30.984 222.254 30.984C222.255 30.984 222.256 30.984 222.257 30.984C222.258 30.984 222.258 30.984 222.259 30.984C222.26 30.984 222.261 30.984 222.262 30.984C222.262 30.984 222.263 30.984 222.264 30.984C222.265 30.984 222.266 30.984 222.266 30.984C222.267 30.984 222.268 30.984 222.269 30.984C222.27 30.984 222.27 30.984 222.271 30.984C222.272 30.984 222.273 30.984 222.274 30.984C222.274 30.984 222.275 30.984 222.276 30.984C222.277 30.984 222.278 30.984 222.278 30.984C222.279 30.984 222.28 30.984 222.281 30.984C222.282 30.984 222.282 30.984 222.283 30.984C222.284 30.984 222.285 30.984 222.286 30.984C222.286 30.984 222.287 30.984 222.288 30.984C222.289 30.984 222.29 30.984 222.29 30.984C222.291 30.984 222.292 30.984 222.293 30.984C222.294 30.984 222.294 30.984 222.295 30.984C222.296 30.984 222.297 30.984 222.298 30.984C222.298 30.984 222.299 30.984 222.3 30.984C222.301 30.984 222.302 30.984 222.302 30.984C222.303 30.984 222.304 30.984 222.305 30.984C222.306 30.984 222.306 30.984 222.307 30.984C222.308 30.984 222.309 30.984 222.31 30.984C222.31 30.984 222.311 30.984 222.312 30.984C222.313 30.984 222.314 30.984 222.314 30.984C222.315 30.984 222.316 30.984 222.317 30.984C222.318 30.984 222.318 30.984 222.319 30.984C222.32 30.984 222.321 30.984 222.322 30.984C222.322 30.984 222.323 30.984 222.324 30.984C222.325 30.984 222.326 30.984 222.326 30.984C222.327 30.984 222.328 30.984 222.329 30.984C222.33 30.984 222.33 30.984 222.331 30.984C222.332 30.984 222.333 30.984 222.333 30.984C222.334 30.984 222.335 30.984 222.336 30.984C222.337 30.984 222.337 30.984 222.338 30.984C222.339 30.984 222.34 30.984 222.341 30.984C222.341 30.984 222.342 30.984 222.343 30.984C222.344 30.984 222.345 30.984 222.345 30.984C222.346 30.984 222.347 30.984 222.348 30.984C222.349 30.984 222.349 30.984 222.35 30.984C222.351 30.984 222.352 30.984 222.353 30.984C222.353 30.984 222.354 30.984 222.355 30.984C222.356 30.984 222.356 30.984 222.357 30.984C222.358 30.984 222.359 30.984 222.36 30.984C222.36 30.984 222.361 30.984 222.362 30.984C222.363 30.984 222.364 30.984 222.364 30.984C222.365 30.984 222.366 30.984 222.367 30.984C222.368 30.984 222.368 30.984 222.369 30.984C222.37 30.984 222.371 30.984 222.371 30.984C222.372 30.984 222.373 30.984 222.374 30.984C222.375 30.984 222.375 30.984 222.376 30.984C222.377 30.984 222.378 30.984 222.379 30.984C222.379 30.984 222.38 30.984 222.381 30.984C222.382 30.984 222.382 30.984 222.383 30.984C222.384 30.984 222.385 30.984 222.386 30.984C222.386 30.984 222.387 30.984 222.388 30.984C222.389 30.984 222.39 30.984 222.39 30.984C222.391 30.984 222.392 30.984 222.393 30.984C222.393 30.984 222.394 30.984 222.395 30.984C222.396 30.984 222.397 30.984 222.397 30.984C222.398 30.984 222.399 30.984 222.4 30.984C222.401 30.984 222.401 30.984 222.402 30.984C222.403 30.984 222.404 30.984 222.404 30.984C222.405 30.984 222.406 30.984 222.407 30.984C222.408 30.984 222.408 30.984 222.409 30.984C222.41 30.984 222.411 30.984 222.411 30.984C222.412 30.984 222.413 30.984 222.414 30.984C222.415 30.984 222.415 30.984 222.416 30.984C222.417 30.984 222.418 30.984 222.418 30.984C222.419 30.984 222.42 30.984 222.421 30.984C222.422 30.984 222.422 30.984 222.423 30.984C222.424 30.984 222.425 30.984 222.426 30.984C222.426 30.984 222.427 30.984 222.428 30.984C222.429 30.984 222.429 30.984 222.43 30.984C222.431 30.984 222.432 30.984 222.433 30.984C222.433 30.984 222.434 30.984 222.435 30.984C222.436 30.984 222.436 30.984 222.437 30.984C222.438 30.984 222.439 30.984 222.44 30.984C222.44 30.984 222.441 30.984 222.442 30.984C222.443 30.984 222.443 30.984 222.444 30.984C222.445 30.984 222.446 30.984 222.446 30.984C222.447 30.984 222.448 30.984 222.449 30.984C222.45 30.984 222.45 30.984 222.451 30.984C222.452 30.984 222.453 30.984 222.453 30.984C222.454 30.984 222.455 30.984 222.456 30.984C222.457 30.984 222.457 30.984 222.458 30.984C222.459 30.984 222.46 30.984 222.46 30.984C222.461 30.984 222.462 30.984 222.463 30.984C222.464 30.984 222.464 30.984 222.465 30.984C222.466 30.984 222.467 30.984 222.467 30.984C222.468 30.984 222.469 30.984 222.47 30.984C222.47 30.984 222.471 30.984 222.472 30.984C222.473 30.984 222.474 30.984 222.474 30.984C222.475 30.984 222.476 30.984 222.477 30.984C222.477 30.984 222.478 30.984 222.479 30.984C222.48 30.984 222.481 30.984 222.481 30.984C222.482 30.984 222.483 30.984 222.484 30.984C222.484 30.984 222.485 30.984 222.486 30.984C222.487 30.984 222.487 30.984 222.488 30.984C222.489 30.984 222.49 30.984 222.491 30.984C222.491 30.984 222.492 30.984 222.493 30.984C222.494 30.984 222.494 30.984 222.495 30.984C222.496 30.984 222.497 30.984 222.497 30.984C222.498 30.984 222.499 30.984 222.5 30.984C222.501 30.984 222.501 30.984 222.502 30.984C222.503 30.984 222.504 30.984 222.504 30.984C222.505 30.984 222.506 30.984 222.507 30.984C222.507 30.984 222.508 30.984 222.509 30.984C222.51 30.984 222.51 30.984 222.511 30.984C222.512 30.984 222.513 30.984 222.514 30.984C222.514 30.984 222.515 30.984 222.516 30.984C222.517 30.984 222.517 30.984 222.518 30.984C222.519 30.984 222.52 30.984 222.52 30.984C222.521 30.984 222.522 30.984 222.523 30.984C222.523 30.984 222.524 30.984 222.525 30.984C222.526 30.984 222.527 30.984 222.527 30.984C222.528 30.984 222.529 30.984 222.53 30.984C222.53 30.984 222.531 30.984 222.532 30.984C222.533 30.984 222.533 30.984 222.534 30.984C222.535 30.984 222.536 30.984 222.536 30.984C222.537 30.984 222.538 30.984 222.539 30.984C222.54 30.984 222.54 30.984 222.541 30.984C222.542 30.984 222.543 30.984 222.543 30.984C222.544 30.984 222.545 30.984 222.546 30.984C222.546 30.984 222.547 30.984 222.548 30.984C222.549 30.984 222.549 30.984 222.55 30.984C222.551 30.984 222.552 30.984 222.552 30.984C222.553 30.984 222.554 30.984 222.555 30.984C222.555 30.984 222.556 30.984 222.557 30.984C222.558 30.984 222.558 30.984 222.559 30.984C222.56 30.984 222.561 30.984 222.562 30.984C222.562 30.984 222.563 30.984 222.564 30.984C222.565 30.984 222.565 30.984 222.566 30.984C222.567 30.984 222.568 30.984 222.568 30.984C222.569 30.984 222.57 30.984 222.571 30.984C222.571 30.984 222.572 30.984 222.573 30.984C222.574 30.984 222.574 30.984 222.575 30.984C222.576 30.984 222.577 30.984 222.577 30.984C222.578 30.984 222.579 30.984 222.58 30.984C222.58 30.984 222.581 30.984 222.582 30.984C222.583 30.984 222.583 30.984 222.584 30.984C222.585 30.984 222.586 30.984 222.586 30.984C222.587 30.984 222.588 30.984 222.589 30.984C222.589 30.984 222.59 30.984 222.591 30.984C222.592 30.984 222.592 30.984 222.593 30.984C222.594 30.984 222.595 30.984 222.595 30.984C222.596 30.984 222.597 30.984 222.598 30.984C222.599 30.984 222.599 30.984 222.6 30.984C222.601 30.984 222.602 30.984 222.602 30.984C222.603 30.984 222.604 30.984 222.605 30.984C222.605 30.984 222.606 30.984 222.607 30.984C222.608 30.984 222.608 30.984 222.609 30.984C222.61 30.984 222.611 30.984 222.611 30.984C222.612 30.984 222.613 30.984 222.614 30.984C222.614 30.984 222.615 30.984 222.616 30.984C222.617 30.984 222.617 30.984 222.618 30.984C222.619 30.984 222.62 30.984 222.62 30.984C222.621 30.984 222.622 30.984 222.622 30.984C222.623 30.984 222.624 30.984 222.625 30.984C222.625 30.984 222.626 30.984 222.627 30.984C222.628 30.984 222.628 30.984 222.629 30.984C222.63 30.984 222.631 30.984 222.631 30.984C222.632 30.984 222.633 30.984 222.634 30.984C222.634 30.984 222.635 30.984 222.636 30.984C222.637 30.984 222.637 30.984 222.638 30.984C222.639 30.984 222.64 30.984 222.64 30.984C222.641 30.984 222.642 30.984 222.643 30.984C222.643 30.984 222.644 30.984 222.645 30.984C222.646 30.984 222.646 30.984 222.647 30.984C222.648 30.984 222.649 30.984 222.649 30.984C222.65 30.984 222.651 30.984 222.652 30.984C222.652 30.984 222.653 30.984 222.654 30.984C222.655 30.984 222.655 30.984 222.656 30.984C222.657 30.984 222.658 30.984 222.658 30.984C222.659 30.984 222.66 30.984 222.66 30.984C222.661 30.984 222.662 30.984 222.663 30.984C222.663 30.984 222.664 30.984 222.665 30.984C222.666 30.984 222.666 30.984 222.667 30.984C222.668 30.984 222.669 30.984 222.669 30.984C222.67 30.984 222.671 30.984 222.672 30.984C222.672 30.984 222.673 30.984 222.674 30.984C222.675 30.984 222.675 30.984 222.676 30.984C222.677 30.984 222.678 30.984 222.678 30.984C222.679 30.984 222.68 30.984 222.68 30.984C222.681 30.984 222.682 30.984 222.683 30.984C222.683 30.984 222.684 30.984 222.685 30.984C222.686 30.984 222.686 30.984 222.687 30.984C222.688 30.984 222.689 30.984 222.689 30.984C222.69 30.984 222.691 30.984 222.692 30.984C222.692 30.984 222.693 30.984 222.694 30.984C222.694 30.984 222.695 30.984 222.696 30.984C222.697 30.984 222.697 30.984 222.698 30.984C222.699 30.984 222.7 30.984 222.7 30.984C222.701 30.984 222.702 30.984 222.703 30.984C222.703 30.984 222.704 30.984 222.705 30.984C222.705 30.984 222.706 30.984 222.707 30.984C222.708 30.984 222.708 30.984 222.709 30.984C222.71 30.984 222.711 30.984 222.711 30.984C222.712 30.984 222.713 30.984 222.714 30.984C222.714 30.984 222.715 30.984 222.716 30.984C222.716 30.984 222.717 30.984 222.718 30.984C222.719 30.984 222.719 30.984 222.72 30.984C222.721 30.984 222.722 30.984 222.722 30.984C222.723 30.984 222.724 30.984 222.725 30.984C222.725 30.984 222.726 30.984 222.727 30.984C222.727 30.984 222.728 30.984 222.729 30.984C222.73 30.984 222.73 30.984 222.731 30.984C222.732 30.984 222.733 30.984 222.733 30.984C222.734 30.984 222.735 30.984 222.735 30.984C222.736 30.984 222.737 30.984 222.738 30.984C222.738 30.984 222.739 30.984 222.74 30.984C222.741 30.984 222.741 30.984 222.742 30.984C222.743 30.984 222.743 30.984 222.744 30.984C222.745 30.984 222.746 30.984 222.746 30.984C222.747 30.984 222.748 30.984 222.749 30.984C222.749 30.984 222.75 30.984 222.751 30.984C222.751 30.984 222.752 30.984 222.753 30.984C222.754 30.984 222.754 30.984 222.755 30.984C222.756 30.984 222.757 30.984 222.757 30.984C222.758 30.984 222.759 30.984 222.759 30.984C222.76 30.984 222.761 30.984 222.762 30.984C222.762 30.984 222.763 30.984 222.764 30.984C222.765 30.984 222.765 30.984 222.766 30.984C222.767 30.984 222.767 30.984 222.768 30.984C222.769 30.984 222.77 30.984 222.77 30.984C222.771 30.984 222.772 30.984 222.773 30.984C222.773 30.984 222.774 30.984 222.775 30.984C222.775 30.984 222.776 30.984 222.777 30.984C222.778 30.984 222.778 30.984 222.779 30.984C222.78 30.984 222.78 30.984 222.781 30.984C222.782 30.984 222.783 30.984 222.783 30.984C222.784 30.984 222.785 30.984 222.786 30.984C222.786 30.984 222.787 30.984 222.788 30.984C222.788 30.984 222.789 30.984 222.79 30.984C222.791 30.984 222.791 30.984 222.792 30.984C222.793 30.984 222.793 30.984 222.794 30.984C222.795 30.984 222.796 30.984 222.796 30.984C222.797 30.984 222.798 30.984 222.798 30.984C222.799 30.984 222.8 30.984 222.801 30.984C222.801 30.984 222.802 30.984 222.803 30.984C222.803 30.984 222.804 30.984 222.805 30.984C222.806 30.984 222.806 30.984 222.807 30.984C222.808 30.984 222.809 30.984 222.809 30.984C222.81 30.984 222.811 30.984 222.811 30.984C222.812 30.984 222.813 30.984 222.814 30.984C222.814 30.984 222.815 30.984 222.816 30.984C222.816 30.984 222.817 30.984 222.818 30.984C222.819 30.984 222.819 30.984 222.82 30.984C222.821 30.984 222.821 30.984 222.822 30.984C222.823 30.984 222.824 30.984 222.824 30.984C222.825 30.984 222.826 30.984 222.826 30.984C222.827 30.984 222.828 30.984 222.829 30.984C222.829 30.984 222.83 30.984 222.831 30.984C222.831 30.984 222.832 30.984 222.833 30.984C222.834 30.984 222.834 30.984 222.835 30.984C222.836 30.984 222.836 30.984 222.837 30.984C222.838 30.984 222.839 30.984 222.839 30.984C222.84 30.984 222.841 30.984 222.841 30.984C222.842 30.984 222.843 30.984 222.843 30.984C222.844 30.984 222.845 30.984 222.846 30.984C222.846 30.984 222.847 30.984 222.848 30.984C222.848 30.984 222.849 30.984 222.85 30.984C222.851 30.984 222.851 30.984 222.852 30.984C222.853 30.984 222.853 30.984 222.854 30.984C222.855 30.984 222.856 30.984 222.856 30.984C222.857 30.984 222.858 30.984 222.858 30.984C222.859 30.984 222.86 30.984 222.861 30.984C222.861 30.984 222.862 30.984 222.863 30.984C222.863 30.984 222.864 30.984 222.865 30.984C222.865 30.984 222.866 30.984 222.867 30.984C222.868 30.984 222.868 30.984 222.869 30.984C222.87 30.984 222.87 30.984 222.871 30.984C222.872 30.984 222.873 30.984 222.873 30.984C222.874 30.984 222.875 30.984 222.875 30.984C222.876 30.984 222.877 30.984 222.877 30.984C222.878 30.984 222.879 30.984 222.88 30.984C222.88 30.984 222.881 30.984 222.882 30.984C222.882 30.984 222.883 30.984 222.884 30.984C222.885 30.984 222.885 30.984 222.886 30.984C222.887 30.984 222.887 30.984 222.888 30.984C222.889 30.984 222.889 30.984 222.89 30.984C222.891 30.984 222.892 30.984 222.892 30.984C222.893 30.984 222.894 30.984 222.894 30.984C222.895 30.984 222.896 30.984 222.896 30.984C222.897 30.984 222.898 30.984 222.899 30.984C222.899 30.984 222.9 30.984 222.901 30.984C222.901 30.984 222.902 30.984 222.903 30.984C222.903 30.984 222.904 30.984 222.905 30.984C222.906 30.984 222.906 30.984 222.907 30.984C222.908 30.984 222.908 30.984 222.909 30.984C222.91 30.984 222.91 30.984 222.911 30.984C222.912 30.984 222.913 30.984 222.913 30.984C222.914 30.984 222.915 30.984 222.915 30.984C222.916 30.984 222.917 30.984 222.917 30.984C222.918 30.984 222.919 30.984 222.92 30.984C222.92 30.984 222.921 30.984 222.922 30.984C222.922 30.984 222.923 30.984 222.924 30.984C222.924 30.984 222.925 30.984 222.926 30.984C222.927 30.984 222.927 30.984 222.928 30.984C222.929 30.984 222.929 30.984 222.93 30.984C222.931 30.984 222.931 30.984 222.932 30.984C222.933 30.984 222.933 30.984 222.934 30.984C222.935 30.984 222.936 30.984 222.936 30.984C222.937 30.984 222.938 30.984 222.938 30.984C222.939 30.984 222.94 30.984 222.94 30.984C222.941 30.984 222.942 30.984 222.942 30.984C222.943 30.984 222.944 30.984 222.945 30.984C222.945 30.984 222.946 30.984 222.947 30.984C222.947 30.984 222.948 30.984 222.949 30.984C222.949 30.984 222.95 30.984 222.951 30.984C222.951 30.984 222.952 30.984 222.953 30.984C222.954 30.984 222.954 30.984 222.955 30.984C222.956 30.984 222.956 30.984 222.957 30.984C222.958 30.984 222.958 30.984 222.959 30.984C222.96 30.984 222.96 30.984 222.961 30.984C222.962 30.984 222.963 30.984 222.963 30.984C222.964 30.984 222.965 30.984 222.965 30.984C222.966 30.984 222.967 30.984 222.967 30.984C222.968 30.984 222.969 30.984 222.969 30.984C222.97 30.984 222.971 30.984 222.972 30.984C222.972 30.984 222.973 30.984 222.974 30.984C222.974 30.984 222.975 30.984 222.976 30.984C222.976 30.984 222.977 30.984 222.978 30.984C222.978 30.984 222.979 30.984 222.98 30.984C222.98 30.984 222.981 30.984 222.982 30.984C222.983 30.984 222.983 30.984 222.984 30.984C222.985 30.984 222.985 30.984 222.986 30.984C222.987 30.984 222.987 30.984 222.988 30.984C222.989 30.984 222.989 30.984 222.99 30.984C222.991 30.984 222.991 30.984 222.992 30.984C222.993 30.984 222.993 30.984 222.994 30.984C222.995 30.984 222.996 30.984 222.996 30.984C222.997 30.984 222.998 30.984 222.998 30.984C222.999 30.984 223 30.984 223 30.984C223.001 30.984 223.002 30.984 223.002 30.984C223.003 30.984 223.004 30.984 223.004 30.984C223.005 30.984 223.006 30.984 223.006 30.984C223.007 30.984 223.008 30.984 223.009 30.984C223.009 30.984 223.01 30.984 223.011 30.984C223.011 30.984 223.012 30.984 223.013 30.984C223.013 30.984 223.014 30.984 223.015 30.984C223.015 30.984 223.016 30.984 223.017 30.984C223.017 30.984 223.018 30.984 223.019 30.984C223.019 30.984 223.02 30.984 223.021 30.984C223.021 30.984 223.022 30.984 223.023 30.984C223.023 30.984 223.024 30.984 223.025 30.984C223.026 30.984 223.026 30.984 223.027 30.984C223.028 30.984 223.028 30.984 223.029 30.984C223.03 30.984 223.03 30.984 223.031 30.984C223.032 30.984 223.032 30.984 223.033 30.984C223.034 30.984 223.034 30.984 223.035 30.984C223.036 30.984 223.036 30.984 223.037 30.984C223.038 30.984 223.038 30.984 223.039 30.984C223.04 30.984 223.04 30.984 223.041 30.984C223.042 30.984 223.042 30.984 223.043 30.984C223.044 30.984 223.044 30.984 223.045 30.984C223.046 30.984 223.047 30.984 223.047 30.984C223.048 30.984 223.049 30.984 223.049 30.984C223.05 30.984 223.051 30.984 223.051 30.984C223.052 30.984 223.053 30.984 223.053 30.984C223.054 30.984 223.055 30.984 223.055 30.984C223.056 30.984 223.057 30.984 223.057 30.984C223.058 30.984 223.059 30.984 223.059 30.984C223.06 30.984 223.061 30.984 223.061 30.984C223.062 30.984 223.063 30.984 223.063 30.984C223.064 30.984 223.065 30.984 223.065 30.984C223.066 30.984 223.067 30.984 223.067 30.984C223.068 30.984 223.069 30.984 223.069 30.984C223.07 30.984 223.071 30.984 223.071 30.984C223.072 30.984 223.073 30.984 223.073 30.984C223.074 30.984 223.075 30.984 223.075 30.984C223.076 30.984 223.077 30.984 223.077 30.984C223.078 30.984 223.079 30.984 223.079 30.984C223.08 30.984 223.081 30.984 223.081 30.984C223.082 30.984 223.083 30.984 223.083 30.984C223.084 30.984 223.085 30.984 223.085 30.984C223.086 30.984 223.087 30.984 223.087 30.984C223.088 30.984 223.089 30.984 223.089 30.984C223.09 30.984 223.091 30.984 223.091 30.984C223.092 30.984 223.093 30.984 223.093 30.984C223.094 30.984 223.095 30.984 223.095 30.984C223.096 30.984 223.097 30.984 223.097 30.984C223.098 30.984 223.099 30.984 223.099 30.984C223.1 30.984 223.101 30.984 223.101 30.984C223.102 30.984 223.103 30.984 223.103 30.984C223.104 30.984 223.105 30.984 223.105 30.984C223.106 30.984 223.107 30.984 223.107 30.984C223.108 30.984 223.109 30.984 223.109 30.984C223.11 30.984 223.111 30.984 223.111 30.984C223.112 30.984 223.113 30.984 223.113 30.984C223.114 30.984 223.115 30.984 223.115 30.984C223.116 30.984 223.117 30.984 223.117 30.984C223.118 30.984 223.119 30.984 223.119 30.984C223.12 30.984 223.121 30.984 223.121 30.984C223.122 30.984 223.123 30.984 223.123 30.984C223.124 30.984 223.125 30.984 223.125 30.984C223.126 30.984 223.127 30.984 223.127 30.984C223.128 30.984 223.129 30.984 223.129 30.984C223.13 30.984 223.131 30.984 223.131 30.984C223.132 30.984 223.133 30.984 223.133 30.984C223.134 30.984 223.135 30.984 223.135 30.984C223.136 30.984 223.137 30.984 223.137 30.984C223.138 30.984 223.139 30.984 223.139 30.984C223.14 30.984 223.14 30.984 223.141 30.984C223.142 30.984 223.142 30.984 223.143 30.984C223.144 30.984 223.144 30.984 223.145 30.984C223.146 30.984 223.146 30.984 223.147 30.984C223.148 30.984 223.148 30.984 223.149 30.984V28.984C223.148 28.984 223.148 28.984 223.147 28.984C223.146 28.984 223.146 28.984 223.145 28.984C223.144 28.984 223.144 28.984 223.143 28.984C223.142 28.984 223.142 28.984 223.141 28.984C223.14 28.984 223.14 28.984 223.139 28.984C223.139 28.984 223.138 28.984 223.137 28.984C223.137 28.984 223.136 28.984 223.135 28.984C223.135 28.984 223.134 28.984 223.133 28.984C223.133 28.984 223.132 28.984 223.131 28.984C223.131 28.984 223.13 28.984 223.129 28.984C223.129 28.984 223.128 28.984 223.127 28.984C223.127 28.984 223.126 28.984 223.125 28.984C223.125 28.984 223.124 28.984 223.123 28.984C223.123 28.984 223.122 28.984 223.121 28.984C223.121 28.984 223.12 28.984 223.119 28.984C223.119 28.984 223.118 28.984 223.117 28.984C223.117 28.984 223.116 28.984 223.115 28.984C223.115 28.984 223.114 28.984 223.113 28.984C223.113 28.984 223.112 28.984 223.111 28.984C223.111 28.984 223.11 28.984 223.109 28.984C223.109 28.984 223.108 28.984 223.107 28.984C223.107 28.984 223.106 28.984 223.105 28.984C223.105 28.984 223.104 28.984 223.103 28.984C223.103 28.984 223.102 28.984 223.101 28.984C223.101 28.984 223.1 28.984 223.099 28.984C223.099 28.984 223.098 28.984 223.097 28.984C223.097 28.984 223.096 28.984 223.095 28.984C223.095 28.984 223.094 28.984 223.093 28.984C223.093 28.984 223.092 28.984 223.091 28.984C223.091 28.984 223.09 28.984 223.089 28.984C223.089 28.984 223.088 28.984 223.087 28.984C223.087 28.984 223.086 28.984 223.085 28.984C223.085 28.984 223.084 28.984 223.083 28.984C223.083 28.984 223.082 28.984 223.081 28.984C223.081 28.984 223.08 28.984 223.079 28.984C223.079 28.984 223.078 28.984 223.077 28.984C223.077 28.984 223.076 28.984 223.075 28.984C223.075 28.984 223.074 28.984 223.073 28.984C223.073 28.984 223.072 28.984 223.071 28.984C223.071 28.984 223.07 28.984 223.069 28.984C223.069 28.984 223.068 28.984 223.067 28.984C223.067 28.984 223.066 28.984 223.065 28.984C223.065 28.984 223.064 28.984 223.063 28.984C223.063 28.984 223.062 28.984 223.061 28.984C223.061 28.984 223.06 28.984 223.059 28.984C223.059 28.984 223.058 28.984 223.057 28.984C223.057 28.984 223.056 28.984 223.055 28.984C223.055 28.984 223.054 28.984 223.053 28.984C223.053 28.984 223.052 28.984 223.051 28.984C223.051 28.984 223.05 28.984 223.049 28.984C223.049 28.984 223.048 28.984 223.047 28.984C223.047 28.984 223.046 28.984 223.045 28.984C223.044 28.984 223.044 28.984 223.043 28.984C223.042 28.984 223.042 28.984 223.041 28.984C223.04 28.984 223.04 28.984 223.039 28.984C223.038 28.984 223.038 28.984 223.037 28.984C223.036 28.984 223.036 28.984 223.035 28.984C223.034 28.984 223.034 28.984 223.033 28.984C223.032 28.984 223.032 28.984 223.031 28.984C223.03 28.984 223.03 28.984 223.029 28.984C223.028 28.984 223.028 28.984 223.027 28.984C223.026 28.984 223.026 28.984 223.025 28.984C223.024 28.984 223.023 28.984 223.023 28.984C223.022 28.984 223.021 28.984 223.021 28.984C223.02 28.984 223.019 28.984 223.019 28.984C223.018 28.984 223.017 28.984 223.017 28.984C223.016 28.984 223.015 28.984 223.015 28.984C223.014 28.984 223.013 28.984 223.013 28.984C223.012 28.984 223.011 28.984 223.011 28.984C223.01 28.984 223.009 28.984 223.009 28.984C223.008 28.984 223.007 28.984 223.006 28.984C223.006 28.984 223.005 28.984 223.004 28.984C223.004 28.984 223.003 28.984 223.002 28.984C223.002 28.984 223.001 28.984 223 28.984C223 28.984 222.999 28.984 222.998 28.984C222.998 28.984 222.997 28.984 222.996 28.984C222.996 28.984 222.995 28.984 222.994 28.984C222.993 28.984 222.993 28.984 222.992 28.984C222.991 28.984 222.991 28.984 222.99 28.984C222.989 28.984 222.989 28.984 222.988 28.984C222.987 28.984 222.987 28.984 222.986 28.984C222.985 28.984 222.985 28.984 222.984 28.984C222.983 28.984 222.983 28.984 222.982 28.984C222.981 28.984 222.98 28.984 222.98 28.984C222.979 28.984 222.978 28.984 222.978 28.984C222.977 28.984 222.976 28.984 222.976 28.984C222.975 28.984 222.974 28.984 222.974 28.984C222.973 28.984 222.972 28.984 222.972 28.984C222.971 28.984 222.97 28.984 222.969 28.984C222.969 28.984 222.968 28.984 222.967 28.984C222.967 28.984 222.966 28.984 222.965 28.984C222.965 28.984 222.964 28.984 222.963 28.984C222.963 28.984 222.962 28.984 222.961 28.984C222.96 28.984 222.96 28.984 222.959 28.984C222.958 28.984 222.958 28.984 222.957 28.984C222.956 28.984 222.956 28.984 222.955 28.984C222.954 28.984 222.954 28.984 222.953 28.984C222.952 28.984 222.951 28.984 222.951 28.984C222.95 28.984 222.949 28.984 222.949 28.984C222.948 28.984 222.947 28.984 222.947 28.984C222.946 28.984 222.945 28.984 222.945 28.984C222.944 28.984 222.943 28.984 222.942 28.984C222.942 28.984 222.941 28.984 222.94 28.984C222.94 28.984 222.939 28.984 222.938 28.984C222.938 28.984 222.937 28.984 222.936 28.984C222.936 28.984 222.935 28.984 222.934 28.984C222.933 28.984 222.933 28.984 222.932 28.984C222.931 28.984 222.931 28.984 222.93 28.984C222.929 28.984 222.929 28.984 222.928 28.984C222.927 28.984 222.927 28.984 222.926 28.984C222.925 28.984 222.924 28.984 222.924 28.984C222.923 28.984 222.922 28.984 222.922 28.984C222.921 28.984 222.92 28.984 222.92 28.984C222.919 28.984 222.918 28.984 222.917 28.984C222.917 28.984 222.916 28.984 222.915 28.984C222.915 28.984 222.914 28.984 222.913 28.984C222.913 28.984 222.912 28.984 222.911 28.984C222.91 28.984 222.91 28.984 222.909 28.984C222.908 28.984 222.908 28.984 222.907 28.984C222.906 28.984 222.906 28.984 222.905 28.984C222.904 28.984 222.903 28.984 222.903 28.984C222.902 28.984 222.901 28.984 222.901 28.984C222.9 28.984 222.899 28.984 222.899 28.984C222.898 28.984 222.897 28.984 222.896 28.984C222.896 28.984 222.895 28.984 222.894 28.984C222.894 28.984 222.893 28.984 222.892 28.984C222.892 28.984 222.891 28.984 222.89 28.984C222.889 28.984 222.889 28.984 222.888 28.984C222.887 28.984 222.887 28.984 222.886 28.984C222.885 28.984 222.885 28.984 222.884 28.984C222.883 28.984 222.882 28.984 222.882 28.984C222.881 28.984 222.88 28.984 222.88 28.984C222.879 28.984 222.878 28.984 222.877 28.984C222.877 28.984 222.876 28.984 222.875 28.984C222.875 28.984 222.874 28.984 222.873 28.984C222.873 28.984 222.872 28.984 222.871 28.984C222.87 28.984 222.87 28.984 222.869 28.984C222.868 28.984 222.868 28.984 222.867 28.984C222.866 28.984 222.865 28.984 222.865 28.984C222.864 28.984 222.863 28.984 222.863 28.984C222.862 28.984 222.861 28.984 222.861 28.984C222.86 28.984 222.859 28.984 222.858 28.984C222.858 28.984 222.857 28.984 222.856 28.984C222.856 28.984 222.855 28.984 222.854 28.984C222.853 28.984 222.853 28.984 222.852 28.984C222.851 28.984 222.851 28.984 222.85 28.984C222.849 28.984 222.848 28.984 222.848 28.984C222.847 28.984 222.846 28.984 222.846 28.984C222.845 28.984 222.844 28.984 222.843 28.984C222.843 28.984 222.842 28.984 222.841 28.984C222.841 28.984 222.84 28.984 222.839 28.984C222.839 28.984 222.838 28.984 222.837 28.984C222.836 28.984 222.836 28.984 222.835 28.984C222.834 28.984 222.834 28.984 222.833 28.984C222.832 28.984 222.831 28.984 222.831 28.984C222.83 28.984 222.829 28.984 222.829 28.984C222.828 28.984 222.827 28.984 222.826 28.984C222.826 28.984 222.825 28.984 222.824 28.984C222.824 28.984 222.823 28.984 222.822 28.984C222.821 28.984 222.821 28.984 222.82 28.984C222.819 28.984 222.819 28.984 222.818 28.984C222.817 28.984 222.816 28.984 222.816 28.984C222.815 28.984 222.814 28.984 222.814 28.984C222.813 28.984 222.812 28.984 222.811 28.984C222.811 28.984 222.81 28.984 222.809 28.984C222.809 28.984 222.808 28.984 222.807 28.984C222.806 28.984 222.806 28.984 222.805 28.984C222.804 28.984 222.803 28.984 222.803 28.984C222.802 28.984 222.801 28.984 222.801 28.984C222.8 28.984 222.799 28.984 222.798 28.984C222.798 28.984 222.797 28.984 222.796 28.984C222.796 28.984 222.795 28.984 222.794 28.984C222.793 28.984 222.793 28.984 222.792 28.984C222.791 28.984 222.791 28.984 222.79 28.984C222.789 28.984 222.788 28.984 222.788 28.984C222.787 28.984 222.786 28.984 222.786 28.984C222.785 28.984 222.784 28.984 222.783 28.984C222.783 28.984 222.782 28.984 222.781 28.984C222.78 28.984 222.78 28.984 222.779 28.984C222.778 28.984 222.778 28.984 222.777 28.984C222.776 28.984 222.775 28.984 222.775 28.984C222.774 28.984 222.773 28.984 222.773 28.984C222.772 28.984 222.771 28.984 222.77 28.984C222.77 28.984 222.769 28.984 222.768 28.984C222.767 28.984 222.767 28.984 222.766 28.984C222.765 28.984 222.765 28.984 222.764 28.984C222.763 28.984 222.762 28.984 222.762 28.984C222.761 28.984 222.76 28.984 222.759 28.984C222.759 28.984 222.758 28.984 222.757 28.984C222.757 28.984 222.756 28.984 222.755 28.984C222.754 28.984 222.754 28.984 222.753 28.984C222.752 28.984 222.751 28.984 222.751 28.984C222.75 28.984 222.749 28.984 222.749 28.984C222.748 28.984 222.747 28.984 222.746 28.984C222.746 28.984 222.745 28.984 222.744 28.984C222.743 28.984 222.743 28.984 222.742 28.984C222.741 28.984 222.741 28.984 222.74 28.984C222.739 28.984 222.738 28.984 222.738 28.984C222.737 28.984 222.736 28.984 222.735 28.984C222.735 28.984 222.734 28.984 222.733 28.984C222.733 28.984 222.732 28.984 222.731 28.984C222.73 28.984 222.73 28.984 222.729 28.984C222.728 28.984 222.727 28.984 222.727 28.984C222.726 28.984 222.725 28.984 222.725 28.984C222.724 28.984 222.723 28.984 222.722 28.984C222.722 28.984 222.721 28.984 222.72 28.984C222.719 28.984 222.719 28.984 222.718 28.984C222.717 28.984 222.716 28.984 222.716 28.984C222.715 28.984 222.714 28.984 222.714 28.984C222.713 28.984 222.712 28.984 222.711 28.984C222.711 28.984 222.71 28.984 222.709 28.984C222.708 28.984 222.708 28.984 222.707 28.984C222.706 28.984 222.705 28.984 222.705 28.984C222.704 28.984 222.703 28.984 222.703 28.984C222.702 28.984 222.701 28.984 222.7 28.984C222.7 28.984 222.699 28.984 222.698 28.984C222.697 28.984 222.697 28.984 222.696 28.984C222.695 28.984 222.694 28.984 222.694 28.984C222.693 28.984 222.692 28.984 222.692 28.984C222.691 28.984 222.69 28.984 222.689 28.984C222.689 28.984 222.688 28.984 222.687 28.984C222.686 28.984 222.686 28.984 222.685 28.984C222.684 28.984 222.683 28.984 222.683 28.984C222.682 28.984 222.681 28.984 222.68 28.984C222.68 28.984 222.679 28.984 222.678 28.984C222.678 28.984 222.677 28.984 222.676 28.984C222.675 28.984 222.675 28.984 222.674 28.984C222.673 28.984 222.672 28.984 222.672 28.984C222.671 28.984 222.67 28.984 222.669 28.984C222.669 28.984 222.668 28.984 222.667 28.984C222.666 28.984 222.666 28.984 222.665 28.984C222.664 28.984 222.663 28.984 222.663 28.984C222.662 28.984 222.661 28.984 222.66 28.984C222.66 28.984 222.659 28.984 222.658 28.984C222.658 28.984 222.657 28.984 222.656 28.984C222.655 28.984 222.655 28.984 222.654 28.984C222.653 28.984 222.652 28.984 222.652 28.984C222.651 28.984 222.65 28.984 222.649 28.984C222.649 28.984 222.648 28.984 222.647 28.984C222.646 28.984 222.646 28.984 222.645 28.984C222.644 28.984 222.643 28.984 222.643 28.984C222.642 28.984 222.641 28.984 222.64 28.984C222.64 28.984 222.639 28.984 222.638 28.984C222.637 28.984 222.637 28.984 222.636 28.984C222.635 28.984 222.634 28.984 222.634 28.984C222.633 28.984 222.632 28.984 222.631 28.984C222.631 28.984 222.63 28.984 222.629 28.984C222.628 28.984 222.628 28.984 222.627 28.984C222.626 28.984 222.625 28.984 222.625 28.984C222.624 28.984 222.623 28.984 222.622 28.984C222.622 28.984 222.621 28.984 222.62 28.984C222.62 28.984 222.619 28.984 222.618 28.984C222.617 28.984 222.617 28.984 222.616 28.984C222.615 28.984 222.614 28.984 222.614 28.984C222.613 28.984 222.612 28.984 222.611 28.984C222.611 28.984 222.61 28.984 222.609 28.984C222.608 28.984 222.608 28.984 222.607 28.984C222.606 28.984 222.605 28.984 222.605 28.984C222.604 28.984 222.603 28.984 222.602 28.984C222.602 28.984 222.601 28.984 222.6 28.984C222.599 28.984 222.599 28.984 222.598 28.984C222.597 28.984 222.596 28.984 222.595 28.984C222.595 28.984 222.594 28.984 222.593 28.984C222.592 28.984 222.592 28.984 222.591 28.984C222.59 28.984 222.589 28.984 222.589 28.984C222.588 28.984 222.587 28.984 222.586 28.984C222.586 28.984 222.585 28.984 222.584 28.984C222.583 28.984 222.583 28.984 222.582 28.984C222.581 28.984 222.58 28.984 222.58 28.984C222.579 28.984 222.578 28.984 222.577 28.984C222.577 28.984 222.576 28.984 222.575 28.984C222.574 28.984 222.574 28.984 222.573 28.984C222.572 28.984 222.571 28.984 222.571 28.984C222.57 28.984 222.569 28.984 222.568 28.984C222.568 28.984 222.567 28.984 222.566 28.984C222.565 28.984 222.565 28.984 222.564 28.984C222.563 28.984 222.562 28.984 222.562 28.984C222.561 28.984 222.56 28.984 222.559 28.984C222.558 28.984 222.558 28.984 222.557 28.984C222.556 28.984 222.555 28.984 222.555 28.984C222.554 28.984 222.553 28.984 222.552 28.984C222.552 28.984 222.551 28.984 222.55 28.984C222.549 28.984 222.549 28.984 222.548 28.984C222.547 28.984 222.546 28.984 222.546 28.984C222.545 28.984 222.544 28.984 222.543 28.984C222.543 28.984 222.542 28.984 222.541 28.984C222.54 28.984 222.54 28.984 222.539 28.984C222.538 28.984 222.537 28.984 222.536 28.984C222.536 28.984 222.535 28.984 222.534 28.984C222.533 28.984 222.533 28.984 222.532 28.984C222.531 28.984 222.53 28.984 222.53 28.984C222.529 28.984 222.528 28.984 222.527 28.984C222.527 28.984 222.526 28.984 222.525 28.984C222.524 28.984 222.523 28.984 222.523 28.984C222.522 28.984 222.521 28.984 222.52 28.984C222.52 28.984 222.519 28.984 222.518 28.984C222.517 28.984 222.517 28.984 222.516 28.984C222.515 28.984 222.514 28.984 222.514 28.984C222.513 28.984 222.512 28.984 222.511 28.984C222.51 28.984 222.51 28.984 222.509 28.984C222.508 28.984 222.507 28.984 222.507 28.984C222.506 28.984 222.505 28.984 222.504 28.984C222.504 28.984 222.503 28.984 222.502 28.984C222.501 28.984 222.501 28.984 222.5 28.984C222.499 28.984 222.498 28.984 222.497 28.984C222.497 28.984 222.496 28.984 222.495 28.984C222.494 28.984 222.494 28.984 222.493 28.984C222.492 28.984 222.491 28.984 222.491 28.984C222.49 28.984 222.489 28.984 222.488 28.984C222.487 28.984 222.487 28.984 222.486 28.984C222.485 28.984 222.484 28.984 222.484 28.984C222.483 28.984 222.482 28.984 222.481 28.984C222.481 28.984 222.48 28.984 222.479 28.984C222.478 28.984 222.477 28.984 222.477 28.984C222.476 28.984 222.475 28.984 222.474 28.984C222.474 28.984 222.473 28.984 222.472 28.984C222.471 28.984 222.47 28.984 222.47 28.984C222.469 28.984 222.468 28.984 222.467 28.984C222.467 28.984 222.466 28.984 222.465 28.984C222.464 28.984 222.464 28.984 222.463 28.984C222.462 28.984 222.461 28.984 222.46 28.984C222.46 28.984 222.459 28.984 222.458 28.984C222.457 28.984 222.457 28.984 222.456 28.984C222.455 28.984 222.454 28.984 222.453 28.984C222.453 28.984 222.452 28.984 222.451 28.984C222.45 28.984 222.45 28.984 222.449 28.984C222.448 28.984 222.447 28.984 222.446 28.984C222.446 28.984 222.445 28.984 222.444 28.984C222.443 28.984 222.443 28.984 222.442 28.984C222.441 28.984 222.44 28.984 222.44 28.984C222.439 28.984 222.438 28.984 222.437 28.984C222.436 28.984 222.436 28.984 222.435 28.984C222.434 28.984 222.433 28.984 222.433 28.984C222.432 28.984 222.431 28.984 222.43 28.984C222.429 28.984 222.429 28.984 222.428 28.984C222.427 28.984 222.426 28.984 222.426 28.984C222.425 28.984 222.424 28.984 222.423 28.984C222.422 28.984 222.422 28.984 222.421 28.984C222.42 28.984 222.419 28.984 222.418 28.984C222.418 28.984 222.417 28.984 222.416 28.984C222.415 28.984 222.415 28.984 222.414 28.984C222.413 28.984 222.412 28.984 222.411 28.984C222.411 28.984 222.41 28.984 222.409 28.984C222.408 28.984 222.408 28.984 222.407 28.984C222.406 28.984 222.405 28.984 222.404 28.984C222.404 28.984 222.403 28.984 222.402 28.984C222.401 28.984 222.401 28.984 222.4 28.984C222.399 28.984 222.398 28.984 222.397 28.984C222.397 28.984 222.396 28.984 222.395 28.984C222.394 28.984 222.393 28.984 222.393 28.984C222.392 28.984 222.391 28.984 222.39 28.984C222.39 28.984 222.389 28.984 222.388 28.984C222.387 28.984 222.386 28.984 222.386 28.984C222.385 28.984 222.384 28.984 222.383 28.984C222.382 28.984 222.382 28.984 222.381 28.984C222.38 28.984 222.379 28.984 222.379 28.984C222.378 28.984 222.377 28.984 222.376 28.984C222.375 28.984 222.375 28.984 222.374 28.984C222.373 28.984 222.372 28.984 222.371 28.984C222.371 28.984 222.37 28.984 222.369 28.984C222.368 28.984 222.368 28.984 222.367 28.984C222.366 28.984 222.365 28.984 222.364 28.984C222.364 28.984 222.363 28.984 222.362 28.984C222.361 28.984 222.36 28.984 222.36 28.984C222.359 28.984 222.358 28.984 222.357 28.984C222.356 28.984 222.356 28.984 222.355 28.984C222.354 28.984 222.353 28.984 222.353 28.984C222.352 28.984 222.351 28.984 222.35 28.984C222.349 28.984 222.349 28.984 222.348 28.984C222.347 28.984 222.346 28.984 222.345 28.984C222.345 28.984 222.344 28.984 222.343 28.984C222.342 28.984 222.341 28.984 222.341 28.984C222.34 28.984 222.339 28.984 222.338 28.984C222.337 28.984 222.337 28.984 222.336 28.984C222.335 28.984 222.334 28.984 222.333 28.984C222.333 28.984 222.332 28.984 222.331 28.984C222.33 28.984 222.33 28.984 222.329 28.984C222.328 28.984 222.327 28.984 222.326 28.984C222.326 28.984 222.325 28.984 222.324 28.984C222.323 28.984 222.322 28.984 222.322 28.984C222.321 28.984 222.32 28.984 222.319 28.984C222.318 28.984 222.318 28.984 222.317 28.984C222.316 28.984 222.315 28.984 222.314 28.984C222.314 28.984 222.313 28.984 222.312 28.984C222.311 28.984 222.31 28.984 222.31 28.984C222.309 28.984 222.308 28.984 222.307 28.984C222.306 28.984 222.306 28.984 222.305 28.984C222.304 28.984 222.303 28.984 222.302 28.984C222.302 28.984 222.301 28.984 222.3 28.984C222.299 28.984 222.298 28.984 222.298 28.984C222.297 28.984 222.296 28.984 222.295 28.984C222.294 28.984 222.294 28.984 222.293 28.984C222.292 28.984 222.291 28.984 222.29 28.984C222.29 28.984 222.289 28.984 222.288 28.984C222.287 28.984 222.286 28.984 222.286 28.984C222.285 28.984 222.284 28.984 222.283 28.984C222.282 28.984 222.282 28.984 222.281 28.984C222.28 28.984 222.279 28.984 222.278 28.984C222.278 28.984 222.277 28.984 222.276 28.984C222.275 28.984 222.274 28.984 222.274 28.984C222.273 28.984 222.272 28.984 222.271 28.984C222.27 28.984 222.27 28.984 222.269 28.984C222.268 28.984 222.267 28.984 222.266 28.984C222.266 28.984 222.265 28.984 222.264 28.984C222.263 28.984 222.262 28.984 222.262 28.984C222.261 28.984 222.26 28.984 222.259 28.984C222.258 28.984 222.258 28.984 222.257 28.984C222.256 28.984 222.255 28.984 222.254 28.984C222.254 28.984 222.253 28.984 222.252 28.984C222.251 28.984 222.25 28.984 222.249 28.984C222.249 28.984 222.248 28.984 222.247 28.984C222.246 28.984 222.245 28.984 222.245 28.984C222.244 28.984 222.243 28.984 222.242 28.984C222.241 28.984 222.241 28.984 222.24 28.984C222.239 28.984 222.238 28.984 222.237 28.984C222.237 28.984 222.236 28.984 222.235 28.984C222.234 28.984 222.233 28.984 222.233 28.984C222.232 28.984 222.231 28.984 222.23 28.984C222.229 28.984 222.228 28.984 222.228 28.984C222.227 28.984 222.226 28.984 222.225 28.984C222.224 28.984 222.224 28.984 222.223 28.984C222.222 28.984 222.221 28.984 222.22 28.984C222.22 28.984 222.219 28.984 222.218 28.984C222.217 28.984 222.216 28.984 222.216 28.984C222.215 28.984 222.214 28.984 222.213 28.984C222.212 28.984 222.211 28.984 222.211 28.984C222.21 28.984 222.209 28.984 222.208 28.984C222.207 28.984 222.207 28.984 222.206 28.984C222.205 28.984 222.204 28.984 222.203 28.984C222.203 28.984 222.202 28.984 222.201 28.984C222.2 28.984 222.199 28.984 222.198 28.984C222.198 28.984 222.197 28.984 222.196 28.984C222.195 28.984 222.194 28.984 222.194 28.984C222.193 28.984 222.192 28.984 222.191 28.984C222.19 28.984 222.189 28.984 222.189 28.984C222.188 28.984 222.187 28.984 222.186 28.984C222.185 28.984 222.185 28.984 222.184 28.984C222.183 28.984 222.182 28.984 222.181 28.984C222.181 28.984 222.18 28.984 222.179 28.984C222.178 28.984 222.177 28.984 222.176 28.984C222.176 28.984 222.175 28.984 222.174 28.984C222.173 28.984 222.172 28.984 222.172 28.984C222.171 28.984 222.17 28.984 222.169 28.984C222.168 28.984 222.167 28.984 222.167 28.984C222.166 28.984 222.165 28.984 222.164 28.984C222.163 28.984 222.163 28.984 222.162 28.984C222.161 28.984 222.16 28.984 222.159 28.984C222.158 28.984 222.158 28.984 222.157 28.984C222.156 28.984 222.155 28.984 222.154 28.984C222.153 28.984 222.153 28.984 222.152 28.984C222.151 28.984 222.15 28.984 222.149 28.984C222.149 28.984 222.148 28.984 222.147 28.984C222.146 28.984 222.145 28.984 222.144 28.984C222.144 28.984 222.143 28.984 222.142 28.984C222.141 28.984 222.14 28.984 222.14 28.984C222.139 28.984 222.138 28.984 222.137 28.984C222.136 28.984 222.135 28.984 222.135 28.984C222.134 28.984 222.133 28.984 222.132 28.984C222.131 28.984 222.13 28.984 222.13 28.984C222.129 28.984 222.128 28.984 222.127 28.984C222.126 28.984 222.126 28.984 222.125 28.984C222.124 28.984 222.123 28.984 222.122 28.984C222.121 28.984 222.121 28.984 222.12 28.984C222.119 28.984 222.118 28.984 222.117 28.984C222.116 28.984 222.116 28.984 222.115 28.984C222.114 28.984 222.113 28.984 222.112 28.984C222.111 28.984 222.111 28.984 222.11 28.984C222.109 28.984 222.108 28.984 222.107 28.984C222.107 28.984 222.106 28.984 222.105 28.984C222.104 28.984 222.103 28.984 222.102 28.984C222.102 28.984 222.101 28.984 222.1 28.984C222.099 28.984 222.098 28.984 222.097 28.984C222.097 28.984 222.096 28.984 222.095 28.984C222.094 28.984 222.093 28.984 222.092 28.984C222.092 28.984 222.091 28.984 222.09 28.984C222.089 28.984 222.088 28.984 222.087 28.984C222.087 28.984 222.086 28.984 222.085 28.984C222.084 28.984 222.083 28.984 222.082 28.984C222.082 28.984 222.081 28.984 222.08 28.984C222.079 28.984 222.078 28.984 222.077 28.984C222.077 28.984 222.076 28.984 222.075 28.984C222.074 28.984 222.073 28.984 222.072 28.984C222.072 28.984 222.071 28.984 222.07 28.984C222.069 28.984 222.068 28.984 222.067 28.984C222.067 28.984 222.066 28.984 222.065 28.984C222.064 28.984 222.063 28.984 222.062 28.984C222.062 28.984 222.061 28.984 222.06 28.984C222.059 28.984 222.058 28.984 222.057 28.984C222.057 28.984 222.056 28.984 222.055 28.984C222.054 28.984 222.053 28.984 222.052 28.984C222.052 28.984 222.051 28.984 222.05 28.984C222.049 28.984 222.048 28.984 222.047 28.984C222.047 28.984 222.046 28.984 222.045 28.984C222.044 28.984 222.043 28.984 222.042 28.984C222.042 28.984 222.041 28.984 222.04 28.984C222.039 28.984 222.038 28.984 222.037 28.984C222.037 28.984 222.036 28.984 222.035 28.984C222.034 28.984 222.033 28.984 222.032 28.984C222.032 28.984 222.031 28.984 222.03 28.984C222.029 28.984 222.028 28.984 222.027 28.984C222.026 28.984 222.026 28.984 222.025 28.984C222.024 28.984 222.023 28.984 222.022 28.984C222.021 28.984 222.021 28.984 222.02 28.984C222.019 28.984 222.018 28.984 222.017 28.984C222.016 28.984 222.016 28.984 222.015 28.984C222.014 28.984 222.013 28.984 222.012 28.984C222.011 28.984 222.011 28.984 222.01 28.984C222.009 28.984 222.008 28.984 222.007 28.984C222.006 28.984 222.005 28.984 222.005 28.984C222.004 28.984 222.003 28.984 222.002 28.984C222.001 28.984 222 28.984 222 28.984C221.999 28.984 221.998 28.984 221.997 28.984V30.984ZM223.149 30.984C223.442 30.984 223.66 31.0053 223.817 31.0366L224.209 29.0754C223.886 29.0107 223.528 28.984 223.149 28.984V30.984ZM223.013 30.056V37.184H225.013V30.056H223.013ZM235.766 66.056L235.231 66.9008L235.239 66.906L235.247 66.911L235.766 66.056ZM229.07 58.928L228.187 59.3979L228.19 59.4038L229.07 58.928ZM229.07 39.56L228.193 39.0792L228.19 39.0842L229.07 39.56ZM235.838 32.432L236.363 33.2832L236.367 33.2808L235.838 32.432ZM256.214 32.432L255.679 33.2768L255.687 33.282L255.695 33.287L256.214 32.432ZM262.982 39.56L262.099 40.0298L262.104 40.0384L262.108 40.0469L262.982 39.56ZM263.054 58.928L263.933 59.4038L263.937 59.3978L263.054 58.928ZM256.286 66.056L256.811 66.9072L256.815 66.9048L256.286 66.056ZM236.342 55.76L235.456 56.2248L235.456 56.2248L236.342 55.76ZM240.374 60.296L240.923 59.4603L240.923 59.4603L240.374 60.296ZM251.678 60.296L252.227 61.1317L252.233 61.128L251.678 60.296ZM255.782 55.688L256.667 56.1528L256.667 56.1528L255.782 55.688ZM255.782 42.728L254.896 43.1928L254.896 43.1928L255.782 42.728ZM251.678 38.192L251.112 39.0167L251.126 39.0259L251.14 39.0347L251.678 38.192ZM240.374 38.192L240.923 39.0277L240.929 39.024L240.374 38.192ZM236.342 42.8L237.227 43.2649L237.232 43.2559L236.342 42.8ZM246.062 67.72C242.281 67.72 239.034 66.8687 236.285 65.201L235.247 66.911C238.354 68.7953 241.971 69.72 246.062 69.72V67.72ZM236.301 65.2112C233.562 63.4764 231.45 61.226 229.949 58.4522L228.19 59.4038C229.858 62.486 232.21 64.9876 235.231 66.9008L236.301 65.2112ZM229.953 58.4582C228.449 55.6326 227.694 52.5548 227.694 49.208H225.694C225.694 52.8692 226.523 56.2714 228.187 59.3978L229.953 58.4582ZM227.694 49.208C227.694 45.8611 228.449 42.8099 229.949 40.0358L228.19 39.0842C226.523 42.1661 225.694 45.5469 225.694 49.208H227.694ZM229.947 40.0408C231.496 37.2162 233.631 34.968 236.363 33.2832L235.313 31.5808C232.285 33.448 229.908 35.9518 228.193 39.0792L229.947 40.0408ZM236.367 33.2808C239.116 31.5678 242.336 30.696 246.062 30.696V28.696C242.011 28.696 238.415 29.6482 235.309 31.5832L236.367 33.2808ZM246.062 30.696C249.788 30.696 252.98 31.5679 255.679 33.2768L256.749 31.5872C253.687 29.6481 250.112 28.696 246.062 28.696V30.696ZM255.695 33.287C258.472 34.9713 260.601 37.2153 262.099 40.0298L263.865 39.0902C262.195 35.9527 259.812 33.4447 256.733 31.577L255.695 33.287ZM262.108 40.0469C263.654 42.8192 264.43 45.8664 264.43 49.208H266.43C266.43 45.5416 265.574 42.1568 263.855 39.0731L262.108 40.0469ZM264.43 49.208C264.43 52.5548 263.675 55.6326 262.171 58.4582L263.937 59.3978C265.601 56.2714 266.43 52.8692 266.43 49.208H264.43ZM262.174 58.4522C260.676 61.2219 258.543 63.4715 255.757 65.2072L256.815 66.9048C259.884 64.9925 262.264 62.4901 263.933 59.4038L262.174 58.4522ZM255.761 65.2048C253.063 66.8686 249.843 67.72 246.062 67.72V69.72C250.152 69.72 253.749 68.7954 256.811 66.9072L255.761 65.2048ZM233.83 49.28C233.83 51.8243 234.365 54.1467 235.456 56.2248L237.227 55.2952C236.302 53.5333 235.83 51.5356 235.83 49.28H233.83ZM235.456 56.2248C236.537 58.2828 237.992 59.9273 239.825 61.1317L240.923 59.4603C239.396 58.4567 238.163 57.0772 237.227 55.2952L235.456 56.2248ZM239.825 61.1317C241.676 62.3485 243.765 62.952 246.062 62.952V60.952C244.135 60.952 242.431 60.4515 240.923 59.4603L239.825 61.1317ZM246.062 62.952C248.316 62.952 250.379 62.3459 252.227 61.1317L251.129 59.4603C249.616 60.4541 247.936 60.952 246.062 60.952V62.952ZM252.233 61.128C254.106 59.8791 255.585 58.2142 256.667 56.1528L254.896 55.2232C253.963 57.0018 252.706 58.4089 251.123 59.4639L252.233 61.128ZM256.667 56.1528C257.758 54.0747 258.294 51.7523 258.294 49.208H256.294C256.294 51.4636 255.821 53.4613 254.896 55.2232L256.667 56.1528ZM258.294 49.208C258.294 46.6636 257.758 44.3413 256.667 42.2632L254.896 43.1928C255.821 44.9546 256.294 46.9523 256.294 49.208H258.294ZM256.667 42.2632C255.583 40.1984 254.099 38.5524 252.216 37.3493L251.14 39.0347C252.712 40.0396 253.965 41.4176 254.896 43.1928L256.667 42.2632ZM252.243 37.3673C250.395 36.0995 248.325 35.464 246.062 35.464V37.464C247.927 37.464 249.601 37.9805 251.112 39.0167L252.243 37.3673ZM246.062 35.464C243.799 35.464 241.71 36.0992 239.819 37.3599L240.929 39.024C242.493 37.9808 244.197 37.464 246.062 37.464V35.464ZM239.825 37.3563C237.986 38.5646 236.531 40.2379 235.452 42.3441L237.232 43.2559C238.169 41.4261 239.402 40.0274 240.923 39.0277L239.825 37.3563ZM235.456 42.3352C234.365 44.4133 233.83 46.7356 233.83 49.28H235.83C235.83 47.0243 236.302 45.0267 237.227 43.2648L235.456 42.3352ZM274.122 37.4H275.122V36.4H274.122V37.4ZM269.082 37.4H268.082V38.4H269.082V37.4ZM269.082 31.28V30.28H268.082V31.28H269.082ZM274.122 31.28V32.28H275.122V31.28H274.122ZM275.778 22.424L276.68 22.8561L276.68 22.8561L275.778 22.424ZM280.674 16.88L281.216 17.7206L281.22 17.7176L280.674 16.88ZM295.938 16.016L295.56 16.9416L295.567 16.9445L295.938 16.016ZM301.554 18.896L302.431 19.3771L302.872 18.5728L302.109 18.0639L301.554 18.896ZM298.314 24.8L297.658 25.5546L298.594 26.3686L299.191 25.2811L298.314 24.8ZM294.21 22.424L293.844 23.3545L293.853 23.3581L294.21 22.424ZM285.138 22.64L284.55 21.8313L284.55 21.8313L285.138 22.64ZM282.762 25.664L281.841 25.2744L281.835 25.2896L281.829 25.305L282.762 25.664ZM282.042 31.28H281.042V32.28H282.042V31.28ZM301.77 31.28H302.77V30.28H301.77V31.28ZM301.77 68V69H302.77V68H301.77ZM293.85 68H292.85V69H293.85V68ZM293.85 37.4H294.85V36.4H293.85V37.4ZM282.042 37.4V36.4H281.042V37.4H282.042ZM282.042 68V69H283.042V68H282.042ZM274.122 68H273.122V69H274.122V68ZM274.122 36.4H269.082V38.4H274.122V36.4ZM270.082 37.4V31.28H268.082V37.4H270.082ZM269.082 32.28H274.122V30.28H269.082V32.28ZM275.122 31.28V29.768H273.122V31.28H275.122ZM275.122 29.768C275.122 27.3233 275.642 25.0232 276.68 22.8561L274.876 21.9919C273.707 24.4328 273.122 27.0287 273.122 29.768H275.122ZM276.68 22.8561C277.704 20.72 279.21 19.013 281.216 17.7206L280.133 16.0394C277.818 17.531 276.061 19.52 274.876 21.9919L276.68 22.8561ZM281.22 17.7176C283.236 16.4033 285.725 15.72 288.738 15.72V13.72C285.416 13.72 282.529 14.4767 280.128 16.0424L281.22 17.7176ZM288.738 15.72C291.319 15.72 293.587 16.1346 295.56 16.9415L296.317 15.0904C294.065 14.1694 291.533 13.72 288.738 13.72V15.72ZM295.567 16.9445C297.676 17.7882 299.484 18.7178 301 19.728L302.109 18.0639C300.456 16.9622 298.52 15.9718 296.31 15.0875L295.567 16.9445ZM300.678 18.4149L297.438 24.3189L299.191 25.2811L302.431 19.3771L300.678 18.4149ZM298.97 24.0454C297.763 22.9952 296.288 22.1479 294.567 21.4899L293.853 23.3581C295.396 23.9481 296.658 24.6848 297.658 25.5546L298.97 24.0454ZM294.577 21.4936C292.874 20.8229 291.094 20.488 289.242 20.488V22.488C290.847 22.488 292.378 22.7771 293.844 23.3544L294.577 21.4936ZM289.242 20.488C287.412 20.488 285.82 20.9075 284.55 21.8313L285.726 23.4487C286.568 22.8365 287.713 22.488 289.242 22.488V20.488ZM284.55 21.8313C283.341 22.7103 282.437 23.8656 281.841 25.2744L283.683 26.0536C284.143 24.9664 284.823 24.1057 285.726 23.4487L284.55 21.8313ZM281.829 25.305C281.305 26.6682 281.042 28.0859 281.042 29.552H283.042C283.042 28.3301 283.26 27.1558 283.696 26.023L281.829 25.305ZM281.042 29.552V31.28H283.042V29.552H281.042ZM282.042 32.28H301.77V30.28H282.042V32.28ZM300.77 31.28V68H302.77V31.28H300.77ZM301.77 67H293.85V69H301.77V67ZM294.85 68V37.4H292.85V68H294.85ZM293.85 36.4H282.042V38.4H293.85V36.4ZM281.042 37.4V68H283.042V37.4H281.042ZM282.042 67H274.122V69H282.042V67ZM275.122 68V37.4H273.122V68H275.122ZM311.339 15.44V14.44H310.339V15.44H311.339ZM319.259 15.44H320.259V14.44H319.259V15.44ZM320.123 60.8L320.799 60.0628L320.799 60.0628L320.123 60.8ZM325.019 61.304L324.802 60.3278L324.802 60.3278L325.019 61.304ZM327.179 60.584L328.162 60.4031L327.922 59.0945L326.732 59.6896L327.179 60.584ZM328.331 66.848L328.716 67.7711L329.46 67.4607L329.314 66.6671L328.331 66.848ZM324.227 68.072L324.019 67.0938L324.019 67.0938L324.227 68.072ZM313.643 66.344L312.936 67.0511L312.941 67.0567L312.947 67.0622L313.643 66.344ZM311.339 16.44H319.259V14.44H311.339V16.44ZM318.259 15.44V57.128H320.259V15.44H318.259ZM318.259 57.128C318.259 58.1293 318.333 58.9997 318.501 59.715C318.666 60.4136 318.946 61.0777 319.447 61.5372L320.799 60.0628C320.724 59.9943 320.572 59.7824 320.448 59.257C320.329 58.7483 320.259 58.0467 320.259 57.128H318.259ZM319.447 61.5372C320.228 62.2526 321.197 62.592 322.283 62.592V60.592C321.64 60.592 321.17 60.4034 320.799 60.0628L319.447 61.5372ZM322.283 62.592C323.31 62.592 324.295 62.4893 325.236 62.2802L324.802 60.3278C324.015 60.5027 323.176 60.592 322.283 60.592V62.592ZM325.236 62.2802C326.152 62.0766 326.955 61.8137 327.626 61.4784L326.732 59.6896C326.25 59.9303 325.614 60.1474 324.802 60.3278L325.236 62.2802ZM326.195 60.7649L327.347 67.0289L329.314 66.6671L328.162 60.4031L326.195 60.7649ZM327.946 65.9249C326.865 66.3753 325.56 66.7671 324.019 67.0938L324.434 69.0502C326.062 68.7049 327.492 68.2807 328.716 67.7711L327.946 65.9249ZM324.019 67.0938C322.485 67.4193 321.14 67.576 319.979 67.576V69.576C321.314 69.576 322.801 69.3967 324.434 69.0502L324.019 67.0938ZM319.979 67.576C317.481 67.576 315.643 66.8896 314.339 65.6258L312.947 67.0622C314.715 68.7744 317.101 69.576 319.979 69.576V67.576ZM314.35 65.6369C313.044 64.3309 312.339 62.4975 312.339 60.008H310.339C310.339 62.8945 311.17 65.2851 312.936 67.0511L314.35 65.6369ZM312.339 60.008V15.44H310.339V60.008H312.339ZM339.763 66.056L340.282 65.201L340.282 65.201L339.763 66.056ZM332.923 59L332.046 59.4808L332.05 59.4869L332.923 59ZM332.923 39.488L332.046 39.0072L332.046 39.0072L332.923 39.488ZM339.763 32.36L339.245 31.505L339.245 31.505L339.763 32.36ZM360.283 32.432L359.748 33.2769L359.758 33.2832L360.283 32.432ZM366.907 39.488L366.022 39.9526L366.028 39.9638L366.907 39.488ZM369.067 51.8V52.8H369.887L370.048 51.9961L369.067 51.8ZM338.899 51.8V50.8H337.832L337.901 51.8651L338.899 51.8ZM340.699 57.632L339.853 58.1642L339.861 58.1784L339.871 58.1923L340.699 57.632ZM344.803 61.52L344.296 62.3819L344.311 62.3907L344.326 62.3989L344.803 61.52ZM360.139 57.128L360.415 56.1669L359.559 55.9209L359.216 56.7434L360.139 57.128ZM366.907 59.072L367.816 59.4881L368.3 58.4316L367.183 58.1109L366.907 59.072ZM360.427 66.056L360.94 66.9147L360.944 66.9123L360.427 66.056ZM338.683 46.544L337.685 46.4775L337.614 47.544H338.683V46.544ZM361.435 46.544V47.544H362.528L362.431 46.4555L361.435 46.544ZM359.563 40.856L358.716 41.3882L358.724 41.3993L359.563 40.856ZM355.459 36.968L354.952 37.8299L354.967 37.8386L354.982 37.8469L355.459 36.968ZM344.515 36.968L345.003 37.841L345.011 37.8362L344.515 36.968ZM340.483 40.856L341.323 41.3993L341.33 41.3882L340.483 40.856ZM349.987 67.72C346.257 67.72 343.033 66.8698 340.282 65.201L339.245 66.911C342.349 68.7942 345.942 69.72 349.987 69.72V67.72ZM340.282 65.201C337.499 63.5128 335.342 61.2864 333.797 58.5131L332.05 59.4869C333.768 62.5696 336.172 65.0472 339.245 66.911L340.282 65.201ZM333.8 58.5192C332.251 55.6954 331.475 52.6216 331.475 49.28H329.475C329.475 52.9464 330.331 56.3526 332.046 59.4808L333.8 58.5192ZM331.475 49.28C331.475 45.888 332.253 42.7905 333.8 39.9688L332.046 39.0072C330.33 42.1375 329.475 45.568 329.475 49.28H331.475ZM333.8 39.9688C335.347 37.1483 337.503 34.9008 340.282 33.215L339.245 31.505C336.168 33.3712 333.764 35.8757 332.046 39.0072L333.8 39.9688ZM340.282 33.215C343.031 31.5473 346.278 30.696 350.059 30.696V28.696C345.968 28.696 342.351 29.6207 339.245 31.505L340.282 33.215ZM350.059 30.696C353.836 30.696 357.052 31.5691 359.748 33.2768L360.818 31.5872C357.755 29.6469 354.155 28.696 350.059 28.696V30.696ZM359.758 33.2832C362.489 34.9673 364.571 37.1873 366.022 39.9525L367.793 39.0234C366.171 35.9327 363.837 33.4487 360.808 31.5808L359.758 33.2832ZM366.028 39.9638C367.532 42.7443 368.283 45.7245 368.283 48.92H370.283C370.283 45.3955 369.451 42.0877 367.787 39.0122L366.028 39.9638ZM368.283 48.92C368.283 50.0899 368.212 50.976 368.087 51.6039L370.048 51.9961C370.21 51.184 370.283 50.1501 370.283 48.92H368.283ZM369.067 50.8H338.899V52.8H369.067V50.8ZM337.901 51.8651C338.055 54.2195 338.698 56.3279 339.853 58.1642L341.546 57.0998C340.588 55.5761 340.031 53.7965 339.897 51.7349L337.901 51.8651ZM339.871 58.1923C341.055 59.9423 342.531 61.3434 344.296 62.3819L345.31 60.6581C343.812 59.7766 342.552 58.5857 341.527 57.0717L339.871 58.1923ZM344.326 62.3989C346.157 63.3928 348.146 63.888 350.275 63.888V61.888C348.469 61.888 346.809 61.4712 345.28 60.6411L344.326 62.3989ZM350.275 63.888C352.562 63.888 354.723 63.314 356.742 62.175L355.76 60.433C354.035 61.406 352.212 61.888 350.275 61.888V63.888ZM356.742 62.175C358.778 61.0265 360.244 59.4761 361.062 57.5126L359.216 56.7434C358.594 58.2359 357.468 59.4695 355.76 60.433L356.742 62.175ZM359.863 58.0891L366.631 60.0331L367.183 58.1109L360.415 56.1669L359.863 58.0891ZM365.998 58.6559C364.796 61.2812 362.786 63.4652 359.911 65.1997L360.944 66.9123C364.116 64.9988 366.426 62.5268 367.816 59.4881L365.998 58.6559ZM359.915 65.1973C357.116 66.8677 353.818 67.72 349.987 67.72V69.72C354.124 69.72 357.787 68.7963 360.94 66.9147L359.915 65.1973ZM338.683 47.544H361.435V45.544H338.683V47.544ZM362.431 46.4555C362.227 44.1524 361.557 42.0965 360.403 40.3127L358.724 41.3993C359.681 42.8795 360.26 44.6156 360.439 46.6325L362.431 46.4555ZM360.41 40.3238C359.266 38.5042 357.773 37.0862 355.936 36.0891L354.982 37.8469C356.505 38.6737 357.748 39.8478 358.717 41.3882L360.41 40.3238ZM355.966 36.1061C354.17 35.0498 352.169 34.528 349.987 34.528V36.528C351.837 36.528 353.484 36.9662 354.952 37.8299L355.966 36.1061ZM349.987 34.528C347.848 34.528 345.853 35.0519 344.019 36.0998L345.011 37.8362C346.538 36.9641 348.19 36.528 349.987 36.528V34.528ZM344.027 36.0951C342.24 37.0938 340.776 38.511 339.637 40.3238L341.33 41.3882C342.302 39.841 343.526 38.6662 345.003 37.8409L344.027 36.0951ZM339.644 40.3127C338.485 42.1033 337.839 44.1674 337.685 46.4775L339.681 46.6105C339.815 44.6006 340.369 42.8727 341.323 41.3993L339.644 40.3127Z" fill="black"/>
</svg>
