<svg width="341" height="74" viewBox="0 0 341 74" fill="none" xmlns="http://www.w3.org/2000/svg">
<rect x="5" y="5" width="331" height="64" rx="32" fill="#E2EFFB"/>
<rect x="9.5" y="8.5" width="331" height="65" rx="32.5" stroke="black"/>
<rect x="0.5" y="0.5" width="331" height="65" rx="32.5" stroke="black"/>
<path d="M101.124 20.44H103.248L113.868 46H111.204L107.892 38.008H96.408L93.132 46H90.432L101.124 20.44ZM107.316 36.028L102.168 23.392L96.948 36.028H107.316ZM115.241 36.676C115.241 34.9 115.601 33.28 116.321 31.816C117.065 30.328 118.085 29.14 119.381 28.252C120.677 27.364 122.153 26.92 123.809 26.92C125.369 26.92 126.761 27.34 127.985 28.18C129.233 28.996 130.205 29.992 130.901 31.168V19.72H133.349V43.048C133.349 43.696 133.637 44.032 134.213 44.056V46C133.733 46.072 133.361 46.096 133.097 46.072C132.569 46.048 132.113 45.856 131.729 45.496C131.369 45.112 131.189 44.68 131.189 44.2V42.364C130.445 43.588 129.437 44.56 128.165 45.28C126.893 46 125.573 46.36 124.205 46.36C122.909 46.36 121.709 46.096 120.605 45.568C119.501 45.04 118.541 44.32 117.725 43.408C116.933 42.496 116.321 41.464 115.889 40.312C115.457 39.136 115.241 37.924 115.241 36.676ZM130.901 39.556V33.76C130.589 32.896 130.085 32.116 129.389 31.42C128.693 30.7 127.901 30.136 127.013 29.728C126.149 29.296 125.285 29.08 124.421 29.08C123.077 29.08 121.901 29.452 120.893 30.196C119.909 30.916 119.141 31.864 118.589 33.04C118.037 34.192 117.761 35.404 117.761 36.676C117.761 38.02 118.061 39.268 118.661 40.42C119.285 41.572 120.125 42.496 121.181 43.192C122.237 43.864 123.425 44.2 124.745 44.2C125.561 44.2 126.413 43.996 127.301 43.588C128.213 43.156 129.005 42.592 129.677 41.896C130.373 41.2 130.781 40.42 130.901 39.556ZM137.635 36.676C137.635 34.9 137.995 33.28 138.715 31.816C139.459 30.328 140.479 29.14 141.775 28.252C143.071 27.364 144.547 26.92 146.203 26.92C147.763 26.92 149.155 27.34 150.379 28.18C151.627 28.996 152.599 29.992 153.295 31.168V19.72H155.743V43.048C155.743 43.696 156.031 44.032 156.607 44.056V46C156.127 46.072 155.755 46.096 155.491 46.072C154.963 46.048 154.507 45.856 154.123 45.496C153.763 45.112 153.583 44.68 153.583 44.2V42.364C152.839 43.588 151.831 44.56 150.559 45.28C149.287 46 147.967 46.36 146.599 46.36C145.303 46.36 144.103 46.096 142.999 45.568C141.895 45.04 140.935 44.32 140.119 43.408C139.327 42.496 138.715 41.464 138.283 40.312C137.851 39.136 137.635 37.924 137.635 36.676ZM153.295 39.556V33.76C152.983 32.896 152.479 32.116 151.783 31.42C151.087 30.7 150.295 30.136 149.407 29.728C148.543 29.296 147.679 29.08 146.815 29.08C145.471 29.08 144.295 29.452 143.287 30.196C142.303 30.916 141.535 31.864 140.983 33.04C140.431 34.192 140.155 35.404 140.155 36.676C140.155 38.02 140.455 39.268 141.055 40.42C141.679 41.572 142.519 42.496 143.575 43.192C144.631 43.864 145.819 44.2 147.139 44.2C147.955 44.2 148.807 43.996 149.695 43.588C150.607 43.156 151.399 42.592 152.071 41.896C152.767 41.2 153.175 40.42 153.295 39.556ZM180.042 46.36C178.482 46.36 177.078 45.952 175.83 45.136C174.606 44.32 173.634 43.312 172.914 42.112V53.668H170.466V27.244H172.662V30.88C173.406 29.704 174.39 28.756 175.614 28.036C176.862 27.292 178.206 26.92 179.646 26.92C180.942 26.92 182.13 27.196 183.21 27.748C184.29 28.276 185.226 28.996 186.018 29.908C186.834 30.82 187.458 31.864 187.89 33.04C188.322 34.192 188.538 35.392 188.538 36.64C188.538 38.392 188.178 40.012 187.458 41.5C186.762 42.964 185.766 44.14 184.47 45.028C183.198 45.916 181.722 46.36 180.042 46.36ZM179.358 44.2C180.726 44.2 181.902 43.84 182.886 43.12C183.894 42.376 184.674 41.428 185.226 40.276C185.778 39.124 186.054 37.912 186.054 36.64C186.054 35.296 185.742 34.048 185.118 32.896C184.494 31.744 183.654 30.82 182.598 30.124C181.566 29.428 180.39 29.08 179.07 29.08C178.254 29.08 177.39 29.296 176.478 29.728C175.59 30.136 174.798 30.7 174.102 31.42C173.43 32.116 173.034 32.884 172.914 33.724V39.484C173.466 40.804 174.33 41.92 175.506 42.832C176.682 43.744 177.966 44.2 179.358 44.2ZM191.172 40.6C191.172 39.448 191.508 38.452 192.18 37.612C192.852 36.748 193.776 36.076 194.952 35.596C196.152 35.116 197.532 34.876 199.092 34.876C200.004 34.876 200.952 34.96 201.936 35.128C202.92 35.272 203.796 35.476 204.564 35.74V34.156C204.564 32.572 204.096 31.312 203.16 30.376C202.224 29.44 200.928 28.972 199.272 28.972C198.288 28.972 197.304 29.164 196.32 29.548C195.336 29.908 194.316 30.448 193.26 31.168L192.324 29.44C193.548 28.6 194.748 27.976 195.924 27.568C197.1 27.136 198.3 26.92 199.524 26.92C201.828 26.92 203.652 27.58 204.996 28.9C206.34 30.22 207.012 32.044 207.012 34.372V43.048C207.012 43.696 207.312 44.032 207.912 44.056V46C207.384 46.072 207.012 46.096 206.796 46.072C206.196 46.048 205.74 45.856 205.428 45.496C205.116 45.136 204.948 44.752 204.924 44.344L204.888 42.976C204.048 44.056 202.956 44.896 201.612 45.496C200.268 46.072 198.9 46.36 197.508 46.36C196.284 46.36 195.192 46.108 194.232 45.604C193.272 45.076 192.516 44.38 191.964 43.516C191.436 42.628 191.172 41.656 191.172 40.6ZM203.736 42.04C204.288 41.392 204.564 40.792 204.564 40.24V37.504C202.908 36.856 201.18 36.532 199.38 36.532C197.628 36.532 196.212 36.88 195.132 37.576C194.052 38.272 193.512 39.22 193.512 40.42C193.512 41.452 193.908 42.388 194.7 43.228C195.516 44.068 196.644 44.488 198.084 44.488C199.26 44.488 200.352 44.26 201.36 43.804C202.392 43.348 203.184 42.76 203.736 42.04ZM221.161 45.1C220.873 45.22 220.345 45.436 219.577 45.748C218.809 46.06 217.921 46.216 216.913 46.216C215.857 46.216 214.933 45.916 214.141 45.316C213.349 44.716 212.953 43.816 212.953 42.616V29.188H210.361V27.244H212.953V20.908H215.401V27.244H219.721V29.188H215.401V41.932C215.449 42.628 215.689 43.144 216.121 43.48C216.577 43.792 217.093 43.948 217.669 43.948C218.341 43.948 218.941 43.84 219.469 43.624C220.021 43.384 220.369 43.216 220.513 43.12L221.161 45.1ZM224.22 23.32V19.72H226.668V23.32H224.22ZM224.22 46V27.244H226.668V46H224.22ZM240.159 46.36C238.359 46.36 236.751 45.916 235.335 45.028C233.919 44.14 232.803 42.952 231.987 41.464C231.171 39.976 230.763 38.344 230.763 36.568C230.763 34.816 231.159 33.208 231.951 31.744C232.767 30.28 233.883 29.116 235.299 28.252C236.715 27.364 238.323 26.92 240.123 26.92C241.971 26.92 243.591 27.364 244.983 28.252C246.375 29.14 247.455 30.316 248.223 31.78C249.015 33.22 249.411 34.804 249.411 36.532C249.411 36.916 249.399 37.24 249.375 37.504H233.319C233.439 38.848 233.823 40.048 234.471 41.104C235.119 42.136 235.947 42.964 236.955 43.588C237.963 44.188 239.067 44.488 240.267 44.488C241.491 44.488 242.643 44.176 243.723 43.552C244.803 42.928 245.571 42.112 246.027 41.104L248.151 41.68C247.767 42.592 247.167 43.408 246.351 44.128C245.559 44.824 244.635 45.376 243.579 45.784C242.523 46.168 241.383 46.36 240.159 46.36ZM233.247 35.74H247.107C247.011 34.396 246.639 33.208 245.991 32.176C245.343 31.12 244.515 30.304 243.507 29.728C242.499 29.128 241.383 28.828 240.159 28.828C238.935 28.828 237.819 29.128 236.811 29.728C235.803 30.304 234.975 31.12 234.327 32.176C233.703 33.208 233.343 34.396 233.247 35.74ZM268.956 46H266.508V35.524C266.508 33.316 266.172 31.708 265.5 30.7C264.852 29.668 263.844 29.152 262.476 29.152C261.516 29.152 260.568 29.392 259.632 29.872C258.696 30.328 257.868 30.964 257.148 31.78C256.452 32.572 255.948 33.484 255.636 34.516V46H253.188V27.244H255.42V31.492C256.164 30.124 257.256 29.02 258.696 28.18C260.136 27.34 261.696 26.92 263.376 26.92C264.768 26.92 265.872 27.256 266.688 27.928C267.504 28.576 268.08 29.512 268.416 30.736C268.776 31.936 268.956 33.364 268.956 35.02V46ZM283.001 45.1C282.713 45.22 282.185 45.436 281.417 45.748C280.649 46.06 279.761 46.216 278.753 46.216C277.697 46.216 276.773 45.916 275.981 45.316C275.189 44.716 274.793 43.816 274.793 42.616V29.188H272.201V27.244H274.793V20.908H277.241V27.244H281.561V29.188H277.241V41.932C277.289 42.628 277.529 43.144 277.961 43.48C278.417 43.792 278.933 43.948 279.509 43.948C280.181 43.948 280.781 43.84 281.309 43.624C281.861 43.384 282.209 43.216 282.353 43.12L283.001 45.1Z" fill="black"/>
<path fill-rule="evenodd" clip-rule="evenodd" d="M74.25 21.75H65.5V35.5H51.75V44.25H65.5V58H74.25V44.25H88V35.5H74.25V21.75Z" fill="white"/>
<mask id="path-6-outside-1" maskUnits="userSpaceOnUse" x="47" y="17" width="39" height="39" fill="black">
<rect fill="white" x="47" y="17" width="39" height="39"/>
<path fill-rule="evenodd" clip-rule="evenodd" d="M70.5 18H61.75V31.75H48V40.5H61.75V54.25H70.5V40.5H84.25V31.75H70.5V18Z"/>
</mask>
<path d="M61.75 18V17H60.75V18H61.75ZM70.5 18H71.5V17H70.5V18ZM61.75 31.75V32.75H62.75V31.75H61.75ZM48 31.75V30.75H47V31.75H48ZM48 40.5H47V41.5H48V40.5ZM61.75 40.5H62.75V39.5H61.75V40.5ZM61.75 54.25H60.75V55.25H61.75V54.25ZM70.5 54.25V55.25H71.5V54.25H70.5ZM70.5 40.5V39.5H69.5V40.5H70.5ZM84.25 40.5V41.5H85.25V40.5H84.25ZM84.25 31.75H85.25V30.75H84.25V31.75ZM70.5 31.75H69.5V32.75H70.5V31.75ZM61.75 19H70.5V17H61.75V19ZM62.75 31.75V18H60.75V31.75H62.75ZM48 32.75H61.75V30.75H48V32.75ZM49 40.5V31.75H47V40.5H49ZM61.75 39.5H48V41.5H61.75V39.5ZM62.75 54.25V40.5H60.75V54.25H62.75ZM70.5 53.25H61.75V55.25H70.5V53.25ZM69.5 40.5V54.25H71.5V40.5H69.5ZM84.25 39.5H70.5V41.5H84.25V39.5ZM83.25 31.75V40.5H85.25V31.75H83.25ZM70.5 32.75H84.25V30.75H70.5V32.75ZM69.5 18V31.75H71.5V18H69.5Z" fill="black" mask="url(#path-6-outside-1)"/>
</svg>
