<svg width="341" height="74" viewBox="0 0 341 74" fill="none" xmlns="http://www.w3.org/2000/svg">
<rect x="5" y="5" width="331" height="64" rx="32" fill="#E2EFFB"/>
<rect x="9.5" y="8.5" width="331" height="65" rx="32.5" stroke="black"/>
<rect x="0.5" y="0.5" width="331" height="65" rx="32.5" stroke="black"/>
<path d="M64.0393 33.04C64.0393 31.504 64.3033 29.98 64.8313 28.468C65.3833 26.956 66.1753 25.588 67.2073 24.364C68.2393 23.116 69.5113 22.132 71.0233 21.412C72.5353 20.668 74.2513 20.296 76.1713 20.296C78.4273 20.296 80.3713 20.824 82.0033 21.88C83.6353 22.912 84.8353 24.244 85.6033 25.876L83.6233 27.1C83.0713 25.972 82.3753 25.084 81.5353 24.436C80.6953 23.764 79.7953 23.284 78.8353 22.996C77.8993 22.708 76.9633 22.564 76.0273 22.564C74.4913 22.564 73.1353 22.876 71.9593 23.5C70.7833 24.1 69.7873 24.916 68.9713 25.948C68.1793 26.98 67.5793 28.12 67.1713 29.368C66.7633 30.616 66.5593 31.888 66.5593 33.184C66.5593 34.6 66.7993 35.956 67.2793 37.252C67.7593 38.524 68.4313 39.664 69.2953 40.672C70.1593 41.68 71.1673 42.484 72.3193 43.084C73.4953 43.66 74.7673 43.948 76.1353 43.948C77.0953 43.948 78.0793 43.78 79.0873 43.444C80.0953 43.108 81.0313 42.592 81.8953 41.896C82.7593 41.2 83.4673 40.3 84.0193 39.196L86.1073 40.276C85.5553 41.548 84.7273 42.628 83.6233 43.516C82.5433 44.404 81.3193 45.076 79.9513 45.532C78.6073 45.988 77.2873 46.216 75.9913 46.216C74.2393 46.216 72.6313 45.844 71.1673 45.1C69.7033 44.332 68.4313 43.324 67.3513 42.076C66.2953 40.804 65.4793 39.388 64.9033 37.828C64.3273 36.244 64.0393 34.648 64.0393 33.04ZM99.267 29.404C97.635 29.452 96.195 29.908 94.947 30.772C93.723 31.636 92.859 32.824 92.355 34.336V46H89.907V27.244H92.211V31.744C92.859 30.424 93.711 29.356 94.767 28.54C95.847 27.724 96.987 27.268 98.187 27.172C98.427 27.148 98.631 27.136 98.799 27.136C98.967 27.136 99.123 27.148 99.267 27.172V29.404ZM110.066 46.36C108.266 46.36 106.658 45.916 105.242 45.028C103.826 44.14 102.71 42.952 101.894 41.464C101.078 39.976 100.67 38.344 100.67 36.568C100.67 34.816 101.066 33.208 101.858 31.744C102.674 30.28 103.79 29.116 105.206 28.252C106.622 27.364 108.23 26.92 110.03 26.92C111.878 26.92 113.498 27.364 114.89 28.252C116.282 29.14 117.362 30.316 118.13 31.78C118.922 33.22 119.318 34.804 119.318 36.532C119.318 36.916 119.306 37.24 119.282 37.504H103.226C103.346 38.848 103.73 40.048 104.378 41.104C105.026 42.136 105.854 42.964 106.862 43.588C107.87 44.188 108.974 44.488 110.174 44.488C111.398 44.488 112.55 44.176 113.63 43.552C114.71 42.928 115.478 42.112 115.934 41.104L118.058 41.68C117.674 42.592 117.074 43.408 116.258 44.128C115.466 44.824 114.542 45.376 113.486 45.784C112.43 46.168 111.29 46.36 110.066 46.36ZM103.154 35.74H117.014C116.918 34.396 116.546 33.208 115.898 32.176C115.25 31.12 114.422 30.304 113.414 29.728C112.406 29.128 111.29 28.828 110.066 28.828C108.842 28.828 107.726 29.128 106.718 29.728C105.71 30.304 104.882 31.12 104.234 32.176C103.61 33.208 103.25 34.396 103.154 35.74ZM121.583 40.6C121.583 39.448 121.919 38.452 122.591 37.612C123.263 36.748 124.187 36.076 125.363 35.596C126.563 35.116 127.943 34.876 129.503 34.876C130.415 34.876 131.363 34.96 132.347 35.128C133.331 35.272 134.207 35.476 134.975 35.74V34.156C134.975 32.572 134.507 31.312 133.571 30.376C132.635 29.44 131.339 28.972 129.683 28.972C128.699 28.972 127.715 29.164 126.731 29.548C125.747 29.908 124.727 30.448 123.671 31.168L122.735 29.44C123.959 28.6 125.159 27.976 126.335 27.568C127.511 27.136 128.711 26.92 129.935 26.92C132.239 26.92 134.063 27.58 135.407 28.9C136.751 30.22 137.423 32.044 137.423 34.372V43.048C137.423 43.696 137.723 44.032 138.323 44.056V46C137.795 46.072 137.423 46.096 137.207 46.072C136.607 46.048 136.151 45.856 135.839 45.496C135.527 45.136 135.359 44.752 135.335 44.344L135.299 42.976C134.459 44.056 133.367 44.896 132.023 45.496C130.679 46.072 129.311 46.36 127.919 46.36C126.695 46.36 125.603 46.108 124.643 45.604C123.683 45.076 122.927 44.38 122.375 43.516C121.847 42.628 121.583 41.656 121.583 40.6ZM134.147 42.04C134.699 41.392 134.975 40.792 134.975 40.24V37.504C133.319 36.856 131.591 36.532 129.791 36.532C128.039 36.532 126.623 36.88 125.543 37.576C124.463 38.272 123.923 39.22 123.923 40.42C123.923 41.452 124.319 42.388 125.111 43.228C125.927 44.068 127.055 44.488 128.495 44.488C129.671 44.488 130.763 44.26 131.771 43.804C132.803 43.348 133.595 42.76 134.147 42.04ZM151.571 45.1C151.283 45.22 150.755 45.436 149.987 45.748C149.219 46.06 148.331 46.216 147.323 46.216C146.267 46.216 145.343 45.916 144.551 45.316C143.759 44.716 143.363 43.816 143.363 42.616V29.188H140.771V27.244H143.363V20.908H145.811V27.244H150.131V29.188H145.811V41.932C145.859 42.628 146.099 43.144 146.531 43.48C146.987 43.792 147.503 43.948 148.079 43.948C148.751 43.948 149.351 43.84 149.879 43.624C150.431 43.384 150.779 43.216 150.923 43.12L151.571 45.1ZM162.413 46.36C160.613 46.36 159.005 45.916 157.589 45.028C156.173 44.14 155.057 42.952 154.241 41.464C153.425 39.976 153.017 38.344 153.017 36.568C153.017 34.816 153.413 33.208 154.205 31.744C155.021 30.28 156.137 29.116 157.553 28.252C158.969 27.364 160.577 26.92 162.377 26.92C164.225 26.92 165.845 27.364 167.237 28.252C168.629 29.14 169.709 30.316 170.477 31.78C171.269 33.22 171.665 34.804 171.665 36.532C171.665 36.916 171.653 37.24 171.629 37.504H155.573C155.693 38.848 156.077 40.048 156.725 41.104C157.373 42.136 158.201 42.964 159.209 43.588C160.217 44.188 161.321 44.488 162.521 44.488C163.745 44.488 164.897 44.176 165.977 43.552C167.057 42.928 167.825 42.112 168.281 41.104L170.405 41.68C170.021 42.592 169.421 43.408 168.605 44.128C167.813 44.824 166.889 45.376 165.833 45.784C164.777 46.168 163.637 46.36 162.413 46.36ZM155.501 35.74H169.361C169.265 34.396 168.893 33.208 168.245 32.176C167.597 31.12 166.769 30.304 165.761 29.728C164.753 29.128 163.637 28.828 162.413 28.828C161.189 28.828 160.073 29.128 159.065 29.728C158.057 30.304 157.229 31.12 156.581 32.176C155.957 33.208 155.597 34.396 155.501 35.74ZM190.774 46.36C189.238 46.36 187.81 46.108 186.49 45.604C185.194 45.076 184.054 44.308 183.07 43.3L184.078 41.572C185.134 42.556 186.19 43.276 187.246 43.732C188.326 44.164 189.466 44.38 190.666 44.38C192.106 44.38 193.282 44.092 194.194 43.516C195.13 42.916 195.598 42.064 195.598 40.96C195.598 40.216 195.37 39.652 194.914 39.268C194.482 38.86 193.846 38.536 193.006 38.296C192.19 38.056 191.206 37.78 190.054 37.468C188.758 37.108 187.666 36.736 186.778 36.352C185.914 35.944 185.254 35.44 184.798 34.84C184.366 34.216 184.15 33.412 184.15 32.428C184.15 31.228 184.45 30.22 185.05 29.404C185.674 28.588 186.514 27.976 187.57 27.568C188.65 27.136 189.85 26.92 191.17 26.92C192.61 26.92 193.882 27.148 194.986 27.604C196.09 28.06 196.99 28.696 197.686 29.512L196.498 31.168C195.85 30.4 195.046 29.836 194.086 29.476C193.15 29.092 192.13 28.9 191.026 28.9C190.258 28.9 189.526 29.008 188.83 29.224C188.134 29.416 187.558 29.752 187.102 30.232C186.67 30.688 186.454 31.324 186.454 32.14C186.454 33.148 186.826 33.844 187.57 34.228C188.314 34.612 189.442 35.02 190.954 35.452C192.37 35.836 193.606 36.22 194.662 36.604C195.718 36.988 196.534 37.504 197.11 38.152C197.686 38.776 197.974 39.652 197.974 40.78C197.974 42.532 197.314 43.9 195.994 44.884C194.674 45.868 192.934 46.36 190.774 46.36ZM210.12 46.36C208.32 46.36 206.712 45.916 205.296 45.028C203.88 44.14 202.764 42.952 201.948 41.464C201.132 39.976 200.724 38.344 200.724 36.568C200.724 34.816 201.12 33.208 201.912 31.744C202.728 30.28 203.844 29.116 205.26 28.252C206.676 27.364 208.284 26.92 210.084 26.92C211.932 26.92 213.552 27.364 214.944 28.252C216.336 29.14 217.416 30.316 218.184 31.78C218.976 33.22 219.372 34.804 219.372 36.532C219.372 36.916 219.36 37.24 219.336 37.504H203.28C203.4 38.848 203.784 40.048 204.432 41.104C205.08 42.136 205.908 42.964 206.916 43.588C207.924 44.188 209.028 44.488 210.228 44.488C211.452 44.488 212.604 44.176 213.684 43.552C214.764 42.928 215.532 42.112 215.988 41.104L218.112 41.68C217.728 42.592 217.128 43.408 216.312 44.128C215.52 44.824 214.596 45.376 213.54 45.784C212.484 46.168 211.344 46.36 210.12 46.36ZM203.208 35.74H217.068C216.972 34.396 216.6 33.208 215.952 32.176C215.304 31.12 214.476 30.304 213.468 29.728C212.46 29.128 211.344 28.828 210.12 28.828C208.896 28.828 207.78 29.128 206.772 29.728C205.764 30.304 204.936 31.12 204.288 32.176C203.664 33.208 203.304 34.396 203.208 35.74ZM229.305 46.36C227.769 46.36 226.341 46.108 225.021 45.604C223.725 45.076 222.585 44.308 221.601 43.3L222.609 41.572C223.665 42.556 224.721 43.276 225.777 43.732C226.857 44.164 227.997 44.38 229.197 44.38C230.637 44.38 231.813 44.092 232.725 43.516C233.661 42.916 234.129 42.064 234.129 40.96C234.129 40.216 233.901 39.652 233.445 39.268C233.013 38.86 232.377 38.536 231.537 38.296C230.721 38.056 229.737 37.78 228.585 37.468C227.289 37.108 226.197 36.736 225.309 36.352C224.445 35.944 223.785 35.44 223.329 34.84C222.897 34.216 222.681 33.412 222.681 32.428C222.681 31.228 222.981 30.22 223.581 29.404C224.205 28.588 225.045 27.976 226.101 27.568C227.181 27.136 228.381 26.92 229.701 26.92C231.141 26.92 232.413 27.148 233.517 27.604C234.621 28.06 235.521 28.696 236.217 29.512L235.029 31.168C234.381 30.4 233.577 29.836 232.617 29.476C231.681 29.092 230.661 28.9 229.557 28.9C228.789 28.9 228.057 29.008 227.361 29.224C226.665 29.416 226.089 29.752 225.633 30.232C225.201 30.688 224.985 31.324 224.985 32.14C224.985 33.148 225.357 33.844 226.101 34.228C226.845 34.612 227.973 35.02 229.485 35.452C230.901 35.836 232.137 36.22 233.193 36.604C234.249 36.988 235.065 37.504 235.641 38.152C236.217 38.776 236.505 39.652 236.505 40.78C236.505 42.532 235.845 43.9 234.525 44.884C233.205 45.868 231.465 46.36 229.305 46.36ZM246.708 46.36C245.172 46.36 243.744 46.108 242.424 45.604C241.128 45.076 239.988 44.308 239.004 43.3L240.012 41.572C241.068 42.556 242.124 43.276 243.18 43.732C244.26 44.164 245.4 44.38 246.6 44.38C248.04 44.38 249.216 44.092 250.128 43.516C251.064 42.916 251.532 42.064 251.532 40.96C251.532 40.216 251.304 39.652 250.848 39.268C250.416 38.86 249.78 38.536 248.94 38.296C248.124 38.056 247.14 37.78 245.988 37.468C244.692 37.108 243.6 36.736 242.712 36.352C241.848 35.944 241.188 35.44 240.732 34.84C240.3 34.216 240.084 33.412 240.084 32.428C240.084 31.228 240.384 30.22 240.984 29.404C241.608 28.588 242.448 27.976 243.504 27.568C244.584 27.136 245.784 26.92 247.104 26.92C248.544 26.92 249.816 27.148 250.92 27.604C252.024 28.06 252.924 28.696 253.62 29.512L252.432 31.168C251.784 30.4 250.98 29.836 250.02 29.476C249.084 29.092 248.064 28.9 246.96 28.9C246.192 28.9 245.46 29.008 244.764 29.224C244.068 29.416 243.492 29.752 243.036 30.232C242.604 30.688 242.388 31.324 242.388 32.14C242.388 33.148 242.76 33.844 243.504 34.228C244.248 34.612 245.376 35.02 246.888 35.452C248.304 35.836 249.54 36.22 250.596 36.604C251.652 36.988 252.468 37.504 253.044 38.152C253.62 38.776 253.908 39.652 253.908 40.78C253.908 42.532 253.248 43.9 251.928 44.884C250.608 45.868 248.868 46.36 246.708 46.36ZM257.954 23.32V19.72H260.402V23.32H257.954ZM257.954 46V27.244H260.402V46H257.954ZM273.786 46.36C271.986 46.36 270.378 45.916 268.962 45.028C267.57 44.14 266.478 42.964 265.686 41.5C264.894 40.012 264.498 38.404 264.498 36.676C264.498 34.924 264.894 33.316 265.686 31.852C266.502 30.364 267.606 29.176 268.998 28.288C270.414 27.376 272.01 26.92 273.786 26.92C275.586 26.92 277.182 27.376 278.574 28.288C279.99 29.176 281.094 30.364 281.886 31.852C282.702 33.316 283.11 34.924 283.11 36.676C283.11 38.404 282.714 40.012 281.922 41.5C281.13 42.964 280.026 44.14 278.61 45.028C277.218 45.916 275.61 46.36 273.786 46.36ZM266.982 36.712C266.982 38.104 267.282 39.376 267.882 40.528C268.506 41.656 269.334 42.556 270.366 43.228C271.398 43.876 272.538 44.2 273.786 44.2C275.034 44.2 276.174 43.864 277.206 43.192C278.238 42.52 279.066 41.608 279.69 40.456C280.314 39.304 280.626 38.032 280.626 36.64C280.626 35.248 280.314 33.976 279.69 32.824C279.066 31.672 278.238 30.76 277.206 30.088C276.174 29.416 275.034 29.08 273.786 29.08C272.562 29.08 271.434 29.428 270.402 30.124C269.37 30.796 268.542 31.708 267.918 32.86C267.294 34.012 266.982 35.296 266.982 36.712ZM302.972 46H300.524V35.524C300.524 33.316 300.188 31.708 299.516 30.7C298.868 29.668 297.86 29.152 296.492 29.152C295.532 29.152 294.584 29.392 293.648 29.872C292.712 30.328 291.884 30.964 291.164 31.78C290.468 32.572 289.964 33.484 289.652 34.516V46H287.204V27.244H289.436V31.492C290.18 30.124 291.272 29.02 292.712 28.18C294.152 27.34 295.712 26.92 297.392 26.92C298.784 26.92 299.888 27.256 300.704 27.928C301.52 28.576 302.096 29.512 302.432 30.736C302.792 31.936 302.972 33.364 302.972 35.02V46Z" fill="black"/>
<path fill-rule="evenodd" clip-rule="evenodd" d="M47.25 21.75H38.5V35.5H24.75V44.25H38.5V58H47.25V44.25H61V35.5H47.25V21.75Z" fill="white"/>
<mask id="path-6-outside-1" maskUnits="userSpaceOnUse" x="20" y="17" width="39" height="39" fill="black">
<rect fill="white" x="20" y="17" width="39" height="39"/>
<path fill-rule="evenodd" clip-rule="evenodd" d="M43.5 18H34.75V31.75H21V40.5H34.75V54.25H43.5V40.5H57.25V31.75H43.5V18Z"/>
</mask>
<path d="M34.75 18V17H33.75V18H34.75ZM43.5 18H44.5V17H43.5V18ZM34.75 31.75V32.75H35.75V31.75H34.75ZM21 31.75V30.75H20V31.75H21ZM21 40.5H20V41.5H21V40.5ZM34.75 40.5H35.75V39.5H34.75V40.5ZM34.75 54.25H33.75V55.25H34.75V54.25ZM43.5 54.25V55.25H44.5V54.25H43.5ZM43.5 40.5V39.5H42.5V40.5H43.5ZM57.25 40.5V41.5H58.25V40.5H57.25ZM57.25 31.75H58.25V30.75H57.25V31.75ZM43.5 31.75H42.5V32.75H43.5V31.75ZM34.75 19H43.5V17H34.75V19ZM35.75 31.75V18H33.75V31.75H35.75ZM21 32.75H34.75V30.75H21V32.75ZM22 40.5V31.75H20V40.5H22ZM34.75 39.5H21V41.5H34.75V39.5ZM35.75 54.25V40.5H33.75V54.25H35.75ZM43.5 53.25H34.75V55.25H43.5V53.25ZM42.5 40.5V54.25H44.5V40.5H42.5ZM57.25 39.5H43.5V41.5H57.25V39.5ZM56.25 31.75V40.5H58.25V31.75H56.25ZM43.5 32.75H57.25V30.75H43.5V32.75ZM42.5 18V31.75H44.5V18H42.5Z" fill="black" mask="url(#path-6-outside-1)"/>
</svg>
