<svg width="391" height="93" viewBox="0 0 391 93" fill="none" xmlns="http://www.w3.org/2000/svg">
<path d="M7 46.5C7 25.237 24.237 8 45.5 8H259.5C280.763 8 298 25.237 298 46.5C298 67.763 280.763 85 259.5 85H45.5C24.237 85 7 67.763 7 46.5Z" fill="#2A363B"/>
<path d="M0.5 54.5C0.5 33.5132 17.5132 16.5 38.5 16.5H252.5C273.487 16.5 290.5 33.5132 290.5 54.5C290.5 75.4868 273.487 92.5 252.5 92.5H38.5C17.5132 92.5 0.5 75.4868 0.5 54.5Z" stroke="black"/>
<path d="M14.5 38.5C14.5 17.5132 31.5132 0.5 52.5 0.5H266.5C287.487 0.5 304.5 17.5132 304.5 38.5C304.5 59.4868 287.487 76.5 266.5 76.5H52.5C31.5132 76.5 14.5 59.4868 14.5 38.5Z" stroke="black"/>
<path d="M50.89 44.8C50.89 42.88 51.22 40.975 51.88 39.085C52.57 37.195 53.56 35.485 54.85 33.955C56.14 32.395 57.73 31.165 59.62 30.265C61.51 29.335 63.655 28.87 66.055 28.87C68.875 28.87 71.305 29.53 73.345 30.85C75.385 32.14 76.885 33.805 77.845 35.845L75.37 37.375C74.68 35.965 73.81 34.855 72.76 34.045C71.71 33.205 70.585 32.605 69.385 32.245C68.215 31.885 67.045 31.705 65.875 31.705C63.955 31.705 62.26 32.095 60.79 32.875C59.32 33.625 58.075 34.645 57.055 35.935C56.065 37.225 55.315 38.65 54.805 40.21C54.295 41.77 54.04 43.36 54.04 44.98C54.04 46.75 54.34 48.445 54.94 50.065C55.54 51.655 56.38 53.08 57.46 54.34C58.54 55.6 59.8 56.605 61.24 57.355C62.71 58.075 64.3 58.435 66.01 58.435C67.21 58.435 68.44 58.225 69.7 57.805C70.96 57.385 72.13 56.74 73.21 55.87C74.29 55 75.175 53.875 75.865 52.495L78.475 53.845C77.785 55.435 76.75 56.785 75.37 57.895C74.02 59.005 72.49 59.845 70.78 60.415C69.1 60.985 67.45 61.27 65.83 61.27C63.64 61.27 61.63 60.805 59.8 59.875C57.97 58.915 56.38 57.655 55.03 56.095C53.71 54.505 52.69 52.735 51.97 50.785C51.25 48.805 50.89 46.81 50.89 44.8ZM93.2146 61.45C90.9646 61.45 88.9546 60.895 87.1846 59.785C85.4446 58.675 84.0796 57.205 83.0896 55.375C82.0996 53.515 81.6046 51.505 81.6046 49.345C81.6046 47.155 82.0996 45.145 83.0896 43.315C84.1096 41.455 85.4896 39.97 87.2296 38.86C88.9996 37.72 90.9946 37.15 93.2146 37.15C95.4646 37.15 97.4596 37.72 99.1996 38.86C100.97 39.97 102.35 41.455 103.34 43.315C104.36 45.145 104.87 47.155 104.87 49.345C104.87 51.505 104.375 53.515 103.385 55.375C102.395 57.205 101.015 58.675 99.2446 59.785C97.5046 60.895 95.4946 61.45 93.2146 61.45ZM84.7096 49.39C84.7096 51.13 85.0846 52.72 85.8346 54.16C86.6146 55.57 87.6496 56.695 88.9396 57.535C90.2296 58.345 91.6546 58.75 93.2146 58.75C94.7746 58.75 96.1996 58.33 97.4896 57.49C98.7796 56.65 99.8146 55.51 100.595 54.07C101.375 52.63 101.765 51.04 101.765 49.3C101.765 47.56 101.375 45.97 100.595 44.53C99.8146 43.09 98.7796 41.95 97.4896 41.11C96.1996 40.27 94.7746 39.85 93.2146 39.85C91.6846 39.85 90.2746 40.285 88.9846 41.155C87.6946 41.995 86.6596 43.135 85.8796 44.575C85.0996 46.015 84.7096 47.62 84.7096 49.39ZM121.957 61.45C120.007 61.45 118.252 60.94 116.692 59.92C115.162 58.9 113.947 57.64 113.047 56.14V70.585H109.987V37.555H112.732V42.1C113.662 40.63 114.892 39.445 116.422 38.545C117.982 37.615 119.662 37.15 121.462 37.15C123.082 37.15 124.567 37.495 125.917 38.185C127.267 38.845 128.437 39.745 129.427 40.885C130.447 42.025 131.227 43.33 131.767 44.8C132.307 46.24 132.577 47.74 132.577 49.3C132.577 51.49 132.127 53.515 131.227 55.375C130.357 57.205 129.112 58.675 127.492 59.785C125.902 60.895 124.057 61.45 121.957 61.45ZM121.102 58.75C122.812 58.75 124.282 58.3 125.512 57.4C126.772 56.47 127.747 55.285 128.437 53.845C129.127 52.405 129.472 50.89 129.472 49.3C129.472 47.62 129.082 46.06 128.302 44.62C127.522 43.18 126.472 42.025 125.152 41.155C123.862 40.285 122.392 39.85 120.742 39.85C119.722 39.85 118.642 40.12 117.502 40.66C116.392 41.17 115.402 41.875 114.532 42.775C113.692 43.645 113.197 44.605 113.047 45.655V52.855C113.737 54.505 114.817 55.9 116.287 57.04C117.757 58.18 119.362 58.75 121.102 58.75ZM138.32 68.2C138.74 68.23 139.145 68.245 139.535 68.245C139.925 68.275 140.21 68.26 140.39 68.2C140.75 68.17 141.08 67.96 141.38 67.57C141.71 67.21 142.1 66.52 142.55 65.5C143.03 64.51 143.675 63.01 144.485 61L134.27 37.555H137.51L146.105 57.85L154.025 37.555H157.085L144.935 67.795C144.605 68.665 144.05 69.415 143.27 70.045C142.49 70.675 141.455 71.005 140.165 71.035C139.895 71.065 139.61 71.065 139.31 71.035C139.01 71.035 138.68 71.005 138.32 70.945V68.2ZM172.229 61V29.05H175.379V58.21H193.829V61H172.229ZM197.834 32.65V28.15H200.894V32.65H197.834ZM197.834 61V37.555H200.894V61H197.834ZM227.344 61H224.284V47.905C224.284 45.145 223.864 43.135 223.024 41.875C222.214 40.585 220.954 39.94 219.244 39.94C218.044 39.94 216.859 40.24 215.689 40.84C214.519 41.41 213.484 42.205 212.584 43.225C211.714 44.215 211.084 45.355 210.694 46.645V61H207.634V37.555H210.424V42.865C211.354 41.155 212.719 39.775 214.519 38.725C216.319 37.675 218.269 37.15 220.369 37.15C222.109 37.15 223.489 37.57 224.509 38.41C225.529 39.22 226.249 40.39 226.669 41.92C227.119 43.42 227.344 45.205 227.344 47.275V61ZM250.609 61L241.924 48.985L236.929 53.665V61H233.869V28.15H236.929V50.38L250.204 37.6H253.579L243.994 47.185L253.939 61H250.609Z" fill="white"/>
</svg>
