<svg width="401" height="93" viewBox="0 0 401 93" fill="none" xmlns="http://www.w3.org/2000/svg">
<path d="M7.59505 46.5002C7.59505 24.9753 25.0445 7.52588 46.5694 7.52588H353.331C374.856 7.52588 392.306 24.9753 392.306 46.5002C392.306 68.0252 374.856 85.4746 353.331 85.4746H46.5694C25.0444 85.4746 7.59505 68.0252 7.59505 46.5002Z" fill="#2A363B"/>
<path d="M39.9744 13.5513C18.1733 13.5513 0.5 31.2245 0.5 53.0256C0.5 74.8267 18.1733 92.5 39.9743 92.5H346.736C368.538 92.5 386.211 74.8267 386.211 53.0256C386.211 31.2245 368.538 13.5513 346.736 13.5513H39.9744Z" stroke="black"/>
<path d="M54.2636 0.5C32.4625 0.5 14.7893 18.1733 14.7893 39.9744C14.7893 61.7754 32.4625 79.4487 54.2636 79.4487H361.026C382.827 79.4487 400.5 61.7754 400.5 39.9744C400.5 18.1733 382.827 0.5 361.026 0.5H54.2636Z" stroke="black"/>
<path d="M75.6629 34.15C74.6629 33.05 73.3296 32.15 71.6629 31.45C69.9962 30.7167 68.0962 30.35 65.9629 30.35C62.8296 30.35 60.5462 30.95 59.1129 32.15C57.6796 33.3167 56.9629 34.9167 56.9629 36.95C56.9629 38.35 57.3129 39.45 58.0129 40.25C58.7129 41.05 59.7796 41.7167 61.2129 42.25C62.6796 42.75 64.5462 43.25 66.8129 43.75C69.3462 44.2833 71.5296 44.9167 73.3629 45.65C75.1962 46.3833 76.6129 47.3833 77.6129 48.65C78.6129 49.8833 79.1129 51.5667 79.1129 53.7C79.1129 55.8667 78.5629 57.6667 77.4629 59.1C76.3629 60.5333 74.8462 61.6 72.9129 62.3C70.9796 62.9667 68.7796 63.3 66.3129 63.3C60.7796 63.3 56.0296 61.5833 52.0629 58.15L53.8129 55.3C55.0796 56.6333 56.8129 57.7833 59.0129 58.75C61.2462 59.7167 63.7129 60.2 66.4129 60.2C69.2129 60.2 71.4129 59.6833 73.0129 58.65C74.6129 57.6167 75.4129 56.0833 75.4129 54.05C75.4129 52.5833 75.0129 51.4167 74.2129 50.55C73.4129 49.65 72.2129 48.9167 70.6129 48.35C69.0129 47.7833 67.0462 47.2333 64.7129 46.7C62.2462 46.1333 60.1629 45.5 58.4629 44.8C56.7962 44.1 55.5296 43.1833 54.6629 42.05C53.7962 40.9167 53.3629 39.3833 53.3629 37.45C53.3629 35.25 53.8962 33.4 54.9629 31.9C56.0629 30.3667 57.5629 29.2167 59.4629 28.45C61.3629 27.65 63.5462 27.25 66.0129 27.25C68.3462 27.25 70.4462 27.6167 72.3129 28.35C74.1796 29.05 75.8629 30.05 77.3629 31.35L75.6629 34.15ZM96.6445 61.75C96.2445 61.9167 95.5112 62.2167 94.4445 62.65C93.3779 63.0833 92.1445 63.3 90.7445 63.3C89.2779 63.3 87.9945 62.8833 86.8945 62.05C85.7945 61.2167 85.2445 59.9667 85.2445 58.3V39.65H81.6445V36.95H85.2445V28.15H88.6445V36.95H94.6445V39.65H88.6445V57.35C88.7112 58.3167 89.0445 59.0333 89.6445 59.5C90.2779 59.9333 90.9945 60.15 91.7945 60.15C92.7279 60.15 93.5612 60 94.2945 59.7C95.0612 59.3667 95.5445 59.1333 95.7445 59L96.6445 61.75ZM98.7926 55.5C98.7926 53.9 99.2592 52.5167 100.193 51.35C101.126 50.15 102.409 49.2167 104.043 48.55C105.709 47.8833 107.626 47.55 109.793 47.55C111.059 47.55 112.376 47.6667 113.743 47.9C115.109 48.1 116.326 48.3833 117.393 48.75V46.55C117.393 44.35 116.743 42.6 115.443 41.3C114.143 40 112.343 39.35 110.043 39.35C108.676 39.35 107.309 39.6167 105.943 40.15C104.576 40.65 103.159 41.4 101.693 42.4L100.393 40C102.093 38.8333 103.759 37.9667 105.393 37.4C107.026 36.8 108.693 36.5 110.393 36.5C113.593 36.5 116.126 37.4167 117.993 39.25C119.859 41.0833 120.793 43.6167 120.793 46.85V58.9C120.793 59.8 121.209 60.2667 122.043 60.3V63C121.309 63.1 120.793 63.1333 120.493 63.1C119.659 63.0667 119.026 62.8 118.593 62.3C118.159 61.8 117.926 61.2667 117.893 60.7L117.843 58.8C116.676 60.3 115.159 61.4667 113.293 62.3C111.426 63.1 109.526 63.5 107.593 63.5C105.893 63.5 104.376 63.15 103.043 62.45C101.709 61.7167 100.659 60.75 99.8926 59.55C99.1592 58.3167 98.7926 56.9667 98.7926 55.5ZM116.243 57.5C117.009 56.6 117.393 55.7667 117.393 55V51.2C115.093 50.3 112.693 49.85 110.193 49.85C107.759 49.85 105.793 50.3333 104.293 51.3C102.793 52.2667 102.043 53.5833 102.043 55.25C102.043 56.6833 102.593 57.9833 103.693 59.15C104.826 60.3167 106.393 60.9 108.393 60.9C110.026 60.9 111.543 60.5833 112.943 59.95C114.376 59.3167 115.476 58.5 116.243 57.5ZM141.139 39.95C138.872 40.0167 136.872 40.65 135.139 41.85C133.439 43.05 132.239 44.7 131.539 46.8V63H128.139V36.95H131.339V43.2C132.239 41.3667 133.422 39.8833 134.889 38.75C136.389 37.6167 137.972 36.9833 139.639 36.85C139.972 36.8167 140.255 36.8 140.489 36.8C140.722 36.8 140.939 36.8167 141.139 36.85V39.95ZM158.168 61.75C157.768 61.9167 157.035 62.2167 155.968 62.65C154.901 63.0833 153.668 63.3 152.268 63.3C150.801 63.3 149.518 62.8833 148.418 62.05C147.318 61.2167 146.768 59.9667 146.768 58.3V39.65H143.168V36.95H146.768V28.15H150.168V36.95H156.168V39.65H150.168V57.35C150.235 58.3167 150.568 59.0333 151.168 59.5C151.801 59.9333 152.518 60.15 153.318 60.15C154.251 60.15 155.085 60 155.818 59.7C156.585 59.3667 157.068 59.1333 157.268 59L158.168 61.75ZM207.31 63V34.1L194.46 56.55H192.26L179.36 34.1V63H175.86V27.5H179.46L193.31 51.8L207.26 27.5H210.81V63H207.31ZM229.867 63.5C227.367 63.5 225.134 62.8833 223.167 61.65C221.201 60.4167 219.651 58.7667 218.517 56.7C217.384 54.6333 216.817 52.3667 216.817 49.9C216.817 47.4667 217.367 45.2333 218.467 43.2C219.601 41.1667 221.151 39.55 223.117 38.35C225.084 37.1167 227.317 36.5 229.817 36.5C232.384 36.5 234.634 37.1167 236.567 38.35C238.501 39.5833 240.001 41.2167 241.067 43.25C242.167 45.25 242.717 47.45 242.717 49.85C242.717 50.3833 242.701 50.8333 242.667 51.2H220.367C220.534 53.0667 221.067 54.7333 221.967 56.2C222.867 57.6333 224.017 58.7833 225.417 59.65C226.817 60.4833 228.351 60.9 230.017 60.9C231.717 60.9 233.317 60.4667 234.817 59.6C236.317 58.7333 237.384 57.6 238.017 56.2L240.967 57C240.434 58.2667 239.601 59.4 238.467 60.4C237.367 61.3667 236.084 62.1333 234.617 62.7C233.151 63.2333 231.567 63.5 229.867 63.5ZM220.267 48.75H239.517C239.384 46.8833 238.867 45.2333 237.967 43.8C237.067 42.3333 235.917 41.2 234.517 40.4C233.117 39.5667 231.567 39.15 229.867 39.15C228.167 39.15 226.617 39.5667 225.217 40.4C223.817 41.2 222.667 42.3333 221.767 43.8C220.901 45.2333 220.401 46.8833 220.267 48.75ZM259.213 63.5C256.713 63.5 254.48 62.8833 252.513 61.65C250.546 60.4167 248.996 58.7667 247.863 56.7C246.73 54.6333 246.163 52.3667 246.163 49.9C246.163 47.4667 246.713 45.2333 247.813 43.2C248.946 41.1667 250.496 39.55 252.463 38.35C254.43 37.1167 256.663 36.5 259.163 36.5C261.73 36.5 263.98 37.1167 265.913 38.35C267.846 39.5833 269.346 41.2167 270.413 43.25C271.513 45.25 272.063 47.45 272.063 49.85C272.063 50.3833 272.046 50.8333 272.013 51.2H249.713C249.88 53.0667 250.413 54.7333 251.313 56.2C252.213 57.6333 253.363 58.7833 254.763 59.65C256.163 60.4833 257.696 60.9 259.363 60.9C261.063 60.9 262.663 60.4667 264.163 59.6C265.663 58.7333 266.73 57.6 267.363 56.2L270.313 57C269.78 58.2667 268.946 59.4 267.813 60.4C266.713 61.3667 265.43 62.1333 263.963 62.7C262.496 63.2333 260.913 63.5 259.213 63.5ZM249.613 48.75H268.863C268.73 46.8833 268.213 45.2333 267.313 43.8C266.413 42.3333 265.263 41.2 263.863 40.4C262.463 39.5667 260.913 39.15 259.213 39.15C257.513 39.15 255.963 39.5667 254.563 40.4C253.163 41.2 252.013 42.3333 251.113 43.8C250.246 45.2333 249.746 46.8833 249.613 48.75ZM289.564 61.75C289.164 61.9167 288.431 62.2167 287.364 62.65C286.298 63.0833 285.064 63.3 283.664 63.3C282.198 63.3 280.914 62.8833 279.814 62.05C278.714 61.2167 278.164 59.9667 278.164 58.3V39.65H274.564V36.95H278.164V28.15H281.564V36.95H287.564V39.65H281.564V57.35C281.631 58.3167 281.964 59.0333 282.564 59.5C283.198 59.9333 283.914 60.15 284.714 60.15C285.648 60.15 286.481 60 287.214 59.7C287.981 59.3667 288.464 59.1333 288.664 59L289.564 61.75ZM293.813 31.5V26.5H297.213V31.5H293.813ZM293.813 63V36.95H297.213V63H293.813ZM326.601 63H323.201V48.45C323.201 45.3833 322.735 43.15 321.801 41.75C320.901 40.3167 319.501 39.6 317.601 39.6C316.268 39.6 314.951 39.9333 313.651 40.6C312.351 41.2333 311.201 42.1167 310.201 43.25C309.235 44.35 308.535 45.6167 308.101 47.05V63H304.701V36.95H307.801V42.85C308.835 40.95 310.351 39.4167 312.351 38.25C314.351 37.0833 316.518 36.5 318.851 36.5C320.785 36.5 322.318 36.9667 323.451 37.9C324.585 38.8 325.385 40.1 325.851 41.8C326.351 43.4667 326.601 45.45 326.601 47.75V63ZM344.302 63.35C342.502 63.35 340.852 62.9833 339.352 62.25C337.885 61.5167 336.602 60.5333 335.502 59.3C334.435 58.0333 333.602 56.6 333.002 55C332.402 53.4 332.102 51.75 332.102 50.05C332.102 47.6167 332.618 45.3833 333.652 43.35C334.685 41.2833 336.102 39.6333 337.902 38.4C339.735 37.1333 341.835 36.5 344.202 36.5C346.435 36.5 348.368 37.0667 350.002 38.2C351.668 39.3333 353.068 40.7333 354.202 42.4V36.95H357.252V63.1C357.252 65.5333 356.668 67.5667 355.502 69.2C354.335 70.8333 352.785 72.0667 350.852 72.9C348.918 73.7333 346.802 74.15 344.502 74.15C341.502 74.15 339.085 73.6167 337.252 72.55C335.452 71.4833 333.968 70.05 332.802 68.25L334.902 66.6C335.935 68.2333 337.302 69.45 339.002 70.25C340.735 71.05 342.568 71.45 344.502 71.45C346.202 71.45 347.752 71.1333 349.152 70.5C350.585 69.9 351.718 68.9833 352.552 67.75C353.418 66.5167 353.852 64.9667 353.852 63.1V57.95C352.852 59.5833 351.485 60.9 349.752 61.9C348.018 62.8667 346.202 63.35 344.302 63.35ZM345.252 60.5C346.618 60.5 347.918 60.1833 349.152 59.55C350.385 58.9167 351.418 58.1167 352.252 57.15C353.118 56.15 353.652 55.1167 353.852 54.05V46C353.352 44.7333 352.635 43.6167 351.702 42.65C350.768 41.65 349.702 40.8833 348.502 40.35C347.302 39.7833 346.085 39.5 344.852 39.5C342.918 39.5 341.252 40.0333 339.852 41.1C338.485 42.1333 337.418 43.4667 336.652 45.1C335.918 46.7 335.552 48.3667 335.552 50.1C335.552 51.9667 335.985 53.7 336.852 55.3C337.718 56.8667 338.885 58.1333 340.352 59.1C341.818 60.0333 343.452 60.5 345.252 60.5Z" fill="white"/>
</svg>
