<svg width="660" height="87" viewBox="0 0 660 87" fill="none" xmlns="http://www.w3.org/2000/svg">
<path d="M20.52 18.88H28.152L48.024 70H39.528L34.128 56.104H14.4L9.072 70H0.504L20.52 18.88ZM32.544 50.128L24.336 27.736L15.84 50.128H32.544ZM49.9072 51.208C49.9072 47.608 50.6273 44.344 52.0673 41.416C53.5553 38.44 55.5713 36.088 58.1152 34.36C60.6593 32.584 63.5873 31.696 66.8993 31.696C69.7793 31.696 72.3713 32.44 74.6753 33.928C77.0273 35.416 78.8513 37.264 80.1473 39.472V17.44H88.0673V61.072C88.0673 61.984 88.2353 62.632 88.5713 63.016C88.9073 63.4 89.4593 63.616 90.2273 63.664V70C88.7393 70.24 87.5873 70.36 86.7713 70.36C85.2833 70.36 84.0113 69.952 82.9553 69.136C81.9473 68.272 81.4193 67.216 81.3713 65.968L81.2993 63.16C79.8593 65.56 77.9153 67.432 75.4673 68.776C73.0193 70.072 70.4753 70.72 67.8353 70.72C64.3793 70.72 61.2833 69.832 58.5473 68.056C55.8593 66.28 53.7473 63.928 52.2113 61C50.6753 58.024 49.9072 54.76 49.9072 51.208ZM80.1473 56.464V46.6C79.5713 45.064 78.7073 43.696 77.5553 42.496C76.4033 41.248 75.0833 40.264 73.5953 39.544C72.1553 38.824 70.7153 38.464 69.2753 38.464C67.0193 38.464 65.0513 39.088 63.3713 40.336C61.7393 41.536 60.4433 43.12 59.4833 45.088C58.5713 47.056 58.1152 49.144 58.1152 51.352C58.1152 53.656 58.6193 55.768 59.6273 57.688C60.6833 59.608 62.0993 61.144 63.8753 62.296C65.6513 63.4 67.6432 63.952 69.8513 63.952C71.1953 63.952 72.5873 63.64 74.0273 63.016C75.5153 62.344 76.8113 61.456 77.9153 60.352C79.0193 59.2 79.7633 57.904 80.1473 56.464ZM95.751 51.208C95.751 47.608 96.471 44.344 97.911 41.416C99.399 38.44 101.415 36.088 103.959 34.36C106.503 32.584 109.431 31.696 112.743 31.696C115.623 31.696 118.215 32.44 120.519 33.928C122.871 35.416 124.695 37.264 125.991 39.472V17.44H133.911V61.072C133.911 61.984 134.079 62.632 134.415 63.016C134.751 63.4 135.303 63.616 136.071 63.664V70C134.583 70.24 133.431 70.36 132.615 70.36C131.127 70.36 129.855 69.952 128.799 69.136C127.791 68.272 127.263 67.216 127.215 65.968L127.143 63.16C125.703 65.56 123.759 67.432 121.311 68.776C118.863 70.072 116.319 70.72 113.679 70.72C110.223 70.72 107.127 69.832 104.391 68.056C101.703 66.28 99.591 63.928 98.055 61C96.519 58.024 95.751 54.76 95.751 51.208ZM125.991 56.464V46.6C125.415 45.064 124.551 43.696 123.399 42.496C122.247 41.248 120.927 40.264 119.439 39.544C117.999 38.824 116.559 38.464 115.119 38.464C112.863 38.464 110.895 39.088 109.215 40.336C107.583 41.536 106.287 43.12 105.327 45.088C104.415 47.056 103.959 49.144 103.959 51.352C103.959 53.656 104.463 55.768 105.471 57.688C106.527 59.608 107.943 61.144 109.719 62.296C111.495 63.4 113.487 63.952 115.695 63.952C117.039 63.952 118.431 63.64 119.871 63.016C121.359 62.344 122.655 61.456 123.759 60.352C124.863 59.2 125.607 57.904 125.991 56.464ZM183.144 70.72C180.12 70.72 177.456 70 175.152 68.56C172.848 67.12 171.024 65.248 169.68 62.944V85.336H161.76V32.344H168.744V39.112C170.184 36.856 172.056 35.056 174.36 33.712C176.664 32.368 179.232 31.696 182.064 31.696C185.52 31.696 188.568 32.608 191.208 34.432C193.896 36.208 196.008 38.584 197.544 41.56C199.08 44.488 199.848 47.68 199.848 51.136C199.848 54.784 199.128 58.096 197.688 61.072C196.248 64 194.28 66.352 191.784 68.128C189.288 69.856 186.408 70.72 183.144 70.72ZM180.552 63.952C182.808 63.952 184.752 63.352 186.384 62.152C188.064 60.904 189.36 59.32 190.272 57.4C191.232 55.432 191.712 53.344 191.712 51.136C191.712 48.832 191.184 46.72 190.128 44.8C189.12 42.88 187.728 41.344 185.952 40.192C184.224 39.04 182.232 38.464 179.976 38.464C178.632 38.464 177.216 38.8 175.728 39.472C174.288 40.144 173.016 41.032 171.912 42.136C170.808 43.24 170.064 44.488 169.68 45.88V55.744C170.64 58.048 172.104 59.992 174.072 61.576C176.088 63.16 178.248 63.952 180.552 63.952ZM204.235 58.984C204.235 56.584 204.907 54.496 206.251 52.72C207.595 50.896 209.467 49.504 211.867 48.544C214.315 47.536 217.123 47.032 220.291 47.032C221.971 47.032 223.675 47.176 225.403 47.464C227.179 47.704 228.739 48.064 230.083 48.544V46.168C230.083 43.528 229.291 41.464 227.707 39.976C226.123 38.488 223.843 37.744 220.867 37.744C218.803 37.744 216.811 38.104 214.891 38.824C212.971 39.544 210.979 40.6 208.915 41.992L206.251 36.664C208.747 35.032 211.243 33.808 213.739 32.992C216.283 32.128 218.947 31.696 221.731 31.696C226.771 31.696 230.731 33.04 233.611 35.728C236.539 38.368 238.003 42.136 238.003 47.032V61.072C238.003 61.984 238.147 62.632 238.435 63.016C238.771 63.4 239.323 63.616 240.091 63.664V70C239.371 70.144 238.723 70.24 238.147 70.288C237.571 70.336 237.091 70.36 236.707 70.36C234.979 70.36 233.683 69.952 232.819 69.136C232.003 68.272 231.523 67.312 231.379 66.256L231.163 64.096C229.531 66.208 227.443 67.84 224.899 68.992C222.355 70.144 219.787 70.72 217.195 70.72C214.699 70.72 212.467 70.216 210.499 69.208C208.531 68.152 206.995 66.736 205.891 64.96C204.787 63.184 204.235 61.192 204.235 58.984ZM228.211 61.288C229.459 60.04 230.083 58.864 230.083 57.76V53.44C227.251 52.384 224.371 51.856 221.443 51.856C218.563 51.856 216.211 52.456 214.387 53.656C212.611 54.808 211.723 56.368 211.723 58.336C211.723 59.968 212.371 61.48 213.667 62.872C215.011 64.216 216.931 64.888 219.427 64.888C221.107 64.888 222.739 64.552 224.323 63.88C225.907 63.208 227.203 62.344 228.211 61.288ZM268.282 68.056C267.274 68.536 265.882 69.088 264.106 69.712C262.33 70.288 260.434 70.576 258.418 70.576C255.922 70.576 253.762 69.904 251.938 68.56C250.162 67.216 249.274 65.032 249.274 62.008V38.464H244.306V32.344H249.274V19.96H257.194V32.344H265.402V38.464H257.194V59.488C257.29 60.832 257.698 61.816 258.418 62.44C259.186 63.016 260.122 63.304 261.226 63.304C262.33 63.304 263.386 63.112 264.394 62.728C265.402 62.344 266.146 62.032 266.626 61.792L268.282 68.056ZM273.768 26.152V17.44H281.688V26.152H273.768ZM273.768 70V32.344H281.688V70H273.768ZM308.269 70.72C304.381 70.72 300.973 69.832 298.045 68.056C295.117 66.28 292.837 63.928 291.205 61C289.573 58.024 288.757 54.784 288.757 51.28C288.757 47.728 289.573 44.464 291.205 41.488C292.837 38.512 295.117 36.136 298.045 34.36C300.973 32.584 304.405 31.696 308.341 31.696C312.277 31.696 315.685 32.608 318.565 34.432C321.445 36.208 323.653 38.56 325.189 41.488C326.773 44.416 327.565 47.56 327.565 50.92C327.565 52.12 327.493 53.08 327.349 53.8H297.181C297.325 56.008 297.925 57.952 298.981 59.632C300.085 61.264 301.453 62.56 303.085 63.52C304.765 64.432 306.589 64.888 308.557 64.888C310.669 64.888 312.661 64.36 314.533 63.304C316.405 62.248 317.701 60.856 318.421 59.128L325.189 61.072C323.893 63.904 321.733 66.232 318.709 68.056C315.733 69.832 312.253 70.72 308.269 70.72ZM296.965 48.544H319.717C319.525 46.384 318.901 44.488 317.845 42.856C316.789 41.176 315.421 39.88 313.741 38.968C312.109 38.008 310.285 37.528 308.269 37.528C306.301 37.528 304.477 38.008 302.797 38.968C301.165 39.88 299.821 41.176 298.765 42.856C297.709 44.488 297.109 46.384 296.965 48.544ZM367.793 70H359.873V48.904C359.873 45.352 359.297 42.784 358.145 41.2C357.041 39.568 355.385 38.752 353.177 38.752C351.641 38.752 350.105 39.136 348.569 39.904C347.081 40.672 345.737 41.728 344.537 43.072C343.337 44.416 342.473 45.928 341.945 47.608V70H334.025V32.344H341.225V39.904C342.665 37.408 344.753 35.416 347.489 33.928C350.225 32.44 353.249 31.696 356.561 31.696C359.537 31.696 361.841 32.416 363.473 33.856C365.105 35.248 366.233 37.096 366.857 39.4C367.481 41.704 367.793 44.248 367.793 47.032V70ZM397.657 68.056C396.649 68.536 395.257 69.088 393.481 69.712C391.705 70.288 389.809 70.576 387.793 70.576C385.297 70.576 383.137 69.904 381.313 68.56C379.537 67.216 378.649 65.032 378.649 62.008V38.464H373.681V32.344H378.649V19.96H386.569V32.344H394.777V38.464H386.569V59.488C386.665 60.832 387.073 61.816 387.793 62.44C388.561 63.016 389.497 63.304 390.601 63.304C391.705 63.304 392.761 63.112 393.769 62.728C394.777 62.344 395.521 62.032 396.001 61.792L397.657 68.056ZM418.556 51.208C418.556 47.608 419.276 44.344 420.716 41.416C422.204 38.44 424.22 36.088 426.764 34.36C429.308 32.584 432.236 31.696 435.548 31.696C438.428 31.696 441.02 32.44 443.324 33.928C445.676 35.416 447.5 37.264 448.796 39.472V17.44H456.716V61.072C456.716 61.984 456.884 62.632 457.22 63.016C457.556 63.4 458.108 63.616 458.876 63.664V70C457.388 70.24 456.236 70.36 455.42 70.36C453.932 70.36 452.66 69.952 451.604 69.136C450.596 68.272 450.068 67.216 450.02 65.968L449.948 63.16C448.508 65.56 446.564 67.432 444.116 68.776C441.668 70.072 439.124 70.72 436.484 70.72C433.028 70.72 429.932 69.832 427.196 68.056C424.508 66.28 422.396 63.928 420.86 61C419.324 58.024 418.556 54.76 418.556 51.208ZM448.796 56.464V46.6C448.22 45.064 447.356 43.696 446.204 42.496C445.052 41.248 443.732 40.264 442.244 39.544C440.804 38.824 439.364 38.464 437.924 38.464C435.668 38.464 433.7 39.088 432.02 40.336C430.388 41.536 429.092 43.12 428.132 45.088C427.22 47.056 426.764 49.144 426.764 51.352C426.764 53.656 427.268 55.768 428.276 57.688C429.332 59.608 430.748 61.144 432.524 62.296C434.3 63.4 436.292 63.952 438.5 63.952C439.844 63.952 441.236 63.64 442.676 63.016C444.164 62.344 445.46 61.456 446.564 60.352C447.668 59.2 448.412 57.904 448.796 56.464ZM483.839 70.72C479.951 70.72 476.543 69.832 473.615 68.056C470.687 66.28 468.407 63.928 466.775 61C465.143 58.024 464.327 54.784 464.327 51.28C464.327 47.728 465.143 44.464 466.775 41.488C468.407 38.512 470.687 36.136 473.615 34.36C476.543 32.584 479.975 31.696 483.911 31.696C487.847 31.696 491.255 32.608 494.135 34.432C497.015 36.208 499.223 38.56 500.759 41.488C502.343 44.416 503.135 47.56 503.135 50.92C503.135 52.12 503.063 53.08 502.919 53.8H472.751C472.895 56.008 473.495 57.952 474.551 59.632C475.655 61.264 477.023 62.56 478.655 63.52C480.335 64.432 482.159 64.888 484.127 64.888C486.239 64.888 488.231 64.36 490.103 63.304C491.975 62.248 493.271 60.856 493.991 59.128L500.759 61.072C499.463 63.904 497.303 66.232 494.279 68.056C491.303 69.832 487.823 70.72 483.839 70.72ZM472.535 48.544H495.287C495.095 46.384 494.471 44.488 493.415 42.856C492.359 41.176 490.991 39.88 489.311 38.968C487.679 38.008 485.855 37.528 483.839 37.528C481.871 37.528 480.047 38.008 478.367 38.968C476.735 39.88 475.391 41.176 474.335 42.856C473.279 44.488 472.679 46.384 472.535 48.544ZM530.196 68.056C529.188 68.536 527.796 69.088 526.02 69.712C524.244 70.288 522.348 70.576 520.332 70.576C517.836 70.576 515.676 69.904 513.852 68.56C512.076 67.216 511.188 65.032 511.188 62.008V38.464H506.22V32.344H511.188V19.96H519.108V32.344H527.316V38.464H519.108V59.488C519.204 60.832 519.612 61.816 520.332 62.44C521.1 63.016 522.036 63.304 523.14 63.304C524.244 63.304 525.3 63.112 526.308 62.728C527.316 62.344 528.06 62.032 528.54 61.792L530.196 68.056ZM532.946 58.984C532.946 56.584 533.618 54.496 534.962 52.72C536.306 50.896 538.178 49.504 540.578 48.544C543.026 47.536 545.834 47.032 549.002 47.032C550.682 47.032 552.386 47.176 554.114 47.464C555.89 47.704 557.45 48.064 558.794 48.544V46.168C558.794 43.528 558.002 41.464 556.418 39.976C554.834 38.488 552.554 37.744 549.578 37.744C547.514 37.744 545.522 38.104 543.602 38.824C541.682 39.544 539.69 40.6 537.626 41.992L534.962 36.664C537.458 35.032 539.954 33.808 542.45 32.992C544.994 32.128 547.658 31.696 550.442 31.696C555.482 31.696 559.442 33.04 562.322 35.728C565.25 38.368 566.714 42.136 566.714 47.032V61.072C566.714 61.984 566.858 62.632 567.146 63.016C567.482 63.4 568.034 63.616 568.802 63.664V70C568.082 70.144 567.434 70.24 566.858 70.288C566.282 70.336 565.802 70.36 565.418 70.36C563.69 70.36 562.394 69.952 561.53 69.136C560.714 68.272 560.234 67.312 560.09 66.256L559.874 64.096C558.242 66.208 556.154 67.84 553.61 68.992C551.066 70.144 548.498 70.72 545.906 70.72C543.41 70.72 541.178 70.216 539.21 69.208C537.242 68.152 535.706 66.736 534.602 64.96C533.498 63.184 532.946 61.192 532.946 58.984ZM556.922 61.288C558.17 60.04 558.794 58.864 558.794 57.76V53.44C555.962 52.384 553.082 51.856 550.154 51.856C547.274 51.856 544.922 52.456 543.098 53.656C541.322 54.808 540.434 56.368 540.434 58.336C540.434 59.968 541.082 61.48 542.378 62.872C543.722 64.216 545.642 64.888 548.138 64.888C549.818 64.888 551.45 64.552 553.034 63.88C554.618 63.208 555.914 62.344 556.922 61.288ZM576.322 26.152V17.44H584.242V26.152H576.322ZM576.322 70V32.344H584.242V70H576.322ZM593.832 17.44H601.752V59.128C601.752 61.048 602.04 62.272 602.616 62.8C603.192 63.328 603.912 63.592 604.776 63.592C605.736 63.592 606.648 63.496 607.512 63.304C608.376 63.112 609.096 62.872 609.672 62.584L610.824 68.848C609.672 69.328 608.304 69.736 606.72 70.072C605.136 70.408 603.72 70.576 602.472 70.576C599.784 70.576 597.672 69.832 596.136 68.344C594.6 66.808 593.832 64.696 593.832 62.008V17.44ZM628.808 70.72C625.64 70.72 622.64 70.192 619.808 69.136C616.976 68.08 614.552 66.544 612.536 64.528L615.488 59.2C617.648 61.12 619.808 62.512 621.968 63.376C624.128 64.24 626.312 64.672 628.52 64.672C630.728 64.672 632.528 64.264 633.92 63.448C635.312 62.584 636.008 61.336 636.008 59.704C636.008 58.552 635.648 57.664 634.928 57.04C634.208 56.416 633.152 55.912 631.76 55.528C630.416 55.144 628.784 54.664 626.864 54.088C624.176 53.272 621.92 52.432 620.096 51.568C618.272 50.656 616.904 49.552 615.992 48.256C615.08 46.96 614.624 45.304 614.624 43.288C614.624 39.64 615.992 36.808 618.728 34.792C621.464 32.728 625.04 31.696 629.456 31.696C632.192 31.696 634.712 32.128 637.016 32.992C639.368 33.808 641.432 35.104 643.208 36.88L639.824 42.136C636.56 39.16 632.96 37.672 629.024 37.672C627.296 37.672 625.688 38.008 624.2 38.68C622.76 39.352 622.04 40.6 622.04 42.424C622.04 43.96 622.688 45.064 623.984 45.736C625.28 46.408 627.2 47.128 629.744 47.896C632.624 48.76 635.096 49.624 637.16 50.488C639.272 51.304 640.88 52.384 641.984 53.728C643.136 55.024 643.712 56.824 643.712 59.128C643.712 62.776 642.344 65.632 639.608 67.696C636.872 69.712 633.272 70.72 628.808 70.72Z" fill="black"/>
<path d="M23.5661 16.88V15.88H22.8838L22.635 16.5154L23.5661 16.88ZM31.1981 16.88L32.1302 16.5177L31.8823 15.88H31.1981V16.88ZM51.0701 68V69H52.5318L52.0022 67.6377L51.0701 68ZM42.5741 68L41.642 68.3622L41.8899 69H42.5741V68ZM37.1741 54.104L38.1062 53.7418L37.8584 53.104H37.1741V54.104ZM17.4461 54.104V53.104H16.7586L16.5124 53.746L17.4461 54.104ZM12.1181 68V69H12.8057L13.0519 68.358L12.1181 68ZM3.55014 68L2.61898 67.6354L2.08467 69H3.55014V68ZM35.5901 48.128V49.128H37.0218L36.5291 47.7838L35.5901 48.128ZM27.3821 25.736L28.3211 25.3918L27.3983 22.8745L26.4472 25.3813L27.3821 25.736ZM18.8861 48.128L17.9512 47.7733L17.4372 49.128H18.8861V48.128ZM23.5661 17.88H31.1981V15.88H23.5661V17.88ZM30.2661 17.2423L50.1381 68.3623L52.0022 67.6377L32.1302 16.5177L30.2661 17.2423ZM51.0701 67H42.5741V69H51.0701V67ZM43.5062 67.6378L38.1062 53.7418L36.2421 54.4662L41.642 68.3622L43.5062 67.6378ZM37.1741 53.104H17.4461V55.104H37.1741V53.104ZM16.5124 53.746L11.1844 67.642L13.0519 68.358L18.3799 54.462L16.5124 53.746ZM12.1181 67H3.55014V69H12.1181V67ZM4.48131 68.3646L24.4973 17.2446L22.635 16.5154L2.61898 67.6354L4.48131 68.3646ZM36.5291 47.7838L28.3211 25.3918L26.4432 26.0802L34.6512 48.4722L36.5291 47.7838ZM26.4472 25.3813L17.9512 47.7733L19.8211 48.4827L28.3171 26.0907L26.4472 25.3813ZM18.8861 49.128H35.5901V47.128H18.8861V49.128ZM55.1134 39.416L54.2189 38.9688L54.216 38.9747L55.1134 39.416ZM61.1614 32.36L61.7233 33.1873L61.7338 33.18L61.1614 32.36ZM77.7214 31.928L77.1788 32.7681L77.1868 32.7731L77.7214 31.928ZM83.1934 37.472L82.331 37.9782L84.1934 41.1512V37.472H83.1934ZM83.1934 15.44V14.44H82.1934V15.44H83.1934ZM91.1134 15.44H92.1134V14.44H91.1134V15.44ZM91.6174 61.016L92.37 60.3575V60.3575L91.6174 61.016ZM93.2734 61.664H94.2734V60.7245L93.3358 60.6659L93.2734 61.664ZM93.2734 68L93.4326 68.9872L94.2734 68.8516V68H93.2734ZM86.0014 67.136L85.3506 67.8953L85.3699 67.9118L85.3899 67.9273L86.0014 67.136ZM84.4174 63.968L83.4176 63.9936L83.4181 64.0064L84.4174 63.968ZM84.3454 61.16L85.3451 61.1344L85.2569 57.6971L83.4879 60.6455L84.3454 61.16ZM78.5134 66.776L78.9813 67.6598L78.988 67.6562L78.9947 67.6526L78.5134 66.776ZM61.5934 66.056L61.0421 66.8904L61.0489 66.8948L61.5934 66.056ZM55.2574 59L54.3688 59.4587L54.3718 59.4646L55.2574 59ZM83.1934 54.464L84.1596 54.7217L84.1934 54.595V54.464H83.1934ZM83.1934 44.6H84.1934V44.4187L84.1297 44.2489L83.1934 44.6ZM80.6014 40.496L79.8666 41.1743L79.8732 41.1815L79.88 41.1885L80.6014 40.496ZM76.6414 37.544L76.1941 38.4385L76.2058 38.4442L76.6414 37.544ZM66.4174 38.336L67.0098 39.1417L67.0137 39.1387L66.4174 38.336ZM62.5294 43.088L61.6306 42.6496L61.6263 42.6585L61.6221 42.6675L62.5294 43.088ZM62.6734 55.688L61.788 56.1528L61.7925 56.1614L61.7972 56.1699L62.6734 55.688ZM66.9214 60.296L66.3772 61.135L66.3853 61.1402L66.3935 61.1453L66.9214 60.296ZM77.0734 61.016L77.471 61.9336L77.478 61.9305L77.485 61.9274L77.0734 61.016ZM80.9614 58.352L81.6685 59.0591L81.676 59.0516L81.6834 59.0439L80.9614 58.352ZM53.9534 49.208C53.9534 45.745 54.645 42.6343 56.0107 39.8573L54.216 38.9747C52.7018 42.0537 51.9534 45.471 51.9534 49.208H53.9534ZM56.0078 39.8632C57.4258 37.0273 59.3323 34.8113 61.7233 33.1872L60.5995 31.5328C57.9025 33.3647 55.777 35.8527 54.219 38.9688L56.0078 39.8632ZM61.7338 33.18C64.0984 31.5292 66.8235 30.696 69.9454 30.696V28.696C66.4432 28.696 63.3124 29.6388 60.589 31.54L61.7338 33.18ZM69.9454 30.696C72.6431 30.696 75.0449 31.3898 77.1789 32.768L78.2639 31.088C75.7899 29.4902 73.0077 28.696 69.9454 28.696V30.696ZM77.1868 32.7731C79.416 34.1834 81.1226 35.9194 82.331 37.9782L84.0558 36.9658C82.6722 34.6086 80.7308 32.6486 78.256 31.0829L77.1868 32.7731ZM84.1934 37.472V15.44H82.1934V37.472H84.1934ZM83.1934 16.44H91.1134V14.44H83.1934V16.44ZM90.1134 15.44V59.072H92.1134V15.44H90.1134ZM90.1134 59.072C90.1134 60.0547 90.2843 61.011 90.8648 61.6745L92.37 60.3575C92.2785 60.253 92.1134 59.9133 92.1134 59.072H90.1134ZM90.8648 61.6745C91.4483 62.3414 92.3104 62.6058 93.211 62.6621L93.3358 60.6659C92.7004 60.6262 92.4585 60.4586 92.37 60.3575L90.8648 61.6745ZM92.2734 61.664V68H94.2734V61.664H92.2734ZM93.1142 67.0128C91.6427 67.2501 90.5529 67.36 89.8174 67.36V69.36C90.7139 69.36 91.9281 69.2299 93.4326 68.9872L93.1142 67.0128ZM89.8174 67.36C88.5238 67.36 87.4736 67.0099 86.6128 66.3447L85.3899 67.9273C86.6412 68.8941 88.1349 69.36 89.8174 69.36V67.36ZM86.6522 66.3767C85.8407 65.6812 85.4532 64.8801 85.4167 63.9296L83.4181 64.0064C83.4776 65.5518 84.1461 66.8628 85.3506 67.8953L86.6522 66.3767ZM85.4171 63.9424L85.3451 61.1344L83.3457 61.1856L83.4177 63.9936L85.4171 63.9424ZM83.4879 60.6455C82.1388 62.894 80.3245 64.6409 78.0321 65.8994L78.9947 67.6526C81.5983 66.2231 83.672 64.226 85.2029 61.6745L83.4879 60.6455ZM78.0455 65.8922C75.7343 67.1158 73.3502 67.72 70.8814 67.72V69.72C73.6926 69.72 76.3965 69.0282 78.9813 67.6598L78.0455 65.8922ZM70.8814 67.72C67.6066 67.72 64.7019 66.8816 62.1379 65.2172L61.0489 66.8948C63.9569 68.7824 67.2442 69.72 70.8814 69.72V67.72ZM62.1446 65.2217C59.6013 63.5412 57.6027 61.318 56.1429 58.5354L54.3718 59.4646C55.9841 62.538 58.2095 65.0188 61.0421 66.8903L62.1446 65.2217ZM56.146 58.5414C54.6876 55.7157 53.9534 52.6104 53.9534 49.208H51.9534C51.9534 52.9096 52.7552 56.3323 54.3688 59.4586L56.146 58.5414ZM84.1934 54.464V44.6H82.1934V54.464H84.1934ZM84.1297 44.2489C83.5053 42.5838 82.5675 41.1001 81.3228 39.8035L79.88 41.1885C80.9393 42.2919 81.7295 43.5442 82.2571 44.9511L84.1297 44.2489ZM81.3362 39.8177C80.1016 38.4802 78.6808 37.4199 77.077 36.6438L76.2058 38.4442C77.578 39.1081 78.7972 40.0158 79.8666 41.1743L81.3362 39.8177ZM77.0886 36.6496C75.5263 35.8684 73.9342 35.464 72.3214 35.464V37.464C73.5886 37.464 74.8765 37.7796 76.1942 38.4384L77.0886 36.6496ZM72.3214 35.464C69.8683 35.464 67.6872 36.147 65.8211 37.5333L67.0137 39.1387C68.5076 38.029 70.2624 37.464 72.3214 37.464V35.464ZM65.825 37.5303C64.0523 38.8338 62.6557 40.5482 61.6306 42.6496L63.4282 43.5264C64.3231 41.6918 65.5185 40.2382 67.0098 39.1416L65.825 37.5303ZM61.6221 42.6675C60.6479 44.7697 60.1614 47.0015 60.1614 49.352H62.1614C62.1614 47.2865 62.5869 45.3423 63.4367 43.5085L61.6221 42.6675ZM60.1614 49.352C60.1614 51.8075 60.7 54.0805 61.788 56.1528L63.5588 55.2232C62.6308 53.4555 62.1614 51.5045 62.1614 49.352H60.1614ZM61.7972 56.1699C62.9298 58.2292 64.4578 59.8899 66.3772 61.135L67.4656 59.457C65.833 58.3981 64.529 56.9868 63.5496 55.2061L61.7972 56.1699ZM66.3935 61.1453C68.3369 62.3534 70.5137 62.952 72.8974 62.952V60.952C70.8651 60.952 69.0578 60.4466 67.4493 59.4467L66.3935 61.1453ZM72.8974 62.952C74.3992 62.952 75.9263 62.6029 77.471 61.9336L76.6758 60.0984C75.3405 60.6771 74.0836 60.952 72.8974 60.952V62.952ZM77.485 61.9274C79.0779 61.208 80.4753 60.2523 81.6685 59.0591L80.2543 57.6449C79.2395 58.6597 78.0449 59.48 76.6618 60.1046L77.485 61.9274ZM81.6834 59.0439C82.8956 57.779 83.7291 56.3362 84.1596 54.7217L82.2272 54.2063C81.8897 55.4718 81.2352 56.621 80.2394 57.6601L81.6834 59.0439ZM100.957 39.416L100.063 38.9688L100.06 38.9747L100.957 39.416ZM107.005 32.36L107.567 33.1873L107.578 33.18L107.005 32.36ZM123.565 31.928L123.023 32.7681L123.031 32.7731L123.565 31.928ZM129.037 37.472L128.175 37.9782L130.037 41.1512V37.472H129.037ZM129.037 15.44V14.44H128.037V15.44H129.037ZM136.957 15.44H137.957V14.44H136.957V15.44ZM137.461 61.016L138.214 60.3575L138.214 60.3575L137.461 61.016ZM139.117 61.664H140.117V60.7245L139.18 60.6659L139.117 61.664ZM139.117 68L139.276 68.9872L140.117 68.8516V68H139.117ZM131.845 67.136L131.194 67.8953L131.214 67.9118L131.234 67.9273L131.845 67.136ZM130.261 63.968L129.261 63.9936L129.262 64.0064L130.261 63.968ZM130.189 61.16L131.189 61.1344L131.101 57.6971L129.332 60.6455L130.189 61.16ZM124.357 66.776L124.825 67.6598L124.832 67.6562L124.838 67.6526L124.357 66.776ZM107.437 66.056L106.886 66.8904L106.893 66.8948L107.437 66.056ZM101.101 59L100.213 59.4587L100.216 59.4646L101.101 59ZM129.037 54.464L130.003 54.7217L130.037 54.595V54.464H129.037ZM129.037 44.6H130.037V44.4187L129.973 44.2489L129.037 44.6ZM126.445 40.496L125.71 41.1743L125.717 41.1815L125.724 41.1885L126.445 40.496ZM122.485 37.544L122.038 38.4385L122.05 38.4442L122.485 37.544ZM112.261 38.336L112.854 39.1417L112.857 39.1387L112.261 38.336ZM108.373 43.088L107.474 42.6496L107.47 42.6585L107.466 42.6675L108.373 43.088ZM108.517 55.688L107.632 56.1528L107.636 56.1614L107.641 56.1699L108.517 55.688ZM112.765 60.296L112.221 61.135L112.229 61.1402L112.237 61.1453L112.765 60.296ZM122.917 61.016L123.315 61.9336L123.322 61.9305L123.329 61.9274L122.917 61.016ZM126.805 58.352L127.512 59.0591L127.52 59.0516L127.527 59.0439L126.805 58.352ZM99.7971 49.208C99.7971 45.745 100.489 42.6343 101.854 39.8573L100.06 38.9747C98.5455 42.0537 97.7971 45.471 97.7971 49.208H99.7971ZM101.852 39.8632C103.27 37.0273 105.176 34.8113 107.567 33.1872L106.443 31.5328C103.746 33.3647 101.621 35.8527 100.063 38.9688L101.852 39.8632ZM107.578 33.18C109.942 31.5292 112.667 30.696 115.789 30.696V28.696C112.287 28.696 109.156 29.6388 106.433 31.54L107.578 33.18ZM115.789 30.696C118.487 30.696 120.889 31.3898 123.023 32.768L124.108 31.088C121.634 29.4902 118.851 28.696 115.789 28.696V30.696ZM123.031 32.7731C125.26 34.1834 126.966 35.9194 128.175 37.9782L129.9 36.9658C128.516 34.6086 126.575 32.6486 124.1 31.0829L123.031 32.7731ZM130.037 37.472V15.44H128.037V37.472H130.037ZM129.037 16.44H136.957V14.44H129.037V16.44ZM135.957 15.44V59.072H137.957V15.44H135.957ZM135.957 59.072C135.957 60.0547 136.128 61.011 136.709 61.6745L138.214 60.3575C138.122 60.253 137.957 59.9133 137.957 59.072H135.957ZM136.709 61.6745C137.292 62.3414 138.154 62.6058 139.055 62.6621L139.18 60.6659C138.544 60.6262 138.302 60.4586 138.214 60.3575L136.709 61.6745ZM138.117 61.664V68H140.117V61.664H138.117ZM138.958 67.0128C137.486 67.2501 136.397 67.36 135.661 67.36V69.36C136.558 69.36 137.772 69.2299 139.276 68.9872L138.958 67.0128ZM135.661 67.36C134.368 67.36 133.317 67.0099 132.457 66.3447L131.234 67.9273C132.485 68.8941 133.979 69.36 135.661 69.36V67.36ZM132.496 66.3767C131.684 65.6812 131.297 64.8801 131.26 63.9296L129.262 64.0064C129.321 65.5518 129.99 66.8628 131.194 67.8953L132.496 66.3767ZM131.261 63.9424L131.189 61.1344L129.189 61.1856L129.261 63.9936L131.261 63.9424ZM129.332 60.6455C127.983 62.894 126.168 64.6409 123.876 65.8994L124.838 67.6526C127.442 66.2231 129.516 64.226 131.047 61.6745L129.332 60.6455ZM123.889 65.8922C121.578 67.1158 119.194 67.72 116.725 67.72V69.72C119.536 69.72 122.24 69.0282 124.825 67.6598L123.889 65.8922ZM116.725 67.72C113.45 67.72 110.546 66.8816 107.982 65.2172L106.893 66.8948C109.801 68.7824 113.088 69.72 116.725 69.72V67.72ZM107.988 65.2217C105.445 63.5412 103.446 61.318 101.987 58.5354L100.216 59.4646C101.828 62.538 104.053 65.0188 106.886 66.8903L107.988 65.2217ZM101.99 58.5414C100.531 55.7157 99.7971 52.6104 99.7971 49.208H97.7971C97.7971 52.9096 98.5989 56.3323 100.213 59.4586L101.99 58.5414ZM130.037 54.464V44.6H128.037V54.464H130.037ZM129.973 44.2489C129.349 42.5838 128.411 41.1001 127.167 39.8035L125.724 41.1885C126.783 42.2919 127.573 43.5442 128.101 44.9511L129.973 44.2489ZM127.18 39.8177C125.945 38.4802 124.525 37.4199 122.921 36.6438L122.05 38.4442C123.422 39.1081 124.641 40.0158 125.71 41.1743L127.18 39.8177ZM122.932 36.6496C121.37 35.8684 119.778 35.464 118.165 35.464V37.464C119.432 37.464 120.72 37.7796 122.038 38.4384L122.932 36.6496ZM118.165 35.464C115.712 35.464 113.531 36.147 111.665 37.5333L112.857 39.1387C114.351 38.029 116.106 37.464 118.165 37.464V35.464ZM111.669 37.5303C109.896 38.8338 108.499 40.5482 107.474 42.6496L109.272 43.5264C110.167 41.6918 111.362 40.2382 112.854 39.1416L111.669 37.5303ZM107.466 42.6675C106.492 44.7697 106.005 47.0015 106.005 49.352H108.005C108.005 47.2865 108.431 45.3423 109.28 43.5085L107.466 42.6675ZM106.005 49.352C106.005 51.8075 106.544 54.0805 107.632 56.1528L109.403 55.2232C108.475 53.4555 108.005 51.5045 108.005 49.352H106.005ZM107.641 56.1699C108.774 58.2292 110.302 59.8899 112.221 61.135L113.309 59.457C111.677 58.3981 110.373 56.9868 109.393 55.2061L107.641 56.1699ZM112.237 61.1453C114.181 62.3534 116.357 62.952 118.741 62.952V60.952C116.709 60.952 114.902 60.4466 113.293 59.4467L112.237 61.1453ZM118.741 62.952C120.243 62.952 121.77 62.6029 123.315 61.9336L122.52 60.0984C121.184 60.6771 119.927 60.952 118.741 60.952V62.952ZM123.329 61.9274C124.922 61.208 126.319 60.2523 127.512 59.0591L126.098 57.6449C125.083 58.6597 123.889 59.48 122.506 60.1046L123.329 61.9274ZM127.527 59.0439C128.739 57.779 129.573 56.3362 130.003 54.7217L128.071 54.2063C127.733 55.4718 127.079 56.621 126.083 57.6601L127.527 59.0439ZM178.198 66.56L177.668 67.408L178.198 66.56ZM172.726 60.944L173.59 60.4401L171.726 57.2451V60.944H172.726ZM172.726 83.336V84.336H173.726V83.336H172.726ZM164.806 83.336H163.806V84.336H164.806V83.336ZM164.806 30.344V29.344H163.806V30.344H164.806ZM171.79 30.344H172.79V29.344H171.79V30.344ZM171.79 37.112H170.79V40.5373L172.633 37.65L171.79 37.112ZM177.406 31.712L177.91 32.5758L177.406 31.712ZM194.254 32.432L193.686 33.2547L193.694 33.2606L193.703 33.2663L194.254 32.432ZM200.59 39.56L199.701 40.0187L199.704 40.0245L200.59 39.56ZM200.734 59.072L201.631 59.5133L201.634 59.5076L200.734 59.072ZM194.83 66.128L195.399 66.9503L195.41 66.9428L194.83 66.128ZM189.43 60.152L190.022 60.9577L190.026 60.9547L189.43 60.152ZM193.318 55.4L192.419 54.9616L192.415 54.9709L193.318 55.4ZM193.174 42.8L192.289 43.2648L192.293 43.2734L192.298 43.2819L193.174 42.8ZM188.998 38.192L188.443 39.0241L188.454 39.031L188.998 38.192ZM178.774 37.472L178.362 36.5606L178.351 36.5658L178.774 37.472ZM174.958 40.136L175.665 40.8431L174.958 40.136ZM172.726 43.88L171.762 43.6141L171.726 43.7446V43.88H172.726ZM172.726 53.744H171.726V53.944L171.803 54.1286L172.726 53.744ZM177.118 59.576L176.491 60.3551L176.5 60.3623L177.118 59.576ZM186.19 67.72C183.332 67.72 180.855 67.0417 178.728 65.712L177.668 67.408C180.148 68.9583 183 69.72 186.19 69.72V67.72ZM178.728 65.712C176.559 64.3563 174.85 62.6014 173.59 60.4401L171.862 61.4479C173.289 63.8946 175.229 65.8837 177.668 67.408L178.728 65.712ZM171.726 60.944V83.336H173.726V60.944H171.726ZM172.726 82.336H164.806V84.336H172.726V82.336ZM165.806 83.336V30.344H163.806V83.336H165.806ZM164.806 31.344H171.79V29.344H164.806V31.344ZM170.79 30.344V37.112H172.79V30.344H170.79ZM172.633 37.65C173.988 35.5275 175.744 33.8394 177.91 32.5758L176.902 30.8482C174.46 32.2726 172.472 34.1845 170.947 36.574L172.633 37.65ZM177.91 32.5758C180.051 31.3265 182.444 30.696 185.11 30.696V28.696C182.112 28.696 179.369 29.4095 176.902 30.8482L177.91 32.5758ZM185.11 30.696C188.379 30.696 191.226 31.5552 193.686 33.2547L194.822 31.6093C192.002 29.6608 188.753 28.696 185.11 28.696V30.696ZM193.703 33.2663C196.242 34.9442 198.241 37.1884 199.701 40.0186L201.479 39.1014C199.867 35.9796 197.642 33.4718 194.805 31.5977L193.703 33.2663ZM199.704 40.0245C201.162 42.8027 201.894 45.8343 201.894 49.136H203.894C203.894 45.5257 203.09 42.1733 201.476 39.0955L199.704 40.0245ZM201.894 49.136C201.894 52.6489 201.202 55.8098 199.834 58.6364L201.634 59.5076C203.146 56.3822 203.894 52.9191 203.894 49.136H201.894ZM199.837 58.6307C198.465 61.4198 196.602 63.6397 194.25 65.3132L195.41 66.9428C198.05 65.0643 200.123 62.5802 201.631 59.5133L199.837 58.6307ZM194.261 65.3058C191.945 66.9092 189.267 67.72 186.19 67.72V69.72C189.641 69.72 192.723 68.8028 195.399 66.9502L194.261 65.3058ZM183.598 62.952C186.042 62.952 188.199 62.2982 190.022 60.9576L188.838 59.3463C187.397 60.4058 185.666 60.952 183.598 60.952V62.952ZM190.026 60.9547C191.84 59.6076 193.24 57.8944 194.221 55.8291L192.415 54.9709C191.572 56.7456 190.38 58.2004 188.834 59.3493L190.026 60.9547ZM194.217 55.8384C195.244 53.7327 195.758 51.4946 195.758 49.136H193.758C193.758 51.1934 193.312 53.1313 192.419 54.9616L194.217 55.8384ZM195.758 49.136C195.758 46.6725 195.192 44.3934 194.05 42.3181L192.298 43.2819C193.268 45.0466 193.758 46.9915 193.758 49.136H195.758ZM194.059 42.3352C192.974 40.2671 191.466 38.6008 189.542 37.353L188.454 39.031C190.082 40.0872 191.358 41.4929 192.289 43.2648L194.059 42.3352ZM189.553 37.3599C187.646 36.089 185.458 35.464 183.022 35.464V37.464C185.098 37.464 186.894 37.991 188.443 39.024L189.553 37.3599ZM183.022 35.464C181.509 35.464 179.953 35.8425 178.362 36.5606L179.186 38.3834C180.571 37.7575 181.847 37.464 183.022 37.464V35.464ZM178.351 36.5658C176.807 37.2862 175.439 38.241 174.251 39.4289L175.665 40.8431C176.685 39.823 177.861 39.0018 179.197 38.3782L178.351 36.5658ZM174.251 39.4289C173.035 40.645 172.196 42.0418 171.762 43.6141L173.69 44.1459C174.024 42.9342 174.673 41.835 175.665 40.8431L174.251 39.4289ZM171.726 43.88V53.744H173.726V43.88H171.726ZM171.803 54.1286C172.828 56.5887 174.395 58.6677 176.491 60.355L177.745 58.797C175.905 57.3163 174.544 55.5073 173.649 53.3594L171.803 54.1286ZM176.5 60.3623C178.671 62.0682 181.045 62.952 183.598 62.952V60.952C181.543 60.952 179.597 60.2518 177.736 58.7897L176.5 60.3623ZM209.297 50.72L210.094 51.3235L210.102 51.3132L209.297 50.72ZM214.913 46.544L215.284 47.4725L215.294 47.4687L214.913 46.544ZM228.449 45.464L228.285 46.4504L228.3 46.4529L228.315 46.455L228.449 45.464ZM233.129 46.544L232.793 47.4857L234.129 47.963V46.544H233.129ZM230.753 37.976L231.438 37.2472L230.753 37.976ZM217.937 36.824L217.586 35.8877L217.937 36.824ZM211.961 39.992L211.066 40.4392L211.576 41.4579L212.52 40.8211L211.961 39.992ZM209.297 34.664L208.75 33.827L208.004 34.3145L208.402 35.1112L209.297 34.664ZM216.785 30.992L217.096 31.9426L217.106 31.9389L216.785 30.992ZM236.657 33.728L235.975 34.4591L235.981 34.4649L235.987 34.4707L236.657 33.728ZM241.481 61.016L240.681 61.616L240.704 61.6461L240.728 61.6745L241.481 61.016ZM243.137 61.664H244.137V60.7245L243.199 60.6659L243.137 61.664ZM243.137 68L243.333 68.9806L244.137 68.8198V68H243.137ZM241.193 68.288L241.11 67.2915L241.193 68.288ZM235.865 67.136L235.138 67.8226L235.158 67.8434L235.178 67.863L235.865 67.136ZM234.425 64.256L233.43 64.3555L233.432 64.3733L233.434 64.3911L234.425 64.256ZM234.209 62.096L235.204 61.9965L234.954 59.4964L233.418 61.4846L234.209 62.096ZM227.945 66.992L228.357 67.903L227.945 66.992ZM213.545 67.208L213.072 68.0892L213.081 68.0937L213.089 68.098L213.545 67.208ZM208.937 62.96L208.088 63.4879L208.937 62.96ZM231.257 59.288L230.55 58.5809L230.542 58.5891L230.534 58.5975L231.257 59.288ZM233.129 51.44H234.129V50.7456L233.478 50.503L233.129 51.44ZM217.433 51.656L217.977 52.495L217.983 52.4914L217.433 51.656ZM216.713 60.872L215.981 61.5534L215.993 61.5665L216.006 61.5791L216.713 60.872ZM227.369 61.88L227.759 62.8006L227.369 61.88ZM208.281 56.984C208.281 54.7839 208.892 52.9119 210.094 51.3234L208.499 50.1166C207.014 52.0801 206.281 54.3841 206.281 56.984H208.281ZM210.102 51.3132C211.321 49.6594 213.032 48.3733 215.284 47.4725L214.542 45.6155C211.993 46.6347 209.961 48.1326 208.492 50.1268L210.102 51.3132ZM215.294 47.4687C217.6 46.5192 220.274 46.032 223.337 46.032V44.032C220.063 44.032 217.122 44.5528 214.532 45.6193L215.294 47.4687ZM223.337 46.032C224.96 46.032 226.609 46.1711 228.285 46.4504L228.613 44.4776C226.833 44.1809 225.074 44.032 223.337 44.032V46.032ZM228.315 46.455C230.039 46.6879 231.528 47.0342 232.793 47.4857L233.465 45.6023C232.042 45.0938 230.411 44.7201 228.583 44.473L228.315 46.455ZM234.129 46.544V44.168H232.129V46.544H234.129ZM234.129 44.168C234.129 41.3158 233.265 38.9638 231.438 37.2472L230.068 38.7048C231.409 39.9642 232.129 41.7402 232.129 44.168H234.129ZM231.438 37.2472C229.609 35.5292 227.048 34.744 223.913 34.744V36.744C226.73 36.744 228.729 37.4468 230.068 38.7048L231.438 37.2472ZM223.913 34.744C221.73 34.744 219.619 35.1253 217.586 35.8877L218.288 37.7603C220.095 37.0827 221.968 36.744 223.913 36.744V34.744ZM217.586 35.8877C215.579 36.6403 213.517 37.7361 211.402 39.1629L212.52 40.8211C214.532 39.4639 216.455 38.4477 218.288 37.7603L217.586 35.8877ZM212.855 39.5448L210.191 34.2168L208.402 35.1112L211.066 40.4392L212.855 39.5448ZM209.844 35.501C212.276 33.9107 214.694 32.7278 217.096 31.9425L216.474 30.0415C213.884 30.8882 211.309 32.1533 208.75 33.827L209.844 35.501ZM217.106 31.9389C219.543 31.1113 222.098 30.696 224.777 30.696V28.696C221.888 28.696 219.115 29.1447 216.463 30.0451L217.106 31.9389ZM224.777 30.696C229.637 30.696 233.327 31.9882 235.975 34.4591L237.339 32.9969C234.227 30.0918 229.997 28.696 224.777 28.696V30.696ZM235.987 34.4707C238.656 36.8767 240.049 40.3454 240.049 45.032H242.049C242.049 39.9266 240.514 35.8592 237.327 32.9853L235.987 34.4707ZM240.049 45.032V59.072H242.049V45.032H240.049ZM240.049 59.072C240.049 60.0334 240.19 60.9611 240.681 61.616L242.281 60.416C242.196 60.3029 242.049 59.9346 242.049 59.072H240.049ZM240.728 61.6745C241.312 62.3414 242.174 62.6058 243.075 62.6621L243.199 60.6659C242.564 60.6262 242.322 60.4586 242.233 60.3575L240.728 61.6745ZM242.137 61.664V68H244.137V61.664H242.137ZM242.941 67.0194C242.249 67.1578 241.639 67.2473 241.11 67.2915L241.276 69.2845C241.898 69.2327 242.585 69.1302 243.333 68.9806L242.941 67.0194ZM241.11 67.2915C240.549 67.3382 240.099 67.36 239.753 67.36V69.36C240.175 69.36 240.685 69.3338 241.276 69.2845L241.11 67.2915ZM239.753 67.36C238.165 67.36 237.16 66.9841 236.552 66.409L235.178 67.863C236.297 68.9199 237.885 69.36 239.753 69.36V67.36ZM236.592 66.4494C235.902 65.7189 235.528 64.9464 235.416 64.1209L233.434 64.3911C233.609 65.6776 234.196 66.8251 235.138 67.8226L236.592 66.4494ZM235.42 64.1565L235.204 61.9965L233.214 62.1955L233.43 64.3555L235.42 64.1565ZM233.418 61.4846C231.89 63.4612 229.935 64.9932 227.532 66.081L228.357 67.903C231.043 66.6868 233.264 64.9548 235 62.7074L233.418 61.4846ZM227.532 66.081C225.108 67.179 222.68 67.72 220.241 67.72V69.72C222.986 69.72 225.694 69.109 228.357 67.903L227.532 66.081ZM220.241 67.72C217.883 67.72 215.81 67.2448 214.001 66.318L213.089 68.098C215.215 69.1872 217.607 69.72 220.241 69.72V67.72ZM214.018 66.3268C212.193 65.3478 210.791 64.0493 209.786 62.4321L208.088 63.4879C209.29 65.4227 210.961 66.9562 213.072 68.0892L214.018 66.3268ZM209.786 62.4321C208.786 60.8235 208.281 59.0163 208.281 56.984H206.281C206.281 59.3677 206.88 61.5445 208.088 63.4879L209.786 62.4321ZM231.964 59.9951C233.291 58.6677 234.129 57.2506 234.129 55.76H232.129C232.129 56.4774 231.718 57.4123 230.55 58.5809L231.964 59.9951ZM234.129 55.76V51.44H232.129V55.76H234.129ZM233.478 50.503C230.538 49.4067 227.54 48.856 224.489 48.856V50.856C227.294 50.856 230.056 51.3613 232.78 52.377L233.478 50.503ZM224.489 48.856C221.475 48.856 218.915 49.4839 216.883 50.8206L217.983 52.4914C219.599 51.4281 221.743 50.856 224.489 50.856V48.856ZM216.889 50.817C214.854 52.1368 213.769 53.9997 213.769 56.336H215.769C215.769 54.7363 216.46 53.4792 217.977 52.495L216.889 50.817ZM213.769 56.336C213.769 58.2623 214.543 60.009 215.981 61.5534L217.445 60.1906C216.291 58.951 215.769 57.6737 215.769 56.336H213.769ZM216.006 61.5791C217.591 63.1639 219.798 63.888 222.473 63.888V61.888C220.156 61.888 218.523 61.2681 217.42 60.1649L216.006 61.5791ZM222.473 63.888C224.29 63.888 226.055 63.5237 227.759 62.8006L226.978 60.9594C225.515 61.5803 224.015 61.888 222.473 61.888V63.888ZM227.759 62.8006C229.447 62.0847 230.863 61.149 231.98 59.9785L230.534 58.5975C229.635 59.539 228.459 60.3313 226.978 60.9594L227.759 62.8006ZM271.328 66.056L271.758 66.9589L272.507 66.6023L272.295 65.8004L271.328 66.056ZM267.152 67.712L267.461 68.6632L267.472 68.6595L267.484 68.6555L267.152 67.712ZM254.984 66.56L254.381 67.3575L254.391 67.3651L254.984 66.56ZM252.32 36.464H253.32V35.464H252.32V36.464ZM247.352 36.464H246.352V37.464H247.352V36.464ZM247.352 30.344V29.344H246.352V30.344H247.352ZM252.32 30.344V31.344H253.32V30.344H252.32ZM252.32 17.96V16.96H251.32V17.96H252.32ZM260.24 17.96H261.24V16.96H260.24V17.96ZM260.24 30.344H259.24V31.344H260.24V30.344ZM268.448 30.344H269.448V29.344H268.448V30.344ZM268.448 36.464V37.464H269.448V36.464H268.448ZM260.24 36.464V35.464H259.24V36.464H260.24ZM260.24 57.488H259.24V57.5237L259.243 57.5592L260.24 57.488ZM261.464 60.44L260.809 61.1957L260.836 61.2188L260.864 61.24L261.464 60.44ZM269.672 59.792L270.639 59.5364L270.325 58.3477L269.225 58.8976L269.672 59.792ZM270.898 65.1531C269.937 65.611 268.583 66.1495 266.821 66.7685L267.484 68.6555C269.274 68.0265 270.704 67.461 271.758 66.9589L270.898 65.1531ZM266.844 66.7608C265.175 67.302 263.384 67.576 261.464 67.576V69.576C263.577 69.576 265.577 69.274 267.461 68.6632L266.844 66.7608ZM261.464 67.576C259.159 67.576 257.212 66.9594 255.577 65.7549L254.391 67.3651C256.404 68.8486 258.778 69.576 261.464 69.576V67.576ZM255.588 65.7626C254.144 64.6701 253.32 62.8393 253.32 60.008H251.32C251.32 63.2247 252.272 65.7619 254.381 67.3574L255.588 65.7626ZM253.32 60.008V36.464H251.32V60.008H253.32ZM252.32 35.464H247.352V37.464H252.32V35.464ZM248.352 36.464V30.344H246.352V36.464H248.352ZM247.352 31.344H252.32V29.344H247.352V31.344ZM253.32 30.344V17.96H251.32V30.344H253.32ZM252.32 18.96H260.24V16.96H252.32V18.96ZM259.24 17.96V30.344H261.24V17.96H259.24ZM260.24 31.344H268.448V29.344H260.24V31.344ZM267.448 30.344V36.464H269.448V30.344H267.448ZM268.448 35.464H260.24V37.464H268.448V35.464ZM259.24 36.464V57.488H261.24V36.464H259.24ZM259.243 57.5592C259.35 59.057 259.818 60.3367 260.809 61.1957L262.119 59.6843C261.67 59.2953 261.323 58.607 261.238 57.4168L259.243 57.5592ZM260.864 61.24C261.831 61.9647 262.986 62.304 264.272 62.304V60.304C263.351 60.304 262.634 60.0673 262.064 59.64L260.864 61.24ZM264.272 62.304C265.495 62.304 266.672 62.0908 267.796 61.6625L267.084 59.7935C266.193 60.1332 265.258 60.304 264.272 60.304V62.304ZM267.796 61.6625C268.811 61.2759 269.593 60.9496 270.119 60.6864L269.225 58.8976C268.791 59.1144 268.086 59.4121 267.084 59.7935L267.796 61.6625ZM268.705 60.0476L270.361 66.3116L272.295 65.8004L270.639 59.5364L268.705 60.0476ZM276.814 24.152H275.814V25.152H276.814V24.152ZM276.814 15.44V14.44H275.814V15.44H276.814ZM284.734 15.44H285.734V14.44H284.734V15.44ZM284.734 24.152V25.152H285.734V24.152H284.734ZM276.814 68H275.814V69H276.814V68ZM276.814 30.344V29.344H275.814V30.344H276.814ZM284.734 30.344H285.734V29.344H284.734V30.344ZM284.734 68V69H285.734V68H284.734ZM277.814 24.152V15.44H275.814V24.152H277.814ZM276.814 16.44H284.734V14.44H276.814V16.44ZM283.734 15.44V24.152H285.734V15.44H283.734ZM284.734 23.152H276.814V25.152H284.734V23.152ZM277.814 68V30.344H275.814V68H277.814ZM276.814 31.344H284.734V29.344H276.814V31.344ZM283.734 30.344V68H285.734V30.344H283.734ZM284.734 67H276.814V69H284.734V67ZM301.091 66.056L301.61 65.201L301.091 66.056ZM294.251 59L293.374 59.4808L293.378 59.4869L294.251 59ZM294.251 39.488L293.374 39.0072L294.251 39.488ZM301.091 32.36L300.573 31.505L301.091 32.36ZM321.611 32.432L321.076 33.2769L321.086 33.2832L321.611 32.432ZM328.235 39.488L327.35 39.9526L327.356 39.9638L328.235 39.488ZM330.395 51.8V52.8H331.215L331.376 51.9961L330.395 51.8ZM300.227 51.8V50.8H299.16L299.229 51.8651L300.227 51.8ZM302.027 57.632L301.181 58.1642L301.19 58.1784L301.199 58.1923L302.027 57.632ZM306.131 61.52L305.624 62.3819L305.639 62.3907L305.654 62.3989L306.131 61.52ZM321.467 57.128L321.743 56.1669L320.887 55.9209L320.544 56.7434L321.467 57.128ZM328.235 59.072L329.145 59.4881L329.628 58.4316L328.511 58.1109L328.235 59.072ZM321.755 66.056L322.268 66.9147L322.272 66.9123L321.755 66.056ZM300.011 46.544L299.013 46.4775L298.942 47.544H300.011V46.544ZM322.763 46.544V47.544H323.856L323.759 46.4555L322.763 46.544ZM320.891 40.856L320.045 41.3882L320.052 41.3993L320.891 40.856ZM316.787 36.968L316.28 37.8299L316.295 37.8386L316.31 37.8469L316.787 36.968ZM305.843 36.968L306.331 37.841L306.339 37.8362L305.843 36.968ZM301.811 40.856L302.651 41.3993L302.658 41.3882L301.811 40.856ZM311.315 67.72C307.585 67.72 304.361 66.8698 301.61 65.201L300.573 66.911C303.677 68.7942 307.27 69.72 311.315 69.72V67.72ZM301.61 65.201C298.827 63.5128 296.67 61.2864 295.125 58.5131L293.378 59.4869C295.096 62.5696 297.5 65.0471 300.573 66.911L301.61 65.201ZM295.128 58.5192C293.58 55.6954 292.803 52.6216 292.803 49.28H290.803C290.803 52.9464 291.659 56.3526 293.374 59.4808L295.128 58.5192ZM292.803 49.28C292.803 45.888 293.581 42.7905 295.128 39.9688L293.374 39.0072C291.658 42.1375 290.803 45.568 290.803 49.28H292.803ZM295.128 39.9688C296.675 37.1483 298.831 34.9008 301.61 33.215L300.573 31.505C297.496 33.3712 295.092 35.8757 293.374 39.0072L295.128 39.9688ZM301.61 33.215C304.359 31.5473 307.606 30.696 311.387 30.696V28.696C307.296 28.696 303.679 29.6207 300.573 31.505L301.61 33.215ZM311.387 30.696C315.164 30.696 318.38 31.5691 321.076 33.2768L322.146 31.5872C319.083 29.6469 315.483 28.696 311.387 28.696V30.696ZM321.086 33.2832C323.817 34.9673 325.899 37.1873 327.35 39.9525L329.121 39.0234C327.499 35.9327 325.165 33.4487 322.136 31.5808L321.086 33.2832ZM327.356 39.9638C328.86 42.7443 329.611 45.7245 329.611 48.92H331.611C331.611 45.3955 330.779 42.0877 329.115 39.0122L327.356 39.9638ZM329.611 48.92C329.611 50.0899 329.54 50.976 329.415 51.6039L331.376 51.9961C331.538 51.184 331.611 50.1501 331.611 48.92H329.611ZM330.395 50.8H300.227V52.8H330.395V50.8ZM299.229 51.8651C299.383 54.2195 300.026 56.3279 301.181 58.1642L302.874 57.0998C301.916 55.5761 301.36 53.7965 301.225 51.7349L299.229 51.8651ZM301.199 58.1923C302.383 59.9423 303.859 61.3434 305.624 62.3819L306.638 60.6581C305.14 59.7766 303.88 58.5857 302.856 57.0717L301.199 58.1923ZM305.654 62.3989C307.485 63.3928 309.474 63.888 311.603 63.888V61.888C309.797 61.888 308.137 61.4712 306.608 60.6411L305.654 62.3989ZM311.603 63.888C313.891 63.888 316.051 63.314 318.071 62.175L317.088 60.433C315.363 61.406 313.54 61.888 311.603 61.888V63.888ZM318.071 62.175C320.107 61.0265 321.572 59.4761 322.39 57.5126L320.544 56.7434C319.922 58.2359 318.796 59.4695 317.088 60.433L318.071 62.175ZM321.191 58.0891L327.959 60.0331L328.511 58.1109L321.743 56.1669L321.191 58.0891ZM327.326 58.6559C326.125 61.2812 324.114 63.4652 321.239 65.1997L322.272 66.9123C325.444 64.9988 327.754 62.5268 329.145 59.4881L327.326 58.6559ZM321.243 65.1973C318.444 66.8677 315.146 67.72 311.315 67.72V69.72C315.452 69.72 319.115 68.7963 322.268 66.9147L321.243 65.1973ZM300.011 47.544H322.763V45.544H300.011V47.544ZM323.759 46.4555C323.555 44.1524 322.885 42.0965 321.731 40.3127L320.052 41.3993C321.009 42.8795 321.588 44.6156 321.767 46.6325L323.759 46.4555ZM321.738 40.3238C320.594 38.5042 319.101 37.0862 317.264 36.0891L316.31 37.8469C317.833 38.6737 319.076 39.8478 320.045 41.3882L321.738 40.3238ZM317.294 36.1061C315.499 35.0498 313.498 34.528 311.315 34.528V36.528C313.165 36.528 314.812 36.9662 316.28 37.8299L317.294 36.1061ZM311.315 34.528C309.176 34.528 307.181 35.0519 305.347 36.0998L306.339 37.8362C307.866 36.9641 309.518 36.528 311.315 36.528V34.528ZM305.355 36.0951C303.568 37.0938 302.104 38.511 300.965 40.3238L302.658 41.3882C303.63 39.841 304.854 38.6662 306.331 37.8409L305.355 36.0951ZM300.972 40.3127C299.813 42.1033 299.167 44.1674 299.013 46.4775L301.009 46.6105C301.143 44.6006 301.697 42.8727 302.651 41.3993L300.972 40.3127ZM370.84 68V69H371.84V68H370.84ZM362.92 68H361.92V69H362.92V68ZM361.192 39.2L360.363 39.7603L360.373 39.7744L360.383 39.7882L361.192 39.2ZM351.616 37.904L351.168 37.0095L351.157 37.0154L351.616 37.904ZM344.992 45.608L344.038 45.3082L343.992 45.4546V45.608H344.992ZM344.992 68V69H345.992V68H344.992ZM337.072 68H336.072V69H337.072V68ZM337.072 30.344V29.344H336.072V30.344H337.072ZM344.272 30.344H345.272V29.344H344.272V30.344ZM344.272 37.904H343.272V41.6384L345.138 38.4037L344.272 37.904ZM350.536 31.928L350.058 31.0495L350.536 31.928ZM366.52 31.856L365.858 32.6058L365.864 32.6114L365.871 32.6168L366.52 31.856ZM370.84 67H362.92V69H370.84V67ZM363.92 68V46.904H361.92V68H363.92ZM363.92 46.904C363.92 43.2908 363.343 40.4576 362 38.6118L360.383 39.7882C361.344 41.1104 361.92 43.4132 361.92 46.904H363.92ZM362.02 38.6397C360.705 36.6961 358.717 35.752 356.224 35.752V37.752C358.146 37.752 359.47 38.4399 360.363 39.7603L362.02 38.6397ZM356.224 35.752C354.515 35.752 352.827 36.1804 351.168 37.0096L352.063 38.7984C353.477 38.0916 354.86 37.752 356.224 37.752V35.752ZM351.157 37.0154C349.552 37.8435 348.113 38.9778 346.838 40.406L348.33 41.738C349.454 40.4782 350.703 39.5005 352.074 38.7926L351.157 37.0154ZM346.838 40.406C345.545 41.8534 344.609 43.4895 344.038 45.3082L345.946 45.9078C346.43 44.3665 347.222 42.9786 348.33 41.738L346.838 40.406ZM343.992 45.608V68H345.992V45.608H343.992ZM344.992 67H337.072V69H344.992V67ZM338.072 68V30.344H336.072V68H338.072ZM337.072 31.344H344.272V29.344H337.072V31.344ZM343.272 30.344V37.904H345.272V30.344H343.272ZM345.138 38.4037C346.478 36.0802 348.426 34.2138 351.013 32.8065L350.058 31.0495C347.173 32.6182 344.945 34.7358 343.405 37.4043L345.138 38.4037ZM351.013 32.8065C353.593 31.4033 356.452 30.696 359.608 30.696V28.696C356.14 28.696 352.95 29.4767 350.058 31.0495L351.013 32.8065ZM359.608 30.696C362.43 30.696 364.466 31.378 365.858 32.6058L367.181 31.1062C365.309 29.454 362.737 28.696 359.608 28.696V30.696ZM365.871 32.6168C367.332 33.8635 368.361 35.5291 368.938 37.6614L370.869 37.1386C370.198 34.6629 368.971 32.6325 367.169 31.0952L365.871 32.6168ZM368.938 37.6614C369.536 39.8674 369.84 42.322 369.84 45.032H371.84C371.84 42.174 371.519 39.5406 370.869 37.1386L368.938 37.6614ZM369.84 45.032V68H371.84V45.032H369.84ZM400.703 66.056L401.133 66.9589L401.882 66.6023L401.67 65.8004L400.703 66.056ZM396.527 67.712L396.836 68.6632L396.847 68.6595L396.859 68.6555L396.527 67.712ZM384.359 66.56L383.756 67.3575L383.766 67.3651L384.359 66.56ZM381.695 36.464H382.695V35.464H381.695V36.464ZM376.727 36.464H375.727V37.464H376.727V36.464ZM376.727 30.344V29.344H375.727V30.344H376.727ZM381.695 30.344V31.344H382.695V30.344H381.695ZM381.695 17.96V16.96H380.695V17.96H381.695ZM389.615 17.96H390.615V16.96H389.615V17.96ZM389.615 30.344H388.615V31.344H389.615V30.344ZM397.823 30.344H398.823V29.344H397.823V30.344ZM397.823 36.464V37.464H398.823V36.464H397.823ZM389.615 36.464V35.464H388.615V36.464H389.615ZM389.615 57.488H388.615V57.5237L388.618 57.5592L389.615 57.488ZM390.839 60.44L390.184 61.1957L390.211 61.2188L390.239 61.24L390.839 60.44ZM399.047 59.792L400.014 59.5364L399.7 58.3477L398.6 58.8976L399.047 59.792ZM400.273 65.1531C399.312 65.611 397.958 66.1495 396.196 66.7685L396.859 68.6555C398.649 68.0265 400.079 67.461 401.133 66.9589L400.273 65.1531ZM396.219 66.7608C394.55 67.302 392.759 67.576 390.839 67.576V69.576C392.952 69.576 394.952 69.274 396.836 68.6632L396.219 66.7608ZM390.839 67.576C388.534 67.576 386.587 66.9594 384.952 65.7549L383.766 67.3651C385.779 68.8486 388.153 69.576 390.839 69.576V67.576ZM384.963 65.7626C383.519 64.6701 382.695 62.8393 382.695 60.008H380.695C380.695 63.2247 381.647 65.7619 383.756 67.3574L384.963 65.7626ZM382.695 60.008V36.464H380.695V60.008H382.695ZM381.695 35.464H376.727V37.464H381.695V35.464ZM377.727 36.464V30.344H375.727V36.464H377.727ZM376.727 31.344H381.695V29.344H376.727V31.344ZM382.695 30.344V17.96H380.695V30.344H382.695ZM381.695 18.96H389.615V16.96H381.695V18.96ZM388.615 17.96V30.344H390.615V17.96H388.615ZM389.615 31.344H397.823V29.344H389.615V31.344ZM396.823 30.344V36.464H398.823V30.344H396.823ZM397.823 35.464H389.615V37.464H397.823V35.464ZM388.615 36.464V57.488H390.615V36.464H388.615ZM388.618 57.5592C388.725 59.057 389.193 60.3367 390.184 61.1957L391.494 59.6843C391.045 59.2953 390.698 58.607 390.613 57.4168L388.618 57.5592ZM390.239 61.24C391.206 61.9647 392.361 62.304 393.647 62.304V60.304C392.726 60.304 392.009 60.0673 391.439 59.64L390.239 61.24ZM393.647 62.304C394.87 62.304 396.047 62.0908 397.171 61.6625L396.459 59.7935C395.568 60.1332 394.633 60.304 393.647 60.304V62.304ZM397.171 61.6625C398.186 61.2759 398.968 60.9496 399.494 60.6864L398.6 58.8976C398.166 59.1144 397.461 59.4121 396.459 59.7935L397.171 61.6625ZM398.08 60.0476L399.736 66.3116L401.67 65.8004L400.014 59.5364L398.08 60.0476ZM423.762 39.416L422.867 38.9688L422.864 38.9747L423.762 39.416ZM429.81 32.36L430.372 33.1873L430.382 33.18L429.81 32.36ZM446.37 31.928L445.827 32.7681L445.835 32.7731L446.37 31.928ZM451.842 37.472L450.979 37.9782L452.842 41.1512V37.472H451.842ZM451.842 15.44V14.44H450.842V15.44H451.842ZM459.762 15.44H460.762V14.44H459.762V15.44ZM460.266 61.016L461.018 60.3575V60.3575L460.266 61.016ZM461.922 61.664H462.922V60.7245L461.984 60.6659L461.922 61.664ZM461.922 68L462.081 68.9872L462.922 68.8516V68H461.922ZM454.65 67.136L453.999 67.8953L454.018 67.9118L454.038 67.9273L454.65 67.136ZM453.066 63.968L452.066 63.9936L452.067 64.0064L453.066 63.968ZM452.994 61.16L453.993 61.1344L453.905 57.6971L452.136 60.6455L452.994 61.16ZM447.162 66.776L447.63 67.6598L447.636 67.6562L447.643 67.6526L447.162 66.776ZM430.242 66.056L429.691 66.8904L429.697 66.8948L430.242 66.056ZM423.906 59L423.017 59.4587L423.02 59.4646L423.906 59ZM451.842 54.464L452.808 54.7217L452.842 54.595V54.464H451.842ZM451.842 44.6H452.842V44.4187L452.778 44.2489L451.842 44.6ZM449.25 40.496L448.515 41.1743L448.522 41.1815L448.528 41.1885L449.25 40.496ZM445.29 37.544L444.843 38.4385L444.854 38.4442L445.29 37.544ZM435.066 38.336L435.658 39.1417L435.662 39.1387L435.066 38.336ZM431.178 43.088L430.279 42.6496L430.275 42.6585L430.271 42.6675L431.178 43.088ZM431.322 55.688L430.436 56.1528L430.441 56.1614L430.446 56.1699L431.322 55.688ZM435.57 60.296L435.026 61.135L435.034 61.1402L435.042 61.1453L435.57 60.296ZM445.722 61.016L446.119 61.9336L446.126 61.9305L446.133 61.9274L445.722 61.016ZM449.61 58.352L450.317 59.0591L450.324 59.0516L450.332 59.0439L449.61 58.352ZM422.602 49.208C422.602 45.745 423.293 42.6343 424.659 39.8573L422.864 38.9747C421.35 42.0537 420.602 45.471 420.602 49.208H422.602ZM424.656 39.8632C426.074 37.0273 427.981 34.8113 430.372 33.1872L429.248 31.5328C426.551 33.3647 424.425 35.8527 422.867 38.9688L424.656 39.8632ZM430.382 33.18C432.747 31.5292 435.472 30.696 438.594 30.696V28.696C435.092 28.696 431.961 29.6388 429.237 31.54L430.382 33.18ZM438.594 30.696C441.292 30.696 443.693 31.3898 445.827 32.768L446.912 31.088C444.438 29.4902 441.656 28.696 438.594 28.696V30.696ZM445.835 32.7731C448.064 34.1834 449.771 35.9194 450.979 37.9782L452.704 36.9658C451.321 34.6086 449.379 32.6486 446.904 31.0829L445.835 32.7731ZM452.842 37.472V15.44H450.842V37.472H452.842ZM451.842 16.44H459.762V14.44H451.842V16.44ZM458.762 15.44V59.072H460.762V15.44H458.762ZM458.762 59.072C458.762 60.0547 458.933 61.011 459.513 61.6745L461.018 60.3575C460.927 60.253 460.762 59.9133 460.762 59.072H458.762ZM459.513 61.6745C460.097 62.3414 460.959 62.6058 461.859 62.6621L461.984 60.6659C461.349 60.6262 461.107 60.4586 461.018 60.3575L459.513 61.6745ZM460.922 61.664V68H462.922V61.664H460.922ZM461.763 67.0128C460.291 67.2501 459.201 67.36 458.466 67.36V69.36C459.362 69.36 460.577 69.2299 462.081 68.9872L461.763 67.0128ZM458.466 67.36C457.172 67.36 456.122 67.0099 455.261 66.3447L454.038 67.9273C455.29 68.8941 456.783 69.36 458.466 69.36V67.36ZM455.301 66.3767C454.489 65.6812 454.102 64.8801 454.065 63.9296L452.067 64.0064C452.126 65.5518 452.795 66.8628 453.999 67.8953L455.301 66.3767ZM454.065 63.9424L453.993 61.1344L451.994 61.1856L452.066 63.9936L454.065 63.9424ZM452.136 60.6455C450.787 62.894 448.973 64.6409 446.681 65.8994L447.643 67.6526C450.247 66.2231 452.32 64.226 453.851 61.6745L452.136 60.6455ZM446.694 65.8922C444.383 67.1158 441.999 67.72 439.53 67.72V69.72C442.341 69.72 445.045 69.0282 447.63 67.6598L446.694 65.8922ZM439.53 67.72C436.255 67.72 433.35 66.8816 430.786 65.2172L429.697 66.8948C432.605 68.7824 435.893 69.72 439.53 69.72V67.72ZM430.793 65.2217C428.25 63.5412 426.251 61.318 424.791 58.5354L423.02 59.4646C424.633 62.538 426.858 65.0188 429.691 66.8903L430.793 65.2217ZM424.794 58.5414C423.336 55.7157 422.602 52.6104 422.602 49.208H420.602C420.602 52.9096 421.404 56.3323 423.017 59.4586L424.794 58.5414ZM452.842 54.464V44.6H450.842V54.464H452.842ZM452.778 44.2489C452.154 42.5838 451.216 41.1001 449.971 39.8035L448.528 41.1885C449.588 42.2919 450.378 43.5442 450.905 44.9511L452.778 44.2489ZM449.985 39.8177C448.75 38.4802 447.329 37.4199 445.725 36.6438L444.854 38.4442C446.226 39.1081 447.446 40.0158 448.515 41.1743L449.985 39.8177ZM445.737 36.6496C444.175 35.8684 442.583 35.464 440.97 35.464V37.464C442.237 37.464 443.525 37.7796 444.843 38.4384L445.737 36.6496ZM440.97 35.464C438.517 35.464 436.336 36.147 434.47 37.5333L435.662 39.1387C437.156 38.029 438.911 37.464 440.97 37.464V35.464ZM434.473 37.5303C432.701 38.8338 431.304 40.5482 430.279 42.6496L432.077 43.5264C432.972 41.6918 434.167 40.2382 435.658 39.1416L434.473 37.5303ZM430.271 42.6675C429.296 44.7697 428.81 47.0015 428.81 49.352H430.81C430.81 47.2865 431.235 45.3423 432.085 43.5085L430.271 42.6675ZM428.81 49.352C428.81 51.8075 429.348 54.0805 430.436 56.1528L432.207 55.2232C431.279 53.4555 430.81 51.5045 430.81 49.352H428.81ZM430.446 56.1699C431.578 58.2292 433.106 59.8899 435.026 61.135L436.114 59.457C434.481 58.3981 433.177 56.9868 432.198 55.2061L430.446 56.1699ZM435.042 61.1453C436.985 62.3534 439.162 62.952 441.546 62.952V60.952C439.514 60.952 437.706 60.4466 436.098 59.4467L435.042 61.1453ZM441.546 62.952C443.048 62.952 444.575 62.6029 446.119 61.9336L445.324 60.0984C443.989 60.6771 442.732 60.952 441.546 60.952V62.952ZM446.133 61.9274C447.726 61.208 449.124 60.2523 450.317 59.0591L448.903 57.6449C447.888 58.6597 446.693 59.48 445.31 60.1046L446.133 61.9274ZM450.332 59.0439C451.544 57.779 452.378 56.3362 452.808 54.7217L450.876 54.2063C450.538 55.4718 449.884 56.621 448.888 57.6601L450.332 59.0439ZM476.662 66.056L477.18 65.201L476.662 66.056ZM469.822 59L468.945 59.4808L468.948 59.4869L469.822 59ZM469.822 39.488L468.945 39.0072L469.822 39.488ZM476.662 32.36L476.143 31.505L476.662 32.36ZM497.182 32.432L496.646 33.2769L496.657 33.2832L497.182 32.432ZM503.806 39.488L502.92 39.9526L502.926 39.9638L503.806 39.488ZM505.966 51.8V52.8H506.785L506.946 51.9961L505.966 51.8ZM475.798 51.8V50.8H474.73L474.8 51.8651L475.798 51.8ZM477.598 57.632L476.751 58.1642L476.76 58.1784L476.769 58.1923L477.598 57.632ZM481.702 61.52L481.195 62.3819L481.209 62.3907L481.224 62.3989L481.702 61.52ZM497.038 57.128L497.314 56.1669L496.457 55.9209L496.115 56.7434L497.038 57.128ZM503.806 59.072L504.715 59.4881L505.198 58.4316L504.082 58.1109L503.806 59.072ZM497.326 66.056L497.838 66.9147L497.842 66.9123L497.326 66.056ZM475.582 46.544L474.584 46.4775L474.513 47.544H475.582V46.544ZM498.334 46.544V47.544H499.426L499.33 46.4555L498.334 46.544ZM496.462 40.856L495.615 41.3882L495.622 41.3993L496.462 40.856ZM492.358 36.968L491.851 37.8299L491.865 37.8386L491.88 37.8469L492.358 36.968ZM481.414 36.968L481.901 37.841L481.91 37.8362L481.414 36.968ZM477.382 40.856L478.221 41.3993L478.228 41.3882L477.382 40.856ZM486.886 67.72C483.155 67.72 479.932 66.8698 477.18 65.201L476.143 66.911C479.248 68.7942 482.84 69.72 486.886 69.72V67.72ZM477.18 65.201C474.397 63.5128 472.241 61.2864 470.695 58.5131L468.948 59.4869C470.666 62.5696 473.07 65.0471 476.143 66.911L477.18 65.201ZM470.698 58.5192C469.15 55.6954 468.374 52.6216 468.374 49.28H466.374C466.374 52.9464 467.229 56.3526 468.945 59.4808L470.698 58.5192ZM468.374 49.28C468.374 45.888 469.151 42.7905 470.698 39.9688L468.945 39.0072C467.228 42.1375 466.374 45.568 466.374 49.28H468.374ZM470.698 39.9688C472.245 37.1483 474.401 34.9008 477.18 33.215L476.143 31.505C473.066 33.3712 470.662 35.8757 468.945 39.0072L470.698 39.9688ZM477.18 33.215C479.93 31.5473 483.177 30.696 486.958 30.696V28.696C482.867 28.696 479.25 29.6207 476.143 31.505L477.18 33.215ZM486.958 30.696C490.734 30.696 493.95 31.5691 496.647 33.2768L497.717 31.5872C494.653 29.6469 491.053 28.696 486.958 28.696V30.696ZM496.657 33.2832C499.388 34.9673 501.469 37.1873 502.92 39.9525L504.691 39.0234C503.07 35.9327 500.735 33.4487 497.706 31.5808L496.657 33.2832ZM502.926 39.9638C504.43 42.7443 505.182 45.7245 505.182 48.92H507.182C507.182 45.3955 506.349 42.0877 504.685 39.0122L502.926 39.9638ZM505.182 48.92C505.182 50.0899 505.111 50.976 504.985 51.6039L506.946 51.9961C507.109 51.184 507.182 50.1501 507.182 48.92H505.182ZM505.966 50.8H475.798V52.8H505.966V50.8ZM474.8 51.8651C474.953 54.2195 475.597 56.3279 476.751 58.1642L478.444 57.0998C477.486 55.5761 476.93 53.7965 476.795 51.7349L474.8 51.8651ZM476.769 58.1923C477.953 59.9423 479.429 61.3434 481.195 62.3819L482.209 60.6581C480.71 59.7766 479.45 58.5857 478.426 57.0717L476.769 58.1923ZM481.224 62.3989C483.055 63.3928 485.044 63.888 487.174 63.888V61.888C485.367 61.888 483.708 61.4712 482.179 60.6411L481.224 62.3989ZM487.174 63.888C489.461 63.888 491.622 63.314 493.641 62.175L492.658 60.433C490.933 61.406 489.11 61.888 487.174 61.888V63.888ZM493.641 62.175C495.677 61.0265 497.143 59.4761 497.961 57.5126L496.115 56.7434C495.493 58.2359 494.366 59.4695 492.658 60.433L493.641 62.175ZM496.762 58.0891L503.53 60.0331L504.082 58.1109L497.314 56.1669L496.762 58.0891ZM502.896 58.6559C501.695 61.2812 499.685 63.4652 496.809 65.1997L497.842 66.9123C501.014 64.9988 503.324 62.5268 504.715 59.4881L502.896 58.6559ZM496.813 65.1973C494.014 66.8677 490.717 67.72 486.886 67.72V69.72C491.023 69.72 494.685 68.7963 497.838 66.9147L496.813 65.1973ZM475.582 47.544H498.334V45.544H475.582V47.544ZM499.33 46.4555C499.125 44.1524 498.455 42.0965 497.301 40.3127L495.622 41.3993C496.58 42.8795 497.158 44.6156 497.337 46.6325L499.33 46.4555ZM497.308 40.3238C496.164 38.5042 494.671 37.0862 492.835 36.0891L491.88 37.8469C493.404 38.6737 494.647 39.8478 495.615 41.3882L497.308 40.3238ZM492.865 36.1061C491.069 35.0498 489.068 34.528 486.886 34.528V36.528C488.735 36.528 490.382 36.9662 491.851 37.8299L492.865 36.1061ZM486.886 34.528C484.747 34.528 482.751 35.0519 480.917 36.0998L481.91 37.8362C483.436 36.9641 485.089 36.528 486.886 36.528V34.528ZM480.926 36.0951C479.138 37.0938 477.674 38.511 476.535 40.3238L478.228 41.3882C479.201 39.841 480.425 38.6662 481.901 37.8409L480.926 36.0951ZM476.542 40.3127C475.383 42.1033 474.738 44.1674 474.584 46.4775L476.579 46.6105C476.713 44.6006 477.268 42.8727 478.221 41.3993L476.542 40.3127ZM533.242 66.056L533.672 66.9589L534.421 66.6023L534.209 65.8004L533.242 66.056ZM529.066 67.712L529.375 68.6632L529.386 68.6595L529.398 68.6555L529.066 67.712ZM516.898 66.56L516.295 67.3575L516.305 67.3651L516.898 66.56ZM514.234 36.464H515.234V35.464H514.234V36.464ZM509.266 36.464H508.266V37.464H509.266V36.464ZM509.266 30.344V29.344H508.266V30.344H509.266ZM514.234 30.344V31.344H515.234V30.344H514.234ZM514.234 17.96V16.96H513.234V17.96H514.234ZM522.154 17.96H523.154V16.96H522.154V17.96ZM522.154 30.344H521.154V31.344H522.154V30.344ZM530.362 30.344H531.362V29.344H530.362V30.344ZM530.362 36.464V37.464H531.362V36.464H530.362ZM522.154 36.464V35.464H521.154V36.464H522.154ZM522.154 57.488H521.154V57.5237L521.157 57.5592L522.154 57.488ZM523.378 60.44L522.723 61.1957L522.75 61.2188L522.778 61.24L523.378 60.44ZM531.586 59.792L532.553 59.5364L532.239 58.3477L531.139 58.8976L531.586 59.792ZM532.812 65.1531C531.851 65.611 530.497 66.1495 528.735 66.7685L529.398 68.6555C531.188 68.0265 532.618 67.461 533.672 66.9589L532.812 65.1531ZM528.758 66.7608C527.089 67.302 525.298 67.576 523.378 67.576V69.576C525.491 69.576 527.492 69.274 529.375 68.6632L528.758 66.7608ZM523.378 67.576C521.073 67.576 519.126 66.9594 517.492 65.7549L516.305 67.3651C518.319 68.8486 520.692 69.576 523.378 69.576V67.576ZM517.502 65.7626C516.058 64.6701 515.234 62.8393 515.234 60.008H513.234C513.234 63.2247 514.187 65.7619 516.295 67.3574L517.502 65.7626ZM515.234 60.008V36.464H513.234V60.008H515.234ZM514.234 35.464H509.266V37.464H514.234V35.464ZM510.266 36.464V30.344H508.266V36.464H510.266ZM509.266 31.344H514.234V29.344H509.266V31.344ZM515.234 30.344V17.96H513.234V30.344H515.234ZM514.234 18.96H522.154V16.96H514.234V18.96ZM521.154 17.96V30.344H523.154V17.96H521.154ZM522.154 31.344H530.362V29.344H522.154V31.344ZM529.362 30.344V36.464H531.362V30.344H529.362ZM530.362 35.464H522.154V37.464H530.362V35.464ZM521.154 36.464V57.488H523.154V36.464H521.154ZM521.157 57.5592C521.264 59.057 521.732 60.3367 522.723 61.1957L524.033 59.6843C523.584 59.2953 523.237 58.607 523.152 57.4168L521.157 57.5592ZM522.778 61.24C523.745 61.9647 524.9 62.304 526.186 62.304V60.304C525.265 60.304 524.548 60.0673 523.978 59.64L522.778 61.24ZM526.186 62.304C527.409 62.304 528.586 62.0908 529.71 61.6625L528.998 59.7935C528.107 60.1332 527.172 60.304 526.186 60.304V62.304ZM529.71 61.6625C530.725 61.2759 531.507 60.9496 532.034 60.6864L531.139 58.8976C530.705 59.1144 530 59.4121 528.998 59.7935L529.71 61.6625ZM530.62 60.0476L532.276 66.3116L534.209 65.8004L532.553 59.5364L530.62 60.0476ZM538.008 50.72L538.805 51.3235L538.813 51.3132L538.008 50.72ZM543.624 46.544L543.995 47.4725L544.005 47.4687L543.624 46.544ZM557.16 45.464L556.995 46.4504L557.011 46.4529L557.026 46.455L557.16 45.464ZM561.84 46.544L561.503 47.4857L562.84 47.963V46.544H561.84ZM559.464 37.976L560.148 37.2472L559.464 37.976ZM546.648 36.824L546.297 35.8877L546.648 36.824ZM540.672 39.992L539.777 40.4392L540.287 41.4579L541.231 40.8211L540.672 39.992ZM538.008 34.664L537.461 33.827L536.715 34.3145L537.113 35.1112L538.008 34.664ZM545.496 30.992L545.807 31.9426L545.817 31.9389L545.496 30.992ZM565.368 33.728L564.685 34.4591L564.692 34.4649L564.698 34.4707L565.368 33.728ZM570.192 61.016L569.392 61.616L569.414 61.6461L569.439 61.6745L570.192 61.016ZM571.848 61.664H572.848V60.7245L571.91 60.6659L571.848 61.664ZM571.848 68L572.044 68.9806L572.848 68.8198V68H571.848ZM569.904 68.288L569.821 67.2915L569.904 68.288ZM564.576 67.136L563.849 67.8226L563.868 67.8434L563.889 67.863L564.576 67.136ZM563.136 64.256L562.141 64.3555L562.143 64.3733L562.145 64.3911L563.136 64.256ZM562.92 62.096L563.915 61.9965L563.665 59.4964L562.129 61.4846L562.92 62.096ZM556.656 66.992L557.068 67.903L556.656 66.992ZM542.256 67.208L541.783 68.0892L541.791 68.0937L541.8 68.098L542.256 67.208ZM537.648 62.96L536.799 63.4879L537.648 62.96ZM559.968 59.288L559.261 58.5809L559.253 58.5891L559.245 58.5975L559.968 59.288ZM561.84 51.44H562.84V50.7456L562.189 50.503L561.84 51.44ZM546.144 51.656L546.688 52.495L546.693 52.4914L546.144 51.656ZM545.424 60.872L544.692 61.5534L544.704 61.5665L544.717 61.5791L545.424 60.872ZM556.08 61.88L556.47 62.8006L556.08 61.88ZM536.992 56.984C536.992 54.7839 537.603 52.9119 538.805 51.3234L537.21 50.1166C535.725 52.0801 534.992 54.3841 534.992 56.984H536.992ZM538.813 51.3132C540.031 49.6594 541.743 48.3733 543.995 47.4725L543.252 45.6155C540.704 46.6347 538.672 48.1326 537.203 50.1268L538.813 51.3132ZM544.005 47.4687C546.311 46.5192 548.985 46.032 552.048 46.032V44.032C548.774 44.032 545.833 44.5528 543.243 45.6193L544.005 47.4687ZM552.048 46.032C553.67 46.032 555.319 46.1711 556.995 46.4504L557.324 44.4776C555.544 44.1809 553.785 44.032 552.048 44.032V46.032ZM557.026 46.455C558.75 46.6879 560.239 47.0342 561.503 47.4857L562.176 45.6023C560.752 45.0938 559.122 44.7201 557.294 44.473L557.026 46.455ZM562.84 46.544V44.168H560.84V46.544H562.84ZM562.84 44.168C562.84 41.3158 561.976 38.9638 560.148 37.2472L558.779 38.7048C560.12 39.9642 560.84 41.7402 560.84 44.168H562.84ZM560.148 37.2472C558.32 35.5292 555.759 34.744 552.624 34.744V36.744C555.441 36.744 557.44 37.4468 558.779 38.7048L560.148 37.2472ZM552.624 34.744C550.441 34.744 548.33 35.1253 546.297 35.8877L546.999 37.7603C548.806 37.0827 550.679 36.744 552.624 36.744V34.744ZM546.297 35.8877C544.29 36.6403 542.228 37.7361 540.113 39.1629L541.231 40.8211C543.243 39.4639 545.166 38.4477 546.999 37.7603L546.297 35.8877ZM541.566 39.5448L538.902 34.2168L537.113 35.1112L539.777 40.4392L541.566 39.5448ZM538.555 35.501C540.987 33.9107 543.404 32.7278 545.807 31.9425L545.185 30.0415C542.595 30.8882 540.02 32.1533 537.461 33.827L538.555 35.501ZM545.817 31.9389C548.254 31.1113 550.809 30.696 553.488 30.696V28.696C550.598 28.696 547.826 29.1447 545.174 30.0451L545.817 31.9389ZM553.488 30.696C558.348 30.696 562.038 31.9882 564.685 34.4591L566.05 32.9969C562.938 30.0918 558.708 28.696 553.488 28.696V30.696ZM564.698 34.4707C567.367 36.8767 568.76 40.3454 568.76 45.032H570.76C570.76 39.9266 569.225 35.8592 566.037 32.9853L564.698 34.4707ZM568.76 45.032V59.072H570.76V45.032H568.76ZM568.76 59.072C568.76 60.0334 568.901 60.9611 569.392 61.616L570.992 60.416C570.907 60.3029 570.76 59.9346 570.76 59.072H568.76ZM569.439 61.6745C570.023 62.3414 570.885 62.6058 571.785 62.6621L571.91 60.6659C571.275 60.6262 571.033 60.4586 570.944 60.3575L569.439 61.6745ZM570.848 61.664V68H572.848V61.664H570.848ZM571.652 67.0194C570.96 67.1578 570.35 67.2473 569.821 67.2915L569.987 69.2845C570.609 69.2327 571.296 69.1302 572.044 68.9806L571.652 67.0194ZM569.821 67.2915C569.26 67.3382 568.81 67.36 568.464 67.36V69.36C568.886 69.36 569.396 69.3338 569.987 69.2845L569.821 67.2915ZM568.464 67.36C566.876 67.36 565.871 66.9841 565.262 66.409L563.889 67.863C565.008 68.9199 566.595 69.36 568.464 69.36V67.36ZM565.303 66.4494C564.613 65.7189 564.239 64.9464 564.127 64.1209L562.145 64.3911C562.32 65.6776 562.907 66.8251 563.849 67.8226L565.303 66.4494ZM564.131 64.1565L563.915 61.9965L561.925 62.1955L562.141 64.3555L564.131 64.1565ZM562.129 61.4846C560.601 63.4612 558.646 64.9932 556.243 66.081L557.068 67.903C559.754 66.6868 561.975 64.9548 563.711 62.7074L562.129 61.4846ZM556.243 66.081C553.819 67.179 551.391 67.72 548.952 67.72V69.72C551.697 69.72 554.405 69.109 557.068 67.903L556.243 66.081ZM548.952 67.72C546.594 67.72 544.521 67.2448 542.712 66.318L541.8 68.098C543.926 69.1872 546.318 69.72 548.952 69.72V67.72ZM542.729 66.3268C540.904 65.3478 539.502 64.0493 538.497 62.4321L536.799 63.4879C538.001 65.4227 539.672 66.9562 541.783 68.0892L542.729 66.3268ZM538.497 62.4321C537.497 60.8235 536.992 59.0163 536.992 56.984H534.992C534.992 59.3677 535.59 61.5445 536.799 63.4879L538.497 62.4321ZM560.675 59.9951C562.002 58.6677 562.84 57.2506 562.84 55.76H560.84C560.84 56.4774 560.429 57.4123 559.261 58.5809L560.675 59.9951ZM562.84 55.76V51.44H560.84V55.76H562.84ZM562.189 50.503C559.249 49.4067 556.251 48.856 553.2 48.856V50.856C556.005 50.856 558.767 51.3613 561.49 52.377L562.189 50.503ZM553.2 48.856C550.186 48.856 547.626 49.4839 545.594 50.8206L546.693 52.4914C548.31 51.4281 550.454 50.856 553.2 50.856V48.856ZM545.6 50.817C543.565 52.1368 542.48 53.9997 542.48 56.336H544.48C544.48 54.7363 545.171 53.4792 546.688 52.495L545.6 50.817ZM542.48 56.336C542.48 58.2623 543.254 60.009 544.692 61.5534L546.156 60.1906C545.002 58.951 544.48 57.6737 544.48 56.336H542.48ZM544.717 61.5791C546.302 63.1639 548.509 63.888 551.184 63.888V61.888C548.867 61.888 547.234 61.2681 546.131 60.1649L544.717 61.5791ZM551.184 63.888C553.001 63.888 554.766 63.5237 556.47 62.8006L555.689 60.9594C554.226 61.5803 552.726 61.888 551.184 61.888V63.888ZM556.47 62.8006C558.158 62.0847 559.574 61.149 560.691 59.9785L559.245 58.5975C558.346 59.539 557.17 60.3313 555.689 60.9594L556.47 62.8006ZM579.368 24.152H578.368V25.152H579.368V24.152ZM579.368 15.44V14.44H578.368V15.44H579.368ZM587.288 15.44H588.288V14.44H587.288V15.44ZM587.288 24.152V25.152H588.288V24.152H587.288ZM579.368 68H578.368V69H579.368V68ZM579.368 30.344V29.344H578.368V30.344H579.368ZM587.288 30.344H588.288V29.344H587.288V30.344ZM587.288 68V69H588.288V68H587.288ZM580.368 24.152V15.44H578.368V24.152H580.368ZM579.368 16.44H587.288V14.44H579.368V16.44ZM586.288 15.44V24.152H588.288V15.44H586.288ZM587.288 23.152H579.368V25.152H587.288V23.152ZM580.368 68V30.344H578.368V68H580.368ZM579.368 31.344H587.288V29.344H579.368V31.344ZM586.288 30.344V68H588.288V30.344H586.288ZM587.288 67H579.368V69H587.288V67ZM596.878 15.44V14.44H595.878V15.44H596.878ZM604.798 15.44H605.798V14.44H604.798V15.44ZM605.662 60.8L606.338 60.0628L605.662 60.8ZM610.558 61.304L610.341 60.3278L610.558 61.304ZM612.718 60.584L613.701 60.4031L613.461 59.0945L612.271 59.6896L612.718 60.584ZM613.87 66.848L614.255 67.7711L614.999 67.4607L614.853 66.6671L613.87 66.848ZM609.766 68.072L609.558 67.0938L609.766 68.072ZM599.182 66.344L598.475 67.0511L598.48 67.0567L598.486 67.0622L599.182 66.344ZM596.878 16.44H604.798V14.44H596.878V16.44ZM603.798 15.44V57.128H605.798V15.44H603.798ZM603.798 57.128C603.798 58.1293 603.872 58.9997 604.041 59.715C604.205 60.4136 604.485 61.0777 604.986 61.5372L606.338 60.0628C606.263 59.9943 606.111 59.7824 605.987 59.257C605.868 58.7483 605.798 58.0467 605.798 57.128H603.798ZM604.986 61.5372C605.767 62.2526 606.736 62.592 607.822 62.592V60.592C607.18 60.592 606.709 60.4034 606.338 60.0628L604.986 61.5372ZM607.822 62.592C608.849 62.592 609.834 62.4893 610.775 62.2802L610.341 60.3278C609.554 60.5027 608.715 60.592 607.822 60.592V62.592ZM610.775 62.2802C611.691 62.0766 612.495 61.8137 613.165 61.4784L612.271 59.6896C611.789 59.9303 611.153 60.1474 610.341 60.3278L610.775 62.2802ZM611.734 60.7649L612.886 67.0289L614.853 66.6671L613.701 60.4031L611.734 60.7649ZM613.485 65.9249C612.404 66.3753 611.099 66.7671 609.558 67.0938L609.973 69.0502C611.601 68.7049 613.031 68.2807 614.255 67.7711L613.485 65.9249ZM609.558 67.0938C608.024 67.4193 606.679 67.576 605.518 67.576V69.576C606.853 69.576 608.34 69.3967 609.973 69.0502L609.558 67.0938ZM605.518 67.576C603.02 67.576 601.182 66.8896 599.878 65.6258L598.486 67.0622C600.254 68.7744 602.64 69.576 605.518 69.576V67.576ZM599.889 65.6369C598.583 64.3309 597.878 62.4975 597.878 60.008H595.878C595.878 62.8945 596.709 65.2851 598.475 67.0511L599.889 65.6369ZM597.878 60.008V15.44H595.878V60.008H597.878ZM622.854 67.136L622.505 68.073L622.854 67.136ZM615.582 62.528L614.708 62.0434L614.342 62.7024L614.875 63.2351L615.582 62.528ZM618.534 57.2L619.199 56.4526L618.265 55.6227L617.659 56.7154L618.534 57.2ZM625.014 61.376L625.386 60.4475L625.014 61.376ZM636.966 61.448L637.472 62.3107L637.483 62.3043L637.494 62.2976L636.966 61.448ZM637.974 55.04L637.319 55.7957L637.974 55.04ZM634.806 53.528L634.531 54.4896L634.54 54.492L634.806 53.528ZM629.91 52.088L629.62 53.0449L629.623 53.0458L629.91 52.088ZM623.142 49.568L622.695 50.4624L622.705 50.4672L622.714 50.4717L623.142 49.568ZM619.038 46.256L618.22 46.8315L619.038 46.256ZM621.774 32.792L622.367 33.5971L622.376 33.5903L621.774 32.792ZM640.062 30.992L639.711 31.9283L639.723 31.9327L639.734 31.9368L640.062 30.992ZM646.254 34.88L647.095 35.4213L647.532 34.7432L646.961 34.1729L646.254 34.88ZM642.87 40.136L642.196 40.875L643.071 41.672L643.711 40.6773L642.87 40.136ZM627.246 36.68L626.835 35.7686L626.823 35.7738L627.246 36.68ZM627.03 43.736L626.57 44.6238L627.03 43.736ZM632.79 45.896L632.501 46.8533L632.503 46.8538L632.79 45.896ZM640.206 48.488L639.82 49.4104L639.833 49.4158L639.846 49.4208L640.206 48.488ZM645.03 51.728L644.258 52.3627L644.27 52.3778L644.283 52.3924L645.03 51.728ZM642.654 65.696L643.247 66.5011L643.256 66.4943L642.654 65.696ZM631.854 67.72C628.8 67.72 625.919 67.2114 623.204 66.199L622.505 68.073C625.454 69.1726 628.573 69.72 631.854 69.72V67.72ZM623.204 66.199C620.498 65.19 618.198 63.7295 616.289 61.8209L614.875 63.2351C616.999 65.3585 619.547 66.97 622.505 68.073L623.204 66.199ZM616.457 63.0126L619.409 57.6846L617.659 56.7154L614.708 62.0434L616.457 63.0126ZM617.87 57.9474C620.096 59.9264 622.353 61.3885 624.643 62.3045L625.386 60.4475C623.355 59.6355 621.292 58.3136 619.199 56.4526L617.87 57.9474ZM624.643 62.3045C626.914 63.2132 629.224 63.672 631.566 63.672V61.672C629.492 61.672 627.434 61.2668 625.386 60.4475L624.643 62.3045ZM631.566 63.672C633.889 63.672 635.88 63.2438 637.472 62.3107L636.461 60.5853C635.268 61.2842 633.659 61.672 631.566 61.672V63.672ZM637.494 62.2976C639.178 61.2521 640.054 59.6835 640.054 57.704H638.054C638.054 58.9885 637.538 59.9159 636.439 60.5984L637.494 62.2976ZM640.054 57.704C640.054 56.3283 639.614 55.1377 638.629 54.2843L637.319 55.7957C637.775 56.1903 638.054 56.7757 638.054 57.704H640.054ZM638.629 54.2843C637.754 53.5256 636.54 52.9691 635.072 52.564L634.54 54.492C635.856 54.8549 636.755 55.3064 637.319 55.7957L638.629 54.2843ZM635.081 52.5665C633.742 52.1841 632.115 51.7054 630.198 51.1302L629.623 53.0458C631.545 53.6226 633.182 54.1039 634.531 54.4895L635.081 52.5665ZM630.201 51.1311C627.543 50.3243 625.336 49.5008 623.57 48.6643L622.714 50.4717C624.596 51.3632 626.901 52.2197 629.62 53.0449L630.201 51.1311ZM623.589 48.6736C621.872 47.8149 620.649 46.8079 619.856 45.6805L618.22 46.8315C619.251 48.2961 620.764 49.4971 622.695 50.4624L623.589 48.6736ZM619.856 45.6805C619.091 44.5937 618.67 43.1541 618.67 41.288H616.67C616.67 43.4538 617.161 45.3263 618.22 46.8315L619.856 45.6805ZM618.67 41.288C618.67 37.9305 619.908 35.409 622.367 33.5971L621.181 31.9869C618.168 34.207 616.67 37.3495 616.67 41.288H618.67ZM622.376 33.5903C624.895 31.6907 628.24 30.696 632.502 30.696V28.696C627.932 28.696 624.126 29.7653 621.172 31.9937L622.376 33.5903ZM632.502 30.696C635.132 30.696 637.531 31.1109 639.711 31.9283L640.413 30.0557C637.985 29.1451 635.345 28.696 632.502 28.696V30.696ZM639.734 31.9368C641.942 32.7028 643.877 33.917 645.547 35.5871L646.961 34.1729C645.079 32.291 642.886 30.9132 640.39 30.0472L639.734 31.9368ZM645.413 34.3387L642.029 39.5947L643.711 40.6773L647.095 35.4213L645.413 34.3387ZM643.544 39.397C640.12 36.2752 636.286 34.672 632.07 34.672V36.672C635.726 36.672 639.092 38.0448 642.196 40.875L643.544 39.397ZM632.07 34.672C630.209 34.672 628.459 35.0348 626.835 35.7686L627.658 37.5914C629.009 36.9812 630.476 36.672 632.07 36.672V34.672ZM626.823 35.7738C625.937 36.1873 625.233 36.8003 624.76 37.6203C624.292 38.4316 624.086 39.3825 624.086 40.424H626.086C626.086 39.6415 626.24 39.0564 626.492 38.6197C626.739 38.1917 627.115 37.8447 627.669 37.5862L626.823 35.7738ZM624.086 40.424C624.086 41.3343 624.279 42.1766 624.71 42.9102C625.142 43.6466 625.779 44.2135 626.57 44.6238L627.491 42.8482C626.986 42.5865 626.65 42.2654 626.435 41.8978C626.217 41.5274 626.086 41.0497 626.086 40.424H624.086ZM626.57 44.6238C627.948 45.3384 629.938 46.0794 632.501 46.8533L633.079 44.9387C630.555 44.1766 628.704 43.4776 627.491 42.8482L626.57 44.6238ZM632.503 46.8538C635.36 47.7109 637.797 48.5636 639.82 49.4104L640.592 47.5656C638.487 46.6844 635.981 45.8091 633.078 44.9382L632.503 46.8538ZM639.846 49.4208C641.844 50.1929 643.291 51.1863 644.258 52.3627L645.803 51.0933C644.561 49.5817 642.792 48.4151 640.567 47.5552L639.846 49.4208ZM644.283 52.3924C645.225 53.4522 645.758 54.9871 645.758 57.128H647.758C647.758 54.6609 647.14 52.5958 645.778 51.0636L644.283 52.3924ZM645.758 57.128C645.758 60.4857 644.519 63.0364 642.052 64.8977L643.256 66.4943C646.261 64.2276 647.758 61.0662 647.758 57.128H645.758ZM642.061 64.8909C639.544 66.7458 636.171 67.72 631.854 67.72V69.72C636.465 69.72 640.293 68.6782 643.247 66.5011L642.061 64.8909Z" fill="black"/>
</svg>
