<svg width="204" height="283" viewBox="0 0 204 283" fill="none" xmlns="http://www.w3.org/2000/svg">
<path d="M138.848 247.711L149.248 226.57" stroke="url(#paint0_linear)"/>
<path d="M133.775 245.573L131.963 228.74" stroke="url(#paint1_linear)"/>
<path d="M130.966 246.288L123.373 229.355" stroke="url(#paint2_linear)"/>
<path d="M136.467 245.696L140.327 227.943" stroke="url(#paint3_linear)"/>
<path d="M130.036 247.214L119.208 229.906" stroke="url(#paint4_linear)"/>
<path d="M132.371 245.93L127.573 229.109" stroke="url(#paint5_linear)"/>
<path d="M135.008 245.544L135.823 228.221" stroke="url(#paint6_linear)"/>
<path d="M137.734 245.973L144.504 227.494" stroke="url(#paint7_linear)"/>
<path d="M129.52 249.129L115.326 230.223" stroke="url(#paint8_linear)"/>
<path d="M133.371 240.87L136.427 240.541L136.996 245.829L133.94 246.158L133.371 240.87Z" fill="url(#paint9_linear)"/>
<path d="M134.714 244.849C133.168 244.89 131.58 245.213 130.428 245.762C129.874 246.025 129.599 246.479 129.363 246.979C129.127 247.479 128.949 248.071 128.786 248.732C128.461 250.056 128.235 251.663 128.066 253.243C127.727 256.403 127.631 259.435 127.631 259.435L129.304 259.486C129.304 259.486 129.391 256.5 129.721 253.422C129.886 251.883 130.109 250.317 130.402 249.126C130.549 248.53 130.719 248.034 130.878 247.699C131.037 247.363 131.21 247.24 131.146 247.27C131.955 246.885 133.428 246.56 134.758 246.525C136.089 246.489 137.251 246.84 137.485 247.103C137.503 247.123 137.847 247.888 138.06 248.837C138.273 249.786 138.464 250.976 138.612 252.119C138.909 254.405 139.066 256.534 139.066 256.534L140.722 256.419C140.722 256.419 140.571 254.243 140.267 251.898C140.115 250.726 139.921 249.508 139.688 248.473C139.456 247.438 139.298 246.632 138.729 245.992C137.79 244.936 136.261 244.807 134.714 244.849L134.714 244.849Z" fill="url(#paint10_linear)"/>
<path d="M127.183 271.463L137.425 270.877L136.43 256.846L133.985 257.109L133.602 260.246L128.621 260.885L127.953 257.552L125.712 257.793L127.183 271.463Z" fill="#552200"/>
<path d="M137.425 270.877L145.087 270.259L143.052 256.133L136.43 256.846L137.425 270.877Z" fill="#552200"/>
<path d="M115.031 230.356L149.259 226.673C150.909 221.782 153.304 216.812 156.312 211.775L103.849 217.421C108.053 221.372 112.081 225.455 115.031 230.356Z" fill="#66382A"/>
<path d="M130.287 239.226L132.349 239.004L132.811 243.298L130.749 243.52L130.287 239.226Z" stroke="black"/>
<path d="M131.094 243.262C129.597 243.302 128.082 243.616 127.009 244.126L126.795 243.675L127.009 244.126C126.618 244.313 126.406 244.631 126.182 245.106C125.967 245.56 125.798 246.114 125.638 246.765C125.321 248.055 125.097 249.637 124.929 251.21C124.761 252.779 124.653 254.318 124.586 255.466C124.553 256.04 124.531 256.515 124.517 256.847C124.516 256.853 124.516 256.859 124.516 256.864L125.188 256.885C125.189 256.878 125.189 256.871 125.189 256.865C125.203 256.535 125.224 256.063 125.256 255.494C125.319 254.358 125.424 252.833 125.59 251.282C125.756 249.737 125.982 248.144 126.283 246.92C126.434 246.304 126.615 245.774 126.792 245.398C126.892 245.187 126.998 245.039 127.072 244.948C127.09 244.925 127.105 244.907 127.116 244.894C127.126 244.883 127.129 244.879 127.129 244.879C127.129 244.879 127.128 244.881 127.127 244.882C127.125 244.884 127.121 244.889 127.116 244.897C127.111 244.903 127.101 244.918 127.09 244.938C127.082 244.951 127.054 245 127.039 245.07C127.025 245.128 126.99 245.34 127.161 245.522C127.19 245.553 127.22 245.578 127.251 245.598C127.351 245.389 127.457 245.266 127.502 245.212C127.509 245.205 127.514 245.199 127.517 245.194L127.513 245.184L127.298 244.732L127.298 244.732L127.298 244.732C127.306 244.728 127.336 244.714 127.372 244.703C127.389 244.698 127.436 244.683 127.498 244.68C127.54 244.678 127.734 244.671 127.891 244.838C127.937 244.888 127.969 244.94 127.989 244.99C128.828 244.695 130.025 244.468 131.125 244.438C132.456 244.402 133.617 244.754 133.851 245.016L131.094 243.262ZM131.094 243.262C132.653 243.22 133.952 243.373 134.722 244.238C135.174 244.747 135.318 245.385 135.549 246.415C135.555 246.442 135.561 246.469 135.567 246.496C135.794 247.51 135.986 248.712 136.137 249.876C136.288 251.04 136.401 252.164 136.477 252.997C136.508 253.344 136.533 253.641 136.551 253.869L131.094 243.262Z" stroke="black"/>
<path d="M130.031 258.656L130.416 258.606L130.464 258.221L130.799 255.477L132.334 255.312L133.256 268.321L123.995 268.851L122.628 256.15L123.918 256.011L124.496 258.897L124.588 259.354L125.05 259.295L130.031 258.656Z" stroke="black"/>
<path d="M140.883 267.716L134.254 268.251L133.329 255.204L138.992 254.595L140.883 267.716Z" stroke="black"/>
<path d="M151.739 210.292C149.015 214.956 146.817 219.57 145.253 224.123L111.658 227.738C108.876 223.205 105.194 219.371 101.345 215.716L151.739 210.292Z" stroke="black"/>
<path fill-rule="evenodd" clip-rule="evenodd" d="M98.4718 14.6914C96.5049 15.897 88.1219 18.179 95.9166 90.6064C98.966 118.942 113.186 172.432 125.116 211.892C126.948 213.245 135.327 211.979 136.007 210.677C134.416 164.23 134.823 128.183 130.231 85.5169C123.582 23.7371 110.939 13.1505 110.939 13.1505C106.885 11.958 100.724 13.3108 98.4718 14.6914Z" fill="#FF847C"/>
<path d="M99.2776 14.1732C96.8819 14.4156 54.191 7.32603 63.7413 96.0661C67.7852 133.642 112.648 207.093 116.15 212.779C117.324 213.956 123.893 213.012 125.176 211.901C116.941 171.021 101.034 131.753 95.9165 90.606C87.1702 9.33688 99.2776 14.1732 99.2776 14.1732Z" fill="#FDF5D6"/>
<path d="M130.232 85.5167C123.872 26.4207 110.939 13.1503 110.939 13.1503C110.939 13.1503 153.658 -3.05362 162.934 83.1365C166.745 118.551 161.711 171.267 145.625 209.7C143.863 211.168 138.23 211.525 136.038 210.735C134.21 165.47 134.836 128.3 130.232 85.5168L130.232 85.5167Z" fill="#FDF5D6"/>
<path d="M145.722 209.518C145.722 209.518 167.973 129.968 162.933 83.1367C154.766 7.24413 118.527 12.2106 118.527 12.2106C118.527 12.2106 180.947 -0.649366 189.835 81.9334C195.01 130.02 153.228 208.882 153.228 208.882C150.918 210.357 148.469 210.301 145.722 209.518Z" fill="#FF847C"/>
<path d="M107.42 213.759C101.396 207.31 41.9085 142.699 37.4305 101.09C28.9988 22.7436 83.0595 17.5059 83.0595 17.5059C83.0595 17.5059 56.1912 25.9067 63.7418 96.0662C67.7293 133.118 112.353 206.677 116.114 212.724C115.348 214.068 108.612 214.856 107.42 213.759Z" fill="#FF847C"/>
<path d="M159.245 208.198C159.245 208.198 212.583 133.391 207.022 81.7131C199.015 7.32034 135.59 12.0043 135.59 12.0043C135.59 12.0043 182.383 12.8788 189.755 81.3752C195.041 130.496 153.26 208.735 153.26 208.735C155.677 209.414 157.686 209.745 159.245 208.198Z" fill="#FDF5D6"/>
<path d="M107.414 213.747C101.349 207.193 41.8281 141.951 37.4307 101.09C28.971 22.4832 83.0596 17.5062 83.0596 17.5062C83.0596 17.5062 11.1294 27.7898 19.5564 106.092C24.4528 151.59 93.5954 206.691 103.365 214.268C105.073 215.289 106.933 215.178 107.414 213.747Z" fill="#FDF5D6"/>
<path d="M159.747 207.521C159.747 207.521 222.535 139.824 216.369 82.5314C208.68 11.0876 135.59 12.0042 135.59 12.0042C135.59 12.0042 199.061 7.7399 207.022 81.7129C212.528 132.871 159.747 207.521 159.747 207.521Z" fill="#FF847C"/>
<path d="M99.5759 214.595C88.4134 206.743 18.9455 156.09 13.7887 108.173C6.01552 35.9452 71.3382 20.8154 71.3382 20.8154C71.3382 20.8154 11.976 35.6618 19.5558 106.092C24.4141 151.236 93.4269 206.517 103.329 214.236C102.265 215.498 100.598 215.337 99.5759 214.595Z" fill="#FF847C"/>
<path d="M92.6778 89.1999C88.7813 52.9936 88.9346 34.3674 90.2929 24.657C90.9721 19.8016 91.9473 17.2181 92.8356 15.7874C93.2765 15.0772 93.6967 14.6499 94.0526 14.3675C94.3209 14.1546 94.543 14.0276 94.7555 13.9062C94.8368 13.8597 94.9167 13.814 94.9972 13.7647C96.0433 13.1235 98.0729 12.454 100.371 12.0971C102.62 11.7476 105.041 11.7114 106.952 12.2458C106.965 12.258 106.98 12.2721 106.996 12.288C107.081 12.3716 107.211 12.5063 107.383 12.7022C107.725 13.094 108.232 13.7306 108.865 14.6919C110.131 16.6149 111.904 19.8358 113.889 24.9929C117.861 35.309 122.677 53.3549 125.998 84.2174C129.371 115.553 130.045 143.306 130.796 174.261C131.066 185.376 131.346 196.904 131.765 209.159C131.758 209.165 131.75 209.172 131.741 209.179C131.675 209.232 131.58 209.294 131.45 209.363C131.19 209.5 130.832 209.64 130.393 209.775C129.517 210.046 128.378 210.279 127.194 210.431C126.01 210.584 124.8 210.653 123.784 210.604C123.275 210.579 122.826 210.525 122.457 210.441C122.173 210.376 121.958 210.298 121.805 210.217C109.885 170.77 95.7171 117.44 92.6778 89.1999Z" stroke="black"/>
<path d="M92.9357 13.2694C92.9974 13.2693 93.0582 13.2693 93.118 13.2695C92.0806 14.3233 90.9666 16.4083 90.0921 20.4556C88.1402 29.4902 87.3095 48.6684 91.6829 89.307L91.684 89.3152C94.2478 109.929 99.5132 130.064 105.16 150.136C106.087 153.433 107.025 156.728 107.962 160.023C112.707 176.695 117.452 193.371 120.884 210.324C120.79 210.377 120.674 210.434 120.536 210.493C120.257 210.612 119.912 210.729 119.519 210.838C118.733 211.057 117.781 211.238 116.828 211.349C115.873 211.461 114.935 211.5 114.176 211.443C113.796 211.415 113.475 211.364 113.224 211.292C113.006 211.229 112.874 211.16 112.802 211.103C110.926 208.055 98.9248 188.392 86.8578 164.801C80.7825 152.924 74.6938 140.058 69.8726 127.819C65.0485 115.574 61.5058 103.987 60.5021 94.6601C55.7323 50.3397 64.0315 30.1288 73.6389 20.9419C78.4429 16.3481 83.6089 14.4742 87.7238 13.7317C89.7825 13.3602 91.5788 13.272 92.9357 13.2694Z" stroke="black"/>
<path d="M108.064 12.0449C108.35 11.9611 108.721 11.8607 109.169 11.7569C110.33 11.4881 112.004 11.1969 114.043 11.1122C118.12 10.9428 123.653 11.5984 129.475 14.9044C141.107 21.5096 154.069 38.8059 158.7 81.8374C162.5 117.146 157.486 169.702 141.477 208.035C141.11 208.307 140.542 208.555 139.82 208.758C139.046 208.975 138.139 209.129 137.211 209.214C135.515 209.369 133.829 209.289 132.787 209.01C132.236 195.276 131.909 182.279 131.591 169.637C130.866 140.792 130.187 113.795 126.992 84.1108L126.992 84.1107C123.809 54.5325 118.979 36.3976 114.932 25.6439C112.908 20.2664 111.08 16.7326 109.75 14.5357C109.086 13.4373 108.545 12.6729 108.168 12.1795C108.131 12.1322 108.097 12.0873 108.064 12.0449Z" stroke="black"/>
<path d="M142.602 207.814C142.634 207.694 142.673 207.553 142.717 207.392C142.879 206.796 143.116 205.918 143.416 204.783C144.015 202.514 144.865 199.221 145.87 195.123C147.878 186.927 150.504 175.511 152.973 162.63C157.906 136.885 162.223 105.226 159.695 81.7301C155.603 43.7138 144.469 25.8338 134.248 17.4739C129.139 13.2949 124.277 11.5122 120.681 10.7775C120.595 10.7598 120.508 10.7427 120.423 10.7261C121.673 10.6559 123.102 10.6163 124.676 10.6385C130.622 10.7226 138.634 11.6887 146.917 15.2106C163.439 22.2361 181.174 39.4915 185.602 80.6339C188.176 104.547 179.067 136.185 169.269 161.909C164.375 174.758 159.32 186.106 155.487 194.243C153.571 198.311 151.961 201.575 150.83 203.822C150.265 204.945 149.82 205.814 149.516 206.402C149.364 206.696 149.247 206.92 149.169 207.07L149.112 207.177C147.133 208.394 145.028 208.434 142.602 207.814Z" stroke="black"/>
<path d="M76.2641 17.204C75.852 17.4788 75.4064 17.7984 74.9343 18.1688C72.478 20.0961 69.3103 23.393 66.3912 28.8892C60.5548 39.8782 55.7267 59.6292 59.5083 94.7672C60.5124 104.097 64.0687 115.692 68.8767 127.905C73.6876 140.127 79.7646 153 85.831 164.896C97.5905 187.958 109.323 207.375 111.75 211.308C111.705 211.34 111.651 211.375 111.585 211.412C111.365 211.538 111.069 211.662 110.709 211.779C109.991 212.012 109.074 212.197 108.132 212.308C107.19 212.419 106.245 212.454 105.474 212.398C105.088 212.37 104.757 212.319 104.498 212.249C104.243 212.18 104.1 212.104 104.033 212.048C100.986 208.785 84.6521 191.06 68.5128 168.962C60.4289 157.894 52.4001 145.736 46.1147 133.757C39.8257 121.77 35.301 109.995 34.1913 99.6841C29.9892 60.6383 41.3615 39.9139 53.6794 28.9388C59.8502 23.4407 66.2825 20.3671 71.172 18.6682C73.1692 17.9742 74.9078 17.5101 76.2641 17.204Z" stroke="black"/>
<path d="M150.257 207.063C150.31 206.963 150.369 206.849 150.435 206.723C150.74 206.136 151.187 205.27 151.754 204.151C152.888 201.912 154.502 198.66 156.421 194.604C160.259 186.493 165.322 175.166 170.221 162.301C180.007 136.596 189.173 104.658 186.516 79.9689C182.816 45.5961 169.211 28.1143 156.457 19.2404C150.089 14.8097 143.952 12.5381 139.404 11.374C139.319 11.3522 139.234 11.3307 139.15 11.3096C139.986 11.3777 140.882 11.4657 141.83 11.5785C147.862 12.2972 155.984 14.025 164.35 18.059C181.052 26.1121 198.804 43.3893 202.788 80.4138C205.552 106.097 193.672 137.603 181.036 162.758C174.725 175.321 168.24 186.272 163.333 194.083C160.879 197.989 158.82 201.108 157.375 203.251C156.653 204.322 156.084 205.149 155.696 205.708C155.502 205.987 155.353 206.199 155.253 206.342C155.203 206.413 155.165 206.466 155.14 206.502L155.127 206.52C153.911 207.7 152.372 207.61 150.257 207.063Z" stroke="black"/>
<path d="M44.7064 31.4869C50.225 27.4582 55.8581 24.475 60.9376 22.2849C58.3371 23.8372 55.6473 25.7468 53.0044 28.094C40.3953 39.2924 28.9537 60.3608 33.1973 99.7911C34.3065 110.098 38.8846 121.903 45.189 133.889C51.4974 145.883 59.5542 158.095 67.6564 169.225C83.4981 190.987 99.5373 208.644 103.086 212.491C102.883 212.83 102.534 213.026 102.06 213.077C101.463 213.141 100.689 212.96 99.911 212.501C94.994 208.686 75.3231 193.053 56.2619 172.706C46.7154 162.515 37.3311 151.151 30.0306 139.505C22.7269 127.854 17.5298 115.954 16.3172 104.686C12.1243 65.726 27.9101 43.7486 44.7064 31.4869Z" stroke="black"/>
<path d="M203.783 80.3067C200.093 46.0163 184.51 28.402 168.754 19.3996C168.888 19.459 169.021 19.5188 169.154 19.5791C188.26 28.2226 208.314 45.72 212.136 81.2321C215.2 109.703 201.125 140.826 186.209 164.895C178.759 176.917 171.116 187.153 165.335 194.383C163.665 196.471 162.151 198.309 160.842 199.865C161.938 198.181 163.203 196.203 164.596 193.969C169.464 186.162 175.898 175.218 182.16 162.672C194.67 137.608 206.552 106.042 203.783 80.3067Z" stroke="black"/>
<path d="M96.1332 212.838L96.1273 212.833C90.5567 208.915 70.4263 194.308 51.0495 174.704C41.3612 164.902 31.871 153.861 24.4839 142.29C17.0947 130.717 11.8275 118.641 10.5495 106.767C6.68286 70.8381 20.9865 49.1567 36.2325 36.44C39.3375 33.8501 42.483 31.6311 45.5241 29.7394C43.2166 31.369 40.862 33.2207 38.5336 35.3181C24.5292 47.9338 11.5142 69.4079 15.3223 104.793C16.5484 116.185 21.8153 128.179 29.1426 139.862C36.4732 151.55 45.8874 162.959 55.4495 173.187C74.0308 193.062 93.205 208.512 98.828 212.92C97.9932 213.53 96.8864 213.384 96.1332 212.838Z" stroke="black"/>
<path d="M159.162 208.462L156.172 211.773" stroke="black"/>
<path d="M153.313 208.73L151.604 212.174" stroke="black"/>
<path d="M145.713 209.548L144.799 212.816" stroke="black"/>
<path d="M135.889 210.695L135.958 213.857" stroke="black"/>
<path d="M125.082 211.949L125.588 214.974" stroke="black"/>
<path d="M116.043 212.831L117.453 215.849" stroke="black"/>
<path d="M107.281 213.774L109.754 216.587" stroke="black"/>
<path d="M102.98 214.146L106.734 217.094" stroke="black"/>
<path d="M100.167 214.903L103.972 217.482" stroke="black"/>
<defs>
<linearGradient id="paint0_linear" x1="139.154" y1="246.971" x2="149.051" y2="226.945" gradientUnits="userSpaceOnUse">
<stop/>
<stop offset="1" stop-color="#FBFBFB"/>
</linearGradient>
<linearGradient id="paint1_linear" x1="-nan" y1="-nan" x2="-nan" y2="-nan" gradientUnits="userSpaceOnUse">
<stop/>
<stop offset="1" stop-color="#FBFBFB"/>
</linearGradient>
<linearGradient id="paint2_linear" x1="130.875" y1="245.741" x2="123.269" y2="229.375" gradientUnits="userSpaceOnUse">
<stop/>
<stop offset="1" stop-color="#FBFBFB"/>
</linearGradient>
<linearGradient id="paint3_linear" x1="136.507" y1="245.341" x2="140.371" y2="227.802" gradientUnits="userSpaceOnUse">
<stop/>
<stop offset="1" stop-color="#FBFBFB"/>
</linearGradient>
<linearGradient id="paint4_linear" x1="129.896" y1="246.741" x2="119.148" y2="229.856" gradientUnits="userSpaceOnUse">
<stop/>
<stop offset="1" stop-color="#FBFBFB"/>
</linearGradient>
<linearGradient id="paint5_linear" x1="132.222" y1="245.287" x2="127.426" y2="228.8" gradientUnits="userSpaceOnUse">
<stop/>
<stop offset="1" stop-color="#FBFBFB"/>
</linearGradient>
<linearGradient id="paint6_linear" x1="135.277" y1="245.03" x2="135.908" y2="227.958" gradientUnits="userSpaceOnUse">
<stop/>
<stop offset="1" stop-color="#FBFBFB"/>
</linearGradient>
<linearGradient id="paint7_linear" x1="137.88" y1="245.461" x2="144.591" y2="227.128" gradientUnits="userSpaceOnUse">
<stop/>
<stop offset="1" stop-color="#FBFBFB"/>
</linearGradient>
<linearGradient id="paint8_linear" x1="129.142" y1="248.688" x2="115.141" y2="230.248" gradientUnits="userSpaceOnUse">
<stop/>
<stop offset="1" stop-color="#FBFBFB"/>
</linearGradient>
<linearGradient id="paint9_linear" x1="133.656" y1="243.514" x2="136.712" y2="243.185" gradientUnits="userSpaceOnUse">
<stop stop-color="#826F30"/>
<stop offset="0.5" stop-color="#C8B369"/>
<stop offset="1" stop-color="#826F30"/>
</linearGradient>
<linearGradient id="paint10_linear" x1="126.905" y1="252.696" x2="140.216" y2="251.263" gradientUnits="userSpaceOnUse">
<stop stop-color="#333333"/>
<stop offset="0.556029" stop-color="#BBBBBB"/>
<stop offset="1" stop-color="#333333"/>
</linearGradient>
</defs>
</svg>
