<svg width="657" height="87" viewBox="0 0 657 87" fill="none" xmlns="http://www.w3.org/2000/svg">
<path d="M48.744 70V33.568L33.696 61.216H28.944L13.824 33.568V70H5.76V18.88H14.4L31.32 50.128L48.24 18.88H56.88V70H48.744ZM98.6484 30.904C98.0244 30.184 96.9924 29.44 95.5524 28.672C94.1604 27.856 92.5284 27.16 90.6564 26.584C88.7844 26.008 86.8404 25.72 84.8244 25.72C81.4164 25.72 78.8964 26.344 77.2644 27.592C75.6804 28.84 74.8884 30.568 74.8884 32.776C74.8884 34.408 75.3444 35.704 76.2564 36.664C77.1684 37.576 78.5604 38.368 80.4324 39.04C82.3044 39.664 84.6564 40.312 87.4884 40.984C90.9444 41.8 93.9204 42.784 96.4164 43.936C98.9604 45.04 100.904 46.528 102.248 48.4C103.64 50.272 104.336 52.744 104.336 55.816C104.336 59.32 103.496 62.152 101.816 64.312C100.136 66.472 97.8564 68.056 94.9764 69.064C92.1444 70.024 89.0244 70.504 85.6164 70.504C81.7284 70.504 77.9604 69.904 74.3124 68.704C70.6644 67.504 67.4004 65.8 64.5204 63.592L68.1924 56.68C69.0084 57.496 70.3044 58.432 72.0804 59.488C73.8564 60.496 75.9204 61.384 78.2724 62.152C80.6724 62.872 83.1684 63.232 85.7604 63.232C88.9284 63.232 91.3764 62.68 93.1044 61.576C94.8324 60.424 95.6964 58.792 95.6964 56.68C95.6964 54.952 95.1204 53.584 93.9684 52.576C92.8644 51.52 91.2564 50.656 89.1444 49.984C87.0804 49.264 84.5844 48.52 81.6564 47.752C78.2964 46.888 75.4884 45.904 73.2324 44.8C70.9764 43.696 69.2724 42.304 68.1204 40.624C67.0164 38.944 66.4644 36.76 66.4644 34.072C66.4644 30.712 67.2804 27.88 68.9124 25.576C70.5444 23.224 72.7524 21.472 75.5364 20.32C78.3684 19.12 81.5364 18.52 85.0404 18.52C88.4964 18.52 91.6884 19.072 94.6164 20.176C97.5444 21.28 100.112 22.648 102.32 24.28L98.6484 30.904ZM147.488 62.872V70H112.424V18.88H146.84V26.008H120.488V40.552H143.312V47.248H120.488V62.872H147.488ZM173.596 70V18.88H207.652V26.008H181.66V41.272H203.404V47.968H181.66V70H173.596ZM228.953 70.72C225.017 70.72 221.585 69.832 218.657 68.056C215.777 66.232 213.545 63.856 211.961 60.928C210.377 57.952 209.585 54.712 209.585 51.208C209.585 47.704 210.377 44.488 211.961 41.56C213.593 38.584 215.849 36.208 218.729 34.432C221.657 32.608 225.065 31.696 228.953 31.696C232.841 31.696 236.225 32.608 239.105 34.432C242.033 36.208 244.289 38.584 245.873 41.56C247.505 44.488 248.321 47.704 248.321 51.208C248.321 54.712 247.529 57.952 245.945 60.928C244.361 63.856 242.105 66.232 239.177 68.056C236.297 69.832 232.889 70.72 228.953 70.72ZM217.721 51.28C217.721 53.68 218.225 55.84 219.233 57.76C220.241 59.68 221.585 61.192 223.265 62.296C224.945 63.4 226.841 63.952 228.953 63.952C231.017 63.952 232.889 63.4 234.569 62.296C236.297 61.144 237.665 59.608 238.673 57.688C239.681 55.768 240.185 53.608 240.185 51.208C240.185 48.808 239.681 46.648 238.673 44.728C237.665 42.808 236.297 41.296 234.569 40.192C232.889 39.04 231.017 38.464 228.953 38.464C226.889 38.464 224.993 39.04 223.265 40.192C221.585 41.296 220.241 42.832 219.233 44.8C218.225 46.72 217.721 48.88 217.721 51.28ZM276.514 39.184C273.442 39.28 270.706 40 268.306 41.344C265.954 42.64 264.274 44.512 263.266 46.96V70H255.346V32.344H262.69V40.768C263.986 38.176 265.69 36.112 267.802 34.576C269.914 32.992 272.146 32.128 274.498 31.984C274.93 31.984 275.314 31.984 275.65 31.984C275.986 31.984 276.274 32.008 276.514 32.056V39.184ZM339.875 70H331.955V48.904C331.955 45.448 331.379 42.904 330.227 41.272C329.075 39.592 327.395 38.752 325.187 38.752C322.979 38.752 320.915 39.592 318.995 41.272C317.123 42.904 315.803 45.04 315.035 47.68V70H307.115V48.904C307.115 45.352 306.539 42.784 305.387 41.2C304.235 39.568 302.579 38.752 300.419 38.752C298.211 38.752 296.147 39.568 294.227 41.2C292.355 42.832 291.011 44.968 290.195 47.608V70H282.275V32.344H289.475V39.904C290.915 37.264 292.859 35.248 295.307 33.856C297.755 32.416 300.539 31.696 303.659 31.696C306.779 31.696 309.227 32.512 311.003 34.144C312.827 35.776 313.955 37.816 314.387 40.264C317.651 34.552 322.379 31.696 328.571 31.696C331.547 31.696 333.851 32.416 335.483 33.856C337.115 35.248 338.243 37.12 338.867 39.472C339.539 41.776 339.875 44.296 339.875 47.032V70Z" fill="black"/>
<path d="M51.7901 68H50.7901V69H51.7901V68ZM51.7901 31.568H52.7901L50.9118 31.0899L51.7901 31.568ZM36.7421 59.216V60.216H37.3364L37.6205 59.6941L36.7421 59.216ZM31.9901 59.216L31.1128 59.6958L31.3972 60.216H31.9901V59.216ZM16.8701 31.568L17.7475 31.0882L15.8701 31.568H16.8701ZM16.8701 68V69H17.8701V68H16.8701ZM8.80614 68H7.80614V69H8.80614V68ZM8.80614 16.88V15.88H7.80614V16.88H8.80614ZM17.4461 16.88L18.3255 16.4038L18.0419 15.88H17.4461V16.88ZM34.3661 48.128L33.4868 48.6042L34.3661 50.2282L35.2455 48.6042L34.3661 48.128ZM51.2861 16.88V15.88H50.6904L50.4068 16.4038L51.2861 16.88ZM59.9261 16.88H60.9261V15.88H59.9261V16.88ZM59.9261 68V69H60.9261V68H59.9261ZM52.7901 68V31.568H50.7901V68H52.7901ZM50.9118 31.0899L35.8638 58.7379L37.6205 59.6941L52.6685 32.046L50.9118 31.0899ZM36.7421 58.216H31.9901V60.216H36.7421V58.216ZM32.8675 58.7362L17.7475 31.0882L15.9928 32.0478L31.1128 59.6958L32.8675 58.7362ZM15.8701 31.568V68H17.8701V31.568H15.8701ZM16.8701 67H8.80614V69H16.8701V67ZM9.80614 68V16.88H7.80614V68H9.80614ZM8.80614 17.88H17.4461V15.88H8.80614V17.88ZM16.5668 17.3561L33.4868 48.6042L35.2455 47.6518L18.3255 16.4038L16.5668 17.3561ZM35.2455 48.6042L52.1655 17.3561L50.4068 16.4038L33.4868 47.6518L35.2455 48.6042ZM51.2861 17.88H59.9261V15.88H51.2861V17.88ZM58.9261 16.88V68H60.9261V16.88H58.9261ZM59.9261 67H51.7901V69H59.9261V67ZM101.695 28.904L100.939 29.5589L101.876 30.6398L102.569 29.3888L101.695 28.904ZM98.5986 26.672L98.0929 27.5347L98.1102 27.5449L98.128 27.5544L98.5986 26.672ZM93.7026 24.584L93.9967 23.6282L93.9967 23.6282L93.7026 24.584ZM80.3106 25.592L79.7031 24.7976L79.6974 24.802L79.6917 24.8065L80.3106 25.592ZM79.3026 34.664L78.5776 35.3527L78.5864 35.362L78.5955 35.3711L79.3026 34.664ZM83.4786 37.04L83.1407 37.9812L83.1515 37.9851L83.1624 37.9887L83.4786 37.04ZM90.5346 38.984L90.3037 39.957L90.3048 39.9572L90.5346 38.984ZM99.4626 41.936L99.0435 42.844L99.054 42.8488L99.0645 42.8533L99.4626 41.936ZM105.295 46.4L104.482 46.9832L104.487 46.99L104.492 46.9967L105.295 46.4ZM98.0226 67.064L98.3436 68.0111L98.3529 68.0079L98.0226 67.064ZM77.3586 66.704L77.0461 67.6539L77.3586 66.704ZM67.5666 61.592L66.6835 61.1228L66.2863 61.8705L66.9581 62.3856L67.5666 61.592ZM71.2386 54.68L71.9457 53.9729L70.9897 53.0169L70.3555 54.2108L71.2386 54.68ZM75.1266 57.488L74.6155 58.3475L74.6242 58.3527L74.633 58.3577L75.1266 57.488ZM81.3186 60.152L81.0082 61.1026L81.0197 61.1064L81.0312 61.1098L81.3186 60.152ZM96.1506 59.576L96.689 60.4187L96.6972 60.4135L96.7053 60.408L96.1506 59.576ZM97.0146 50.576L96.3234 51.2986L96.3394 51.314L96.3561 51.3286L97.0146 50.576ZM92.1906 47.984L91.8612 48.9282L91.8742 48.9327L91.8874 48.9369L92.1906 47.984ZM84.7026 45.752L84.9563 44.7847L84.9516 44.7835L84.7026 45.752ZM76.2786 42.8L75.839 43.6982L75.839 43.6982L76.2786 42.8ZM71.1666 38.624L70.3309 39.1732L70.3363 39.1814L70.3419 39.1895L71.1666 38.624ZM71.9586 23.576L72.7746 24.154L72.7802 24.1461L71.9586 23.576ZM78.5826 18.32L78.9649 19.244L78.9727 19.2407L78.5826 18.32ZM97.6626 18.176L98.0154 17.2403L98.0154 17.2403L97.6626 18.176ZM105.367 22.28L106.241 22.7648L106.667 21.9974L105.961 21.4758L105.367 22.28ZM102.45 28.2491C101.708 27.3931 100.551 26.5802 99.0692 25.7896L98.128 27.5544C99.5257 28.2998 100.433 28.9749 100.939 29.5589L102.45 28.2491ZM99.1043 25.8093C97.6332 24.9469 95.9275 24.2223 93.9967 23.6282L93.4085 25.5398C95.2217 26.0977 96.78 26.7651 98.0929 27.5347L99.1043 25.8093ZM93.9967 23.6282C92.0266 23.022 89.9833 22.72 87.8706 22.72V24.72C89.7898 24.72 91.6346 24.9939 93.4085 25.5398L93.9967 23.6282ZM87.8706 22.72C84.3752 22.72 81.5915 23.3536 79.7031 24.7976L80.918 26.3864C82.2937 25.3344 84.5499 24.72 87.8706 24.72V22.72ZM79.6917 24.8065C77.842 26.2638 76.9346 28.2949 76.9346 30.776H78.9346C78.9346 28.8411 79.6111 27.4162 80.9295 26.3775L79.6917 24.8065ZM76.9346 30.776C76.9346 32.6016 77.4501 34.1659 78.5776 35.3527L80.0276 33.9752C79.3311 33.2421 78.9346 32.2144 78.9346 30.776H76.9346ZM78.5955 35.3711C79.653 36.4286 81.1978 37.2837 83.1407 37.9812L83.8164 36.0988C82.0154 35.4523 80.7762 34.7234 80.0097 33.9569L78.5955 35.3711ZM83.1624 37.9887C85.0722 38.6253 87.455 39.281 90.3037 39.957L90.7655 38.011C87.9501 37.343 85.629 36.7027 83.7948 36.0913L83.1624 37.9887ZM90.3048 39.9572C93.7134 40.7621 96.6229 41.7267 99.0435 42.844L99.8816 41.028C97.3103 39.8413 94.2677 38.8379 90.7644 38.0108L90.3048 39.9572ZM99.0645 42.8533C101.477 43.9001 103.263 45.2853 104.482 46.9832L106.107 45.8168C104.638 43.7707 102.537 42.1799 99.8607 41.0187L99.0645 42.8533ZM104.492 46.9967C105.721 48.6487 106.383 50.8911 106.383 53.816H108.383C108.383 50.5969 107.653 47.8953 106.097 45.8033L104.492 46.9967ZM106.383 53.816C106.383 57.1607 105.582 59.7576 104.073 61.6981L105.652 62.9259C107.503 60.5464 108.383 57.4793 108.383 53.816H106.383ZM104.073 61.6981C102.525 63.6891 100.412 65.1681 97.6922 66.1201L98.3529 68.0079C101.393 66.9439 103.841 65.2549 105.652 62.9259L104.073 61.6981ZM97.7015 66.1169C94.9863 67.0374 91.9764 67.504 88.6626 67.504V69.504C92.1647 69.504 95.3949 69.0106 98.3436 68.0111L97.7015 66.1169ZM88.6626 67.504C84.8794 67.504 81.217 66.9205 77.6711 65.7541L77.0461 67.6539C80.7962 68.8875 84.6698 69.504 88.6626 69.504V67.504ZM77.6711 65.7541C74.1235 64.5871 70.9608 62.9341 68.175 60.7984L66.9581 62.3856C69.9324 64.6659 73.2976 66.4209 77.0461 67.6539L77.6711 65.7541ZM68.4497 62.0612L72.1217 55.1492L70.3555 54.2108L66.6835 61.1228L68.4497 62.0612ZM70.5315 55.3871C71.4351 56.2908 72.8148 57.2768 74.6155 58.3475L75.6377 56.6285C73.8864 55.5872 72.674 54.7012 71.9457 53.9729L70.5315 55.3871ZM74.633 58.3577C76.4779 59.4048 78.6054 60.318 81.0082 61.1026L81.629 59.2014C79.3278 58.45 77.3273 57.5872 75.6202 56.6183L74.633 58.3577ZM81.0312 61.1098C83.5276 61.8587 86.1206 62.232 88.8066 62.232V60.232C86.3085 60.232 83.9095 59.8853 81.6059 59.1942L81.0312 61.1098ZM88.8066 62.232C92.0694 62.232 94.7349 61.6671 96.689 60.4187L95.6122 58.7333C94.1102 59.6929 91.8798 60.232 88.8066 60.232V62.232ZM96.7053 60.408C98.7171 59.0668 99.7426 57.1195 99.7426 54.68H97.7426C97.7426 56.4645 97.04 57.7812 95.5959 58.7439L96.7053 60.408ZM99.7426 54.68C99.7426 52.7051 99.0714 51.047 97.6731 49.8234L96.3561 51.3286C97.2617 52.121 97.7426 53.1989 97.7426 54.68H99.7426ZM97.7058 49.8534C96.4535 48.6555 94.6904 47.73 92.4938 47.0311L91.8874 48.9369C93.9148 49.582 95.3677 50.3845 96.3234 51.2986L97.7058 49.8534ZM92.52 47.0398C90.4237 46.3085 87.9009 45.5571 84.9563 44.7847L84.4489 46.7193C87.3603 47.4829 89.8295 48.2195 91.8612 48.9282L92.52 47.0398ZM84.9516 44.7835C81.6344 43.9305 78.8951 42.9671 76.7181 41.9018L75.839 43.6982C78.1741 44.8409 81.0507 45.8455 84.4535 46.7205L84.9516 44.7835ZM76.7181 41.9018C74.5813 40.8561 73.0255 39.5666 71.9913 38.0585L70.3419 39.1895C71.6117 41.0414 73.4639 42.5359 75.839 43.6982L76.7181 41.9018ZM72.0023 38.0748C71.036 36.6045 70.5106 34.6292 70.5106 32.072H68.5106C68.5106 34.8908 69.0891 37.2835 70.3309 39.1732L72.0023 38.0748ZM70.5106 32.072C70.5106 28.8788 71.2837 26.2589 72.7746 24.154L71.1426 22.998C69.3695 25.5011 68.5106 28.5452 68.5106 32.072H70.5106ZM72.7802 24.1461C74.2969 21.9602 76.3485 20.3267 78.9649 19.244L78.2002 17.396C75.2487 18.6173 72.8843 20.4878 71.137 23.0059L72.7802 24.1461ZM78.9727 19.2407C81.6653 18.0998 84.6981 17.52 88.0866 17.52V15.52C84.4671 15.52 81.1639 16.1402 78.1924 17.3992L78.9727 19.2407ZM88.0866 17.52C91.4346 17.52 94.5057 18.0544 97.3098 19.1117L98.0154 17.2403C94.9634 16.0896 91.6505 15.52 88.0866 15.52V17.52ZM97.3098 19.1117C100.163 20.1876 102.648 21.5139 104.772 23.0842L105.961 21.4758C103.669 19.782 101.018 18.3724 98.0154 17.2403L97.3098 19.1117ZM104.492 21.7952L100.82 28.4192L102.569 29.3888L106.241 22.7648L104.492 21.7952ZM150.534 60.872H151.534V59.872H150.534V60.872ZM150.534 68V69H151.534V68H150.534ZM115.47 68H114.47V69H115.47V68ZM115.47 16.88V15.88H114.47V16.88H115.47ZM149.886 16.88H150.886V15.88H149.886V16.88ZM149.886 24.008V25.008H150.886V24.008H149.886ZM123.534 24.008V23.008H122.534V24.008H123.534ZM123.534 38.552H122.534V39.552H123.534V38.552ZM146.358 38.552H147.358V37.552H146.358V38.552ZM146.358 45.248V46.248H147.358V45.248H146.358ZM123.534 45.248V44.248H122.534V45.248H123.534ZM123.534 60.872H122.534V61.872H123.534V60.872ZM149.534 60.872V68H151.534V60.872H149.534ZM150.534 67H115.47V69H150.534V67ZM116.47 68V16.88H114.47V68H116.47ZM115.47 17.88H149.886V15.88H115.47V17.88ZM148.886 16.88V24.008H150.886V16.88H148.886ZM149.886 23.008H123.534V25.008H149.886V23.008ZM122.534 24.008V38.552H124.534V24.008H122.534ZM123.534 39.552H146.358V37.552H123.534V39.552ZM145.358 38.552V45.248H147.358V38.552H145.358ZM146.358 44.248H123.534V46.248H146.358V44.248ZM122.534 45.248V60.872H124.534V45.248H122.534ZM123.534 61.872H150.534V59.872H123.534V61.872ZM176.642 68H175.642V69H176.642V68ZM176.642 16.88V15.88H175.642V16.88H176.642ZM210.698 16.88H211.698V15.88H210.698V16.88ZM210.698 24.008V25.008H211.698V24.008H210.698ZM184.706 24.008V23.008H183.706V24.008H184.706ZM184.706 39.272H183.706V40.272H184.706V39.272ZM206.45 39.272H207.45V38.272H206.45V39.272ZM206.45 45.968V46.968H207.45V45.968H206.45ZM184.706 45.968V44.968H183.706V45.968H184.706ZM184.706 68V69H185.706V68H184.706ZM177.642 68V16.88H175.642V68H177.642ZM176.642 17.88H210.698V15.88H176.642V17.88ZM209.698 16.88V24.008H211.698V16.88H209.698ZM210.698 23.008H184.706V25.008H210.698V23.008ZM183.706 24.008V39.272H185.706V24.008H183.706ZM184.706 40.272H206.45V38.272H184.706V40.272ZM205.45 39.272V45.968H207.45V39.272H205.45ZM206.45 44.968H184.706V46.968H206.45V44.968ZM183.706 45.968V68H185.706V45.968H183.706ZM184.706 67H176.642V69H184.706V67ZM221.703 66.056L221.168 66.9008L221.177 66.906L221.185 66.911L221.703 66.056ZM215.007 58.928L214.125 59.3979L214.128 59.4038L215.007 58.928ZM215.007 39.56L214.131 39.0792L214.128 39.0842L215.007 39.56ZM221.775 32.432L222.3 33.2832L222.304 33.2808L221.775 32.432ZM242.151 32.432L241.616 33.2768L241.625 33.282L241.633 33.287L242.151 32.432ZM248.919 39.56L248.037 40.0298L248.041 40.0384L248.046 40.0469L248.919 39.56ZM248.991 58.928L249.871 59.4038L249.874 59.3978L248.991 58.928ZM242.223 66.056L242.748 66.9072L242.752 66.9048L242.223 66.056ZM222.279 55.76L221.394 56.2248L221.394 56.2248L222.279 55.76ZM226.311 60.296L226.861 59.4603L226.861 59.4603L226.311 60.296ZM237.615 60.296L238.165 61.1317L238.17 61.128L237.615 60.296ZM241.719 55.688L242.605 56.1528L242.605 56.1528L241.719 55.688ZM241.719 42.728L240.834 43.1928L240.834 43.1928L241.719 42.728ZM237.615 38.192L237.05 39.0167L237.063 39.0259L237.077 39.0347L237.615 38.192ZM226.311 38.192L226.861 39.0277L226.866 39.024L226.311 38.192ZM222.279 42.8L223.165 43.2649L223.169 43.2559L222.279 42.8ZM231.999 67.72C228.218 67.72 224.971 66.8687 222.222 65.201L221.185 66.911C224.291 68.7953 227.908 69.72 231.999 69.72V67.72ZM222.238 65.2112C219.499 63.4764 217.388 61.226 215.887 58.4522L214.128 59.4038C215.795 62.486 218.147 64.9876 221.168 66.9008L222.238 65.2112ZM215.89 58.4582C214.386 55.6326 213.631 52.5548 213.631 49.208H211.631C211.631 52.8692 212.461 56.2714 214.125 59.3978L215.89 58.4582ZM213.631 49.208C213.631 45.8611 214.386 42.8099 215.887 40.0358L214.128 39.0842C212.461 42.1661 211.631 45.5469 211.631 49.208H213.631ZM215.884 40.0408C217.433 37.2162 219.568 34.968 222.3 33.2832L221.251 31.5808C218.223 33.448 215.846 35.9518 214.131 39.0792L215.884 40.0408ZM222.304 33.2808C225.054 31.5678 228.274 30.696 231.999 30.696V28.696C227.949 28.696 224.353 29.6482 221.247 31.5832L222.304 33.2808ZM231.999 30.696C235.725 30.696 238.918 31.5679 241.616 33.2768L242.686 31.5872C239.625 29.6481 236.05 28.696 231.999 28.696V30.696ZM241.633 33.287C244.41 34.9713 246.539 37.2153 248.037 40.0298L249.802 39.0902C248.132 35.9527 245.749 33.4447 242.67 31.577L241.633 33.287ZM248.046 40.0469C249.591 42.8192 250.367 45.8664 250.367 49.208H252.367C252.367 45.5416 251.512 42.1568 249.793 39.0731L248.046 40.0469ZM250.367 49.208C250.367 52.5548 249.613 55.6326 248.109 58.4582L249.874 59.3978C251.538 56.2714 252.367 52.8692 252.367 49.208H250.367ZM248.112 58.4522C246.614 61.2219 244.481 63.4715 241.695 65.2072L242.752 66.9048C245.822 64.9925 248.201 62.4901 249.871 59.4038L248.112 58.4522ZM241.699 65.2048C239.001 66.8686 235.781 67.72 231.999 67.72V69.72C236.09 69.72 239.686 68.7954 242.748 66.9072L241.699 65.2048ZM219.767 49.28C219.767 51.8243 220.303 54.1467 221.394 56.2248L223.165 55.2952C222.24 53.5333 221.767 51.5356 221.767 49.28H219.767ZM221.394 56.2248C222.474 58.2828 223.929 59.9273 225.762 61.1317L226.861 59.4603C225.333 58.4567 224.1 57.0772 223.165 55.2952L221.394 56.2248ZM225.762 61.1317C227.614 62.3485 229.703 62.952 231.999 62.952V60.952C230.072 60.952 228.369 60.4515 226.861 59.4603L225.762 61.1317ZM231.999 62.952C234.253 62.952 236.317 62.3459 238.165 61.1317L237.066 59.4603C235.554 60.4541 233.874 60.952 231.999 60.952V62.952ZM238.17 61.128C240.044 59.8791 241.523 58.2142 242.605 56.1528L240.834 55.2232C239.9 57.0018 238.643 58.4089 237.061 59.4639L238.17 61.128ZM242.605 56.1528C243.696 54.0747 244.231 51.7523 244.231 49.208H242.231C242.231 51.4636 241.759 53.4613 240.834 55.2232L242.605 56.1528ZM244.231 49.208C244.231 46.6636 243.696 44.3413 242.605 42.2632L240.834 43.1928C241.759 44.9546 242.231 46.9523 242.231 49.208H244.231ZM242.605 42.2632C241.521 40.1984 240.037 38.5524 238.154 37.3493L237.077 39.0347C238.65 40.0396 239.902 41.4176 240.834 43.1928L242.605 42.2632ZM238.181 37.3673C236.332 36.0995 234.262 35.464 231.999 35.464V37.464C233.864 37.464 235.539 37.9805 237.05 39.0167L238.181 37.3673ZM231.999 35.464C229.737 35.464 227.648 36.0992 225.757 37.3599L226.866 39.024C228.431 37.9808 230.134 37.464 231.999 37.464V35.464ZM225.762 37.3563C223.924 38.5646 222.468 40.2379 221.389 42.3441L223.169 43.2559C224.107 41.4261 225.339 40.0274 226.861 39.0277L225.762 37.3563ZM221.394 42.3352C220.303 44.4133 219.767 46.7356 219.767 49.28H221.767C221.767 47.0243 222.24 45.0267 223.165 43.2648L221.394 42.3352ZM279.56 37.184L279.591 38.1835L280.56 38.1532V37.184H279.56ZM271.352 39.344L271.835 40.2199L271.84 40.2165L271.352 39.344ZM266.312 44.96L265.387 44.5792L265.312 44.7622V44.96H266.312ZM266.312 68V69H267.312V68H266.312ZM258.392 68H257.392V69H258.392V68ZM258.392 30.344V29.344H257.392V30.344H258.392ZM265.736 30.344H266.736V29.344H265.736V30.344ZM265.736 38.768H264.736L266.63 39.2152L265.736 38.768ZM270.848 32.576L271.436 33.3847L271.442 33.3804L271.448 33.376L270.848 32.576ZM277.544 29.984V28.984H277.513L277.483 28.9859L277.544 29.984ZM279.56 30.056H280.56V29.2362L279.756 29.0754L279.56 30.056ZM279.529 36.1845C276.315 36.2849 273.419 37.0402 270.863 38.4715L271.84 40.2165C274.085 38.9598 276.66 38.2751 279.591 38.1835L279.529 36.1845ZM270.869 38.4682C268.321 39.8723 266.483 41.9174 265.387 44.5792L267.237 45.3407C268.157 43.1066 269.679 41.4077 271.834 40.2198L270.869 38.4682ZM265.312 44.96V68H267.312V44.96H265.312ZM266.312 67H258.392V69H266.312V67ZM259.392 68V30.344H257.392V68H259.392ZM258.392 31.344H265.736V29.344H258.392V31.344ZM264.736 30.344V38.768H266.736V30.344H264.736ZM266.63 39.2152C267.863 36.7505 269.467 34.8165 271.436 33.3847L270.26 31.7673C268.004 33.4075 266.201 35.6015 264.841 38.3208L266.63 39.2152ZM271.448 33.376C273.423 31.8947 275.471 31.1128 277.605 30.9821L277.483 28.9859C274.913 29.1432 272.497 30.0893 270.248 31.776L271.448 33.376ZM277.544 30.984C277.545 30.984 277.546 30.984 277.546 30.984C277.547 30.984 277.548 30.984 277.549 30.984C277.55 30.984 277.551 30.984 277.551 30.984C277.552 30.984 277.553 30.984 277.554 30.984C277.555 30.984 277.556 30.984 277.557 30.984C277.557 30.984 277.558 30.984 277.559 30.984C277.56 30.984 277.561 30.984 277.562 30.984C277.562 30.984 277.563 30.984 277.564 30.984C277.565 30.984 277.566 30.984 277.567 30.984C277.567 30.984 277.568 30.984 277.569 30.984C277.57 30.984 277.571 30.984 277.572 30.984C277.573 30.984 277.573 30.984 277.574 30.984C277.575 30.984 277.576 30.984 277.577 30.984C277.578 30.984 277.578 30.984 277.579 30.984C277.58 30.984 277.581 30.984 277.582 30.984C277.583 30.984 277.583 30.984 277.584 30.984C277.585 30.984 277.586 30.984 277.587 30.984C277.588 30.984 277.588 30.984 277.589 30.984C277.59 30.984 277.591 30.984 277.592 30.984C277.593 30.984 277.593 30.984 277.594 30.984C277.595 30.984 277.596 30.984 277.597 30.984C277.598 30.984 277.598 30.984 277.599 30.984C277.6 30.984 277.601 30.984 277.602 30.984C277.603 30.984 277.603 30.984 277.604 30.984C277.605 30.984 277.606 30.984 277.607 30.984C277.608 30.984 277.609 30.984 277.609 30.984C277.61 30.984 277.611 30.984 277.612 30.984C277.613 30.984 277.614 30.984 277.614 30.984C277.615 30.984 277.616 30.984 277.617 30.984C277.618 30.984 277.619 30.984 277.619 30.984C277.62 30.984 277.621 30.984 277.622 30.984C277.623 30.984 277.623 30.984 277.624 30.984C277.625 30.984 277.626 30.984 277.627 30.984C277.628 30.984 277.628 30.984 277.629 30.984C277.63 30.984 277.631 30.984 277.632 30.984C277.633 30.984 277.633 30.984 277.634 30.984C277.635 30.984 277.636 30.984 277.637 30.984C277.638 30.984 277.638 30.984 277.639 30.984C277.64 30.984 277.641 30.984 277.642 30.984C277.643 30.984 277.643 30.984 277.644 30.984C277.645 30.984 277.646 30.984 277.647 30.984C277.648 30.984 277.648 30.984 277.649 30.984C277.65 30.984 277.651 30.984 277.652 30.984C277.653 30.984 277.653 30.984 277.654 30.984C277.655 30.984 277.656 30.984 277.657 30.984C277.658 30.984 277.658 30.984 277.659 30.984C277.66 30.984 277.661 30.984 277.662 30.984C277.662 30.984 277.663 30.984 277.664 30.984C277.665 30.984 277.666 30.984 277.667 30.984C277.667 30.984 277.668 30.984 277.669 30.984C277.67 30.984 277.671 30.984 277.672 30.984C277.672 30.984 277.673 30.984 277.674 30.984C277.675 30.984 277.676 30.984 277.677 30.984C277.677 30.984 277.678 30.984 277.679 30.984C277.68 30.984 277.681 30.984 277.681 30.984C277.682 30.984 277.683 30.984 277.684 30.984C277.685 30.984 277.686 30.984 277.686 30.984C277.687 30.984 277.688 30.984 277.689 30.984C277.69 30.984 277.691 30.984 277.691 30.984C277.692 30.984 277.693 30.984 277.694 30.984C277.695 30.984 277.695 30.984 277.696 30.984C277.697 30.984 277.698 30.984 277.699 30.984C277.7 30.984 277.7 30.984 277.701 30.984C277.702 30.984 277.703 30.984 277.704 30.984C277.704 30.984 277.705 30.984 277.706 30.984C277.707 30.984 277.708 30.984 277.709 30.984C277.709 30.984 277.71 30.984 277.711 30.984C277.712 30.984 277.713 30.984 277.713 30.984C277.714 30.984 277.715 30.984 277.716 30.984C277.717 30.984 277.718 30.984 277.718 30.984C277.719 30.984 277.72 30.984 277.721 30.984C277.722 30.984 277.722 30.984 277.723 30.984C277.724 30.984 277.725 30.984 277.726 30.984C277.727 30.984 277.727 30.984 277.728 30.984C277.729 30.984 277.73 30.984 277.731 30.984C277.731 30.984 277.732 30.984 277.733 30.984C277.734 30.984 277.735 30.984 277.736 30.984C277.736 30.984 277.737 30.984 277.738 30.984C277.739 30.984 277.74 30.984 277.74 30.984C277.741 30.984 277.742 30.984 277.743 30.984C277.744 30.984 277.745 30.984 277.745 30.984C277.746 30.984 277.747 30.984 277.748 30.984C277.749 30.984 277.749 30.984 277.75 30.984C277.751 30.984 277.752 30.984 277.753 30.984C277.753 30.984 277.754 30.984 277.755 30.984C277.756 30.984 277.757 30.984 277.758 30.984C277.758 30.984 277.759 30.984 277.76 30.984C277.761 30.984 277.762 30.984 277.762 30.984C277.763 30.984 277.764 30.984 277.765 30.984C277.766 30.984 277.766 30.984 277.767 30.984C277.768 30.984 277.769 30.984 277.77 30.984C277.77 30.984 277.771 30.984 277.772 30.984C277.773 30.984 277.774 30.984 277.775 30.984C277.775 30.984 277.776 30.984 277.777 30.984C277.778 30.984 277.779 30.984 277.779 30.984C277.78 30.984 277.781 30.984 277.782 30.984C277.783 30.984 277.783 30.984 277.784 30.984C277.785 30.984 277.786 30.984 277.787 30.984C277.787 30.984 277.788 30.984 277.789 30.984C277.79 30.984 277.791 30.984 277.792 30.984C277.792 30.984 277.793 30.984 277.794 30.984C277.795 30.984 277.796 30.984 277.796 30.984C277.797 30.984 277.798 30.984 277.799 30.984C277.8 30.984 277.8 30.984 277.801 30.984C277.802 30.984 277.803 30.984 277.804 30.984C277.804 30.984 277.805 30.984 277.806 30.984C277.807 30.984 277.808 30.984 277.808 30.984C277.809 30.984 277.81 30.984 277.811 30.984C277.812 30.984 277.812 30.984 277.813 30.984C277.814 30.984 277.815 30.984 277.816 30.984C277.816 30.984 277.817 30.984 277.818 30.984C277.819 30.984 277.82 30.984 277.821 30.984C277.821 30.984 277.822 30.984 277.823 30.984C277.824 30.984 277.825 30.984 277.825 30.984C277.826 30.984 277.827 30.984 277.828 30.984C277.829 30.984 277.829 30.984 277.83 30.984C277.831 30.984 277.832 30.984 277.833 30.984C277.833 30.984 277.834 30.984 277.835 30.984C277.836 30.984 277.837 30.984 277.837 30.984C277.838 30.984 277.839 30.984 277.84 30.984C277.841 30.984 277.841 30.984 277.842 30.984C277.843 30.984 277.844 30.984 277.845 30.984C277.845 30.984 277.846 30.984 277.847 30.984C277.848 30.984 277.849 30.984 277.849 30.984C277.85 30.984 277.851 30.984 277.852 30.984C277.853 30.984 277.853 30.984 277.854 30.984C277.855 30.984 277.856 30.984 277.857 30.984C277.857 30.984 277.858 30.984 277.859 30.984C277.86 30.984 277.86 30.984 277.861 30.984C277.862 30.984 277.863 30.984 277.864 30.984C277.864 30.984 277.865 30.984 277.866 30.984C277.867 30.984 277.868 30.984 277.868 30.984C277.869 30.984 277.87 30.984 277.871 30.984C277.872 30.984 277.872 30.984 277.873 30.984C277.874 30.984 277.875 30.984 277.876 30.984C277.876 30.984 277.877 30.984 277.878 30.984C277.879 30.984 277.88 30.984 277.88 30.984C277.881 30.984 277.882 30.984 277.883 30.984C277.884 30.984 277.884 30.984 277.885 30.984C277.886 30.984 277.887 30.984 277.888 30.984C277.888 30.984 277.889 30.984 277.89 30.984C277.891 30.984 277.891 30.984 277.892 30.984C277.893 30.984 277.894 30.984 277.895 30.984C277.895 30.984 277.896 30.984 277.897 30.984C277.898 30.984 277.899 30.984 277.899 30.984C277.9 30.984 277.901 30.984 277.902 30.984C277.903 30.984 277.903 30.984 277.904 30.984C277.905 30.984 277.906 30.984 277.906 30.984C277.907 30.984 277.908 30.984 277.909 30.984C277.91 30.984 277.91 30.984 277.911 30.984C277.912 30.984 277.913 30.984 277.914 30.984C277.914 30.984 277.915 30.984 277.916 30.984C277.917 30.984 277.918 30.984 277.918 30.984C277.919 30.984 277.92 30.984 277.921 30.984C277.921 30.984 277.922 30.984 277.923 30.984C277.924 30.984 277.925 30.984 277.925 30.984C277.926 30.984 277.927 30.984 277.928 30.984C277.929 30.984 277.929 30.984 277.93 30.984C277.931 30.984 277.932 30.984 277.932 30.984C277.933 30.984 277.934 30.984 277.935 30.984C277.936 30.984 277.936 30.984 277.937 30.984C277.938 30.984 277.939 30.984 277.94 30.984C277.94 30.984 277.941 30.984 277.942 30.984C277.943 30.984 277.943 30.984 277.944 30.984C277.945 30.984 277.946 30.984 277.947 30.984C277.947 30.984 277.948 30.984 277.949 30.984C277.95 30.984 277.951 30.984 277.951 30.984C277.952 30.984 277.953 30.984 277.954 30.984C277.954 30.984 277.955 30.984 277.956 30.984C277.957 30.984 277.958 30.984 277.958 30.984C277.959 30.984 277.96 30.984 277.961 30.984C277.961 30.984 277.962 30.984 277.963 30.984C277.964 30.984 277.965 30.984 277.965 30.984C277.966 30.984 277.967 30.984 277.968 30.984C277.968 30.984 277.969 30.984 277.97 30.984C277.971 30.984 277.972 30.984 277.972 30.984C277.973 30.984 277.974 30.984 277.975 30.984C277.975 30.984 277.976 30.984 277.977 30.984C277.978 30.984 277.979 30.984 277.979 30.984C277.98 30.984 277.981 30.984 277.982 30.984C277.982 30.984 277.983 30.984 277.984 30.984C277.985 30.984 277.986 30.984 277.986 30.984C277.987 30.984 277.988 30.984 277.989 30.984C277.989 30.984 277.99 30.984 277.991 30.984C277.992 30.984 277.993 30.984 277.993 30.984C277.994 30.984 277.995 30.984 277.996 30.984C277.996 30.984 277.997 30.984 277.998 30.984C277.999 30.984 278 30.984 278 30.984C278.001 30.984 278.002 30.984 278.003 30.984C278.003 30.984 278.004 30.984 278.005 30.984C278.006 30.984 278.007 30.984 278.007 30.984C278.008 30.984 278.009 30.984 278.01 30.984C278.01 30.984 278.011 30.984 278.012 30.984C278.013 30.984 278.014 30.984 278.014 30.984C278.015 30.984 278.016 30.984 278.017 30.984C278.017 30.984 278.018 30.984 278.019 30.984C278.02 30.984 278.02 30.984 278.021 30.984C278.022 30.984 278.023 30.984 278.024 30.984C278.024 30.984 278.025 30.984 278.026 30.984C278.027 30.984 278.027 30.984 278.028 30.984C278.029 30.984 278.03 30.984 278.03 30.984C278.031 30.984 278.032 30.984 278.033 30.984C278.034 30.984 278.034 30.984 278.035 30.984C278.036 30.984 278.037 30.984 278.037 30.984C278.038 30.984 278.039 30.984 278.04 30.984C278.04 30.984 278.041 30.984 278.042 30.984C278.043 30.984 278.044 30.984 278.044 30.984C278.045 30.984 278.046 30.984 278.047 30.984C278.047 30.984 278.048 30.984 278.049 30.984C278.05 30.984 278.05 30.984 278.051 30.984C278.052 30.984 278.053 30.984 278.054 30.984C278.054 30.984 278.055 30.984 278.056 30.984C278.057 30.984 278.057 30.984 278.058 30.984C278.059 30.984 278.06 30.984 278.06 30.984C278.061 30.984 278.062 30.984 278.063 30.984C278.063 30.984 278.064 30.984 278.065 30.984C278.066 30.984 278.067 30.984 278.067 30.984C278.068 30.984 278.069 30.984 278.07 30.984C278.07 30.984 278.071 30.984 278.072 30.984C278.073 30.984 278.073 30.984 278.074 30.984C278.075 30.984 278.076 30.984 278.076 30.984C278.077 30.984 278.078 30.984 278.079 30.984C278.08 30.984 278.08 30.984 278.081 30.984C278.082 30.984 278.083 30.984 278.083 30.984C278.084 30.984 278.085 30.984 278.086 30.984C278.086 30.984 278.087 30.984 278.088 30.984C278.089 30.984 278.089 30.984 278.09 30.984C278.091 30.984 278.092 30.984 278.092 30.984C278.093 30.984 278.094 30.984 278.095 30.984C278.096 30.984 278.096 30.984 278.097 30.984C278.098 30.984 278.099 30.984 278.099 30.984C278.1 30.984 278.101 30.984 278.102 30.984C278.102 30.984 278.103 30.984 278.104 30.984C278.105 30.984 278.105 30.984 278.106 30.984C278.107 30.984 278.108 30.984 278.108 30.984C278.109 30.984 278.11 30.984 278.111 30.984C278.111 30.984 278.112 30.984 278.113 30.984C278.114 30.984 278.114 30.984 278.115 30.984C278.116 30.984 278.117 30.984 278.117 30.984C278.118 30.984 278.119 30.984 278.12 30.984C278.121 30.984 278.121 30.984 278.122 30.984C278.123 30.984 278.124 30.984 278.124 30.984C278.125 30.984 278.126 30.984 278.127 30.984C278.127 30.984 278.128 30.984 278.129 30.984C278.13 30.984 278.13 30.984 278.131 30.984C278.132 30.984 278.133 30.984 278.133 30.984C278.134 30.984 278.135 30.984 278.136 30.984C278.136 30.984 278.137 30.984 278.138 30.984C278.139 30.984 278.139 30.984 278.14 30.984C278.141 30.984 278.142 30.984 278.142 30.984C278.143 30.984 278.144 30.984 278.145 30.984C278.145 30.984 278.146 30.984 278.147 30.984C278.148 30.984 278.148 30.984 278.149 30.984C278.15 30.984 278.151 30.984 278.151 30.984C278.152 30.984 278.153 30.984 278.154 30.984C278.154 30.984 278.155 30.984 278.156 30.984C278.157 30.984 278.157 30.984 278.158 30.984C278.159 30.984 278.16 30.984 278.16 30.984C278.161 30.984 278.162 30.984 278.163 30.984C278.163 30.984 278.164 30.984 278.165 30.984C278.166 30.984 278.166 30.984 278.167 30.984C278.168 30.984 278.169 30.984 278.169 30.984C278.17 30.984 278.171 30.984 278.172 30.984C278.172 30.984 278.173 30.984 278.174 30.984C278.175 30.984 278.175 30.984 278.176 30.984C278.177 30.984 278.178 30.984 278.178 30.984C278.179 30.984 278.18 30.984 278.181 30.984C278.181 30.984 278.182 30.984 278.183 30.984C278.184 30.984 278.184 30.984 278.185 30.984C278.186 30.984 278.187 30.984 278.187 30.984C278.188 30.984 278.189 30.984 278.19 30.984C278.19 30.984 278.191 30.984 278.192 30.984C278.192 30.984 278.193 30.984 278.194 30.984C278.195 30.984 278.195 30.984 278.196 30.984C278.197 30.984 278.198 30.984 278.198 30.984C278.199 30.984 278.2 30.984 278.201 30.984C278.201 30.984 278.202 30.984 278.203 30.984C278.204 30.984 278.204 30.984 278.205 30.984C278.206 30.984 278.207 30.984 278.207 30.984C278.208 30.984 278.209 30.984 278.21 30.984C278.21 30.984 278.211 30.984 278.212 30.984C278.213 30.984 278.213 30.984 278.214 30.984C278.215 30.984 278.216 30.984 278.216 30.984C278.217 30.984 278.218 30.984 278.218 30.984C278.219 30.984 278.22 30.984 278.221 30.984C278.221 30.984 278.222 30.984 278.223 30.984C278.224 30.984 278.224 30.984 278.225 30.984C278.226 30.984 278.227 30.984 278.227 30.984C278.228 30.984 278.229 30.984 278.23 30.984C278.23 30.984 278.231 30.984 278.232 30.984C278.232 30.984 278.233 30.984 278.234 30.984C278.235 30.984 278.235 30.984 278.236 30.984C278.237 30.984 278.238 30.984 278.238 30.984C278.239 30.984 278.24 30.984 278.241 30.984C278.241 30.984 278.242 30.984 278.243 30.984C278.244 30.984 278.244 30.984 278.245 30.984C278.246 30.984 278.246 30.984 278.247 30.984C278.248 30.984 278.249 30.984 278.249 30.984C278.25 30.984 278.251 30.984 278.252 30.984C278.252 30.984 278.253 30.984 278.254 30.984C278.255 30.984 278.255 30.984 278.256 30.984C278.257 30.984 278.257 30.984 278.258 30.984C278.259 30.984 278.26 30.984 278.26 30.984C278.261 30.984 278.262 30.984 278.263 30.984C278.263 30.984 278.264 30.984 278.265 30.984C278.266 30.984 278.266 30.984 278.267 30.984C278.268 30.984 278.268 30.984 278.269 30.984C278.27 30.984 278.271 30.984 278.271 30.984C278.272 30.984 278.273 30.984 278.274 30.984C278.274 30.984 278.275 30.984 278.276 30.984C278.277 30.984 278.277 30.984 278.278 30.984C278.279 30.984 278.279 30.984 278.28 30.984C278.281 30.984 278.282 30.984 278.282 30.984C278.283 30.984 278.284 30.984 278.285 30.984C278.285 30.984 278.286 30.984 278.287 30.984C278.287 30.984 278.288 30.984 278.289 30.984C278.29 30.984 278.29 30.984 278.291 30.984C278.292 30.984 278.293 30.984 278.293 30.984C278.294 30.984 278.295 30.984 278.295 30.984C278.296 30.984 278.297 30.984 278.298 30.984C278.298 30.984 278.299 30.984 278.3 30.984C278.301 30.984 278.301 30.984 278.302 30.984C278.303 30.984 278.303 30.984 278.304 30.984C278.305 30.984 278.306 30.984 278.306 30.984C278.307 30.984 278.308 30.984 278.309 30.984C278.309 30.984 278.31 30.984 278.311 30.984C278.311 30.984 278.312 30.984 278.313 30.984C278.314 30.984 278.314 30.984 278.315 30.984C278.316 30.984 278.316 30.984 278.317 30.984C278.318 30.984 278.319 30.984 278.319 30.984C278.32 30.984 278.321 30.984 278.322 30.984C278.322 30.984 278.323 30.984 278.324 30.984C278.324 30.984 278.325 30.984 278.326 30.984C278.327 30.984 278.327 30.984 278.328 30.984C278.329 30.984 278.329 30.984 278.33 30.984C278.331 30.984 278.332 30.984 278.332 30.984C278.333 30.984 278.334 30.984 278.335 30.984C278.335 30.984 278.336 30.984 278.337 30.984C278.337 30.984 278.338 30.984 278.339 30.984C278.34 30.984 278.34 30.984 278.341 30.984C278.342 30.984 278.342 30.984 278.343 30.984C278.344 30.984 278.345 30.984 278.345 30.984C278.346 30.984 278.347 30.984 278.347 30.984C278.348 30.984 278.349 30.984 278.35 30.984C278.35 30.984 278.351 30.984 278.352 30.984C278.353 30.984 278.353 30.984 278.354 30.984C278.355 30.984 278.355 30.984 278.356 30.984C278.357 30.984 278.358 30.984 278.358 30.984C278.359 30.984 278.36 30.984 278.36 30.984C278.361 30.984 278.362 30.984 278.363 30.984C278.363 30.984 278.364 30.984 278.365 30.984C278.365 30.984 278.366 30.984 278.367 30.984C278.368 30.984 278.368 30.984 278.369 30.984C278.37 30.984 278.37 30.984 278.371 30.984C278.372 30.984 278.373 30.984 278.373 30.984C278.374 30.984 278.375 30.984 278.375 30.984C278.376 30.984 278.377 30.984 278.378 30.984C278.378 30.984 278.379 30.984 278.38 30.984C278.38 30.984 278.381 30.984 278.382 30.984C278.383 30.984 278.383 30.984 278.384 30.984C278.385 30.984 278.385 30.984 278.386 30.984C278.387 30.984 278.388 30.984 278.388 30.984C278.389 30.984 278.39 30.984 278.39 30.984C278.391 30.984 278.392 30.984 278.392 30.984C278.393 30.984 278.394 30.984 278.395 30.984C278.395 30.984 278.396 30.984 278.397 30.984C278.397 30.984 278.398 30.984 278.399 30.984C278.4 30.984 278.4 30.984 278.401 30.984C278.402 30.984 278.402 30.984 278.403 30.984C278.404 30.984 278.405 30.984 278.405 30.984C278.406 30.984 278.407 30.984 278.407 30.984C278.408 30.984 278.409 30.984 278.41 30.984C278.41 30.984 278.411 30.984 278.412 30.984C278.412 30.984 278.413 30.984 278.414 30.984C278.414 30.984 278.415 30.984 278.416 30.984C278.417 30.984 278.417 30.984 278.418 30.984C278.419 30.984 278.419 30.984 278.42 30.984C278.421 30.984 278.422 30.984 278.422 30.984C278.423 30.984 278.424 30.984 278.424 30.984C278.425 30.984 278.426 30.984 278.426 30.984C278.427 30.984 278.428 30.984 278.429 30.984C278.429 30.984 278.43 30.984 278.431 30.984C278.431 30.984 278.432 30.984 278.433 30.984C278.433 30.984 278.434 30.984 278.435 30.984C278.436 30.984 278.436 30.984 278.437 30.984C278.438 30.984 278.438 30.984 278.439 30.984C278.44 30.984 278.441 30.984 278.441 30.984C278.442 30.984 278.443 30.984 278.443 30.984C278.444 30.984 278.445 30.984 278.445 30.984C278.446 30.984 278.447 30.984 278.448 30.984C278.448 30.984 278.449 30.984 278.45 30.984C278.45 30.984 278.451 30.984 278.452 30.984C278.452 30.984 278.453 30.984 278.454 30.984C278.455 30.984 278.455 30.984 278.456 30.984C278.457 30.984 278.457 30.984 278.458 30.984C278.459 30.984 278.459 30.984 278.46 30.984C278.461 30.984 278.462 30.984 278.462 30.984C278.463 30.984 278.464 30.984 278.464 30.984C278.465 30.984 278.466 30.984 278.466 30.984C278.467 30.984 278.468 30.984 278.469 30.984C278.469 30.984 278.47 30.984 278.471 30.984C278.471 30.984 278.472 30.984 278.473 30.984C278.473 30.984 278.474 30.984 278.475 30.984C278.475 30.984 278.476 30.984 278.477 30.984C278.478 30.984 278.478 30.984 278.479 30.984C278.48 30.984 278.48 30.984 278.481 30.984C278.482 30.984 278.482 30.984 278.483 30.984C278.484 30.984 278.485 30.984 278.485 30.984C278.486 30.984 278.487 30.984 278.487 30.984C278.488 30.984 278.489 30.984 278.489 30.984C278.49 30.984 278.491 30.984 278.491 30.984C278.492 30.984 278.493 30.984 278.494 30.984C278.494 30.984 278.495 30.984 278.496 30.984C278.496 30.984 278.497 30.984 278.498 30.984C278.498 30.984 278.499 30.984 278.5 30.984C278.5 30.984 278.501 30.984 278.502 30.984C278.503 30.984 278.503 30.984 278.504 30.984C278.505 30.984 278.505 30.984 278.506 30.984C278.507 30.984 278.507 30.984 278.508 30.984C278.509 30.984 278.509 30.984 278.51 30.984C278.511 30.984 278.511 30.984 278.512 30.984C278.513 30.984 278.514 30.984 278.514 30.984C278.515 30.984 278.516 30.984 278.516 30.984C278.517 30.984 278.518 30.984 278.518 30.984C278.519 30.984 278.52 30.984 278.52 30.984C278.521 30.984 278.522 30.984 278.523 30.984C278.523 30.984 278.524 30.984 278.525 30.984C278.525 30.984 278.526 30.984 278.527 30.984C278.527 30.984 278.528 30.984 278.529 30.984C278.529 30.984 278.53 30.984 278.531 30.984C278.531 30.984 278.532 30.984 278.533 30.984C278.534 30.984 278.534 30.984 278.535 30.984C278.536 30.984 278.536 30.984 278.537 30.984C278.538 30.984 278.538 30.984 278.539 30.984C278.54 30.984 278.54 30.984 278.541 30.984C278.542 30.984 278.542 30.984 278.543 30.984C278.544 30.984 278.544 30.984 278.545 30.984C278.546 30.984 278.547 30.984 278.547 30.984C278.548 30.984 278.549 30.984 278.549 30.984C278.55 30.984 278.551 30.984 278.551 30.984C278.552 30.984 278.553 30.984 278.553 30.984C278.554 30.984 278.555 30.984 278.555 30.984C278.556 30.984 278.557 30.984 278.557 30.984C278.558 30.984 278.559 30.984 278.559 30.984C278.56 30.984 278.561 30.984 278.562 30.984C278.562 30.984 278.563 30.984 278.564 30.984C278.564 30.984 278.565 30.984 278.566 30.984C278.566 30.984 278.567 30.984 278.568 30.984C278.568 30.984 278.569 30.984 278.57 30.984C278.57 30.984 278.571 30.984 278.572 30.984C278.572 30.984 278.573 30.984 278.574 30.984C278.574 30.984 278.575 30.984 278.576 30.984C278.576 30.984 278.577 30.984 278.578 30.984C278.579 30.984 278.579 30.984 278.58 30.984C278.581 30.984 278.581 30.984 278.582 30.984C278.583 30.984 278.583 30.984 278.584 30.984C278.585 30.984 278.585 30.984 278.586 30.984C278.587 30.984 278.587 30.984 278.588 30.984C278.589 30.984 278.589 30.984 278.59 30.984C278.591 30.984 278.591 30.984 278.592 30.984C278.593 30.984 278.593 30.984 278.594 30.984C278.595 30.984 278.595 30.984 278.596 30.984C278.597 30.984 278.597 30.984 278.598 30.984C278.599 30.984 278.599 30.984 278.6 30.984C278.601 30.984 278.601 30.984 278.602 30.984C278.603 30.984 278.603 30.984 278.604 30.984C278.605 30.984 278.606 30.984 278.606 30.984C278.607 30.984 278.608 30.984 278.608 30.984C278.609 30.984 278.61 30.984 278.61 30.984C278.611 30.984 278.612 30.984 278.612 30.984C278.613 30.984 278.614 30.984 278.614 30.984C278.615 30.984 278.616 30.984 278.616 30.984C278.617 30.984 278.618 30.984 278.618 30.984C278.619 30.984 278.62 30.984 278.62 30.984C278.621 30.984 278.622 30.984 278.622 30.984C278.623 30.984 278.624 30.984 278.624 30.984C278.625 30.984 278.626 30.984 278.626 30.984C278.627 30.984 278.628 30.984 278.628 30.984C278.629 30.984 278.63 30.984 278.63 30.984C278.631 30.984 278.632 30.984 278.632 30.984C278.633 30.984 278.634 30.984 278.634 30.984C278.635 30.984 278.636 30.984 278.636 30.984C278.637 30.984 278.638 30.984 278.638 30.984C278.639 30.984 278.64 30.984 278.64 30.984C278.641 30.984 278.642 30.984 278.642 30.984C278.643 30.984 278.644 30.984 278.644 30.984C278.645 30.984 278.646 30.984 278.646 30.984C278.647 30.984 278.648 30.984 278.648 30.984C278.649 30.984 278.65 30.984 278.65 30.984C278.651 30.984 278.652 30.984 278.652 30.984C278.653 30.984 278.654 30.984 278.654 30.984C278.655 30.984 278.656 30.984 278.656 30.984C278.657 30.984 278.658 30.984 278.658 30.984C278.659 30.984 278.66 30.984 278.66 30.984C278.661 30.984 278.662 30.984 278.662 30.984C278.663 30.984 278.664 30.984 278.664 30.984C278.665 30.984 278.666 30.984 278.666 30.984C278.667 30.984 278.668 30.984 278.668 30.984C278.669 30.984 278.67 30.984 278.67 30.984C278.671 30.984 278.672 30.984 278.672 30.984C278.673 30.984 278.674 30.984 278.674 30.984C278.675 30.984 278.675 30.984 278.676 30.984C278.677 30.984 278.677 30.984 278.678 30.984C278.679 30.984 278.679 30.984 278.68 30.984C278.681 30.984 278.681 30.984 278.682 30.984C278.683 30.984 278.683 30.984 278.684 30.984C278.685 30.984 278.685 30.984 278.686 30.984C278.687 30.984 278.687 30.984 278.688 30.984C278.689 30.984 278.689 30.984 278.69 30.984C278.691 30.984 278.691 30.984 278.692 30.984C278.693 30.984 278.693 30.984 278.694 30.984C278.695 30.984 278.695 30.984 278.696 30.984V28.984C278.695 28.984 278.695 28.984 278.694 28.984C278.693 28.984 278.693 28.984 278.692 28.984C278.691 28.984 278.691 28.984 278.69 28.984C278.689 28.984 278.689 28.984 278.688 28.984C278.687 28.984 278.687 28.984 278.686 28.984C278.685 28.984 278.685 28.984 278.684 28.984C278.683 28.984 278.683 28.984 278.682 28.984C278.681 28.984 278.681 28.984 278.68 28.984C278.679 28.984 278.679 28.984 278.678 28.984C278.677 28.984 278.677 28.984 278.676 28.984C278.675 28.984 278.675 28.984 278.674 28.984C278.674 28.984 278.673 28.984 278.672 28.984C278.672 28.984 278.671 28.984 278.67 28.984C278.67 28.984 278.669 28.984 278.668 28.984C278.668 28.984 278.667 28.984 278.666 28.984C278.666 28.984 278.665 28.984 278.664 28.984C278.664 28.984 278.663 28.984 278.662 28.984C278.662 28.984 278.661 28.984 278.66 28.984C278.66 28.984 278.659 28.984 278.658 28.984C278.658 28.984 278.657 28.984 278.656 28.984C278.656 28.984 278.655 28.984 278.654 28.984C278.654 28.984 278.653 28.984 278.652 28.984C278.652 28.984 278.651 28.984 278.65 28.984C278.65 28.984 278.649 28.984 278.648 28.984C278.648 28.984 278.647 28.984 278.646 28.984C278.646 28.984 278.645 28.984 278.644 28.984C278.644 28.984 278.643 28.984 278.642 28.984C278.642 28.984 278.641 28.984 278.64 28.984C278.64 28.984 278.639 28.984 278.638 28.984C278.638 28.984 278.637 28.984 278.636 28.984C278.636 28.984 278.635 28.984 278.634 28.984C278.634 28.984 278.633 28.984 278.632 28.984C278.632 28.984 278.631 28.984 278.63 28.984C278.63 28.984 278.629 28.984 278.628 28.984C278.628 28.984 278.627 28.984 278.626 28.984C278.626 28.984 278.625 28.984 278.624 28.984C278.624 28.984 278.623 28.984 278.622 28.984C278.622 28.984 278.621 28.984 278.62 28.984C278.62 28.984 278.619 28.984 278.618 28.984C278.618 28.984 278.617 28.984 278.616 28.984C278.616 28.984 278.615 28.984 278.614 28.984C278.614 28.984 278.613 28.984 278.612 28.984C278.612 28.984 278.611 28.984 278.61 28.984C278.61 28.984 278.609 28.984 278.608 28.984C278.608 28.984 278.607 28.984 278.606 28.984C278.606 28.984 278.605 28.984 278.604 28.984C278.603 28.984 278.603 28.984 278.602 28.984C278.601 28.984 278.601 28.984 278.6 28.984C278.599 28.984 278.599 28.984 278.598 28.984C278.597 28.984 278.597 28.984 278.596 28.984C278.595 28.984 278.595 28.984 278.594 28.984C278.593 28.984 278.593 28.984 278.592 28.984C278.591 28.984 278.591 28.984 278.59 28.984C278.589 28.984 278.589 28.984 278.588 28.984C278.587 28.984 278.587 28.984 278.586 28.984C278.585 28.984 278.585 28.984 278.584 28.984C278.583 28.984 278.583 28.984 278.582 28.984C278.581 28.984 278.581 28.984 278.58 28.984C278.579 28.984 278.579 28.984 278.578 28.984C278.577 28.984 278.576 28.984 278.576 28.984C278.575 28.984 278.574 28.984 278.574 28.984C278.573 28.984 278.572 28.984 278.572 28.984C278.571 28.984 278.57 28.984 278.57 28.984C278.569 28.984 278.568 28.984 278.568 28.984C278.567 28.984 278.566 28.984 278.566 28.984C278.565 28.984 278.564 28.984 278.564 28.984C278.563 28.984 278.562 28.984 278.562 28.984C278.561 28.984 278.56 28.984 278.559 28.984C278.559 28.984 278.558 28.984 278.557 28.984C278.557 28.984 278.556 28.984 278.555 28.984C278.555 28.984 278.554 28.984 278.553 28.984C278.553 28.984 278.552 28.984 278.551 28.984C278.551 28.984 278.55 28.984 278.549 28.984C278.549 28.984 278.548 28.984 278.547 28.984C278.547 28.984 278.546 28.984 278.545 28.984C278.544 28.984 278.544 28.984 278.543 28.984C278.542 28.984 278.542 28.984 278.541 28.984C278.54 28.984 278.54 28.984 278.539 28.984C278.538 28.984 278.538 28.984 278.537 28.984C278.536 28.984 278.536 28.984 278.535 28.984C278.534 28.984 278.534 28.984 278.533 28.984C278.532 28.984 278.531 28.984 278.531 28.984C278.53 28.984 278.529 28.984 278.529 28.984C278.528 28.984 278.527 28.984 278.527 28.984C278.526 28.984 278.525 28.984 278.525 28.984C278.524 28.984 278.523 28.984 278.523 28.984C278.522 28.984 278.521 28.984 278.52 28.984C278.52 28.984 278.519 28.984 278.518 28.984C278.518 28.984 278.517 28.984 278.516 28.984C278.516 28.984 278.515 28.984 278.514 28.984C278.514 28.984 278.513 28.984 278.512 28.984C278.511 28.984 278.511 28.984 278.51 28.984C278.509 28.984 278.509 28.984 278.508 28.984C278.507 28.984 278.507 28.984 278.506 28.984C278.505 28.984 278.505 28.984 278.504 28.984C278.503 28.984 278.503 28.984 278.502 28.984C278.501 28.984 278.5 28.984 278.5 28.984C278.499 28.984 278.498 28.984 278.498 28.984C278.497 28.984 278.496 28.984 278.496 28.984C278.495 28.984 278.494 28.984 278.494 28.984C278.493 28.984 278.492 28.984 278.491 28.984C278.491 28.984 278.49 28.984 278.489 28.984C278.489 28.984 278.488 28.984 278.487 28.984C278.487 28.984 278.486 28.984 278.485 28.984C278.485 28.984 278.484 28.984 278.483 28.984C278.482 28.984 278.482 28.984 278.481 28.984C278.48 28.984 278.48 28.984 278.479 28.984C278.478 28.984 278.478 28.984 278.477 28.984C278.476 28.984 278.475 28.984 278.475 28.984C278.474 28.984 278.473 28.984 278.473 28.984C278.472 28.984 278.471 28.984 278.471 28.984C278.47 28.984 278.469 28.984 278.469 28.984C278.468 28.984 278.467 28.984 278.466 28.984C278.466 28.984 278.465 28.984 278.464 28.984C278.464 28.984 278.463 28.984 278.462 28.984C278.462 28.984 278.461 28.984 278.46 28.984C278.459 28.984 278.459 28.984 278.458 28.984C278.457 28.984 278.457 28.984 278.456 28.984C278.455 28.984 278.455 28.984 278.454 28.984C278.453 28.984 278.452 28.984 278.452 28.984C278.451 28.984 278.45 28.984 278.45 28.984C278.449 28.984 278.448 28.984 278.448 28.984C278.447 28.984 278.446 28.984 278.445 28.984C278.445 28.984 278.444 28.984 278.443 28.984C278.443 28.984 278.442 28.984 278.441 28.984C278.441 28.984 278.44 28.984 278.439 28.984C278.438 28.984 278.438 28.984 278.437 28.984C278.436 28.984 278.436 28.984 278.435 28.984C278.434 28.984 278.433 28.984 278.433 28.984C278.432 28.984 278.431 28.984 278.431 28.984C278.43 28.984 278.429 28.984 278.429 28.984C278.428 28.984 278.427 28.984 278.426 28.984C278.426 28.984 278.425 28.984 278.424 28.984C278.424 28.984 278.423 28.984 278.422 28.984C278.422 28.984 278.421 28.984 278.42 28.984C278.419 28.984 278.419 28.984 278.418 28.984C278.417 28.984 278.417 28.984 278.416 28.984C278.415 28.984 278.414 28.984 278.414 28.984C278.413 28.984 278.412 28.984 278.412 28.984C278.411 28.984 278.41 28.984 278.41 28.984C278.409 28.984 278.408 28.984 278.407 28.984C278.407 28.984 278.406 28.984 278.405 28.984C278.405 28.984 278.404 28.984 278.403 28.984C278.402 28.984 278.402 28.984 278.401 28.984C278.4 28.984 278.4 28.984 278.399 28.984C278.398 28.984 278.397 28.984 278.397 28.984C278.396 28.984 278.395 28.984 278.395 28.984C278.394 28.984 278.393 28.984 278.392 28.984C278.392 28.984 278.391 28.984 278.39 28.984C278.39 28.984 278.389 28.984 278.388 28.984C278.388 28.984 278.387 28.984 278.386 28.984C278.385 28.984 278.385 28.984 278.384 28.984C278.383 28.984 278.383 28.984 278.382 28.984C278.381 28.984 278.38 28.984 278.38 28.984C278.379 28.984 278.378 28.984 278.378 28.984C278.377 28.984 278.376 28.984 278.375 28.984C278.375 28.984 278.374 28.984 278.373 28.984C278.373 28.984 278.372 28.984 278.371 28.984C278.37 28.984 278.37 28.984 278.369 28.984C278.368 28.984 278.368 28.984 278.367 28.984C278.366 28.984 278.365 28.984 278.365 28.984C278.364 28.984 278.363 28.984 278.363 28.984C278.362 28.984 278.361 28.984 278.36 28.984C278.36 28.984 278.359 28.984 278.358 28.984C278.358 28.984 278.357 28.984 278.356 28.984C278.355 28.984 278.355 28.984 278.354 28.984C278.353 28.984 278.353 28.984 278.352 28.984C278.351 28.984 278.35 28.984 278.35 28.984C278.349 28.984 278.348 28.984 278.347 28.984C278.347 28.984 278.346 28.984 278.345 28.984C278.345 28.984 278.344 28.984 278.343 28.984C278.342 28.984 278.342 28.984 278.341 28.984C278.34 28.984 278.34 28.984 278.339 28.984C278.338 28.984 278.337 28.984 278.337 28.984C278.336 28.984 278.335 28.984 278.335 28.984C278.334 28.984 278.333 28.984 278.332 28.984C278.332 28.984 278.331 28.984 278.33 28.984C278.329 28.984 278.329 28.984 278.328 28.984C278.327 28.984 278.327 28.984 278.326 28.984C278.325 28.984 278.324 28.984 278.324 28.984C278.323 28.984 278.322 28.984 278.322 28.984C278.321 28.984 278.32 28.984 278.319 28.984C278.319 28.984 278.318 28.984 278.317 28.984C278.316 28.984 278.316 28.984 278.315 28.984C278.314 28.984 278.314 28.984 278.313 28.984C278.312 28.984 278.311 28.984 278.311 28.984C278.31 28.984 278.309 28.984 278.309 28.984C278.308 28.984 278.307 28.984 278.306 28.984C278.306 28.984 278.305 28.984 278.304 28.984C278.303 28.984 278.303 28.984 278.302 28.984C278.301 28.984 278.301 28.984 278.3 28.984C278.299 28.984 278.298 28.984 278.298 28.984C278.297 28.984 278.296 28.984 278.295 28.984C278.295 28.984 278.294 28.984 278.293 28.984C278.293 28.984 278.292 28.984 278.291 28.984C278.29 28.984 278.29 28.984 278.289 28.984C278.288 28.984 278.287 28.984 278.287 28.984C278.286 28.984 278.285 28.984 278.285 28.984C278.284 28.984 278.283 28.984 278.282 28.984C278.282 28.984 278.281 28.984 278.28 28.984C278.279 28.984 278.279 28.984 278.278 28.984C278.277 28.984 278.277 28.984 278.276 28.984C278.275 28.984 278.274 28.984 278.274 28.984C278.273 28.984 278.272 28.984 278.271 28.984C278.271 28.984 278.27 28.984 278.269 28.984C278.268 28.984 278.268 28.984 278.267 28.984C278.266 28.984 278.266 28.984 278.265 28.984C278.264 28.984 278.263 28.984 278.263 28.984C278.262 28.984 278.261 28.984 278.26 28.984C278.26 28.984 278.259 28.984 278.258 28.984C278.257 28.984 278.257 28.984 278.256 28.984C278.255 28.984 278.255 28.984 278.254 28.984C278.253 28.984 278.252 28.984 278.252 28.984C278.251 28.984 278.25 28.984 278.249 28.984C278.249 28.984 278.248 28.984 278.247 28.984C278.246 28.984 278.246 28.984 278.245 28.984C278.244 28.984 278.244 28.984 278.243 28.984C278.242 28.984 278.241 28.984 278.241 28.984C278.24 28.984 278.239 28.984 278.238 28.984C278.238 28.984 278.237 28.984 278.236 28.984C278.235 28.984 278.235 28.984 278.234 28.984C278.233 28.984 278.232 28.984 278.232 28.984C278.231 28.984 278.23 28.984 278.23 28.984C278.229 28.984 278.228 28.984 278.227 28.984C278.227 28.984 278.226 28.984 278.225 28.984C278.224 28.984 278.224 28.984 278.223 28.984C278.222 28.984 278.221 28.984 278.221 28.984C278.22 28.984 278.219 28.984 278.218 28.984C278.218 28.984 278.217 28.984 278.216 28.984C278.216 28.984 278.215 28.984 278.214 28.984C278.213 28.984 278.213 28.984 278.212 28.984C278.211 28.984 278.21 28.984 278.21 28.984C278.209 28.984 278.208 28.984 278.207 28.984C278.207 28.984 278.206 28.984 278.205 28.984C278.204 28.984 278.204 28.984 278.203 28.984C278.202 28.984 278.201 28.984 278.201 28.984C278.2 28.984 278.199 28.984 278.198 28.984C278.198 28.984 278.197 28.984 278.196 28.984C278.195 28.984 278.195 28.984 278.194 28.984C278.193 28.984 278.192 28.984 278.192 28.984C278.191 28.984 278.19 28.984 278.19 28.984C278.189 28.984 278.188 28.984 278.187 28.984C278.187 28.984 278.186 28.984 278.185 28.984C278.184 28.984 278.184 28.984 278.183 28.984C278.182 28.984 278.181 28.984 278.181 28.984C278.18 28.984 278.179 28.984 278.178 28.984C278.178 28.984 278.177 28.984 278.176 28.984C278.175 28.984 278.175 28.984 278.174 28.984C278.173 28.984 278.172 28.984 278.172 28.984C278.171 28.984 278.17 28.984 278.169 28.984C278.169 28.984 278.168 28.984 278.167 28.984C278.166 28.984 278.166 28.984 278.165 28.984C278.164 28.984 278.163 28.984 278.163 28.984C278.162 28.984 278.161 28.984 278.16 28.984C278.16 28.984 278.159 28.984 278.158 28.984C278.157 28.984 278.157 28.984 278.156 28.984C278.155 28.984 278.154 28.984 278.154 28.984C278.153 28.984 278.152 28.984 278.151 28.984C278.151 28.984 278.15 28.984 278.149 28.984C278.148 28.984 278.148 28.984 278.147 28.984C278.146 28.984 278.145 28.984 278.145 28.984C278.144 28.984 278.143 28.984 278.142 28.984C278.142 28.984 278.141 28.984 278.14 28.984C278.139 28.984 278.139 28.984 278.138 28.984C278.137 28.984 278.136 28.984 278.136 28.984C278.135 28.984 278.134 28.984 278.133 28.984C278.133 28.984 278.132 28.984 278.131 28.984C278.13 28.984 278.13 28.984 278.129 28.984C278.128 28.984 278.127 28.984 278.127 28.984C278.126 28.984 278.125 28.984 278.124 28.984C278.124 28.984 278.123 28.984 278.122 28.984C278.121 28.984 278.121 28.984 278.12 28.984C278.119 28.984 278.118 28.984 278.117 28.984C278.117 28.984 278.116 28.984 278.115 28.984C278.114 28.984 278.114 28.984 278.113 28.984C278.112 28.984 278.111 28.984 278.111 28.984C278.11 28.984 278.109 28.984 278.108 28.984C278.108 28.984 278.107 28.984 278.106 28.984C278.105 28.984 278.105 28.984 278.104 28.984C278.103 28.984 278.102 28.984 278.102 28.984C278.101 28.984 278.1 28.984 278.099 28.984C278.099 28.984 278.098 28.984 278.097 28.984C278.096 28.984 278.096 28.984 278.095 28.984C278.094 28.984 278.093 28.984 278.092 28.984C278.092 28.984 278.091 28.984 278.09 28.984C278.089 28.984 278.089 28.984 278.088 28.984C278.087 28.984 278.086 28.984 278.086 28.984C278.085 28.984 278.084 28.984 278.083 28.984C278.083 28.984 278.082 28.984 278.081 28.984C278.08 28.984 278.08 28.984 278.079 28.984C278.078 28.984 278.077 28.984 278.076 28.984C278.076 28.984 278.075 28.984 278.074 28.984C278.073 28.984 278.073 28.984 278.072 28.984C278.071 28.984 278.07 28.984 278.07 28.984C278.069 28.984 278.068 28.984 278.067 28.984C278.067 28.984 278.066 28.984 278.065 28.984C278.064 28.984 278.063 28.984 278.063 28.984C278.062 28.984 278.061 28.984 278.06 28.984C278.06 28.984 278.059 28.984 278.058 28.984C278.057 28.984 278.057 28.984 278.056 28.984C278.055 28.984 278.054 28.984 278.054 28.984C278.053 28.984 278.052 28.984 278.051 28.984C278.05 28.984 278.05 28.984 278.049 28.984C278.048 28.984 278.047 28.984 278.047 28.984C278.046 28.984 278.045 28.984 278.044 28.984C278.044 28.984 278.043 28.984 278.042 28.984C278.041 28.984 278.04 28.984 278.04 28.984C278.039 28.984 278.038 28.984 278.037 28.984C278.037 28.984 278.036 28.984 278.035 28.984C278.034 28.984 278.034 28.984 278.033 28.984C278.032 28.984 278.031 28.984 278.03 28.984C278.03 28.984 278.029 28.984 278.028 28.984C278.027 28.984 278.027 28.984 278.026 28.984C278.025 28.984 278.024 28.984 278.024 28.984C278.023 28.984 278.022 28.984 278.021 28.984C278.02 28.984 278.02 28.984 278.019 28.984C278.018 28.984 278.017 28.984 278.017 28.984C278.016 28.984 278.015 28.984 278.014 28.984C278.014 28.984 278.013 28.984 278.012 28.984C278.011 28.984 278.01 28.984 278.01 28.984C278.009 28.984 278.008 28.984 278.007 28.984C278.007 28.984 278.006 28.984 278.005 28.984C278.004 28.984 278.003 28.984 278.003 28.984C278.002 28.984 278.001 28.984 278 28.984C278 28.984 277.999 28.984 277.998 28.984C277.997 28.984 277.996 28.984 277.996 28.984C277.995 28.984 277.994 28.984 277.993 28.984C277.993 28.984 277.992 28.984 277.991 28.984C277.99 28.984 277.989 28.984 277.989 28.984C277.988 28.984 277.987 28.984 277.986 28.984C277.986 28.984 277.985 28.984 277.984 28.984C277.983 28.984 277.982 28.984 277.982 28.984C277.981 28.984 277.98 28.984 277.979 28.984C277.979 28.984 277.978 28.984 277.977 28.984C277.976 28.984 277.975 28.984 277.975 28.984C277.974 28.984 277.973 28.984 277.972 28.984C277.972 28.984 277.971 28.984 277.97 28.984C277.969 28.984 277.968 28.984 277.968 28.984C277.967 28.984 277.966 28.984 277.965 28.984C277.965 28.984 277.964 28.984 277.963 28.984C277.962 28.984 277.961 28.984 277.961 28.984C277.96 28.984 277.959 28.984 277.958 28.984C277.958 28.984 277.957 28.984 277.956 28.984C277.955 28.984 277.954 28.984 277.954 28.984C277.953 28.984 277.952 28.984 277.951 28.984C277.951 28.984 277.95 28.984 277.949 28.984C277.948 28.984 277.947 28.984 277.947 28.984C277.946 28.984 277.945 28.984 277.944 28.984C277.943 28.984 277.943 28.984 277.942 28.984C277.941 28.984 277.94 28.984 277.94 28.984C277.939 28.984 277.938 28.984 277.937 28.984C277.936 28.984 277.936 28.984 277.935 28.984C277.934 28.984 277.933 28.984 277.932 28.984C277.932 28.984 277.931 28.984 277.93 28.984C277.929 28.984 277.929 28.984 277.928 28.984C277.927 28.984 277.926 28.984 277.925 28.984C277.925 28.984 277.924 28.984 277.923 28.984C277.922 28.984 277.921 28.984 277.921 28.984C277.92 28.984 277.919 28.984 277.918 28.984C277.918 28.984 277.917 28.984 277.916 28.984C277.915 28.984 277.914 28.984 277.914 28.984C277.913 28.984 277.912 28.984 277.911 28.984C277.91 28.984 277.91 28.984 277.909 28.984C277.908 28.984 277.907 28.984 277.906 28.984C277.906 28.984 277.905 28.984 277.904 28.984C277.903 28.984 277.903 28.984 277.902 28.984C277.901 28.984 277.9 28.984 277.899 28.984C277.899 28.984 277.898 28.984 277.897 28.984C277.896 28.984 277.895 28.984 277.895 28.984C277.894 28.984 277.893 28.984 277.892 28.984C277.891 28.984 277.891 28.984 277.89 28.984C277.889 28.984 277.888 28.984 277.888 28.984C277.887 28.984 277.886 28.984 277.885 28.984C277.884 28.984 277.884 28.984 277.883 28.984C277.882 28.984 277.881 28.984 277.88 28.984C277.88 28.984 277.879 28.984 277.878 28.984C277.877 28.984 277.876 28.984 277.876 28.984C277.875 28.984 277.874 28.984 277.873 28.984C277.872 28.984 277.872 28.984 277.871 28.984C277.87 28.984 277.869 28.984 277.868 28.984C277.868 28.984 277.867 28.984 277.866 28.984C277.865 28.984 277.864 28.984 277.864 28.984C277.863 28.984 277.862 28.984 277.861 28.984C277.86 28.984 277.86 28.984 277.859 28.984C277.858 28.984 277.857 28.984 277.857 28.984C277.856 28.984 277.855 28.984 277.854 28.984C277.853 28.984 277.853 28.984 277.852 28.984C277.851 28.984 277.85 28.984 277.849 28.984C277.849 28.984 277.848 28.984 277.847 28.984C277.846 28.984 277.845 28.984 277.845 28.984C277.844 28.984 277.843 28.984 277.842 28.984C277.841 28.984 277.841 28.984 277.84 28.984C277.839 28.984 277.838 28.984 277.837 28.984C277.837 28.984 277.836 28.984 277.835 28.984C277.834 28.984 277.833 28.984 277.833 28.984C277.832 28.984 277.831 28.984 277.83 28.984C277.829 28.984 277.829 28.984 277.828 28.984C277.827 28.984 277.826 28.984 277.825 28.984C277.825 28.984 277.824 28.984 277.823 28.984C277.822 28.984 277.821 28.984 277.821 28.984C277.82 28.984 277.819 28.984 277.818 28.984C277.817 28.984 277.816 28.984 277.816 28.984C277.815 28.984 277.814 28.984 277.813 28.984C277.812 28.984 277.812 28.984 277.811 28.984C277.81 28.984 277.809 28.984 277.808 28.984C277.808 28.984 277.807 28.984 277.806 28.984C277.805 28.984 277.804 28.984 277.804 28.984C277.803 28.984 277.802 28.984 277.801 28.984C277.8 28.984 277.8 28.984 277.799 28.984C277.798 28.984 277.797 28.984 277.796 28.984C277.796 28.984 277.795 28.984 277.794 28.984C277.793 28.984 277.792 28.984 277.792 28.984C277.791 28.984 277.79 28.984 277.789 28.984C277.788 28.984 277.787 28.984 277.787 28.984C277.786 28.984 277.785 28.984 277.784 28.984C277.783 28.984 277.783 28.984 277.782 28.984C277.781 28.984 277.78 28.984 277.779 28.984C277.779 28.984 277.778 28.984 277.777 28.984C277.776 28.984 277.775 28.984 277.775 28.984C277.774 28.984 277.773 28.984 277.772 28.984C277.771 28.984 277.77 28.984 277.77 28.984C277.769 28.984 277.768 28.984 277.767 28.984C277.766 28.984 277.766 28.984 277.765 28.984C277.764 28.984 277.763 28.984 277.762 28.984C277.762 28.984 277.761 28.984 277.76 28.984C277.759 28.984 277.758 28.984 277.758 28.984C277.757 28.984 277.756 28.984 277.755 28.984C277.754 28.984 277.753 28.984 277.753 28.984C277.752 28.984 277.751 28.984 277.75 28.984C277.749 28.984 277.749 28.984 277.748 28.984C277.747 28.984 277.746 28.984 277.745 28.984C277.745 28.984 277.744 28.984 277.743 28.984C277.742 28.984 277.741 28.984 277.74 28.984C277.74 28.984 277.739 28.984 277.738 28.984C277.737 28.984 277.736 28.984 277.736 28.984C277.735 28.984 277.734 28.984 277.733 28.984C277.732 28.984 277.731 28.984 277.731 28.984C277.73 28.984 277.729 28.984 277.728 28.984C277.727 28.984 277.727 28.984 277.726 28.984C277.725 28.984 277.724 28.984 277.723 28.984C277.722 28.984 277.722 28.984 277.721 28.984C277.72 28.984 277.719 28.984 277.718 28.984C277.718 28.984 277.717 28.984 277.716 28.984C277.715 28.984 277.714 28.984 277.713 28.984C277.713 28.984 277.712 28.984 277.711 28.984C277.71 28.984 277.709 28.984 277.709 28.984C277.708 28.984 277.707 28.984 277.706 28.984C277.705 28.984 277.704 28.984 277.704 28.984C277.703 28.984 277.702 28.984 277.701 28.984C277.7 28.984 277.7 28.984 277.699 28.984C277.698 28.984 277.697 28.984 277.696 28.984C277.695 28.984 277.695 28.984 277.694 28.984C277.693 28.984 277.692 28.984 277.691 28.984C277.691 28.984 277.69 28.984 277.689 28.984C277.688 28.984 277.687 28.984 277.686 28.984C277.686 28.984 277.685 28.984 277.684 28.984C277.683 28.984 277.682 28.984 277.681 28.984C277.681 28.984 277.68 28.984 277.679 28.984C277.678 28.984 277.677 28.984 277.677 28.984C277.676 28.984 277.675 28.984 277.674 28.984C277.673 28.984 277.672 28.984 277.672 28.984C277.671 28.984 277.67 28.984 277.669 28.984C277.668 28.984 277.667 28.984 277.667 28.984C277.666 28.984 277.665 28.984 277.664 28.984C277.663 28.984 277.662 28.984 277.662 28.984C277.661 28.984 277.66 28.984 277.659 28.984C277.658 28.984 277.658 28.984 277.657 28.984C277.656 28.984 277.655 28.984 277.654 28.984C277.653 28.984 277.653 28.984 277.652 28.984C277.651 28.984 277.65 28.984 277.649 28.984C277.648 28.984 277.648 28.984 277.647 28.984C277.646 28.984 277.645 28.984 277.644 28.984C277.643 28.984 277.643 28.984 277.642 28.984C277.641 28.984 277.64 28.984 277.639 28.984C277.638 28.984 277.638 28.984 277.637 28.984C277.636 28.984 277.635 28.984 277.634 28.984C277.633 28.984 277.633 28.984 277.632 28.984C277.631 28.984 277.63 28.984 277.629 28.984C277.628 28.984 277.628 28.984 277.627 28.984C277.626 28.984 277.625 28.984 277.624 28.984C277.623 28.984 277.623 28.984 277.622 28.984C277.621 28.984 277.62 28.984 277.619 28.984C277.619 28.984 277.618 28.984 277.617 28.984C277.616 28.984 277.615 28.984 277.614 28.984C277.614 28.984 277.613 28.984 277.612 28.984C277.611 28.984 277.61 28.984 277.609 28.984C277.609 28.984 277.608 28.984 277.607 28.984C277.606 28.984 277.605 28.984 277.604 28.984C277.603 28.984 277.603 28.984 277.602 28.984C277.601 28.984 277.6 28.984 277.599 28.984C277.598 28.984 277.598 28.984 277.597 28.984C277.596 28.984 277.595 28.984 277.594 28.984C277.593 28.984 277.593 28.984 277.592 28.984C277.591 28.984 277.59 28.984 277.589 28.984C277.588 28.984 277.588 28.984 277.587 28.984C277.586 28.984 277.585 28.984 277.584 28.984C277.583 28.984 277.583 28.984 277.582 28.984C277.581 28.984 277.58 28.984 277.579 28.984C277.578 28.984 277.578 28.984 277.577 28.984C277.576 28.984 277.575 28.984 277.574 28.984C277.573 28.984 277.573 28.984 277.572 28.984C277.571 28.984 277.57 28.984 277.569 28.984C277.568 28.984 277.567 28.984 277.567 28.984C277.566 28.984 277.565 28.984 277.564 28.984C277.563 28.984 277.562 28.984 277.562 28.984C277.561 28.984 277.56 28.984 277.559 28.984C277.558 28.984 277.557 28.984 277.557 28.984C277.556 28.984 277.555 28.984 277.554 28.984C277.553 28.984 277.552 28.984 277.551 28.984C277.551 28.984 277.55 28.984 277.549 28.984C277.548 28.984 277.547 28.984 277.546 28.984C277.546 28.984 277.545 28.984 277.544 28.984V30.984ZM278.696 30.984C278.989 30.984 279.207 31.0053 279.364 31.0366L279.756 29.0754C279.433 29.0107 279.075 28.984 278.696 28.984V30.984ZM278.56 30.056V37.184H280.56V30.056H278.56ZM342.922 68V69H343.922V68H342.922ZM335.002 68H334.002V69H335.002V68ZM333.274 39.272L332.449 39.8376L332.457 39.8487L333.274 39.272ZM322.042 39.272L322.699 40.0258L322.7 40.0246L322.042 39.272ZM318.082 45.68L317.121 45.4007L317.082 45.5375V45.68H318.082ZM318.082 68V69H319.082V68H318.082ZM310.162 68H309.162V69H310.162V68ZM308.434 39.2L307.617 39.7767L307.625 39.7882L308.434 39.2ZM297.274 39.2L296.626 38.438L296.616 38.4462L297.274 39.2ZM293.242 45.608L292.286 45.3127L292.242 45.457V45.608H293.242ZM293.242 68V69H294.242V68H293.242ZM285.322 68H284.322V69H285.322V68ZM285.322 30.344V29.344H284.322V30.344H285.322ZM292.522 30.344H293.522V29.344H292.522V30.344ZM292.522 37.904H291.522L293.399 38.3829L292.522 37.904ZM298.354 31.856L298.848 32.7253L298.854 32.7217L298.861 32.7179L298.354 31.856ZM314.05 32.144L313.373 32.8804L313.383 32.8892L314.05 32.144ZM317.434 38.264L316.449 38.4378L316.929 41.1617L318.302 38.7601L317.434 38.264ZM338.53 31.856L337.868 32.6058L337.874 32.6114L337.881 32.6168L338.53 31.856ZM341.914 37.472L340.947 37.7284L340.95 37.7403L340.954 37.752L341.914 37.472ZM342.922 67H335.002V69H342.922V67ZM336.002 68V46.904H334.002V68H336.002ZM336.002 46.904C336.002 43.3756 335.421 40.5798 334.091 38.6953L332.457 39.8487C333.43 41.2282 334.002 43.5204 334.002 46.904H336.002ZM334.098 38.7065C332.742 36.7287 330.739 35.752 328.234 35.752V37.752C330.144 37.752 331.501 38.4553 332.449 39.8375L334.098 38.7065ZM328.234 35.752C325.746 35.752 323.455 36.7062 321.383 38.5194L322.7 40.0246C324.468 38.4778 326.305 37.752 328.234 37.752V35.752ZM321.384 38.5182C319.353 40.2894 317.937 42.5972 317.121 45.4007L319.042 45.9593C319.762 43.4828 320.986 41.5186 322.699 40.0258L321.384 38.5182ZM317.082 45.68V68H319.082V45.68H317.082ZM318.082 67H310.162V69H318.082V67ZM311.162 68V46.904H309.162V68H311.162ZM311.162 46.904C311.162 43.2908 310.585 40.4576 309.242 38.6118L307.625 39.7882C308.586 41.1104 309.162 43.4132 309.162 46.904H311.162ZM309.251 38.6233C307.894 36.7015 305.92 35.752 303.466 35.752V37.752C305.332 37.752 306.669 38.4345 307.617 39.7767L309.251 38.6233ZM303.466 35.752C300.987 35.752 298.7 36.6754 296.626 38.4381L297.921 39.9619C299.688 38.4606 301.528 37.752 303.466 37.752V35.752ZM296.616 38.4462C294.589 40.2138 293.151 42.5157 292.286 45.3127L294.197 45.9033C294.964 43.4203 296.214 41.4502 297.931 39.9538L296.616 38.4462ZM292.242 45.608V68H294.242V45.608H292.242ZM293.242 67H285.322V69H293.242V67ZM286.322 68V30.344H284.322V68H286.322ZM285.322 31.344H292.522V29.344H285.322V31.344ZM291.522 30.344V37.904H293.522V30.344H291.522ZM293.399 38.3829C294.757 35.8946 296.573 34.0191 298.848 32.7253L297.859 30.9867C295.239 32.4769 293.166 34.6334 291.644 37.4251L293.399 38.3829ZM298.861 32.7179C301.14 31.3771 303.746 30.696 306.706 30.696V28.696C303.425 28.696 300.463 29.4549 297.847 30.9941L298.861 32.7179ZM306.706 30.696C309.651 30.696 311.831 31.463 313.373 32.8803L314.726 31.4077C312.717 29.561 310 28.696 306.706 28.696V30.696ZM313.383 32.8892C315.037 34.3693 316.055 36.2068 316.449 38.4378L318.418 38.0902C317.948 35.4252 316.71 33.1827 314.716 31.3988L313.383 32.8892ZM318.302 38.7601C321.401 33.3358 325.811 30.696 331.618 30.696V28.696C325.04 28.696 319.994 31.7682 316.565 37.7679L318.302 38.7601ZM331.618 30.696C334.44 30.696 336.476 31.378 337.868 32.6058L339.191 31.1062C337.319 29.454 334.747 28.696 331.618 28.696V30.696ZM337.881 32.6168C339.338 33.8596 340.368 35.5456 340.947 37.7284L342.88 37.2156C342.211 34.6944 340.985 32.6364 339.179 31.0952L337.881 32.6168ZM340.954 37.752C341.596 39.9533 341.922 42.3778 341.922 45.032H343.922C343.922 42.2142 343.576 39.5987 342.874 37.192L340.954 37.752ZM341.922 45.032V68H343.922V45.032H341.922Z" fill="black"/>
</svg>
