<svg width="194" height="87" viewBox="0 0 194 87" fill="none" xmlns="http://www.w3.org/2000/svg">
<path d="M5.76 70V18.88H13.824V62.872H41.256V70H5.76ZM63.3673 70.72C59.4313 70.72 55.9993 69.832 53.0713 68.056C50.1913 66.232 47.9593 63.856 46.3753 60.928C44.7913 57.952 43.9993 54.712 43.9993 51.208C43.9993 47.704 44.7913 44.488 46.3753 41.56C48.0073 38.584 50.2633 36.208 53.1433 34.432C56.0713 32.608 59.4793 31.696 63.3673 31.696C67.2553 31.696 70.6393 32.608 73.5193 34.432C76.4473 36.208 78.7033 38.584 80.2873 41.56C81.9193 44.488 82.7353 47.704 82.7353 51.208C82.7353 54.712 81.9433 57.952 80.3593 60.928C78.7753 63.856 76.5193 66.232 73.5913 68.056C70.7113 69.832 67.3033 70.72 63.3673 70.72ZM52.1353 51.28C52.1353 53.68 52.6393 55.84 53.6473 57.76C54.6553 59.68 55.9993 61.192 57.6793 62.296C59.3593 63.4 61.2553 63.952 63.3673 63.952C65.4313 63.952 67.3033 63.4 68.9833 62.296C70.7113 61.144 72.0793 59.608 73.0873 57.688C74.0953 55.768 74.5993 53.608 74.5993 51.208C74.5993 48.808 74.0953 46.648 73.0873 44.728C72.0793 42.808 70.7113 41.296 68.9833 40.192C67.3033 39.04 65.4313 38.464 63.3673 38.464C61.3033 38.464 59.4073 39.04 57.6793 40.192C55.9993 41.296 54.6553 42.832 53.6473 44.8C52.6393 46.72 52.1353 48.88 52.1353 51.28ZM104.664 70.36C101.256 70.36 98.2558 69.472 95.6638 67.696C93.1198 65.92 91.1038 63.592 89.6158 60.712C88.1758 57.784 87.4558 54.616 87.4558 51.208C87.4558 47.656 88.1998 44.392 89.6878 41.416C91.1758 38.44 93.2158 36.088 95.8078 34.36C98.4478 32.584 101.496 31.696 104.952 31.696C107.976 31.696 110.616 32.416 112.872 33.856C115.176 35.296 117.072 37.168 118.56 39.472V32.344H125.544V68.92C125.544 72.568 124.656 75.664 122.88 78.208C121.152 80.752 118.776 82.696 115.752 84.04C112.728 85.384 109.32 86.056 105.528 86.056C101.352 86.056 97.8718 85.336 95.0878 83.896C92.3518 82.456 90.0478 80.488 88.1758 77.992L92.6398 73.816C94.0798 75.832 95.9278 77.368 98.1838 78.424C100.488 79.48 102.936 80.008 105.528 80.008C107.688 80.008 109.68 79.6 111.504 78.784C113.376 78.016 114.864 76.816 115.968 75.184C117.072 73.552 117.624 71.464 117.624 68.92V63.16C116.28 65.416 114.432 67.192 112.08 68.488C109.728 69.736 107.256 70.36 104.664 70.36ZM107.256 63.952C108.84 63.952 110.352 63.616 111.792 62.944C113.232 62.224 114.456 61.288 115.464 60.136C116.52 58.984 117.24 57.76 117.624 56.464V46.6C116.664 44.2 115.152 42.256 113.088 40.768C111.072 39.232 108.936 38.464 106.68 38.464C104.376 38.464 102.384 39.088 100.704 40.336C99.0718 41.584 97.7998 43.216 96.8878 45.232C95.9758 47.2 95.5198 49.264 95.5198 51.424C95.5198 53.728 96.0238 55.84 97.0318 57.76C98.0878 59.632 99.5038 61.144 101.28 62.296C103.056 63.4 105.048 63.952 107.256 63.952ZM135.041 26.152V17.44H142.961V26.152H135.041ZM135.041 70V32.344H142.961V70H135.041ZM186.247 70H178.327V48.904C178.327 45.352 177.751 42.784 176.599 41.2C175.495 39.568 173.839 38.752 171.631 38.752C170.095 38.752 168.559 39.136 167.023 39.904C165.535 40.672 164.191 41.728 162.991 43.072C161.791 44.416 160.927 45.928 160.399 47.608V70H152.479V32.344H159.679V39.904C161.119 37.408 163.207 35.416 165.943 33.928C168.679 32.44 171.703 31.696 175.015 31.696C177.991 31.696 180.295 32.416 181.927 33.856C183.559 35.248 184.687 37.096 185.311 39.4C185.935 41.704 186.247 44.248 186.247 47.032V70Z" fill="black"/>
<path d="M8.76 68H7.76V69H8.76V68ZM8.76 16.88V15.88H7.76V16.88H8.76ZM16.824 16.88H17.824V15.88H16.824V16.88ZM16.824 60.872H15.824V61.872H16.824V60.872ZM44.256 60.872H45.256V59.872H44.256V60.872ZM44.256 68V69H45.256V68H44.256ZM9.76 68V16.88H7.76V68H9.76ZM8.76 17.88H16.824V15.88H8.76V17.88ZM15.824 16.88V60.872H17.824V16.88H15.824ZM16.824 61.872H44.256V59.872H16.824V61.872ZM43.256 60.872V68H45.256V60.872H43.256ZM44.256 67H8.76V69H44.256V67ZM56.0713 66.056L55.5363 66.9008L55.5444 66.906L55.5527 66.911L56.0713 66.056ZM49.3753 58.928L48.4925 59.3979L48.4958 59.4038L49.3753 58.928ZM49.3753 39.56L48.4985 39.0792L48.4958 39.0842L49.3753 39.56ZM56.1433 32.432L56.6682 33.2832L56.6721 33.2808L56.1433 32.432ZM76.5193 32.432L75.9843 33.2768L75.9924 33.282L76.0007 33.287L76.5193 32.432ZM83.2873 39.56L82.4046 40.0298L82.4091 40.0384L82.4138 40.0469L83.2873 39.56ZM83.3593 58.928L84.2389 59.4038L84.2421 59.3978L83.3593 58.928ZM76.5913 66.056L77.1162 66.9072L77.1201 66.9048L76.5913 66.056ZM56.6473 55.76L55.7619 56.2248L55.7619 56.2248L56.6473 55.76ZM60.6793 60.296L61.2285 59.4603L61.2285 59.4603L60.6793 60.296ZM71.9833 60.296L72.5325 61.1317L72.538 61.128L71.9833 60.296ZM76.0873 55.688L76.9727 56.1528L76.9727 56.1528L76.0873 55.688ZM76.0873 42.728L75.2019 43.1928L75.2019 43.1928L76.0873 42.728ZM71.9833 38.192L71.4178 39.0167L71.4312 39.0259L71.4449 39.0347L71.9833 38.192ZM60.6793 38.192L61.2285 39.0277L61.234 39.024L60.6793 38.192ZM56.6473 42.8L57.5328 43.2649L57.5374 43.2559L56.6473 42.8ZM66.3673 67.72C62.5864 67.72 59.3394 66.8687 56.5899 65.201L55.5527 66.911C58.6593 68.7953 62.2763 69.72 66.3673 69.72V67.72ZM56.6064 65.2112C53.8672 63.4764 51.7555 61.226 50.2549 58.4522L48.4958 59.4038C50.1632 62.486 52.5154 64.9876 55.5363 66.9008L56.6064 65.2112ZM50.2581 58.4582C48.7541 55.6326 47.9993 52.5548 47.9993 49.208H45.9993C45.9993 52.8692 46.8285 56.2714 48.4926 59.3978L50.2581 58.4582ZM47.9993 49.208C47.9993 45.8611 48.7541 42.8099 50.2549 40.0358L48.4958 39.0842C46.8285 42.1661 45.9993 45.5469 45.9993 49.208H47.9993ZM50.2521 40.0408C51.8011 37.2162 53.9361 34.968 56.6682 33.2832L55.6184 31.5808C52.5905 33.448 50.2135 35.9518 48.4985 39.0792L50.2521 40.0408ZM56.6721 33.2808C59.4219 31.5678 62.6418 30.696 66.3673 30.696V28.696C62.3168 28.696 58.7207 29.6482 55.6146 31.5832L56.6721 33.2808ZM66.3673 30.696C70.0932 30.696 73.2859 31.5679 75.9843 33.2768L77.0544 31.5872C73.9927 29.6481 70.4175 28.696 66.3673 28.696V30.696ZM76.0007 33.287C78.7774 34.9713 80.9065 37.2153 82.4046 40.0298L84.1701 39.0902C82.5001 35.9527 80.1172 33.4447 77.0379 31.577L76.0007 33.287ZM82.4138 40.0469C83.959 42.8192 84.7353 45.8664 84.7353 49.208H86.7353C86.7353 45.5416 85.8796 42.1568 84.1608 39.0731L82.4138 40.0469ZM84.7353 49.208C84.7353 52.5548 83.9805 55.6326 82.4766 58.4582L84.2421 59.3978C85.9061 56.2714 86.7353 52.8692 86.7353 49.208H84.7353ZM82.4798 58.4522C80.9814 61.2219 78.8488 63.4715 76.0626 65.2072L77.1201 66.9048C80.1898 64.9925 82.5692 62.4901 84.2389 59.4038L82.4798 58.4522ZM76.0664 65.2048C73.3685 66.8686 70.1487 67.72 66.3673 67.72V69.72C70.4579 69.72 74.0541 68.7954 77.1162 66.9072L76.0664 65.2048ZM54.1353 49.28C54.1353 51.8243 54.6709 54.1467 55.7619 56.2248L57.5327 55.2952C56.6078 53.5333 56.1353 51.5356 56.1353 49.28H54.1353ZM55.7619 56.2248C56.8423 58.2828 58.2974 59.9273 60.1301 61.1317L61.2285 59.4603C59.7012 58.4567 58.4683 57.0772 57.5327 55.2952L55.7619 56.2248ZM60.1301 61.1317C61.9817 62.3485 64.0705 62.952 66.3673 62.952V60.952C64.4401 60.952 62.7369 60.4515 61.2285 59.4603L60.1301 61.1317ZM66.3673 62.952C68.621 62.952 70.6848 62.3459 72.5325 61.1317L71.4341 59.4603C69.9218 60.4541 68.2417 60.952 66.3673 60.952V62.952ZM72.538 61.128C74.4115 59.8791 75.8905 58.2142 76.9727 56.1528L75.2019 55.2232C74.2681 57.0018 73.0112 58.4089 71.4286 59.4639L72.538 61.128ZM76.9727 56.1528C78.0638 54.0747 78.5993 51.7523 78.5993 49.208H76.5993C76.5993 51.4636 76.1269 53.4613 75.2019 55.2232L76.9727 56.1528ZM78.5993 49.208C78.5993 46.6636 78.0638 44.3413 76.9727 42.2632L75.2019 43.1928C76.1269 44.9546 76.5993 46.9523 76.5993 49.208H78.5993ZM76.9727 42.2632C75.8887 40.1984 74.4048 38.5524 72.5217 37.3493L71.4449 39.0347C73.0179 40.0396 74.2699 41.4176 75.2019 43.1928L76.9727 42.2632ZM72.5488 37.3673C70.7 36.0995 68.6303 35.464 66.3673 35.464V37.464C68.2323 37.464 69.9066 37.9805 71.4178 39.0167L72.5488 37.3673ZM66.3673 35.464C64.1046 35.464 62.0158 36.0992 60.1246 37.3599L61.234 39.024C62.7988 37.9808 64.502 37.464 66.3673 37.464V35.464ZM60.1301 37.3563C58.2914 38.5646 56.836 40.2379 55.7573 42.3441L57.5374 43.2559C58.4746 41.4261 59.7072 40.0274 61.2285 39.0277L60.1301 37.3563ZM55.7619 42.3352C54.6709 44.4133 54.1353 46.7356 54.1353 49.28H56.1353C56.1353 47.0243 56.6078 45.0267 57.5327 43.2648L55.7619 42.3352ZM98.6638 65.696L98.0914 66.516L98.0986 66.5209L98.6638 65.696ZM92.6158 58.712L91.7185 59.1533L91.7228 59.1622L91.7274 59.171L92.6158 58.712ZM92.6878 39.416L93.5822 39.8632L93.5822 39.8632L92.6878 39.416ZM98.8078 32.36L99.3625 33.1921L99.366 33.1897L98.8078 32.36ZM115.872 31.856L115.334 32.699L115.342 32.704L115.872 31.856ZM121.56 37.472L120.72 38.0145L122.56 40.8636V37.472H121.56ZM121.56 30.344V29.344H120.56V30.344H121.56ZM128.544 30.344H129.544V29.344H128.544V30.344ZM125.88 76.208L125.06 75.6355L125.053 75.6461L125.88 76.208ZM98.0878 81.896L97.6221 82.7809L97.6284 82.7842L98.0878 81.896ZM91.1758 75.992L90.4927 75.2617L89.8377 75.8745L90.3758 76.592L91.1758 75.992ZM95.6398 71.816L96.4535 71.2348L95.7902 70.306L94.9567 71.0857L95.6398 71.816ZM101.184 76.424L100.76 77.3297L100.767 77.3331L101.184 76.424ZM114.504 76.784L114.124 75.8588L114.11 75.8648L114.095 75.8712L114.504 76.784ZM120.624 61.16H121.624V57.5276L119.765 60.6482L120.624 61.16ZM115.08 66.488L115.549 67.3713L115.556 67.3676L115.562 67.3638L115.08 66.488ZM114.792 60.944L115.215 61.8502L115.227 61.8445L115.239 61.8384L114.792 60.944ZM118.464 58.136L117.727 57.4603L117.719 57.4688L117.711 57.4775L118.464 58.136ZM120.624 54.464L121.583 54.7481L121.624 54.609V54.464H120.624ZM120.624 44.6H121.624V44.4074L121.552 44.2286L120.624 44.6ZM116.088 38.768L115.482 39.5634L115.492 39.5714L115.503 39.5792L116.088 38.768ZM103.704 38.336L103.107 37.5332L103.096 37.5416L103.704 38.336ZM99.8878 43.232L100.795 43.6525L100.799 43.6442L99.8878 43.232ZM100.032 55.76L99.1464 56.2248L99.1534 56.2382L99.1608 56.2513L100.032 55.76ZM104.28 60.296L103.736 61.135L103.744 61.1402L103.752 61.1453L104.28 60.296ZM107.664 67.36C104.44 67.36 101.64 66.5233 99.229 64.8711L98.0986 66.5209C100.871 68.4207 104.072 69.36 107.664 69.36V67.36ZM99.2362 64.876C96.8313 63.1971 94.9212 60.9955 93.5042 58.253L91.7274 59.171C93.2864 62.1885 95.4083 64.6429 98.0914 66.516L99.2362 64.876ZM93.5132 58.2707C92.1437 55.4861 91.4558 52.47 91.4558 49.208H89.4558C89.4558 52.762 90.2079 56.0819 91.7185 59.1533L93.5132 58.2707ZM91.4558 49.208C91.4558 45.8005 92.1683 42.6911 93.5822 39.8632L91.7934 38.9688C90.2313 42.0929 89.4558 45.5115 89.4558 49.208H91.4558ZM93.5822 39.8632C94.9979 37.0319 96.9252 34.8169 99.3625 33.192L98.2531 31.5279C95.5064 33.3591 93.3537 35.8481 91.7934 38.9688L93.5822 39.8632ZM99.366 33.1897C101.827 31.5343 104.677 30.696 107.952 30.696V28.696C104.315 28.696 101.069 29.6337 98.2496 31.5303L99.366 33.1897ZM107.952 30.696C110.811 30.696 113.259 31.3744 115.334 32.6989L116.41 31.0131C113.973 29.4576 111.141 28.696 107.952 28.696V30.696ZM115.342 32.704C117.52 34.0654 119.311 35.8327 120.72 38.0145L122.4 36.9295C120.833 34.5033 118.832 32.5266 116.402 31.008L115.342 32.704ZM122.56 37.472V30.344H120.56V37.472H122.56ZM121.56 31.344H128.544V29.344H121.56V31.344ZM127.544 30.344V66.92H129.544V30.344H127.544ZM127.544 66.92C127.544 70.4002 126.699 73.2874 125.06 75.6356L126.7 76.7804C128.612 74.0406 129.544 70.7358 129.544 66.92H127.544ZM125.053 75.6461C123.437 78.0241 121.213 79.8519 118.346 81.1262L119.158 82.9538C122.339 81.5401 124.866 79.4799 126.707 76.7699L125.053 75.6461ZM118.346 81.1262C115.467 82.4056 112.2 83.056 108.528 83.056V85.056C112.439 85.056 115.989 84.3624 119.158 82.9538L118.346 81.1262ZM108.528 83.056C104.461 83.056 101.15 82.354 98.5472 81.0078L97.6284 82.7842C100.594 84.318 104.243 85.056 108.528 85.056V83.056ZM98.5536 81.0111C95.9499 79.6408 93.7597 77.7706 91.9758 75.392L90.3758 76.592C92.3359 79.2055 94.7537 81.2712 97.6221 82.7809L98.5536 81.0111ZM91.859 76.7223L96.323 72.5463L94.9567 71.0857L90.4927 75.2617L91.859 76.7223ZM94.8261 72.3972C96.3665 74.5539 98.3491 76.2012 100.76 77.3297L101.608 75.5183C99.5065 74.5348 97.7931 73.1101 96.4535 71.2348L94.8261 72.3972ZM100.767 77.3331C103.205 78.4504 105.795 79.008 108.528 79.008V77.008C106.076 77.008 103.771 76.5096 101.6 75.5149L100.767 77.3331ZM108.528 79.008C110.817 79.008 112.95 78.5748 114.912 77.6968L114.095 75.8712C112.41 76.6252 110.559 77.008 108.528 77.008V79.008ZM114.883 77.7092C116.932 76.8685 118.579 75.5441 119.796 73.7443L118.14 72.6237C117.149 74.0879 115.819 75.1635 114.124 75.8588L114.883 77.7092ZM119.796 73.7443C121.04 71.9048 121.624 69.606 121.624 66.92H119.624C119.624 69.322 119.103 71.1992 118.14 72.6237L119.796 73.7443ZM121.624 66.92V61.16H119.624V66.92H121.624ZM119.765 60.6482C118.514 62.748 116.797 64.3999 114.597 65.6122L115.562 67.3638C118.066 65.9841 120.046 64.084 121.483 61.6718L119.765 60.6482ZM114.611 65.6047C112.399 66.7782 110.088 67.36 107.664 67.36V69.36C110.424 69.36 113.056 68.6938 115.549 67.3713L114.611 65.6047ZM110.256 62.952C111.986 62.952 113.643 62.5838 115.215 61.8502L114.369 60.0378C113.061 60.6482 111.693 60.952 110.256 60.952V62.952ZM115.239 61.8384C116.789 61.0634 118.119 60.0492 119.216 58.7945L117.711 57.4775C116.793 58.5268 115.675 59.3846 114.345 60.0496L115.239 61.8384ZM119.201 58.8117C120.344 57.5652 121.149 56.2109 121.583 54.7481L119.665 54.1799C119.33 55.3091 118.696 56.4028 117.727 57.4603L119.201 58.8117ZM121.624 54.464V44.6H119.624V54.464H121.624ZM121.552 44.2286C120.523 41.6553 118.893 39.5577 116.673 37.9568L115.503 39.5792C117.41 40.9543 118.805 42.7447 119.695 44.9714L121.552 44.2286ZM116.694 37.9726C114.526 36.3211 112.182 35.464 109.68 35.464V37.464C111.69 37.464 113.617 38.1429 115.482 39.5634L116.694 37.9726ZM109.68 35.464C107.184 35.464 104.977 36.1442 103.107 37.5333L104.3 39.1387C105.79 38.0318 107.568 37.464 109.68 37.464V35.464ZM103.096 37.5416C101.323 38.8976 99.9514 40.6652 98.9767 42.8198L100.799 43.6442C101.648 41.7668 102.821 40.2704 104.311 39.1304L103.096 37.5416ZM98.9805 42.8115C98.0077 44.9107 97.5198 47.1181 97.5198 49.424H99.5198C99.5198 47.4098 99.9439 45.4893 100.795 43.6525L98.9805 42.8115ZM97.5198 49.424C97.5198 51.8795 98.0584 54.1525 99.1464 56.2248L100.917 55.2952C99.9892 53.5275 99.5198 51.5765 99.5198 49.424H97.5198ZM99.1608 56.2513C100.295 58.2616 101.822 59.8938 103.736 61.135L104.824 59.457C103.186 58.3942 101.881 57.0024 100.903 55.2687L99.1608 56.2513ZM103.752 61.1453C105.695 62.3534 107.872 62.952 110.256 62.952V60.952C108.224 60.952 106.416 60.4466 104.808 59.4467L103.752 61.1453ZM138.041 24.152H137.041V25.152H138.041V24.152ZM138.041 15.44V14.44H137.041V15.44H138.041ZM145.961 15.44H146.961V14.44H145.961V15.44ZM145.961 24.152V25.152H146.961V24.152H145.961ZM138.041 68H137.041V69H138.041V68ZM138.041 30.344V29.344H137.041V30.344H138.041ZM145.961 30.344H146.961V29.344H145.961V30.344ZM145.961 68V69H146.961V68H145.961ZM139.041 24.152V15.44H137.041V24.152H139.041ZM138.041 16.44H145.961V14.44H138.041V16.44ZM144.961 15.44V24.152H146.961V15.44H144.961ZM145.961 23.152H138.041V25.152H145.961V23.152ZM139.041 68V30.344H137.041V68H139.041ZM138.041 31.344H145.961V29.344H138.041V31.344ZM144.961 30.344V68H146.961V30.344H144.961ZM145.961 67H138.041V69H145.961V67ZM189.247 68V69H190.247V68H189.247ZM181.327 68H180.327V69H181.327V68ZM179.599 39.2L178.77 39.7603L178.78 39.7744L178.79 39.7882L179.599 39.2ZM170.023 37.904L169.575 37.0095L169.564 37.0154L170.023 37.904ZM163.399 45.608L162.445 45.3082L162.399 45.4546V45.608H163.399ZM163.399 68V69H164.399V68H163.399ZM155.479 68H154.479V69H155.479V68ZM155.479 30.344V29.344H154.479V30.344H155.479ZM162.679 30.344H163.679V29.344H162.679V30.344ZM162.679 37.904H161.679V41.6384L163.545 38.4037L162.679 37.904ZM168.943 31.928L168.465 31.0495L168.465 31.0495L168.943 31.928ZM184.927 31.856L184.265 32.6058L184.271 32.6114L184.278 32.6168L184.927 31.856ZM189.247 67H181.327V69H189.247V67ZM182.327 68V46.904H180.327V68H182.327ZM182.327 46.904C182.327 43.2908 181.75 40.4576 180.407 38.6118L178.79 39.7882C179.751 41.1104 180.327 43.4132 180.327 46.904H182.327ZM180.427 38.6397C179.112 36.6961 177.124 35.752 174.631 35.752V37.752C176.553 37.752 177.877 38.4399 178.77 39.7603L180.427 38.6397ZM174.631 35.752C172.922 35.752 171.234 36.1804 169.575 37.0096L170.47 38.7984C171.883 38.0916 173.267 37.752 174.631 37.752V35.752ZM169.564 37.0154C167.959 37.8435 166.52 38.9778 165.245 40.406L166.737 41.738C167.861 40.4782 169.11 39.5005 170.481 38.7926L169.564 37.0154ZM165.245 40.406C163.952 41.8534 163.016 43.4895 162.445 45.3082L164.353 45.9078C164.837 44.3665 165.629 42.9786 166.737 41.738L165.245 40.406ZM162.399 45.608V68H164.399V45.608H162.399ZM163.399 67H155.479V69H163.399V67ZM156.479 68V30.344H154.479V68H156.479ZM155.479 31.344H162.679V29.344H155.479V31.344ZM161.679 30.344V37.904H163.679V30.344H161.679ZM163.545 38.4037C164.885 36.0802 166.833 34.2138 169.42 32.8065L168.465 31.0495C165.58 32.6182 163.352 34.7358 161.812 37.4043L163.545 38.4037ZM169.42 32.8065C172 31.4033 174.859 30.696 178.015 30.696V28.696C174.547 28.696 171.357 29.4767 168.465 31.0495L169.42 32.8065ZM178.015 30.696C180.837 30.696 182.873 31.378 184.265 32.6058L185.588 31.1062C183.716 29.454 181.144 28.696 178.015 28.696V30.696ZM184.278 32.6168C185.739 33.8635 186.768 35.5291 187.345 37.6614L189.276 37.1386C188.605 34.6629 187.378 32.6325 185.576 31.0952L184.278 32.6168ZM187.345 37.6614C187.943 39.8674 188.247 42.322 188.247 45.032H190.247C190.247 42.174 189.926 39.5406 189.276 37.1386L187.345 37.6614ZM188.247 45.032V68H190.247V45.032H188.247Z" fill="black"/>
</svg>
