<svg width="273" height="87" viewBox="0 0 273 87" fill="none" xmlns="http://www.w3.org/2000/svg">
<path d="M36 30.904C35.376 30.184 34.344 29.44 32.904 28.672C31.512 27.856 29.88 27.16 28.008 26.584C26.136 26.008 24.192 25.72 22.176 25.72C18.768 25.72 16.248 26.344 14.616 27.592C13.032 28.84 12.24 30.568 12.24 32.776C12.24 34.408 12.696 35.704 13.608 36.664C14.52 37.576 15.912 38.368 17.784 39.04C19.656 39.664 22.008 40.312 24.84 40.984C28.296 41.8 31.272 42.784 33.768 43.936C36.312 45.04 38.256 46.528 39.6 48.4C40.992 50.272 41.688 52.744 41.688 55.816C41.688 59.32 40.848 62.152 39.168 64.312C37.488 66.472 35.208 68.056 32.328 69.064C29.496 70.024 26.376 70.504 22.968 70.504C19.08 70.504 15.312 69.904 11.664 68.704C8.016 67.504 4.752 65.8 1.872 63.592L5.544 56.68C6.36 57.496 7.656 58.432 9.432 59.488C11.208 60.496 13.272 61.384 15.624 62.152C18.024 62.872 20.52 63.232 23.112 63.232C26.28 63.232 28.728 62.68 30.456 61.576C32.184 60.424 33.048 58.792 33.048 56.68C33.048 54.952 32.472 53.584 31.32 52.576C30.216 51.52 28.608 50.656 26.496 49.984C24.432 49.264 21.936 48.52 19.008 47.752C15.648 46.888 12.84 45.904 10.584 44.8C8.328 43.696 6.624 42.304 5.472 40.624C4.368 38.944 3.816 36.76 3.816 34.072C3.816 30.712 4.632 27.88 6.264 25.576C7.896 23.224 10.104 21.472 12.888 20.32C15.72 19.12 18.888 18.52 22.392 18.52C25.848 18.52 29.04 19.072 31.968 20.176C34.896 21.28 37.464 22.648 39.672 24.28L36 30.904ZM48.7676 26.152V17.44H56.6876V26.152H48.7676ZM48.7676 70V32.344H56.6876V70H48.7676ZM81.1091 70.36C77.7011 70.36 74.7011 69.472 72.1091 67.696C69.5651 65.92 67.5491 63.592 66.0611 60.712C64.6211 57.784 63.9011 54.616 63.9011 51.208C63.9011 47.656 64.6451 44.392 66.1331 41.416C67.6211 38.44 69.6611 36.088 72.2531 34.36C74.8931 32.584 77.9411 31.696 81.3971 31.696C84.4211 31.696 87.0611 32.416 89.3171 33.856C91.6211 35.296 93.5171 37.168 95.0051 39.472V32.344H101.989V68.92C101.989 72.568 101.101 75.664 99.3251 78.208C97.5971 80.752 95.2211 82.696 92.1971 84.04C89.1731 85.384 85.7651 86.056 81.9731 86.056C77.7971 86.056 74.3171 85.336 71.5331 83.896C68.7971 82.456 66.4931 80.488 64.6211 77.992L69.0851 73.816C70.5251 75.832 72.3731 77.368 74.6291 78.424C76.9331 79.48 79.3811 80.008 81.9731 80.008C84.1331 80.008 86.1251 79.6 87.9491 78.784C89.8211 78.016 91.3091 76.816 92.4131 75.184C93.5171 73.552 94.0691 71.464 94.0691 68.92V63.16C92.7251 65.416 90.8771 67.192 88.5251 68.488C86.1731 69.736 83.7011 70.36 81.1091 70.36ZM83.7011 63.952C85.2851 63.952 86.7971 63.616 88.2371 62.944C89.6771 62.224 90.9011 61.288 91.9091 60.136C92.9651 58.984 93.6851 57.76 94.0691 56.464V46.6C93.1091 44.2 91.5971 42.256 89.5331 40.768C87.5171 39.232 85.3811 38.464 83.1251 38.464C80.8211 38.464 78.8291 39.088 77.1491 40.336C75.5171 41.584 74.2451 43.216 73.3331 45.232C72.4211 47.2 71.9651 49.264 71.9651 51.424C71.9651 53.728 72.4691 55.84 73.4771 57.76C74.5331 59.632 75.9491 61.144 77.7251 62.296C79.5011 63.4 81.4931 63.952 83.7011 63.952ZM145.254 70H137.334V48.904C137.334 45.352 136.758 42.784 135.606 41.2C134.502 39.568 132.846 38.752 130.638 38.752C129.102 38.752 127.566 39.136 126.03 39.904C124.542 40.672 123.198 41.728 121.998 43.072C120.798 44.416 119.934 45.928 119.406 47.608V70H111.486V32.344H118.686V39.904C120.126 37.408 122.214 35.416 124.95 33.928C127.686 32.44 130.71 31.696 134.022 31.696C136.998 31.696 139.302 32.416 140.934 33.856C142.566 35.248 143.694 37.096 144.318 39.4C144.942 41.704 145.254 44.248 145.254 47.032V70ZM154.087 53.872V46.744H175.615V53.872H154.087ZM184.392 55.384V32.344H192.312V53.8C192.312 60.568 194.712 63.952 199.512 63.952C201.768 63.952 203.904 63.256 205.92 61.864C207.936 60.424 209.496 58.408 210.6 55.816V32.344H218.52V61.072C218.52 61.984 218.688 62.632 219.024 63.016C219.36 63.4 219.912 63.616 220.68 63.664V70C219.864 70.144 219.192 70.24 218.664 70.288C218.136 70.336 217.632 70.36 217.152 70.36C215.712 70.36 214.512 69.976 213.552 69.208C212.592 68.44 212.04 67.408 211.896 66.112L211.752 62.368C210.072 65.104 207.888 67.192 205.2 68.632C202.512 70.024 199.56 70.72 196.344 70.72C192.408 70.72 189.432 69.424 187.416 66.832C185.4 64.24 184.392 60.424 184.392 55.384ZM250.011 70.72C246.987 70.72 244.323 70 242.019 68.56C239.715 67.12 237.891 65.248 236.547 62.944V85.336H228.627V32.344H235.611V39.112C237.051 36.856 238.923 35.056 241.227 33.712C243.531 32.368 246.099 31.696 248.931 31.696C252.387 31.696 255.435 32.608 258.075 34.432C260.763 36.208 262.875 38.584 264.411 41.56C265.947 44.488 266.715 47.68 266.715 51.136C266.715 54.784 265.995 58.096 264.555 61.072C263.115 64 261.147 66.352 258.651 68.128C256.155 69.856 253.275 70.72 250.011 70.72ZM247.419 63.952C249.675 63.952 251.619 63.352 253.251 62.152C254.931 60.904 256.227 59.32 257.139 57.4C258.099 55.432 258.579 53.344 258.579 51.136C258.579 48.832 258.051 46.72 256.995 44.8C255.987 42.88 254.595 41.344 252.819 40.192C251.091 39.04 249.099 38.464 246.843 38.464C245.499 38.464 244.083 38.8 242.595 39.472C241.155 40.144 239.883 41.032 238.779 42.136C237.675 43.24 236.931 44.488 236.547 45.88V55.744C237.507 58.048 238.971 59.992 240.939 61.576C242.955 63.16 245.115 63.952 247.419 63.952Z" fill="black"/>
<path d="M39 28.904L38.2443 29.5589L39.1811 30.6398L39.8746 29.3888L39 28.904ZM35.904 26.672L35.3983 27.5347L35.4156 27.5449L35.4334 27.5544L35.904 26.672ZM31.008 24.584L31.3021 23.6282L31.008 24.584ZM17.616 25.592L17.0086 24.7976L17.0028 24.802L16.9971 24.8065L17.616 25.592ZM16.608 34.664L15.883 35.3527L15.8918 35.362L15.9009 35.3711L16.608 34.664ZM20.784 37.04L20.4461 37.9812L20.4569 37.9851L20.4678 37.9887L20.784 37.04ZM27.84 38.984L27.6091 39.957L27.6102 39.9572L27.84 38.984ZM36.768 41.936L36.3489 42.844L36.3594 42.8488L36.3699 42.8533L36.768 41.936ZM42.6 46.4L41.7877 46.9832L41.7926 46.99L41.7975 46.9967L42.6 46.4ZM35.328 67.064L35.6491 68.0111L35.6584 68.0079L35.328 67.064ZM14.664 66.704L14.3515 67.6539L14.664 66.704ZM4.872 61.592L3.98888 61.1228L3.59169 61.8705L4.26357 62.3856L4.872 61.592ZM8.544 54.68L9.25111 53.9729L8.29515 53.0169L7.66088 54.2108L8.544 54.68ZM12.432 57.488L11.9209 58.3475L11.9296 58.3527L11.9384 58.3577L12.432 57.488ZM18.624 60.152L18.3136 61.1026L18.3251 61.1064L18.3367 61.1098L18.624 60.152ZM33.456 59.576L33.9944 60.4187L34.0026 60.4135L34.0107 60.4081L33.456 59.576ZM34.32 50.576L33.6288 51.2986L33.6448 51.314L33.6615 51.3286L34.32 50.576ZM29.496 47.984L29.1666 48.9282L29.1797 48.9327L29.1928 48.9369L29.496 47.984ZM22.008 45.752L22.2617 44.7847L22.257 44.7835L22.008 45.752ZM13.584 42.8L13.1444 43.6982L13.584 42.8ZM8.472 38.624L7.63629 39.1732L7.6417 39.1814L7.64727 39.1895L8.472 38.624ZM9.264 23.576L10.0801 24.154L10.0856 24.1461L9.264 23.576ZM15.888 18.32L16.2704 19.244L16.2781 19.2407L15.888 18.32ZM34.968 18.176L35.3208 17.2403H35.3208L34.968 18.176ZM42.672 22.28L43.5466 22.7648L43.972 21.9974L43.2664 21.4758L42.672 22.28ZM39.7557 28.2491C39.0138 27.3931 37.8569 26.5802 36.3746 25.7896L35.4334 27.5544C36.8311 28.2998 37.7382 28.9749 38.2443 29.5589L39.7557 28.2491ZM36.4097 25.8093C34.9386 24.9469 33.2329 24.2223 31.3021 23.6282L30.7139 25.5398C32.5271 26.0977 34.0854 26.7651 35.3983 27.5347L36.4097 25.8093ZM31.3021 23.6282C29.332 23.022 27.2887 22.72 25.176 22.72V24.72C27.0953 24.72 28.94 24.9939 30.7139 25.5398L31.3021 23.6282ZM25.176 22.72C21.6807 22.72 18.8969 23.3536 17.0086 24.7976L18.2234 26.3864C19.5991 25.3344 21.8554 24.72 25.176 24.72V22.72ZM16.9971 24.8065C15.1475 26.2638 14.24 28.2949 14.24 30.776H16.24C16.24 28.8411 16.9165 27.4162 18.2349 26.3775L16.9971 24.8065ZM14.24 30.776C14.24 32.6016 14.7555 34.1659 15.883 35.3527L17.333 33.9752C16.6365 33.2421 16.24 32.2144 16.24 30.776H14.24ZM15.9009 35.3711C16.9584 36.4286 18.5032 37.2837 20.4461 37.9812L21.1219 36.0988C19.3208 35.4523 18.0816 34.7234 17.3151 33.9569L15.9009 35.3711ZM20.4678 37.9887C22.3776 38.6253 24.7605 39.281 27.6091 39.957L28.0709 38.011C25.2555 37.343 22.9344 36.7027 21.1002 36.0913L20.4678 37.9887ZM27.6102 39.9572C31.0189 40.7621 33.9283 41.7267 36.3489 42.844L37.1871 41.028C34.6157 39.8413 31.5731 38.8379 28.0698 38.0108L27.6102 39.9572ZM36.3699 42.8533C38.782 43.9001 40.5686 45.2853 41.7877 46.9832L43.4123 45.8168C41.9434 43.7707 39.842 42.1799 37.1661 41.0187L36.3699 42.8533ZM41.7975 46.9967C43.026 48.6487 43.688 50.8911 43.688 53.816H45.688C45.688 50.5969 44.958 47.8953 43.4025 45.8033L41.7975 46.9967ZM43.688 53.816C43.688 57.1607 42.8879 59.7576 41.3787 61.6981L42.9574 62.9259C44.8081 60.5464 45.688 57.4793 45.688 53.816H43.688ZM41.3787 61.6981C39.83 63.6891 37.7177 65.1681 34.9977 66.1201L35.6584 68.0079C38.6983 66.9439 41.146 65.2549 42.9574 62.9259L41.3787 61.6981ZM35.007 66.1169C32.2917 67.0374 29.2818 67.504 25.968 67.504V69.504C29.4702 69.504 32.7003 69.0106 35.649 68.0111L35.007 66.1169ZM25.968 67.504C22.1848 67.504 18.5224 66.9205 14.9765 65.7541L14.3515 67.6539C18.1016 68.8875 21.9752 69.504 25.968 69.504V67.504ZM14.9765 65.7541C11.429 64.5871 8.26618 62.9341 5.48043 60.7984L4.26357 62.3856C7.23782 64.6659 10.603 66.4209 14.3515 67.6539L14.9765 65.7541ZM5.75512 62.0612L9.42712 55.1492L7.66088 54.2108L3.98888 61.1228L5.75512 62.0612ZM7.83689 55.3871C8.74054 56.2908 10.1202 57.2768 11.9209 58.3475L12.9431 56.6285C11.1918 55.5872 9.97946 54.7012 9.25111 53.9729L7.83689 55.3871ZM11.9384 58.3577C13.7833 59.4048 15.9108 60.318 18.3136 61.1026L18.9344 59.2014C16.6332 58.45 14.6327 57.5872 12.9256 56.6183L11.9384 58.3577ZM18.3367 61.1098C20.8331 61.8587 23.4261 62.232 26.112 62.232V60.232C23.6139 60.232 21.2149 59.8853 18.9113 59.1942L18.3367 61.1098ZM26.112 62.232C29.3748 62.232 32.0403 61.6671 33.9944 60.4187L32.9176 58.7333C31.4157 59.6929 29.1852 60.232 26.112 60.232V62.232ZM34.0107 60.4081C36.0225 59.0668 37.048 57.1195 37.048 54.68H35.048C35.048 56.4645 34.3455 57.7812 32.9013 58.7439L34.0107 60.4081ZM37.048 54.68C37.048 52.7051 36.3769 51.047 34.9785 49.8234L33.6615 51.3286C34.5671 52.121 35.048 53.1989 35.048 54.68H37.048ZM35.0112 49.8534C33.7589 48.6555 31.9958 47.73 29.7992 47.0311L29.1928 48.9369C31.2202 49.582 32.6731 50.3845 33.6288 51.2986L35.0112 49.8534ZM29.8254 47.0398C27.7291 46.3085 25.2063 45.5571 22.2617 44.7847L21.7543 46.7193C24.6657 47.4829 27.1349 48.2195 29.1666 48.9282L29.8254 47.0398ZM22.257 44.7835C18.9399 43.9305 16.2005 42.9671 14.0236 41.9018L13.1444 43.6982C15.4795 44.8409 18.3561 45.8455 21.759 46.7205L22.257 44.7835ZM14.0236 41.9018C11.8867 40.8561 10.3309 39.5666 9.29673 38.0585L7.64727 39.1895C8.91711 41.0414 10.7693 42.5359 13.1444 43.6982L14.0236 41.9018ZM9.30771 38.0748C8.34147 36.6045 7.816 34.6292 7.816 32.072H5.816C5.816 34.8908 6.39454 37.2835 7.63629 39.1732L9.30771 38.0748ZM7.816 32.072C7.816 28.8788 8.58908 26.2589 10.08 24.154L8.44798 22.998C6.67492 25.5011 5.816 28.5452 5.816 32.072H7.816ZM10.0856 24.1461C11.6023 21.9602 13.6539 20.3267 16.2704 19.244L15.5056 17.396C12.5541 18.6173 10.1897 20.4878 8.44241 23.0059L10.0856 24.1461ZM16.2781 19.2407C18.9707 18.0998 22.0035 17.52 25.392 17.52V15.52C21.7725 15.52 18.4693 16.1402 15.4979 17.3992L16.2781 19.2407ZM25.392 17.52C28.74 17.52 31.8111 18.0544 34.6152 19.1117L35.3208 17.2403C32.2689 16.0896 28.956 15.52 25.392 15.52V17.52ZM34.6152 19.1117C37.4688 20.1876 39.9532 21.5139 42.0776 23.0842L43.2664 21.4758C40.9748 19.782 38.3232 18.3724 35.3208 17.2403L34.6152 19.1117ZM41.7974 21.7952L38.1254 28.4192L39.8746 29.3888L43.5466 22.7648L41.7974 21.7952ZM51.7676 24.152H50.7676V25.152H51.7676V24.152ZM51.7676 15.44V14.44H50.7676V15.44H51.7676ZM59.6876 15.44H60.6876V14.44H59.6876V15.44ZM59.6876 24.152V25.152H60.6876V24.152H59.6876ZM51.7676 68H50.7676V69H51.7676V68ZM51.7676 30.344V29.344H50.7676V30.344H51.7676ZM59.6876 30.344H60.6876V29.344H59.6876V30.344ZM59.6876 68V69H60.6876V68H59.6876ZM52.7676 24.152V15.44H50.7676V24.152H52.7676ZM51.7676 16.44H59.6876V14.44H51.7676V16.44ZM58.6876 15.44V24.152H60.6876V15.44H58.6876ZM59.6876 23.152H51.7676V25.152H59.6876V23.152ZM52.7676 68V30.344H50.7676V68H52.7676ZM51.7676 31.344H59.6876V29.344H51.7676V31.344ZM58.6876 30.344V68H60.6876V30.344H58.6876ZM59.6876 67H51.7676V69H59.6876V67ZM75.1091 65.696L74.5367 66.516L74.5439 66.5209L75.1091 65.696ZM69.0611 58.712L68.1638 59.1533L68.1682 59.1622L68.1727 59.171L69.0611 58.712ZM69.1331 39.416L70.0275 39.8632L69.1331 39.416ZM75.2531 32.36L75.8078 33.1921L75.8113 33.1897L75.2531 32.36ZM92.3171 31.856L91.7791 32.699L91.7871 32.704L92.3171 31.856ZM98.0051 37.472L97.1651 38.0145L99.0051 40.8636V37.472H98.0051ZM98.0051 30.344V29.344H97.0051V30.344H98.0051ZM104.989 30.344H105.989V29.344H104.989V30.344ZM102.325 76.208L101.505 75.6355L101.498 75.6461L102.325 76.208ZM74.5331 81.896L74.0674 82.7809L74.0737 82.7842L74.5331 81.896ZM67.6211 75.992L66.938 75.2617L66.283 75.8745L66.8211 76.592L67.6211 75.992ZM72.0851 71.816L72.8989 71.2348L72.2355 70.306L71.402 71.0857L72.0851 71.816ZM77.6291 76.424L77.2052 77.3297L77.2125 77.3331L77.6291 76.424ZM90.9491 76.784L90.5696 75.8588L90.5551 75.8648L90.5408 75.8712L90.9491 76.784ZM97.0691 61.16H98.0691V57.5276L96.21 60.6482L97.0691 61.16ZM91.5251 66.488L91.9938 67.3713L92.0008 67.3676L92.0077 67.3638L91.5251 66.488ZM91.2371 60.944L91.66 61.8502L91.6723 61.8445L91.6843 61.8384L91.2371 60.944ZM94.9091 58.136L94.172 57.4603L94.1642 57.4688L94.1565 57.4775L94.9091 58.136ZM97.0691 54.464L98.0279 54.7481L98.0691 54.609V54.464H97.0691ZM97.0691 44.6H98.0691V44.4074L97.9976 44.2286L97.0691 44.6ZM92.5331 38.768L91.9271 39.5634L91.9376 39.5714L91.9483 39.5792L92.5331 38.768ZM80.1491 38.336L79.5527 37.5332L79.5417 37.5416L80.1491 38.336ZM76.3331 43.232L77.2405 43.6525L77.2442 43.6442L76.3331 43.232ZM76.4771 55.76L75.5917 56.2248L75.5987 56.2382L75.6061 56.2513L76.4771 55.76ZM80.7251 60.296L80.1809 61.135L80.189 61.1402L80.1972 61.1453L80.7251 60.296ZM84.1091 67.36C80.885 67.36 78.0857 66.5233 75.6744 64.8711L74.5439 66.5209C77.3165 68.4207 80.5173 69.36 84.1091 69.36V67.36ZM75.6815 64.876C73.2766 63.1971 71.3665 60.9955 69.9496 58.253L68.1727 59.171C69.7317 62.1885 71.8536 64.6429 74.5367 66.516L75.6815 64.876ZM69.9585 58.2707C68.589 55.4861 67.9011 52.47 67.9011 49.208H65.9011C65.9011 52.762 66.6532 56.0819 68.1638 59.1533L69.9585 58.2707ZM67.9011 49.208C67.9011 45.8005 68.6136 42.6911 70.0275 39.8632L68.2387 38.9688C66.6766 42.0929 65.9011 45.5115 65.9011 49.208H67.9011ZM70.0275 39.8632C71.4432 37.0319 73.3705 34.8169 75.8078 33.192L74.6984 31.5279C71.9518 33.3591 69.799 35.8481 68.2387 38.9688L70.0275 39.8632ZM75.8113 33.1897C78.272 31.5343 81.122 30.696 84.3971 30.696V28.696C80.7602 28.696 77.5142 29.6337 74.6949 31.5303L75.8113 33.1897ZM84.3971 30.696C87.256 30.696 89.704 31.3744 91.7791 32.6989L92.8552 31.0131C90.4183 29.4576 87.5863 28.696 84.3971 28.696V30.696ZM91.7871 32.704C93.9654 34.0654 95.756 35.8327 97.1651 38.0145L98.8452 36.9295C97.2783 34.5033 95.2769 32.5266 92.8471 31.008L91.7871 32.704ZM99.0051 37.472V30.344H97.0051V37.472H99.0051ZM98.0051 31.344H104.989V29.344H98.0051V31.344ZM103.989 30.344V66.92H105.989V30.344H103.989ZM103.989 66.92C103.989 70.4002 103.144 73.2874 101.505 75.6356L103.145 76.7804C105.058 74.0406 105.989 70.7358 105.989 66.92H103.989ZM101.498 75.6461C99.8827 78.0241 97.658 79.8519 94.791 81.1262L95.6033 82.9538C98.7842 81.5401 101.312 79.4799 103.152 76.7699L101.498 75.6461ZM94.791 81.1262C91.9122 82.4056 88.6455 83.056 84.9731 83.056V85.056C88.8847 85.056 92.4341 84.3624 95.6033 82.9538L94.791 81.1262ZM84.9731 83.056C80.9061 83.056 77.5953 82.354 74.9925 81.0078L74.0737 82.7842C77.0389 84.318 80.6882 85.056 84.9731 85.056V83.056ZM74.9989 81.0111C72.3953 79.6408 70.205 77.7706 68.4211 75.392L66.8211 76.592C68.7812 79.2055 71.199 81.2712 74.0674 82.7809L74.9989 81.0111ZM68.3043 76.7223L72.7683 72.5463L71.402 71.0857L66.938 75.2617L68.3043 76.7223ZM71.2714 72.3972C72.8119 74.5539 74.7944 76.2012 77.2052 77.3297L78.0531 75.5183C75.9518 74.5348 74.2384 73.1101 72.8989 71.2348L71.2714 72.3972ZM77.2125 77.3331C79.6502 78.4504 82.2407 79.008 84.9731 79.008V77.008C82.5216 77.008 80.216 76.5096 78.0458 75.5149L77.2125 77.3331ZM84.9731 79.008C87.2623 79.008 89.3949 78.5748 91.3575 77.6968L90.5408 75.8712C88.8554 76.6252 87.0039 77.008 84.9731 77.008V79.008ZM91.3287 77.7092C93.3777 76.8685 95.0239 75.5441 96.2414 73.7443L94.5848 72.6237C93.5943 74.0879 92.2645 75.1635 90.5696 75.8588L91.3287 77.7092ZM96.2414 73.7443C97.4858 71.9048 98.0691 69.606 98.0691 66.92H96.0691C96.0691 69.322 95.5485 71.1992 94.5848 72.6237L96.2414 73.7443ZM98.0691 66.92V61.16H96.0691V66.92H98.0691ZM96.21 60.6482C94.9591 62.748 93.2426 64.3999 91.0425 65.6122L92.0077 67.3638C94.5116 65.9841 96.4912 64.084 97.9282 61.6718L96.21 60.6482ZM91.0564 65.6047C88.8447 66.7782 86.5331 67.36 84.1091 67.36V69.36C86.8691 69.36 89.5016 68.6938 91.9938 67.3713L91.0564 65.6047ZM86.7011 62.952C88.4317 62.952 90.088 62.5838 91.66 61.8502L90.8142 60.0378C89.5062 60.6482 88.1385 60.952 86.7011 60.952V62.952ZM91.6843 61.8384C93.2344 61.0634 94.5638 60.0492 95.6617 58.7945L94.1565 57.4775C93.2384 58.5268 92.1199 59.3846 90.7899 60.0496L91.6843 61.8384ZM95.6463 58.8117C96.7889 57.5652 97.5945 56.2109 98.0279 54.7481L96.1103 54.1799C95.7758 55.3091 95.1413 56.4028 94.172 57.4603L95.6463 58.8117ZM98.0691 54.464V44.6H96.0691V54.464H98.0691ZM97.9976 44.2286C96.9683 41.6553 95.3385 39.5577 93.1179 37.9568L91.9483 39.5792C93.8558 40.9543 95.25 42.7447 96.1406 44.9714L97.9976 44.2286ZM93.1392 37.9726C90.9716 36.3211 88.6269 35.464 86.1251 35.464V37.464C88.1354 37.464 90.0627 38.1429 91.9271 39.5634L93.1392 37.9726ZM86.1251 35.464C83.6292 35.464 81.4227 36.1442 79.5528 37.5333L80.7455 39.1387C82.2355 38.0318 84.0131 37.464 86.1251 37.464V35.464ZM79.5417 37.5416C77.7684 38.8976 76.3967 40.6652 75.422 42.8198L77.2442 43.6442C78.0935 41.7668 79.2658 40.2704 80.7566 39.1304L79.5417 37.5416ZM75.4258 42.8115C74.453 44.9107 73.9651 47.1181 73.9651 49.424H75.9651C75.9651 47.4099 76.3892 45.4893 77.2404 43.6525L75.4258 42.8115ZM73.9651 49.424C73.9651 51.8795 74.5038 54.1525 75.5917 56.2248L77.3625 55.2952C76.4345 53.5275 75.9651 51.5765 75.9651 49.424H73.9651ZM75.6061 56.2513C76.7402 58.2616 78.2674 59.8938 80.1809 61.135L81.2693 59.457C79.6308 58.3942 78.3261 57.0024 77.3481 55.2687L75.6061 56.2513ZM80.1972 61.1453C82.1407 62.3534 84.3174 62.952 86.7011 62.952V60.952C84.6688 60.952 82.8616 60.4466 81.2531 59.4467L80.1972 61.1453ZM148.254 68V69H149.254V68H148.254ZM140.334 68H139.334V69H140.334V68ZM138.606 39.2L137.778 39.7603L137.788 39.7744L137.798 39.7882L138.606 39.2ZM129.03 37.904L128.583 37.0095L128.572 37.0154L129.03 37.904ZM122.406 45.608L121.452 45.3082L121.406 45.4546V45.608H122.406ZM122.406 68V69H123.406V68H122.406ZM114.486 68H113.486V69H114.486V68ZM114.486 30.344V29.344H113.486V30.344H114.486ZM121.686 30.344H122.686V29.344H121.686V30.344ZM121.686 37.904H120.686V41.6384L122.553 38.4037L121.686 37.904ZM127.95 31.928L127.473 31.0495L127.95 31.928ZM143.934 31.856L143.273 32.6058L143.279 32.6114L143.285 32.6168L143.934 31.856ZM148.254 67H140.334V69H148.254V67ZM141.334 68V46.904H139.334V68H141.334ZM141.334 46.904C141.334 43.2908 140.757 40.4576 139.415 38.6118L137.798 39.7882C138.759 41.1104 139.334 43.4132 139.334 46.904H141.334ZM139.435 38.6397C138.12 36.6961 136.131 35.752 133.638 35.752V37.752C135.561 37.752 136.885 38.4399 137.778 39.7603L139.435 38.6397ZM133.638 35.752C131.93 35.752 130.241 36.1804 128.583 37.0096L129.478 38.7984C130.891 38.0916 132.275 37.752 133.638 37.752V35.752ZM128.572 37.0154C126.967 37.8435 125.528 38.9778 124.252 40.406L125.744 41.738C126.869 40.4782 128.118 39.5005 129.489 38.7926L128.572 37.0154ZM124.252 40.406C122.96 41.8534 122.024 43.4895 121.452 45.3082L123.36 45.9078C123.845 44.3665 124.637 42.9786 125.744 41.738L124.252 40.406ZM121.406 45.608V68H123.406V45.608H121.406ZM122.406 67H114.486V69H122.406V67ZM115.486 68V30.344H113.486V68H115.486ZM114.486 31.344H121.686V29.344H114.486V31.344ZM120.686 30.344V37.904H122.686V30.344H120.686ZM122.553 38.4037C123.893 36.0802 125.84 34.2138 128.428 32.8065L127.473 31.0495C124.588 32.6182 122.36 34.7358 120.82 37.4043L122.553 38.4037ZM128.428 32.8065C131.008 31.4033 133.866 30.696 137.022 30.696V28.696C133.554 28.696 130.365 29.4767 127.473 31.0495L128.428 32.8065ZM137.022 30.696C139.845 30.696 141.881 31.378 143.273 32.6058L144.596 31.1062C142.724 29.454 140.152 28.696 137.022 28.696V30.696ZM143.285 32.6168C144.747 33.8635 145.776 35.5291 146.353 37.6614L148.284 37.1386C147.613 34.6629 146.386 32.6325 144.583 31.0952L143.285 32.6168ZM146.353 37.6614C146.951 39.8674 147.254 42.322 147.254 45.032H149.254C149.254 42.174 148.934 39.5406 148.284 37.1386L146.353 37.6614ZM147.254 45.032V68H149.254V45.032H147.254ZM157.087 51.872H156.087V52.872H157.087V51.872ZM157.087 44.744V43.744H156.087V44.744H157.087ZM178.615 44.744H179.615V43.744H178.615V44.744ZM178.615 51.872V52.872H179.615V51.872H178.615ZM158.087 51.872V44.744H156.087V51.872H158.087ZM157.087 45.744H178.615V43.744H157.087V45.744ZM177.615 44.744V51.872H179.615V44.744H177.615ZM178.615 50.872H157.087V52.872H178.615V50.872ZM187.392 30.344V29.344H186.392V30.344H187.392ZM195.312 30.344H196.312V29.344H195.312V30.344ZM208.92 59.864L209.488 60.6869L209.495 60.6824L209.501 60.6777L208.92 59.864ZM213.6 53.816L214.52 54.2079L214.6 54.0201V53.816H213.6ZM213.6 30.344V29.344H212.6V30.344H213.6ZM221.52 30.344H222.52V29.344H221.52V30.344ZM222.024 61.016L222.777 60.3575V60.3575L222.024 61.016ZM223.68 61.664H224.68V60.7245L223.742 60.6659L223.68 61.664ZM223.68 68L223.854 68.9848L224.68 68.839V68H223.68ZM221.664 68.288L221.573 67.2921L221.664 68.288ZM216.552 67.208L217.177 66.4271L216.552 67.208ZM214.896 64.112L213.897 64.1504L213.898 64.1865L213.902 64.2224L214.896 64.112ZM214.752 60.368L215.751 60.3296L215.625 57.0359L213.9 59.8447L214.752 60.368ZM208.2 66.632L208.66 67.5201L208.672 67.5135L208.2 66.632ZM190.416 64.832L191.205 64.2181L190.416 64.832ZM188.392 53.384V30.344H186.392V53.384H188.392ZM187.392 31.344H195.312V29.344H187.392V31.344ZM194.312 30.344V51.8H196.312V30.344H194.312ZM194.312 51.8C194.312 55.2718 194.922 58.0548 196.296 59.9925C197.715 61.9932 199.846 62.952 202.512 62.952V60.952C200.378 60.952 198.909 60.2188 197.928 58.8355C196.902 57.3892 196.312 55.0962 196.312 51.8H194.312ZM202.512 62.952C204.989 62.952 207.32 62.1838 209.488 60.6869L208.352 59.0411C206.488 60.3282 204.547 60.952 202.512 60.952V62.952ZM209.501 60.6777C211.686 59.1169 213.354 56.9452 214.52 54.2079L212.68 53.4241C211.638 55.8708 210.186 57.7311 208.339 59.0503L209.501 60.6777ZM214.6 53.816V30.344H212.6V53.816H214.6ZM213.6 31.344H221.52V29.344H213.6V31.344ZM220.52 30.344V59.072H222.52V30.344H220.52ZM220.52 59.072C220.52 60.0547 220.691 61.011 221.271 61.6745L222.777 60.3575C222.685 60.253 222.52 59.9133 222.52 59.072H220.52ZM221.271 61.6745C221.855 62.3414 222.717 62.6058 223.618 62.6621L223.742 60.6659C223.107 60.6262 222.865 60.4586 222.777 60.3575L221.271 61.6745ZM222.68 61.664V68H224.68V61.664H222.68ZM223.506 67.0152C222.704 67.1567 222.063 67.2476 221.573 67.2921L221.755 69.2839C222.321 69.2324 223.024 69.1313 223.854 68.9848L223.506 67.0152ZM221.573 67.2921C221.072 67.3376 220.599 67.36 220.152 67.36V69.36C220.665 69.36 221.2 69.3344 221.755 69.2839L221.573 67.2921ZM220.152 67.36C218.898 67.36 217.93 67.0298 217.177 66.4271L215.927 67.9889C217.094 68.9222 218.526 69.36 220.152 69.36V67.36ZM217.177 66.4271C216.437 65.8356 216.007 65.0517 215.89 64.0016L213.902 64.2224C214.073 65.7643 214.747 67.0444 215.927 67.9889L217.177 66.4271ZM215.895 64.0736L215.751 60.3296L213.753 60.4064L213.897 64.1504L215.895 64.0736ZM213.9 59.8447C212.307 62.4381 210.251 64.3987 207.728 65.7505L208.672 67.5135C211.525 65.9854 213.837 63.7699 215.604 60.8913L213.9 59.8447ZM207.74 65.744C205.203 67.0578 202.41 67.72 199.344 67.72V69.72C202.71 69.72 205.821 68.9902 208.66 67.52L207.74 65.744ZM199.344 67.72C195.648 67.72 192.993 66.5171 191.205 64.2181L189.627 65.4459C191.871 68.3309 195.168 69.72 199.344 69.72V67.72ZM191.205 64.2181C189.382 61.8735 188.392 58.3141 188.392 53.384H186.392C186.392 58.5339 187.418 62.6065 189.627 65.4459L191.205 64.2181ZM245.019 66.56L244.489 67.408L245.019 66.56ZM239.547 60.944L240.411 60.4401L238.547 57.2451V60.944H239.547ZM239.547 83.336V84.336H240.547V83.336H239.547ZM231.627 83.336H230.627V84.336H231.627V83.336ZM231.627 30.344V29.344H230.627V30.344H231.627ZM238.611 30.344H239.611V29.344H238.611V30.344ZM238.611 37.112H237.611V40.5373L239.454 37.65L238.611 37.112ZM244.227 31.712L244.731 32.5758L244.227 31.712ZM261.075 32.432L260.507 33.2547L260.515 33.2606L260.524 33.2663L261.075 32.432ZM267.411 39.56L266.522 40.0187L266.525 40.0245L267.411 39.56ZM267.555 59.072L268.452 59.5133L268.455 59.5076L267.555 59.072ZM261.651 66.128L262.22 66.9503L262.231 66.9428L261.651 66.128ZM256.251 60.152L256.843 60.9577L256.847 60.9547L256.251 60.152ZM260.139 55.4L259.24 54.9616L259.236 54.9709L260.139 55.4ZM259.995 42.8L259.11 43.2648L259.114 43.2734L259.119 43.2819L259.995 42.8ZM255.819 38.192L255.264 39.0241L255.275 39.031L255.819 38.192ZM245.595 37.472L245.183 36.5606L245.172 36.5658L245.595 37.472ZM241.779 40.136L242.486 40.8431L241.779 40.136ZM239.547 43.88L238.583 43.6141L238.547 43.7446V43.88H239.547ZM239.547 53.744H238.547V53.944L238.624 54.1286L239.547 53.744ZM243.939 59.576L243.312 60.3551L243.321 60.3623L243.939 59.576ZM253.011 67.72C250.153 67.72 247.677 67.0417 245.549 65.712L244.489 67.408C246.969 68.9583 249.821 69.72 253.011 69.72V67.72ZM245.549 65.712C243.38 64.3563 241.671 62.6014 240.411 60.4401L238.683 61.4479C240.111 63.8946 242.05 65.8837 244.489 67.408L245.549 65.712ZM238.547 60.944V83.336H240.547V60.944H238.547ZM239.547 82.336H231.627V84.336H239.547V82.336ZM232.627 83.336V30.344H230.627V83.336H232.627ZM231.627 31.344H238.611V29.344H231.627V31.344ZM237.611 30.344V37.112H239.611V30.344H237.611ZM239.454 37.65C240.809 35.5275 242.565 33.8394 244.731 32.5758L243.723 30.8482C241.281 32.2726 239.293 34.1845 237.768 36.574L239.454 37.65ZM244.731 32.5758C246.872 31.3265 249.265 30.696 251.931 30.696V28.696C248.933 28.696 246.19 29.4095 243.723 30.8482L244.731 32.5758ZM251.931 30.696C255.2 30.696 258.047 31.5552 260.507 33.2547L261.643 31.6093C258.823 29.6608 255.574 28.696 251.931 28.696V30.696ZM260.524 33.2663C263.063 34.9442 265.062 37.1884 266.522 40.0186L268.3 39.1014C266.688 35.9796 264.463 33.4718 261.626 31.5977L260.524 33.2663ZM266.525 40.0245C267.983 42.8027 268.715 45.8343 268.715 49.136H270.715C270.715 45.5257 269.911 42.1733 268.297 39.0955L266.525 40.0245ZM268.715 49.136C268.715 52.6489 268.023 55.8098 266.655 58.6364L268.455 59.5076C269.967 56.3822 270.715 52.9191 270.715 49.136H268.715ZM266.658 58.6307C265.286 61.4198 263.423 63.6397 261.071 65.3132L262.231 66.9428C264.871 65.0643 266.944 62.5802 268.452 59.5133L266.658 58.6307ZM261.082 65.3058C258.766 66.9092 256.088 67.72 253.011 67.72V69.72C256.462 69.72 259.544 68.8028 262.22 66.9502L261.082 65.3058ZM250.419 62.952C252.863 62.952 255.02 62.2982 256.843 60.9576L255.659 59.3463C254.218 60.4058 252.487 60.952 250.419 60.952V62.952ZM256.847 60.9547C258.661 59.6076 260.061 57.8944 261.042 55.8291L259.236 54.9709C258.393 56.7456 257.201 58.2004 255.655 59.3493L256.847 60.9547ZM261.038 55.8384C262.065 53.7327 262.579 51.4946 262.579 49.136H260.579C260.579 51.1934 260.133 53.1313 259.24 54.9616L261.038 55.8384ZM262.579 49.136C262.579 46.6725 262.013 44.3934 260.871 42.3181L259.119 43.2819C260.089 45.0466 260.579 46.9915 260.579 49.136H262.579ZM260.88 42.3352C259.795 40.2671 258.287 38.6008 256.363 37.353L255.275 39.031C256.903 40.0872 258.179 41.4929 259.11 43.2648L260.88 42.3352ZM256.374 37.3599C254.467 36.089 252.279 35.464 249.843 35.464V37.464C251.919 37.464 253.715 37.991 255.264 39.024L256.374 37.3599ZM249.843 35.464C248.33 35.464 246.774 35.8425 245.183 36.5606L246.007 38.3834C247.392 37.7575 248.668 37.464 249.843 37.464V35.464ZM245.172 36.5658C243.628 37.2862 242.26 38.241 241.072 39.4289L242.486 40.8431C243.506 39.823 244.682 39.0018 246.018 38.3782L245.172 36.5658ZM241.072 39.4289C239.856 40.645 239.017 42.0418 238.583 43.6141L240.511 44.1459C240.845 42.9342 241.494 41.835 242.486 40.8431L241.072 39.4289ZM238.547 43.88V53.744H240.547V43.88H238.547ZM238.624 54.1286C239.649 56.5887 241.216 58.6677 243.312 60.355L244.566 58.797C242.726 57.3163 241.365 55.5073 240.47 53.3594L238.624 54.1286ZM243.321 60.3623C245.492 62.0682 247.866 62.952 250.419 62.952V60.952C248.364 60.952 246.418 60.2518 244.557 58.7897L243.321 60.3623Z" fill="black"/>
</svg>
